M48
; DRILL file {KiCad 6.0.0} date Sat 15 Jan 2022 12:53:04 CET
; FORMAT={-:-/ absolute / inch / decimal}
; #@! TF.CreationDate,2022-01-15T12:53:04+01:00
; #@! TF.GenerationSoftware,Kicad,Pcbnew,6.0.0
; #@! TF.FileFunction,Plated,1,2,PTH
FMAT,2
INCH
; #@! TA.AperFunction,Plated,PTH,ViaDrill
T1C0.0079
; #@! TA.AperFunction,Plated,PTH,ComponentDrill
T2C0.0236
; #@! TA.AperFunction,Plated,PTH,ComponentDrill
T3C0.0256
; #@! TA.AperFunction,Plated,PTH,ComponentDrill
T4C0.0354
; #@! TA.AperFunction,Plated,PTH,ComponentDrill
T5C0.0394
%
G90
G05
T1
X3.9173Y-3.9567
X3.9469Y-4.0256
X4.0945Y-3.622
X4.1457Y-4.3268
X4.2638Y-4.1811
X4.2677Y-4.0512
X4.2815Y-3.5827
X4.3898Y-3.685
X4.4685Y-3.9331
X4.4824Y-3.6339
X4.4961Y-3.9331
X4.5Y-3.5866
X4.5157Y-3.6142
X4.5236Y-3.9213
X4.5945Y-3.5315
X4.6141Y-3.5735
X4.622Y-3.7087
X4.6654Y-4.0906
X4.6732Y-3.5472
X4.9289Y-4.3088
X4.9646Y-3.9331
X5.248Y-4.1732
X5.252Y-4.2126
X5.2529Y-3.5403
X5.2559Y-3.5039
T4
X3.9528Y-3.7677
X3.9528Y-3.8677
T5
X4.2Y-3.5827
X4.2Y-3.6827
X4.2Y-3.7827
X4.2Y-3.8827
X4.2Y-3.9827
X4.2Y-4.0827
X5.2Y-3.5827
X5.2Y-3.6827
X5.2Y-3.7827
X5.2Y-3.8827
X5.2Y-3.9827
X5.2Y-4.0827
T2
G00X5.5354Y-3.6545
M15
G01X5.5079Y-3.6545
M16
G05
G00X5.5354Y-3.9833
M15
G01X5.5079Y-3.9833
M16
G05
T3
G00X5.4075Y-3.7313
M15
G01X5.3996Y-3.7313
M16
G05
G00X5.4075Y-3.9065
M15
G01X5.3996Y-3.9065
M16
G05
T0
M30
