%TF.GenerationSoftware,KiCad,Pcbnew,6.0.0*%
%TF.CreationDate,2022-01-15T13:45:40+01:00*%
%TF.ProjectId,ir_daughter_board,69725f64-6175-4676-9874-65725f626f61,rev?*%
%TF.SameCoordinates,Original*%
%TF.FileFunction,Legend,Top*%
%TF.FilePolarity,Positive*%
%FSLAX46Y46*%
G04 Gerber Fmt 4.6, Leading zero omitted, Abs format (unit mm)*
G04 Created by KiCad (PCBNEW 6.0.0) date 2022-01-15 13:45:40*
%MOMM*%
%LPD*%
G01*
G04 APERTURE LIST*
%ADD10C,0.150000*%
%ADD11C,0.100000*%
%ADD12C,0.120000*%
G04 APERTURE END LIST*
D10*
X126047619Y-92130952D02*
X125333333Y-92130952D01*
X125190476Y-92083333D01*
X125095238Y-91988095D01*
X125047619Y-91845238D01*
X125047619Y-91750000D01*
X125047619Y-93083333D02*
X125047619Y-92607142D01*
X126047619Y-92607142D01*
X125142857Y-93988095D02*
X125095238Y-93940476D01*
X125047619Y-93797619D01*
X125047619Y-93702380D01*
X125095238Y-93559523D01*
X125190476Y-93464285D01*
X125285714Y-93416666D01*
X125476190Y-93369047D01*
X125619047Y-93369047D01*
X125809523Y-93416666D01*
X125904761Y-93464285D01*
X126000000Y-93559523D01*
X126047619Y-93702380D01*
X126047619Y-93797619D01*
X126000000Y-93940476D01*
X125952380Y-93988095D01*
X126047619Y-94702380D02*
X125333333Y-94702380D01*
X125190476Y-94654761D01*
X125095238Y-94559523D01*
X125047619Y-94416666D01*
X125047619Y-94321428D01*
X125047619Y-95654761D02*
X125047619Y-95178571D01*
X126047619Y-95178571D01*
X125142857Y-96559523D02*
X125095238Y-96511904D01*
X125047619Y-96369047D01*
X125047619Y-96273809D01*
X125095238Y-96130952D01*
X125190476Y-96035714D01*
X125285714Y-95988095D01*
X125476190Y-95940476D01*
X125619047Y-95940476D01*
X125809523Y-95988095D01*
X125904761Y-96035714D01*
X126000000Y-96130952D01*
X126047619Y-96273809D01*
X126047619Y-96369047D01*
X126000000Y-96511904D01*
X125952380Y-96559523D01*
X126047619Y-97273809D02*
X125333333Y-97273809D01*
X125190476Y-97226190D01*
X125095238Y-97130952D01*
X125047619Y-96988095D01*
X125047619Y-96892857D01*
X125047619Y-98226190D02*
X125047619Y-97750000D01*
X126047619Y-97750000D01*
X125142857Y-99130952D02*
X125095238Y-99083333D01*
X125047619Y-98940476D01*
X125047619Y-98845238D01*
X125095238Y-98702380D01*
X125190476Y-98607142D01*
X125285714Y-98559523D01*
X125476190Y-98511904D01*
X125619047Y-98511904D01*
X125809523Y-98559523D01*
X125904761Y-98607142D01*
X126000000Y-98702380D01*
X126047619Y-98845238D01*
X126047619Y-98940476D01*
X126000000Y-99083333D01*
X125952380Y-99130952D01*
X126047619Y-99845238D02*
X125333333Y-99845238D01*
X125190476Y-99797619D01*
X125095238Y-99702380D01*
X125047619Y-99559523D01*
X125047619Y-99464285D01*
X125047619Y-100797619D02*
X125047619Y-100321428D01*
X126047619Y-100321428D01*
X125142857Y-101702380D02*
X125095238Y-101654761D01*
X125047619Y-101511904D01*
X125047619Y-101416666D01*
X125095238Y-101273809D01*
X125190476Y-101178571D01*
X125285714Y-101130952D01*
X125476190Y-101083333D01*
X125619047Y-101083333D01*
X125809523Y-101130952D01*
X125904761Y-101178571D01*
X126000000Y-101273809D01*
X126047619Y-101416666D01*
X126047619Y-101511904D01*
X126000000Y-101654761D01*
X125952380Y-101702380D01*
%TO.C,U3*%
X128952380Y-90761904D02*
X129761904Y-90761904D01*
X129857142Y-90714285D01*
X129904761Y-90666666D01*
X129952380Y-90571428D01*
X129952380Y-90380952D01*
X129904761Y-90285714D01*
X129857142Y-90238095D01*
X129761904Y-90190476D01*
X128952380Y-90190476D01*
X128952380Y-89809523D02*
X128952380Y-89190476D01*
X129333333Y-89523809D01*
X129333333Y-89380952D01*
X129380952Y-89285714D01*
X129428571Y-89238095D01*
X129523809Y-89190476D01*
X129761904Y-89190476D01*
X129857142Y-89238095D01*
X129904761Y-89285714D01*
X129952380Y-89380952D01*
X129952380Y-89666666D01*
X129904761Y-89761904D01*
X129857142Y-89809523D01*
%TO.C,SW1*%
X108592857Y-104728571D02*
X108735714Y-104776190D01*
X108783333Y-104823809D01*
X108830952Y-104919047D01*
X108830952Y-105061904D01*
X108783333Y-105157142D01*
X108735714Y-105204761D01*
X108640476Y-105252380D01*
X108259523Y-105252380D01*
X108259523Y-104252380D01*
X108592857Y-104252380D01*
X108688095Y-104300000D01*
X108735714Y-104347619D01*
X108783333Y-104442857D01*
X108783333Y-104538095D01*
X108735714Y-104633333D01*
X108688095Y-104680952D01*
X108592857Y-104728571D01*
X108259523Y-104728571D01*
X109450000Y-104252380D02*
X109640476Y-104252380D01*
X109735714Y-104300000D01*
X109830952Y-104395238D01*
X109878571Y-104585714D01*
X109878571Y-104919047D01*
X109830952Y-105109523D01*
X109735714Y-105204761D01*
X109640476Y-105252380D01*
X109450000Y-105252380D01*
X109354761Y-105204761D01*
X109259523Y-105109523D01*
X109211904Y-104919047D01*
X109211904Y-104585714D01*
X109259523Y-104395238D01*
X109354761Y-104300000D01*
X109450000Y-104252380D01*
X110497619Y-104252380D02*
X110688095Y-104252380D01*
X110783333Y-104300000D01*
X110878571Y-104395238D01*
X110926190Y-104585714D01*
X110926190Y-104919047D01*
X110878571Y-105109523D01*
X110783333Y-105204761D01*
X110688095Y-105252380D01*
X110497619Y-105252380D01*
X110402380Y-105204761D01*
X110307142Y-105109523D01*
X110259523Y-104919047D01*
X110259523Y-104585714D01*
X110307142Y-104395238D01*
X110402380Y-104300000D01*
X110497619Y-104252380D01*
X111211904Y-104252380D02*
X111783333Y-104252380D01*
X111497619Y-105252380D02*
X111497619Y-104252380D01*
%TO.C,D4*%
X128909523Y-111202380D02*
X128909523Y-112011904D01*
X128957142Y-112107142D01*
X129004761Y-112154761D01*
X129100000Y-112202380D01*
X129290476Y-112202380D01*
X129385714Y-112154761D01*
X129433333Y-112107142D01*
X129480952Y-112011904D01*
X129480952Y-111202380D01*
X129909523Y-112154761D02*
X130052380Y-112202380D01*
X130290476Y-112202380D01*
X130385714Y-112154761D01*
X130433333Y-112107142D01*
X130480952Y-112011904D01*
X130480952Y-111916666D01*
X130433333Y-111821428D01*
X130385714Y-111773809D01*
X130290476Y-111726190D01*
X130100000Y-111678571D01*
X130004761Y-111630952D01*
X129957142Y-111583333D01*
X129909523Y-111488095D01*
X129909523Y-111392857D01*
X129957142Y-111297619D01*
X130004761Y-111250000D01*
X130100000Y-111202380D01*
X130338095Y-111202380D01*
X130480952Y-111250000D01*
X131242857Y-111678571D02*
X131385714Y-111726190D01*
X131433333Y-111773809D01*
X131480952Y-111869047D01*
X131480952Y-112011904D01*
X131433333Y-112107142D01*
X131385714Y-112154761D01*
X131290476Y-112202380D01*
X130909523Y-112202380D01*
X130909523Y-111202380D01*
X131242857Y-111202380D01*
X131338095Y-111250000D01*
X131385714Y-111297619D01*
X131433333Y-111392857D01*
X131433333Y-111488095D01*
X131385714Y-111583333D01*
X131338095Y-111630952D01*
X131242857Y-111678571D01*
X130909523Y-111678571D01*
X132480952Y-112107142D02*
X132433333Y-112154761D01*
X132290476Y-112202380D01*
X132195238Y-112202380D01*
X132052380Y-112154761D01*
X131957142Y-112059523D01*
X131909523Y-111964285D01*
X131861904Y-111773809D01*
X131861904Y-111630952D01*
X131909523Y-111440476D01*
X131957142Y-111345238D01*
X132052380Y-111250000D01*
X132195238Y-111202380D01*
X132290476Y-111202380D01*
X132433333Y-111250000D01*
X132480952Y-111297619D01*
X133242857Y-111678571D02*
X132909523Y-111678571D01*
X132909523Y-112202380D02*
X132909523Y-111202380D01*
X133385714Y-111202380D01*
X134290476Y-111250000D02*
X134195238Y-111202380D01*
X134052380Y-111202380D01*
X133909523Y-111250000D01*
X133814285Y-111345238D01*
X133766666Y-111440476D01*
X133719047Y-111630952D01*
X133719047Y-111773809D01*
X133766666Y-111964285D01*
X133814285Y-112059523D01*
X133909523Y-112154761D01*
X134052380Y-112202380D01*
X134147619Y-112202380D01*
X134290476Y-112154761D01*
X134338095Y-112107142D01*
X134338095Y-111773809D01*
X134147619Y-111773809D01*
%TO.C,J3*%
X134666666Y-88452380D02*
X134666666Y-89166666D01*
X134619047Y-89309523D01*
X134523809Y-89404761D01*
X134380952Y-89452380D01*
X134285714Y-89452380D01*
X135047619Y-88452380D02*
X135666666Y-88452380D01*
X135333333Y-88833333D01*
X135476190Y-88833333D01*
X135571428Y-88880952D01*
X135619047Y-88928571D01*
X135666666Y-89023809D01*
X135666666Y-89261904D01*
X135619047Y-89357142D01*
X135571428Y-89404761D01*
X135476190Y-89452380D01*
X135190476Y-89452380D01*
X135095238Y-89404761D01*
X135047619Y-89357142D01*
X133905809Y-101739380D02*
X133905809Y-100739380D01*
X134572476Y-100739380D02*
X134762952Y-100739380D01*
X134858190Y-100787000D01*
X134953428Y-100882238D01*
X135001047Y-101072714D01*
X135001047Y-101406047D01*
X134953428Y-101596523D01*
X134858190Y-101691761D01*
X134762952Y-101739380D01*
X134572476Y-101739380D01*
X134477238Y-101691761D01*
X134382000Y-101596523D01*
X134334380Y-101406047D01*
X134334380Y-101072714D01*
X134382000Y-100882238D01*
X134477238Y-100787000D01*
X134572476Y-100739380D01*
X135620095Y-100739380D02*
X135715333Y-100739380D01*
X135810571Y-100787000D01*
X135858190Y-100834619D01*
X135905809Y-100929857D01*
X135953428Y-101120333D01*
X135953428Y-101358428D01*
X135905809Y-101548904D01*
X135858190Y-101644142D01*
X135810571Y-101691761D01*
X135715333Y-101739380D01*
X135620095Y-101739380D01*
X135524857Y-101691761D01*
X135477238Y-101644142D01*
X135429619Y-101548904D01*
X135382000Y-101358428D01*
X135382000Y-101120333D01*
X135429619Y-100929857D01*
X135477238Y-100834619D01*
X135524857Y-100787000D01*
X135620095Y-100739380D01*
X136810571Y-101072714D02*
X136810571Y-101739380D01*
X136572476Y-100691761D02*
X136334380Y-101406047D01*
X136953428Y-101406047D01*
X133761904Y-96246666D02*
X134238095Y-96246666D01*
X133666666Y-96532380D02*
X134000000Y-95532380D01*
X134333333Y-96532380D01*
X134666666Y-96532380D02*
X134666666Y-95532380D01*
X134904761Y-95532380D01*
X135047619Y-95580000D01*
X135142857Y-95675238D01*
X135190476Y-95770476D01*
X135238095Y-95960952D01*
X135238095Y-96103809D01*
X135190476Y-96294285D01*
X135142857Y-96389523D01*
X135047619Y-96484761D01*
X134904761Y-96532380D01*
X134666666Y-96532380D01*
X136238095Y-96437142D02*
X136190476Y-96484761D01*
X136047619Y-96532380D01*
X135952380Y-96532380D01*
X135809523Y-96484761D01*
X135714285Y-96389523D01*
X135666666Y-96294285D01*
X135619047Y-96103809D01*
X135619047Y-95960952D01*
X135666666Y-95770476D01*
X135714285Y-95675238D01*
X135809523Y-95580000D01*
X135952380Y-95532380D01*
X136047619Y-95532380D01*
X136190476Y-95580000D01*
X136238095Y-95627619D01*
X134493095Y-90373000D02*
X134397857Y-90325380D01*
X134255000Y-90325380D01*
X134112142Y-90373000D01*
X134016904Y-90468238D01*
X133969285Y-90563476D01*
X133921666Y-90753952D01*
X133921666Y-90896809D01*
X133969285Y-91087285D01*
X134016904Y-91182523D01*
X134112142Y-91277761D01*
X134255000Y-91325380D01*
X134350238Y-91325380D01*
X134493095Y-91277761D01*
X134540714Y-91230142D01*
X134540714Y-90896809D01*
X134350238Y-90896809D01*
X134969285Y-91325380D02*
X134969285Y-90325380D01*
X135540714Y-91325380D01*
X135540714Y-90325380D01*
X136016904Y-91325380D02*
X136016904Y-90325380D01*
X136255000Y-90325380D01*
X136397857Y-90373000D01*
X136493095Y-90468238D01*
X136540714Y-90563476D01*
X136588333Y-90753952D01*
X136588333Y-90896809D01*
X136540714Y-91087285D01*
X136493095Y-91182523D01*
X136397857Y-91277761D01*
X136255000Y-91325380D01*
X136016904Y-91325380D01*
X133889904Y-103279380D02*
X134508952Y-103279380D01*
X134175619Y-103660333D01*
X134318476Y-103660333D01*
X134413714Y-103707952D01*
X134461333Y-103755571D01*
X134508952Y-103850809D01*
X134508952Y-104088904D01*
X134461333Y-104184142D01*
X134413714Y-104231761D01*
X134318476Y-104279380D01*
X134032761Y-104279380D01*
X133937523Y-104231761D01*
X133889904Y-104184142D01*
X134794666Y-103279380D02*
X135128000Y-104279380D01*
X135461333Y-103279380D01*
X135699428Y-103279380D02*
X136318476Y-103279380D01*
X135985142Y-103660333D01*
X136128000Y-103660333D01*
X136223238Y-103707952D01*
X136270857Y-103755571D01*
X136318476Y-103850809D01*
X136318476Y-104088904D01*
X136270857Y-104184142D01*
X136223238Y-104231761D01*
X136128000Y-104279380D01*
X135842285Y-104279380D01*
X135747047Y-104231761D01*
X135699428Y-104184142D01*
X133623809Y-98702380D02*
X133623809Y-97702380D01*
X134290476Y-97702380D02*
X134480952Y-97702380D01*
X134576190Y-97750000D01*
X134671428Y-97845238D01*
X134719047Y-98035714D01*
X134719047Y-98369047D01*
X134671428Y-98559523D01*
X134576190Y-98654761D01*
X134480952Y-98702380D01*
X134290476Y-98702380D01*
X134195238Y-98654761D01*
X134100000Y-98559523D01*
X134052380Y-98369047D01*
X134052380Y-98035714D01*
X134100000Y-97845238D01*
X134195238Y-97750000D01*
X134290476Y-97702380D01*
X135338095Y-97702380D02*
X135433333Y-97702380D01*
X135528571Y-97750000D01*
X135576190Y-97797619D01*
X135623809Y-97892857D01*
X135671428Y-98083333D01*
X135671428Y-98321428D01*
X135623809Y-98511904D01*
X135576190Y-98607142D01*
X135528571Y-98654761D01*
X135433333Y-98702380D01*
X135338095Y-98702380D01*
X135242857Y-98654761D01*
X135195238Y-98607142D01*
X135147619Y-98511904D01*
X135100000Y-98321428D01*
X135100000Y-98083333D01*
X135147619Y-97892857D01*
X135195238Y-97797619D01*
X135242857Y-97750000D01*
X135338095Y-97702380D01*
X136576190Y-97702380D02*
X136100000Y-97702380D01*
X136052380Y-98178571D01*
X136100000Y-98130952D01*
X136195238Y-98083333D01*
X136433333Y-98083333D01*
X136528571Y-98130952D01*
X136576190Y-98178571D01*
X136623809Y-98273809D01*
X136623809Y-98511904D01*
X136576190Y-98607142D01*
X136528571Y-98654761D01*
X136433333Y-98702380D01*
X136195238Y-98702380D01*
X136100000Y-98654761D01*
X136052380Y-98607142D01*
X133773809Y-93952380D02*
X133773809Y-92952380D01*
X134440476Y-92952380D02*
X134630952Y-92952380D01*
X134726190Y-93000000D01*
X134821428Y-93095238D01*
X134869047Y-93285714D01*
X134869047Y-93619047D01*
X134821428Y-93809523D01*
X134726190Y-93904761D01*
X134630952Y-93952380D01*
X134440476Y-93952380D01*
X134345238Y-93904761D01*
X134250000Y-93809523D01*
X134202380Y-93619047D01*
X134202380Y-93285714D01*
X134250000Y-93095238D01*
X134345238Y-93000000D01*
X134440476Y-92952380D01*
X135821428Y-93952380D02*
X135250000Y-93952380D01*
X135535714Y-93952380D02*
X135535714Y-92952380D01*
X135440476Y-93095238D01*
X135345238Y-93190476D01*
X135250000Y-93238095D01*
X136678571Y-92952380D02*
X136488095Y-92952380D01*
X136392857Y-93000000D01*
X136345238Y-93047619D01*
X136250000Y-93190476D01*
X136202380Y-93380952D01*
X136202380Y-93761904D01*
X136250000Y-93857142D01*
X136297619Y-93904761D01*
X136392857Y-93952380D01*
X136583333Y-93952380D01*
X136678571Y-93904761D01*
X136726190Y-93857142D01*
X136773809Y-93761904D01*
X136773809Y-93523809D01*
X136726190Y-93428571D01*
X136678571Y-93380952D01*
X136583333Y-93333333D01*
X136392857Y-93333333D01*
X136297619Y-93380952D01*
X136250000Y-93428571D01*
X136202380Y-93523809D01*
%TO.C,SW2*%
X118947619Y-105452380D02*
X118614285Y-104976190D01*
X118376190Y-105452380D02*
X118376190Y-104452380D01*
X118757142Y-104452380D01*
X118852380Y-104500000D01*
X118900000Y-104547619D01*
X118947619Y-104642857D01*
X118947619Y-104785714D01*
X118900000Y-104880952D01*
X118852380Y-104928571D01*
X118757142Y-104976190D01*
X118376190Y-104976190D01*
X119376190Y-104928571D02*
X119709523Y-104928571D01*
X119852380Y-105452380D02*
X119376190Y-105452380D01*
X119376190Y-104452380D01*
X119852380Y-104452380D01*
X120233333Y-105404761D02*
X120376190Y-105452380D01*
X120614285Y-105452380D01*
X120709523Y-105404761D01*
X120757142Y-105357142D01*
X120804761Y-105261904D01*
X120804761Y-105166666D01*
X120757142Y-105071428D01*
X120709523Y-105023809D01*
X120614285Y-104976190D01*
X120423809Y-104928571D01*
X120328571Y-104880952D01*
X120280952Y-104833333D01*
X120233333Y-104738095D01*
X120233333Y-104642857D01*
X120280952Y-104547619D01*
X120328571Y-104500000D01*
X120423809Y-104452380D01*
X120661904Y-104452380D01*
X120804761Y-104500000D01*
X121233333Y-104928571D02*
X121566666Y-104928571D01*
X121709523Y-105452380D02*
X121233333Y-105452380D01*
X121233333Y-104452380D01*
X121709523Y-104452380D01*
X121995238Y-104452380D02*
X122566666Y-104452380D01*
X122280952Y-105452380D02*
X122280952Y-104452380D01*
%TO.C,D2*%
X128693452Y-105952380D02*
X129264880Y-105952380D01*
X128979166Y-106952380D02*
X128979166Y-105952380D01*
X129502976Y-105952380D02*
X130169642Y-106952380D01*
X130169642Y-105952380D02*
X129502976Y-106952380D01*
X131026785Y-106952380D02*
X130550595Y-106952380D01*
X130550595Y-105952380D01*
X131360119Y-106428571D02*
X131693452Y-106428571D01*
X131836309Y-106952380D02*
X131360119Y-106952380D01*
X131360119Y-105952380D01*
X131836309Y-105952380D01*
X132264880Y-106952380D02*
X132264880Y-105952380D01*
X132502976Y-105952380D01*
X132645833Y-106000000D01*
X132741071Y-106095238D01*
X132788690Y-106190476D01*
X132836309Y-106380952D01*
X132836309Y-106523809D01*
X132788690Y-106714285D01*
X132741071Y-106809523D01*
X132645833Y-106904761D01*
X132502976Y-106952380D01*
X132264880Y-106952380D01*
%TO.C,J2*%
X103346666Y-87912380D02*
X103346666Y-88626666D01*
X103299047Y-88769523D01*
X103203809Y-88864761D01*
X103060952Y-88912380D01*
X102965714Y-88912380D01*
X103775238Y-88007619D02*
X103822857Y-87960000D01*
X103918095Y-87912380D01*
X104156190Y-87912380D01*
X104251428Y-87960000D01*
X104299047Y-88007619D01*
X104346666Y-88102857D01*
X104346666Y-88198095D01*
X104299047Y-88340952D01*
X103727619Y-88912380D01*
X104346666Y-88912380D01*
X102393904Y-103152380D02*
X103012952Y-103152380D01*
X102679619Y-103533333D01*
X102822476Y-103533333D01*
X102917714Y-103580952D01*
X102965333Y-103628571D01*
X103012952Y-103723809D01*
X103012952Y-103961904D01*
X102965333Y-104057142D01*
X102917714Y-104104761D01*
X102822476Y-104152380D01*
X102536761Y-104152380D01*
X102441523Y-104104761D01*
X102393904Y-104057142D01*
X103298666Y-103152380D02*
X103632000Y-104152380D01*
X103965333Y-103152380D01*
X104203428Y-103152380D02*
X104822476Y-103152380D01*
X104489142Y-103533333D01*
X104632000Y-103533333D01*
X104727238Y-103580952D01*
X104774857Y-103628571D01*
X104822476Y-103723809D01*
X104822476Y-103961904D01*
X104774857Y-104057142D01*
X104727238Y-104104761D01*
X104632000Y-104152380D01*
X104346285Y-104152380D01*
X104251047Y-104104761D01*
X104203428Y-104057142D01*
X101774809Y-96532380D02*
X101774809Y-95532380D01*
X102441476Y-95532380D02*
X102631952Y-95532380D01*
X102727190Y-95580000D01*
X102822428Y-95675238D01*
X102870047Y-95865714D01*
X102870047Y-96199047D01*
X102822428Y-96389523D01*
X102727190Y-96484761D01*
X102631952Y-96532380D01*
X102441476Y-96532380D01*
X102346238Y-96484761D01*
X102251000Y-96389523D01*
X102203380Y-96199047D01*
X102203380Y-95865714D01*
X102251000Y-95675238D01*
X102346238Y-95580000D01*
X102441476Y-95532380D01*
X103822428Y-96532380D02*
X103251000Y-96532380D01*
X103536714Y-96532380D02*
X103536714Y-95532380D01*
X103441476Y-95675238D01*
X103346238Y-95770476D01*
X103251000Y-95818095D01*
X104203380Y-95627619D02*
X104251000Y-95580000D01*
X104346238Y-95532380D01*
X104584333Y-95532380D01*
X104679571Y-95580000D01*
X104727190Y-95627619D01*
X104774809Y-95722857D01*
X104774809Y-95818095D01*
X104727190Y-95960952D01*
X104155761Y-96532380D01*
X104774809Y-96532380D01*
X102123809Y-94052380D02*
X102123809Y-93052380D01*
X102790476Y-93052380D02*
X102980952Y-93052380D01*
X103076190Y-93100000D01*
X103171428Y-93195238D01*
X103219047Y-93385714D01*
X103219047Y-93719047D01*
X103171428Y-93909523D01*
X103076190Y-94004761D01*
X102980952Y-94052380D01*
X102790476Y-94052380D01*
X102695238Y-94004761D01*
X102600000Y-93909523D01*
X102552380Y-93719047D01*
X102552380Y-93385714D01*
X102600000Y-93195238D01*
X102695238Y-93100000D01*
X102790476Y-93052380D01*
X104171428Y-94052380D02*
X103600000Y-94052380D01*
X103885714Y-94052380D02*
X103885714Y-93052380D01*
X103790476Y-93195238D01*
X103695238Y-93290476D01*
X103600000Y-93338095D01*
X105028571Y-93385714D02*
X105028571Y-94052380D01*
X104790476Y-93004761D02*
X104552380Y-93719047D01*
X105171428Y-93719047D01*
X102638095Y-90600000D02*
X102542857Y-90552380D01*
X102400000Y-90552380D01*
X102257142Y-90600000D01*
X102161904Y-90695238D01*
X102114285Y-90790476D01*
X102066666Y-90980952D01*
X102066666Y-91123809D01*
X102114285Y-91314285D01*
X102161904Y-91409523D01*
X102257142Y-91504761D01*
X102400000Y-91552380D01*
X102495238Y-91552380D01*
X102638095Y-91504761D01*
X102685714Y-91457142D01*
X102685714Y-91123809D01*
X102495238Y-91123809D01*
X103114285Y-91552380D02*
X103114285Y-90552380D01*
X103685714Y-91552380D01*
X103685714Y-90552380D01*
X104161904Y-91552380D02*
X104161904Y-90552380D01*
X104400000Y-90552380D01*
X104542857Y-90600000D01*
X104638095Y-90695238D01*
X104685714Y-90790476D01*
X104733333Y-90980952D01*
X104733333Y-91123809D01*
X104685714Y-91314285D01*
X104638095Y-91409523D01*
X104542857Y-91504761D01*
X104400000Y-91552380D01*
X104161904Y-91552380D01*
X101774809Y-99072380D02*
X101774809Y-98072380D01*
X102441476Y-98072380D02*
X102631952Y-98072380D01*
X102727190Y-98120000D01*
X102822428Y-98215238D01*
X102870047Y-98405714D01*
X102870047Y-98739047D01*
X102822428Y-98929523D01*
X102727190Y-99024761D01*
X102631952Y-99072380D01*
X102441476Y-99072380D01*
X102346238Y-99024761D01*
X102251000Y-98929523D01*
X102203380Y-98739047D01*
X102203380Y-98405714D01*
X102251000Y-98215238D01*
X102346238Y-98120000D01*
X102441476Y-98072380D01*
X103822428Y-99072380D02*
X103251000Y-99072380D01*
X103536714Y-99072380D02*
X103536714Y-98072380D01*
X103441476Y-98215238D01*
X103346238Y-98310476D01*
X103251000Y-98358095D01*
X104155761Y-98072380D02*
X104774809Y-98072380D01*
X104441476Y-98453333D01*
X104584333Y-98453333D01*
X104679571Y-98500952D01*
X104727190Y-98548571D01*
X104774809Y-98643809D01*
X104774809Y-98881904D01*
X104727190Y-98977142D01*
X104679571Y-99024761D01*
X104584333Y-99072380D01*
X104298619Y-99072380D01*
X104203380Y-99024761D01*
X104155761Y-98977142D01*
X101774809Y-101612380D02*
X101774809Y-100612380D01*
X102441476Y-100612380D02*
X102631952Y-100612380D01*
X102727190Y-100660000D01*
X102822428Y-100755238D01*
X102870047Y-100945714D01*
X102870047Y-101279047D01*
X102822428Y-101469523D01*
X102727190Y-101564761D01*
X102631952Y-101612380D01*
X102441476Y-101612380D01*
X102346238Y-101564761D01*
X102251000Y-101469523D01*
X102203380Y-101279047D01*
X102203380Y-100945714D01*
X102251000Y-100755238D01*
X102346238Y-100660000D01*
X102441476Y-100612380D01*
X103489095Y-100612380D02*
X103584333Y-100612380D01*
X103679571Y-100660000D01*
X103727190Y-100707619D01*
X103774809Y-100802857D01*
X103822428Y-100993333D01*
X103822428Y-101231428D01*
X103774809Y-101421904D01*
X103727190Y-101517142D01*
X103679571Y-101564761D01*
X103584333Y-101612380D01*
X103489095Y-101612380D01*
X103393857Y-101564761D01*
X103346238Y-101517142D01*
X103298619Y-101421904D01*
X103251000Y-101231428D01*
X103251000Y-100993333D01*
X103298619Y-100802857D01*
X103346238Y-100707619D01*
X103393857Y-100660000D01*
X103489095Y-100612380D01*
X104203380Y-100707619D02*
X104251000Y-100660000D01*
X104346238Y-100612380D01*
X104584333Y-100612380D01*
X104679571Y-100660000D01*
X104727190Y-100707619D01*
X104774809Y-100802857D01*
X104774809Y-100898095D01*
X104727190Y-101040952D01*
X104155761Y-101612380D01*
X104774809Y-101612380D01*
%TO.C,D5*%
X128776785Y-110404761D02*
X128919642Y-110452380D01*
X129157738Y-110452380D01*
X129252976Y-110404761D01*
X129300595Y-110357142D01*
X129348214Y-110261904D01*
X129348214Y-110166666D01*
X129300595Y-110071428D01*
X129252976Y-110023809D01*
X129157738Y-109976190D01*
X128967261Y-109928571D01*
X128872023Y-109880952D01*
X128824404Y-109833333D01*
X128776785Y-109738095D01*
X128776785Y-109642857D01*
X128824404Y-109547619D01*
X128872023Y-109500000D01*
X128967261Y-109452380D01*
X129205357Y-109452380D01*
X129348214Y-109500000D01*
X129729166Y-110404761D02*
X129872023Y-110452380D01*
X130110119Y-110452380D01*
X130205357Y-110404761D01*
X130252976Y-110357142D01*
X130300595Y-110261904D01*
X130300595Y-110166666D01*
X130252976Y-110071428D01*
X130205357Y-110023809D01*
X130110119Y-109976190D01*
X129919642Y-109928571D01*
X129824404Y-109880952D01*
X129776785Y-109833333D01*
X129729166Y-109738095D01*
X129729166Y-109642857D01*
X129776785Y-109547619D01*
X129824404Y-109500000D01*
X129919642Y-109452380D01*
X130157738Y-109452380D01*
X130300595Y-109500000D01*
X130729166Y-110452380D02*
X130729166Y-109452380D01*
X131110119Y-109452380D01*
X131205357Y-109500000D01*
X131252976Y-109547619D01*
X131300595Y-109642857D01*
X131300595Y-109785714D01*
X131252976Y-109880952D01*
X131205357Y-109928571D01*
X131110119Y-109976190D01*
X130729166Y-109976190D01*
X131729166Y-110452380D02*
X131729166Y-109452380D01*
X132300595Y-110452380D01*
X132300595Y-109452380D01*
X132776785Y-110452380D02*
X132776785Y-109452380D01*
X133014880Y-109452380D01*
X133157738Y-109500000D01*
X133252976Y-109595238D01*
X133300595Y-109690476D01*
X133348214Y-109880952D01*
X133348214Y-110023809D01*
X133300595Y-110214285D01*
X133252976Y-110309523D01*
X133157738Y-110404761D01*
X133014880Y-110452380D01*
X132776785Y-110452380D01*
%TO.C,D3*%
X129363690Y-108735880D02*
X129030357Y-108259690D01*
X128792261Y-108735880D02*
X128792261Y-107735880D01*
X129173214Y-107735880D01*
X129268452Y-107783500D01*
X129316071Y-107831119D01*
X129363690Y-107926357D01*
X129363690Y-108069214D01*
X129316071Y-108164452D01*
X129268452Y-108212071D01*
X129173214Y-108259690D01*
X128792261Y-108259690D01*
X129697023Y-107735880D02*
X130363690Y-108735880D01*
X130363690Y-107735880D02*
X129697023Y-108735880D01*
X131220833Y-108735880D02*
X130744642Y-108735880D01*
X130744642Y-107735880D01*
X131554166Y-108212071D02*
X131887500Y-108212071D01*
X132030357Y-108735880D02*
X131554166Y-108735880D01*
X131554166Y-107735880D01*
X132030357Y-107735880D01*
X132458928Y-108735880D02*
X132458928Y-107735880D01*
X132697023Y-107735880D01*
X132839880Y-107783500D01*
X132935119Y-107878738D01*
X132982738Y-107973976D01*
X133030357Y-108164452D01*
X133030357Y-108307309D01*
X132982738Y-108497785D01*
X132935119Y-108593023D01*
X132839880Y-108688261D01*
X132697023Y-108735880D01*
X132458928Y-108735880D01*
%TO.C,Y1*%
X118973909Y-103476190D02*
X118973909Y-103952380D01*
X118640576Y-102952380D02*
X118973909Y-103476190D01*
X119307242Y-102952380D01*
X120164385Y-103952380D02*
X119592957Y-103952380D01*
X119878671Y-103952380D02*
X119878671Y-102952380D01*
X119783433Y-103095238D01*
X119688195Y-103190476D01*
X119592957Y-103238095D01*
D11*
%TO.C,U3*%
X109880000Y-102620000D02*
X110900000Y-102620000D01*
X128120000Y-102300000D02*
X128120000Y-102600000D01*
X127000000Y-102620000D02*
X128120000Y-102620000D01*
X109880000Y-102300000D02*
X109880000Y-102620000D01*
D12*
%TO.C,SW1*%
X106400000Y-107800000D02*
X106400000Y-110400000D01*
X104400000Y-105800000D02*
X105400000Y-105800000D01*
X112500000Y-112350000D02*
X106500000Y-112350000D01*
X104400000Y-106800000D02*
X104400000Y-105800000D01*
X112600000Y-107800000D02*
X112600000Y-110400000D01*
X112400000Y-105850000D02*
X106600000Y-105850000D01*
%TO.C,D4*%
X125615000Y-111015000D02*
X125615000Y-112485000D01*
X125615000Y-112485000D02*
X127900000Y-112485000D01*
X127900000Y-111015000D02*
X125615000Y-111015000D01*
%TO.C,J3*%
X133410000Y-92270000D02*
X133410000Y-105030000D01*
X130750000Y-92270000D02*
X130750000Y-105030000D01*
X130750000Y-105030000D02*
X133410000Y-105030000D01*
X130750000Y-91000000D02*
X130750000Y-89670000D01*
X130750000Y-89670000D02*
X132080000Y-89670000D01*
X130750000Y-92270000D02*
X133410000Y-92270000D01*
%TO.C,SW2*%
X114700000Y-105800000D02*
X115700000Y-105800000D01*
X114700000Y-106800000D02*
X114700000Y-105800000D01*
X122700000Y-105850000D02*
X116900000Y-105850000D01*
X122900000Y-107800000D02*
X122900000Y-110400000D01*
X116700000Y-107800000D02*
X116700000Y-110400000D01*
X122800000Y-112350000D02*
X116800000Y-112350000D01*
%TO.C,D2*%
X125615000Y-105765000D02*
X125615000Y-107235000D01*
X127900000Y-105765000D02*
X125615000Y-105765000D01*
X125615000Y-107235000D02*
X127900000Y-107235000D01*
%TO.C,J2*%
X108010000Y-92270000D02*
X108010000Y-105030000D01*
X105350000Y-92270000D02*
X105350000Y-105030000D01*
X105350000Y-92270000D02*
X108010000Y-92270000D01*
X105350000Y-91000000D02*
X105350000Y-89670000D01*
X105350000Y-89670000D02*
X106680000Y-89670000D01*
X105350000Y-105030000D02*
X108010000Y-105030000D01*
%TO.C,D5*%
X125615000Y-109265000D02*
X125615000Y-110735000D01*
X127900000Y-109265000D02*
X125615000Y-109265000D01*
X125615000Y-110735000D02*
X127900000Y-110735000D01*
%TO.C,D3*%
X125615000Y-107515000D02*
X125615000Y-108985000D01*
X127900000Y-107515000D02*
X125615000Y-107515000D01*
X125615000Y-108985000D02*
X127900000Y-108985000D01*
%TD*%
M02*
