%TF.GenerationSoftware,KiCad,Pcbnew,6.0.0*%
%TF.CreationDate,2022-01-15T13:45:40+01:00*%
%TF.ProjectId,ir_daughter_board,69725f64-6175-4676-9874-65725f626f61,rev?*%
%TF.SameCoordinates,Original*%
%TF.FileFunction,Soldermask,Top*%
%TF.FilePolarity,Negative*%
%FSLAX46Y46*%
G04 Gerber Fmt 4.6, Leading zero omitted, Abs format (unit mm)*
G04 Created by KiCad (PCBNEW 6.0.0) date 2022-01-15 13:45:40*
%MOMM*%
%LPD*%
G01*
G04 APERTURE LIST*
G04 Aperture macros list*
%AMRoundRect*
0 Rectangle with rounded corners*
0 $1 Rounding radius*
0 $2 $3 $4 $5 $6 $7 $8 $9 X,Y pos of 4 corners*
0 Add a 4 corners polygon primitive as box body*
4,1,4,$2,$3,$4,$5,$6,$7,$8,$9,$2,$3,0*
0 Add four circle primitives for the rounded corners*
1,1,$1+$1,$2,$3*
1,1,$1+$1,$4,$5*
1,1,$1+$1,$6,$7*
1,1,$1+$1,$8,$9*
0 Add four rect primitives between the rounded corners*
20,1,$1+$1,$2,$3,$4,$5,0*
20,1,$1+$1,$4,$5,$6,$7,0*
20,1,$1+$1,$6,$7,$8,$9,0*
20,1,$1+$1,$8,$9,$2,$3,0*%
G04 Aperture macros list end*
%ADD10R,1.500000X0.900000*%
%ADD11R,4.000000X4.000000*%
%ADD12C,3.200000*%
%ADD13R,1.600000X1.400000*%
%ADD14RoundRect,0.218750X-0.218750X-0.256250X0.218750X-0.256250X0.218750X0.256250X-0.218750X0.256250X0*%
%ADD15R,1.700000X1.700000*%
%ADD16O,1.700000X1.700000*%
%ADD17R,1.800000X1.800000*%
%ADD18C,1.800000*%
%ADD19O,1.900000X1.000000*%
%ADD20O,1.250000X1.050000*%
G04 APERTURE END LIST*
D10*
%TO.C,U3*%
X110250000Y-89600000D03*
X110250000Y-91100000D03*
X110250000Y-92600000D03*
X110250000Y-94100000D03*
X110250000Y-95600000D03*
X110250000Y-97100000D03*
X110250000Y-98600000D03*
X110250000Y-100100000D03*
X110250000Y-101600000D03*
X127750000Y-101600000D03*
X127750000Y-100100000D03*
X127750000Y-98600000D03*
X127750000Y-97100000D03*
X127750000Y-95600000D03*
X127750000Y-94100000D03*
X127750000Y-92600000D03*
X127750000Y-91100000D03*
X127750000Y-89600000D03*
D11*
X120100000Y-96210000D03*
%TD*%
D12*
%TO.C,H4*%
X101000000Y-85000000D03*
%TD*%
D13*
%TO.C,SW1*%
X105500000Y-106850000D03*
X113500000Y-106850000D03*
X105500000Y-111350000D03*
X113500000Y-111350000D03*
%TD*%
D12*
%TO.C,H2*%
X101000000Y-109000000D03*
%TD*%
D14*
%TO.C,D4*%
X126312500Y-111750000D03*
X127887500Y-111750000D03*
%TD*%
D15*
%TO.C,J3*%
X132080000Y-91000000D03*
D16*
X132080000Y-93540000D03*
X132080000Y-96080000D03*
X132080000Y-98620000D03*
X132080000Y-101160000D03*
X132080000Y-103700000D03*
%TD*%
D13*
%TO.C,SW2*%
X115800000Y-106850000D03*
X123800000Y-106850000D03*
X115800000Y-111350000D03*
X123800000Y-111350000D03*
%TD*%
D14*
%TO.C,D2*%
X126312500Y-106500000D03*
X127887500Y-106500000D03*
%TD*%
D12*
%TO.C,H3*%
X138000000Y-109000000D03*
%TD*%
%TO.C,H1*%
X138000000Y-85000000D03*
%TD*%
D15*
%TO.C,J2*%
X106680000Y-91000000D03*
D16*
X106680000Y-93540000D03*
X106680000Y-96080000D03*
X106680000Y-98620000D03*
X106680000Y-101160000D03*
X106680000Y-103700000D03*
%TD*%
D14*
%TO.C,D5*%
X126312500Y-110000000D03*
X127887500Y-110000000D03*
%TD*%
%TO.C,D3*%
X126312500Y-108250000D03*
X127887500Y-108250000D03*
%TD*%
D17*
%TO.C,D6*%
X100400000Y-95700000D03*
D18*
X100400000Y-98240000D03*
%TD*%
D19*
%TO.C,J1*%
X140250000Y-92825000D03*
D20*
X137250000Y-99225000D03*
X137250000Y-94775000D03*
D19*
X140250000Y-101175000D03*
%TD*%
M02*
