M48
; DRILL file {KiCad 6.0.0} date Fri 07 Jan 2022 13:30:06 CET
; FORMAT={-:-/ absolute / inch / decimal}
; #@! TF.CreationDate,2022-01-07T13:30:06+01:00
; #@! TF.GenerationSoftware,Kicad,Pcbnew,6.0.0
; #@! TF.FileFunction,Plated,1,2,PTH
FMAT,2
INCH
; #@! TA.AperFunction,Plated,PTH,ViaDrill
T1C0.0079
; #@! TA.AperFunction,Plated,PTH,ComponentDrill
T2C0.0236
; #@! TA.AperFunction,Plated,PTH,ComponentDrill
T3C0.0256
; #@! TA.AperFunction,Plated,PTH,ComponentDrill
T4C0.0354
; #@! TA.AperFunction,Plated,PTH,ComponentDrill
T5C0.0394
%
G90
G05
T1
X4.4262Y-3.8287
X4.4565Y-4.0748
X4.4892Y-3.8307
X4.4911Y-3.5531
X4.5065Y-4.0748
X4.5531Y-3.562
X4.5565Y-3.9591
X4.5571Y-4.0748
X4.5866Y-3.7008
X4.7539Y-3.562
X4.8622Y-3.5925
X5.0591Y-3.8287
X5.1065Y-3.4055
X5.1969Y-3.9862
X5.2067Y-3.4843
X5.2675Y-3.372
X5.2675Y-3.6476
X5.2675Y-3.8248
X5.315Y-4.252
X5.4331Y-4.4193
X5.4724Y-3.0709
X5.4724Y-3.2087
X5.4821Y-4.2234
X5.4823Y-3.1398
X5.4823Y-3.2776
X5.4823Y-4.0846
X5.5089Y-3.0709
X5.5669Y-4.1417
X5.6398Y-3.3268
X5.6693Y-3.3169
X5.6772Y-4.1102
X5.685Y-4.1969
X5.7581Y-4.2234
X5.7795Y-3.6614
X5.811Y-4.1181
X5.8425Y-3.1969
X5.8465Y-4.2224
X5.8649Y-3.1733
X5.8713Y-4.2372
T4
X3.9665Y-3.6894
X3.9665Y-3.7894
T5
X4.225Y-3.1102
X4.225Y-4.3701
X4.325Y-3.1102
X4.325Y-4.3701
X4.425Y-3.1102
X4.425Y-4.3701
X4.525Y-3.1102
X4.525Y-4.3701
X4.625Y-3.1102
X4.625Y-4.3701
X4.725Y-3.1102
X4.725Y-4.3701
X4.825Y-3.1102
X4.825Y-4.3701
X4.925Y-3.1102
X4.925Y-4.3701
X5.025Y-3.1102
X5.025Y-4.3701
X5.125Y-3.1102
X5.125Y-4.3701
X5.225Y-3.1102
X5.225Y-4.3701
X5.325Y-3.1102
X5.325Y-4.3701
T2
G00X6.0807Y-3.5758
M15
G01X6.1083Y-3.5758
M16
G05
G00X6.0807Y-3.9045
M15
G01X6.1083Y-3.9045
M16
G05
T3
G00X5.9724Y-3.6526
M15
G01X5.9803Y-3.6526
M16
G05
G00X5.9724Y-3.8278
M15
G01X5.9803Y-3.8278
M16
G05
T0
M30
