%TF.GenerationSoftware,KiCad,Pcbnew,6.0.1*%
%TF.CreationDate,2022-01-18T19:02:58+01:00*%
%TF.ProjectId,ir_daughter_board,69725f64-6175-4676-9874-65725f626f61,rev?*%
%TF.SameCoordinates,Original*%
%TF.FileFunction,Legend,Bot*%
%TF.FilePolarity,Positive*%
%FSLAX46Y46*%
G04 Gerber Fmt 4.6, Leading zero omitted, Abs format (unit mm)*
G04 Created by KiCad (PCBNEW 6.0.1) date 2022-01-18 19:02:58*
%MOMM*%
%LPD*%
G01*
G04 APERTURE LIST*
%ADD10C,0.150000*%
%ADD11C,0.120000*%
G04 APERTURE END LIST*
D10*
%TO.C,R5*%
X123614380Y-93783333D02*
X123138190Y-93450000D01*
X123614380Y-93211904D02*
X122614380Y-93211904D01*
X122614380Y-93592857D01*
X122662000Y-93688095D01*
X122709619Y-93735714D01*
X122804857Y-93783333D01*
X122947714Y-93783333D01*
X123042952Y-93735714D01*
X123090571Y-93688095D01*
X123138190Y-93592857D01*
X123138190Y-93211904D01*
X122614380Y-94688095D02*
X122614380Y-94211904D01*
X123090571Y-94164285D01*
X123042952Y-94211904D01*
X122995333Y-94307142D01*
X122995333Y-94545238D01*
X123042952Y-94640476D01*
X123090571Y-94688095D01*
X123185809Y-94735714D01*
X123423904Y-94735714D01*
X123519142Y-94688095D01*
X123566761Y-94640476D01*
X123614380Y-94545238D01*
X123614380Y-94307142D01*
X123566761Y-94211904D01*
X123519142Y-94164285D01*
%TO.C,R2*%
X112166666Y-104202380D02*
X112500000Y-103726190D01*
X112738095Y-104202380D02*
X112738095Y-103202380D01*
X112357142Y-103202380D01*
X112261904Y-103250000D01*
X112214285Y-103297619D01*
X112166666Y-103392857D01*
X112166666Y-103535714D01*
X112214285Y-103630952D01*
X112261904Y-103678571D01*
X112357142Y-103726190D01*
X112738095Y-103726190D01*
X111785714Y-103297619D02*
X111738095Y-103250000D01*
X111642857Y-103202380D01*
X111404761Y-103202380D01*
X111309523Y-103250000D01*
X111261904Y-103297619D01*
X111214285Y-103392857D01*
X111214285Y-103488095D01*
X111261904Y-103630952D01*
X111833333Y-104202380D01*
X111214285Y-104202380D01*
%TO.C,R3*%
X110166666Y-106452380D02*
X110500000Y-105976190D01*
X110738095Y-106452380D02*
X110738095Y-105452380D01*
X110357142Y-105452380D01*
X110261904Y-105500000D01*
X110214285Y-105547619D01*
X110166666Y-105642857D01*
X110166666Y-105785714D01*
X110214285Y-105880952D01*
X110261904Y-105928571D01*
X110357142Y-105976190D01*
X110738095Y-105976190D01*
X109833333Y-105452380D02*
X109214285Y-105452380D01*
X109547619Y-105833333D01*
X109404761Y-105833333D01*
X109309523Y-105880952D01*
X109261904Y-105928571D01*
X109214285Y-106023809D01*
X109214285Y-106261904D01*
X109261904Y-106357142D01*
X109309523Y-106404761D01*
X109404761Y-106452380D01*
X109690476Y-106452380D01*
X109785714Y-106404761D01*
X109833333Y-106357142D01*
%TO.C,C9*%
X122237274Y-111219933D02*
X122284893Y-111172314D01*
X122332512Y-111029457D01*
X122332512Y-110934219D01*
X122284893Y-110791361D01*
X122189655Y-110696123D01*
X122094417Y-110648504D01*
X121903941Y-110600885D01*
X121761084Y-110600885D01*
X121570608Y-110648504D01*
X121475370Y-110696123D01*
X121380132Y-110791361D01*
X121332512Y-110934219D01*
X121332512Y-111029457D01*
X121380132Y-111172314D01*
X121427751Y-111219933D01*
X122332512Y-111696123D02*
X122332512Y-111886600D01*
X122284893Y-111981838D01*
X122237274Y-112029457D01*
X122094417Y-112124695D01*
X121903941Y-112172314D01*
X121522989Y-112172314D01*
X121427751Y-112124695D01*
X121380132Y-112077076D01*
X121332512Y-111981838D01*
X121332512Y-111791361D01*
X121380132Y-111696123D01*
X121427751Y-111648504D01*
X121522989Y-111600885D01*
X121761084Y-111600885D01*
X121856322Y-111648504D01*
X121903941Y-111696123D01*
X121951560Y-111791361D01*
X121951560Y-111981838D01*
X121903941Y-112077076D01*
X121856322Y-112124695D01*
X121761084Y-112172314D01*
%TO.C,U1*%
X118761904Y-91952380D02*
X118761904Y-92761904D01*
X118714285Y-92857142D01*
X118666666Y-92904761D01*
X118571428Y-92952380D01*
X118380952Y-92952380D01*
X118285714Y-92904761D01*
X118238095Y-92857142D01*
X118190476Y-92761904D01*
X118190476Y-91952380D01*
X117190476Y-92952380D02*
X117761904Y-92952380D01*
X117476190Y-92952380D02*
X117476190Y-91952380D01*
X117571428Y-92095238D01*
X117666666Y-92190476D01*
X117761904Y-92238095D01*
%TO.C,L1*%
X113958466Y-112176380D02*
X114434657Y-112176380D01*
X114434657Y-111176380D01*
X113101323Y-112176380D02*
X113672752Y-112176380D01*
X113387038Y-112176380D02*
X113387038Y-111176380D01*
X113482276Y-111319238D01*
X113577514Y-111414476D01*
X113672752Y-111462095D01*
%TO.C,C7*%
X104257142Y-89958333D02*
X104304761Y-89910714D01*
X104352380Y-89767857D01*
X104352380Y-89672619D01*
X104304761Y-89529761D01*
X104209523Y-89434523D01*
X104114285Y-89386904D01*
X103923809Y-89339285D01*
X103780952Y-89339285D01*
X103590476Y-89386904D01*
X103495238Y-89434523D01*
X103400000Y-89529761D01*
X103352380Y-89672619D01*
X103352380Y-89767857D01*
X103400000Y-89910714D01*
X103447619Y-89958333D01*
X103352380Y-90291666D02*
X103352380Y-90958333D01*
X104352380Y-90529761D01*
%TO.C,R10*%
X122280857Y-91354380D02*
X122614190Y-90878190D01*
X122852285Y-91354380D02*
X122852285Y-90354380D01*
X122471333Y-90354380D01*
X122376095Y-90402000D01*
X122328476Y-90449619D01*
X122280857Y-90544857D01*
X122280857Y-90687714D01*
X122328476Y-90782952D01*
X122376095Y-90830571D01*
X122471333Y-90878190D01*
X122852285Y-90878190D01*
X121328476Y-91354380D02*
X121899904Y-91354380D01*
X121614190Y-91354380D02*
X121614190Y-90354380D01*
X121709428Y-90497238D01*
X121804666Y-90592476D01*
X121899904Y-90640095D01*
X120709428Y-90354380D02*
X120614190Y-90354380D01*
X120518952Y-90402000D01*
X120471333Y-90449619D01*
X120423714Y-90544857D01*
X120376095Y-90735333D01*
X120376095Y-90973428D01*
X120423714Y-91163904D01*
X120471333Y-91259142D01*
X120518952Y-91306761D01*
X120614190Y-91354380D01*
X120709428Y-91354380D01*
X120804666Y-91306761D01*
X120852285Y-91259142D01*
X120899904Y-91163904D01*
X120947523Y-90973428D01*
X120947523Y-90735333D01*
X120899904Y-90544857D01*
X120852285Y-90449619D01*
X120804666Y-90402000D01*
X120709428Y-90354380D01*
%TO.C,R1*%
X119470466Y-105862380D02*
X119803800Y-105386190D01*
X120041895Y-105862380D02*
X120041895Y-104862380D01*
X119660942Y-104862380D01*
X119565704Y-104910000D01*
X119518085Y-104957619D01*
X119470466Y-105052857D01*
X119470466Y-105195714D01*
X119518085Y-105290952D01*
X119565704Y-105338571D01*
X119660942Y-105386190D01*
X120041895Y-105386190D01*
X118518085Y-105862380D02*
X119089514Y-105862380D01*
X118803800Y-105862380D02*
X118803800Y-104862380D01*
X118899038Y-105005238D01*
X118994276Y-105100476D01*
X119089514Y-105148095D01*
%TO.C,C2*%
X118987266Y-106986342D02*
X119034885Y-107033961D01*
X119177742Y-107081580D01*
X119272980Y-107081580D01*
X119415838Y-107033961D01*
X119511076Y-106938723D01*
X119558695Y-106843485D01*
X119606314Y-106653009D01*
X119606314Y-106510152D01*
X119558695Y-106319676D01*
X119511076Y-106224438D01*
X119415838Y-106129200D01*
X119272980Y-106081580D01*
X119177742Y-106081580D01*
X119034885Y-106129200D01*
X118987266Y-106176819D01*
X118606314Y-106176819D02*
X118558695Y-106129200D01*
X118463457Y-106081580D01*
X118225361Y-106081580D01*
X118130123Y-106129200D01*
X118082504Y-106176819D01*
X118034885Y-106272057D01*
X118034885Y-106367295D01*
X118082504Y-106510152D01*
X118653933Y-107081580D01*
X118034885Y-107081580D01*
%TO.C,R4*%
X121952380Y-93833333D02*
X121476190Y-93500000D01*
X121952380Y-93261904D02*
X120952380Y-93261904D01*
X120952380Y-93642857D01*
X121000000Y-93738095D01*
X121047619Y-93785714D01*
X121142857Y-93833333D01*
X121285714Y-93833333D01*
X121380952Y-93785714D01*
X121428571Y-93738095D01*
X121476190Y-93642857D01*
X121476190Y-93261904D01*
X121285714Y-94690476D02*
X121952380Y-94690476D01*
X120904761Y-94452380D02*
X121619047Y-94214285D01*
X121619047Y-94833333D01*
%TO.C,IC1*%
X110500990Y-111258780D02*
X110500990Y-110258780D01*
X109453371Y-111163542D02*
X109500990Y-111211161D01*
X109643847Y-111258780D01*
X109739085Y-111258780D01*
X109881942Y-111211161D01*
X109977180Y-111115923D01*
X110024800Y-111020685D01*
X110072419Y-110830209D01*
X110072419Y-110687352D01*
X110024800Y-110496876D01*
X109977180Y-110401638D01*
X109881942Y-110306400D01*
X109739085Y-110258780D01*
X109643847Y-110258780D01*
X109500990Y-110306400D01*
X109453371Y-110354019D01*
X108500990Y-111258780D02*
X109072419Y-111258780D01*
X108786704Y-111258780D02*
X108786704Y-110258780D01*
X108881942Y-110401638D01*
X108977180Y-110496876D01*
X109072419Y-110544495D01*
%TO.C,C4*%
X118517942Y-93878333D02*
X118565561Y-93830714D01*
X118613180Y-93687857D01*
X118613180Y-93592619D01*
X118565561Y-93449761D01*
X118470323Y-93354523D01*
X118375085Y-93306904D01*
X118184609Y-93259285D01*
X118041752Y-93259285D01*
X117851276Y-93306904D01*
X117756038Y-93354523D01*
X117660800Y-93449761D01*
X117613180Y-93592619D01*
X117613180Y-93687857D01*
X117660800Y-93830714D01*
X117708419Y-93878333D01*
X117946514Y-94735476D02*
X118613180Y-94735476D01*
X117565561Y-94497380D02*
X118279847Y-94259285D01*
X118279847Y-94878333D01*
%TO.C,D5*%
X98302380Y-99751904D02*
X97302380Y-99751904D01*
X97302380Y-99990000D01*
X97350000Y-100132857D01*
X97445238Y-100228095D01*
X97540476Y-100275714D01*
X97730952Y-100323333D01*
X97873809Y-100323333D01*
X98064285Y-100275714D01*
X98159523Y-100228095D01*
X98254761Y-100132857D01*
X98302380Y-99990000D01*
X98302380Y-99751904D01*
X97302380Y-101228095D02*
X97302380Y-100751904D01*
X97778571Y-100704285D01*
X97730952Y-100751904D01*
X97683333Y-100847142D01*
X97683333Y-101085238D01*
X97730952Y-101180476D01*
X97778571Y-101228095D01*
X97873809Y-101275714D01*
X98111904Y-101275714D01*
X98207142Y-101228095D01*
X98254761Y-101180476D01*
X98302380Y-101085238D01*
X98302380Y-100847142D01*
X98254761Y-100751904D01*
X98207142Y-100704285D01*
%TO.C,R6*%
X102848380Y-104487933D02*
X102372190Y-104154600D01*
X102848380Y-103916504D02*
X101848380Y-103916504D01*
X101848380Y-104297457D01*
X101896000Y-104392695D01*
X101943619Y-104440314D01*
X102038857Y-104487933D01*
X102181714Y-104487933D01*
X102276952Y-104440314D01*
X102324571Y-104392695D01*
X102372190Y-104297457D01*
X102372190Y-103916504D01*
X101848380Y-105345076D02*
X101848380Y-105154600D01*
X101896000Y-105059361D01*
X101943619Y-105011742D01*
X102086476Y-104916504D01*
X102276952Y-104868885D01*
X102657904Y-104868885D01*
X102753142Y-104916504D01*
X102800761Y-104964123D01*
X102848380Y-105059361D01*
X102848380Y-105249838D01*
X102800761Y-105345076D01*
X102753142Y-105392695D01*
X102657904Y-105440314D01*
X102419809Y-105440314D01*
X102324571Y-105392695D01*
X102276952Y-105345076D01*
X102229333Y-105249838D01*
X102229333Y-105059361D01*
X102276952Y-104964123D01*
X102324571Y-104916504D01*
X102419809Y-104868885D01*
%TO.C,C1*%
X106056666Y-112087142D02*
X106104285Y-112134761D01*
X106247142Y-112182380D01*
X106342380Y-112182380D01*
X106485238Y-112134761D01*
X106580476Y-112039523D01*
X106628095Y-111944285D01*
X106675714Y-111753809D01*
X106675714Y-111610952D01*
X106628095Y-111420476D01*
X106580476Y-111325238D01*
X106485238Y-111230000D01*
X106342380Y-111182380D01*
X106247142Y-111182380D01*
X106104285Y-111230000D01*
X106056666Y-111277619D01*
X105104285Y-112182380D02*
X105675714Y-112182380D01*
X105390000Y-112182380D02*
X105390000Y-111182380D01*
X105485238Y-111325238D01*
X105580476Y-111420476D01*
X105675714Y-111468095D01*
%TO.C,C8*%
X120617408Y-111254933D02*
X120665027Y-111207314D01*
X120712646Y-111064457D01*
X120712646Y-110969219D01*
X120665027Y-110826361D01*
X120569789Y-110731123D01*
X120474551Y-110683504D01*
X120284075Y-110635885D01*
X120141218Y-110635885D01*
X119950742Y-110683504D01*
X119855504Y-110731123D01*
X119760266Y-110826361D01*
X119712646Y-110969219D01*
X119712646Y-111064457D01*
X119760266Y-111207314D01*
X119807885Y-111254933D01*
X120141218Y-111826361D02*
X120093599Y-111731123D01*
X120045980Y-111683504D01*
X119950742Y-111635885D01*
X119903123Y-111635885D01*
X119807885Y-111683504D01*
X119760266Y-111731123D01*
X119712646Y-111826361D01*
X119712646Y-112016838D01*
X119760266Y-112112076D01*
X119807885Y-112159695D01*
X119903123Y-112207314D01*
X119950742Y-112207314D01*
X120045980Y-112159695D01*
X120093599Y-112112076D01*
X120141218Y-112016838D01*
X120141218Y-111826361D01*
X120188837Y-111731123D01*
X120236456Y-111683504D01*
X120331694Y-111635885D01*
X120522170Y-111635885D01*
X120617408Y-111683504D01*
X120665027Y-111731123D01*
X120712646Y-111826361D01*
X120712646Y-112016838D01*
X120665027Y-112112076D01*
X120617408Y-112159695D01*
X120522170Y-112207314D01*
X120331694Y-112207314D01*
X120236456Y-112159695D01*
X120188837Y-112112076D01*
X120141218Y-112016838D01*
%TO.C,R13*%
X101262380Y-104483142D02*
X100786190Y-104149809D01*
X101262380Y-103911714D02*
X100262380Y-103911714D01*
X100262380Y-104292666D01*
X100310000Y-104387904D01*
X100357619Y-104435523D01*
X100452857Y-104483142D01*
X100595714Y-104483142D01*
X100690952Y-104435523D01*
X100738571Y-104387904D01*
X100786190Y-104292666D01*
X100786190Y-103911714D01*
X101262380Y-105435523D02*
X101262380Y-104864095D01*
X101262380Y-105149809D02*
X100262380Y-105149809D01*
X100405238Y-105054571D01*
X100500476Y-104959333D01*
X100548095Y-104864095D01*
X100262380Y-105768857D02*
X100262380Y-106387904D01*
X100643333Y-106054571D01*
X100643333Y-106197428D01*
X100690952Y-106292666D01*
X100738571Y-106340285D01*
X100833809Y-106387904D01*
X101071904Y-106387904D01*
X101167142Y-106340285D01*
X101214761Y-106292666D01*
X101262380Y-106197428D01*
X101262380Y-105911714D01*
X101214761Y-105816476D01*
X101167142Y-105768857D01*
%TO.C,C3*%
X119127542Y-111162133D02*
X119175161Y-111114514D01*
X119222780Y-110971657D01*
X119222780Y-110876419D01*
X119175161Y-110733561D01*
X119079923Y-110638323D01*
X118984685Y-110590704D01*
X118794209Y-110543085D01*
X118651352Y-110543085D01*
X118460876Y-110590704D01*
X118365638Y-110638323D01*
X118270400Y-110733561D01*
X118222780Y-110876419D01*
X118222780Y-110971657D01*
X118270400Y-111114514D01*
X118318019Y-111162133D01*
X118222780Y-111495466D02*
X118222780Y-112114514D01*
X118603733Y-111781180D01*
X118603733Y-111924038D01*
X118651352Y-112019276D01*
X118698971Y-112066895D01*
X118794209Y-112114514D01*
X119032304Y-112114514D01*
X119127542Y-112066895D01*
X119175161Y-112019276D01*
X119222780Y-111924038D01*
X119222780Y-111638323D01*
X119175161Y-111543085D01*
X119127542Y-111495466D01*
%TO.C,R9*%
X121400866Y-89860380D02*
X121734200Y-89384190D01*
X121972295Y-89860380D02*
X121972295Y-88860380D01*
X121591342Y-88860380D01*
X121496104Y-88908000D01*
X121448485Y-88955619D01*
X121400866Y-89050857D01*
X121400866Y-89193714D01*
X121448485Y-89288952D01*
X121496104Y-89336571D01*
X121591342Y-89384190D01*
X121972295Y-89384190D01*
X120924676Y-89860380D02*
X120734200Y-89860380D01*
X120638961Y-89812761D01*
X120591342Y-89765142D01*
X120496104Y-89622285D01*
X120448485Y-89431809D01*
X120448485Y-89050857D01*
X120496104Y-88955619D01*
X120543723Y-88908000D01*
X120638961Y-88860380D01*
X120829438Y-88860380D01*
X120924676Y-88908000D01*
X120972295Y-88955619D01*
X121019914Y-89050857D01*
X121019914Y-89288952D01*
X120972295Y-89384190D01*
X120924676Y-89431809D01*
X120829438Y-89479428D01*
X120638961Y-89479428D01*
X120543723Y-89431809D01*
X120496104Y-89384190D01*
X120448485Y-89288952D01*
%TO.C,R8*%
X138452380Y-104333333D02*
X137976190Y-104000000D01*
X138452380Y-103761904D02*
X137452380Y-103761904D01*
X137452380Y-104142857D01*
X137500000Y-104238095D01*
X137547619Y-104285714D01*
X137642857Y-104333333D01*
X137785714Y-104333333D01*
X137880952Y-104285714D01*
X137928571Y-104238095D01*
X137976190Y-104142857D01*
X137976190Y-103761904D01*
X137880952Y-104904761D02*
X137833333Y-104809523D01*
X137785714Y-104761904D01*
X137690476Y-104714285D01*
X137642857Y-104714285D01*
X137547619Y-104761904D01*
X137500000Y-104809523D01*
X137452380Y-104904761D01*
X137452380Y-105095238D01*
X137500000Y-105190476D01*
X137547619Y-105238095D01*
X137642857Y-105285714D01*
X137690476Y-105285714D01*
X137785714Y-105238095D01*
X137833333Y-105190476D01*
X137880952Y-105095238D01*
X137880952Y-104904761D01*
X137928571Y-104809523D01*
X137976190Y-104761904D01*
X138071428Y-104714285D01*
X138261904Y-104714285D01*
X138357142Y-104761904D01*
X138404761Y-104809523D01*
X138452380Y-104904761D01*
X138452380Y-105095238D01*
X138404761Y-105190476D01*
X138357142Y-105238095D01*
X138261904Y-105285714D01*
X138071428Y-105285714D01*
X137976190Y-105238095D01*
X137928571Y-105190476D01*
X137880952Y-105095238D01*
%TO.C,R12*%
X99452380Y-104357142D02*
X98976190Y-104023809D01*
X99452380Y-103785714D02*
X98452380Y-103785714D01*
X98452380Y-104166666D01*
X98500000Y-104261904D01*
X98547619Y-104309523D01*
X98642857Y-104357142D01*
X98785714Y-104357142D01*
X98880952Y-104309523D01*
X98928571Y-104261904D01*
X98976190Y-104166666D01*
X98976190Y-103785714D01*
X99452380Y-105309523D02*
X99452380Y-104738095D01*
X99452380Y-105023809D02*
X98452380Y-105023809D01*
X98595238Y-104928571D01*
X98690476Y-104833333D01*
X98738095Y-104738095D01*
X98547619Y-105690476D02*
X98500000Y-105738095D01*
X98452380Y-105833333D01*
X98452380Y-106071428D01*
X98500000Y-106166666D01*
X98547619Y-106214285D01*
X98642857Y-106261904D01*
X98738095Y-106261904D01*
X98880952Y-106214285D01*
X99452380Y-105642857D01*
X99452380Y-106261904D01*
%TO.C,R7*%
X135452380Y-101333333D02*
X134976190Y-101000000D01*
X135452380Y-100761904D02*
X134452380Y-100761904D01*
X134452380Y-101142857D01*
X134500000Y-101238095D01*
X134547619Y-101285714D01*
X134642857Y-101333333D01*
X134785714Y-101333333D01*
X134880952Y-101285714D01*
X134928571Y-101238095D01*
X134976190Y-101142857D01*
X134976190Y-100761904D01*
X134452380Y-101666666D02*
X134452380Y-102333333D01*
X135452380Y-101904761D01*
%TO.C,C6*%
X123867142Y-111309333D02*
X123914761Y-111261714D01*
X123962380Y-111118857D01*
X123962380Y-111023619D01*
X123914761Y-110880761D01*
X123819523Y-110785523D01*
X123724285Y-110737904D01*
X123533809Y-110690285D01*
X123390952Y-110690285D01*
X123200476Y-110737904D01*
X123105238Y-110785523D01*
X123010000Y-110880761D01*
X122962380Y-111023619D01*
X122962380Y-111118857D01*
X123010000Y-111261714D01*
X123057619Y-111309333D01*
X122962380Y-112166476D02*
X122962380Y-111976000D01*
X123010000Y-111880761D01*
X123057619Y-111833142D01*
X123200476Y-111737904D01*
X123390952Y-111690285D01*
X123771904Y-111690285D01*
X123867142Y-111737904D01*
X123914761Y-111785523D01*
X123962380Y-111880761D01*
X123962380Y-112071238D01*
X123914761Y-112166476D01*
X123867142Y-112214095D01*
X123771904Y-112261714D01*
X123533809Y-112261714D01*
X123438571Y-112214095D01*
X123390952Y-112166476D01*
X123343333Y-112071238D01*
X123343333Y-111880761D01*
X123390952Y-111785523D01*
X123438571Y-111737904D01*
X123533809Y-111690285D01*
%TO.C,R11*%
X99652380Y-89357142D02*
X99176190Y-89023809D01*
X99652380Y-88785714D02*
X98652380Y-88785714D01*
X98652380Y-89166666D01*
X98700000Y-89261904D01*
X98747619Y-89309523D01*
X98842857Y-89357142D01*
X98985714Y-89357142D01*
X99080952Y-89309523D01*
X99128571Y-89261904D01*
X99176190Y-89166666D01*
X99176190Y-88785714D01*
X99652380Y-90309523D02*
X99652380Y-89738095D01*
X99652380Y-90023809D02*
X98652380Y-90023809D01*
X98795238Y-89928571D01*
X98890476Y-89833333D01*
X98938095Y-89738095D01*
X99652380Y-91261904D02*
X99652380Y-90690476D01*
X99652380Y-90976190D02*
X98652380Y-90976190D01*
X98795238Y-90880952D01*
X98890476Y-90785714D01*
X98938095Y-90690476D01*
%TO.C,J1*%
X139083333Y-90452380D02*
X139083333Y-91166666D01*
X139130952Y-91309523D01*
X139226190Y-91404761D01*
X139369047Y-91452380D01*
X139464285Y-91452380D01*
X138083333Y-91452380D02*
X138654761Y-91452380D01*
X138369047Y-91452380D02*
X138369047Y-90452380D01*
X138464285Y-90595238D01*
X138559523Y-90690476D01*
X138654761Y-90738095D01*
%TO.C,C5*%
X120257142Y-93833333D02*
X120304761Y-93785714D01*
X120352380Y-93642857D01*
X120352380Y-93547619D01*
X120304761Y-93404761D01*
X120209523Y-93309523D01*
X120114285Y-93261904D01*
X119923809Y-93214285D01*
X119780952Y-93214285D01*
X119590476Y-93261904D01*
X119495238Y-93309523D01*
X119400000Y-93404761D01*
X119352380Y-93547619D01*
X119352380Y-93642857D01*
X119400000Y-93785714D01*
X119447619Y-93833333D01*
X119352380Y-94738095D02*
X119352380Y-94261904D01*
X119828571Y-94214285D01*
X119780952Y-94261904D01*
X119733333Y-94357142D01*
X119733333Y-94595238D01*
X119780952Y-94690476D01*
X119828571Y-94738095D01*
X119923809Y-94785714D01*
X120161904Y-94785714D01*
X120257142Y-94738095D01*
X120304761Y-94690476D01*
X120352380Y-94595238D01*
X120352380Y-94357142D01*
X120304761Y-94261904D01*
X120257142Y-94214285D01*
D11*
%TO.C,R5*%
X123522500Y-96262742D02*
X123522500Y-96737258D01*
X122477500Y-96262742D02*
X122477500Y-96737258D01*
%TO.C,R2*%
X113548900Y-105946942D02*
X113548900Y-106421458D01*
X114593900Y-105946942D02*
X114593900Y-106421458D01*
%TO.C,R3*%
X112790500Y-106371658D02*
X112790500Y-105897142D01*
X111745500Y-106371658D02*
X111745500Y-105897142D01*
%TO.C,C9*%
X122440132Y-108967180D02*
X122440132Y-108686020D01*
X121420132Y-108967180D02*
X121420132Y-108686020D01*
%TO.C,U1*%
X109447000Y-93319600D02*
X109447000Y-96079600D01*
X116867000Y-90559600D02*
X116592000Y-90559600D01*
X116867000Y-96079600D02*
X116592000Y-96079600D01*
X116867000Y-93319600D02*
X116867000Y-96079600D01*
X109447000Y-96079600D02*
X109722000Y-96079600D01*
X116867000Y-93319600D02*
X116867000Y-90559600D01*
X109447000Y-90559600D02*
X109722000Y-90559600D01*
X109447000Y-93319600D02*
X109447000Y-90559600D01*
X116592000Y-96079600D02*
X116592000Y-97769600D01*
%TO.C,L1*%
X113189736Y-108084000D02*
X114393864Y-108084000D01*
X113189736Y-110804000D02*
X114393864Y-110804000D01*
%TO.C,C7*%
X101690000Y-89959420D02*
X101690000Y-90240580D01*
X102710000Y-89959420D02*
X102710000Y-90240580D01*
%TO.C,R10*%
X118893858Y-91403700D02*
X118419342Y-91403700D01*
X118893858Y-90358700D02*
X118419342Y-90358700D01*
%TO.C,R1*%
X116633258Y-104862100D02*
X116158742Y-104862100D01*
X116633258Y-105907100D02*
X116158742Y-105907100D01*
%TO.C,C2*%
X116535780Y-107469400D02*
X116254620Y-107469400D01*
X116535780Y-106449400D02*
X116254620Y-106449400D01*
%TO.C,R4*%
X120877500Y-96237742D02*
X120877500Y-96712258D01*
X121922500Y-96237742D02*
X121922500Y-96712258D01*
%TO.C,IC1*%
X108724800Y-106756400D02*
X110324800Y-106756400D01*
X110324800Y-109956400D02*
X108024800Y-109956400D01*
%TO.C,C4*%
X117650800Y-96660580D02*
X117650800Y-96379420D01*
X118670800Y-96660580D02*
X118670800Y-96379420D01*
%TO.C,D5*%
X98855000Y-94410000D02*
X101945000Y-94410000D01*
X98855170Y-94410000D02*
G75*
G03*
X100400462Y-99960000I1544830J-2560000D01*
G01*
X100399538Y-99960000D02*
G75*
G03*
X101944830Y-94410000I462J2990000D01*
G01*
X102900000Y-96970000D02*
G75*
G03*
X102900000Y-96970000I-2500000J0D01*
G01*
%TO.C,R6*%
X102922500Y-102337258D02*
X102922500Y-101862742D01*
X101877500Y-102337258D02*
X101877500Y-101862742D01*
%TO.C,C1*%
X107250000Y-107970748D02*
X107250000Y-109393252D01*
X104530000Y-107970748D02*
X104530000Y-109393252D01*
%TO.C,C8*%
X119840266Y-108967180D02*
X119840266Y-108686020D01*
X120860266Y-108967180D02*
X120860266Y-108686020D01*
%TO.C,R13*%
X100277500Y-101862742D02*
X100277500Y-102337258D01*
X101322500Y-101862742D02*
X101322500Y-102337258D01*
%TO.C,C3*%
X119280400Y-108967180D02*
X119280400Y-108686020D01*
X118260400Y-108967180D02*
X118260400Y-108686020D01*
%TO.C,Y1*%
X129480400Y-104353200D02*
X113505400Y-104353200D01*
X129480400Y-99253200D02*
X129480400Y-104353200D01*
X113505400Y-99253200D02*
X129480400Y-99253200D01*
%TO.C,R9*%
X118431542Y-88783900D02*
X118906058Y-88783900D01*
X118431542Y-89828900D02*
X118906058Y-89828900D01*
%TO.C,R8*%
X137022500Y-104237258D02*
X137022500Y-103762742D01*
X135977500Y-104237258D02*
X135977500Y-103762742D01*
%TO.C,R12*%
X98677500Y-102312258D02*
X98677500Y-101837742D01*
X99722500Y-102312258D02*
X99722500Y-101837742D01*
%TO.C,R7*%
X135422500Y-103762742D02*
X135422500Y-104237258D01*
X134377500Y-103762742D02*
X134377500Y-104237258D01*
%TO.C,C6*%
X123000000Y-108967180D02*
X123000000Y-108686020D01*
X124020000Y-108967180D02*
X124020000Y-108686020D01*
%TO.C,R11*%
X101122500Y-89862742D02*
X101122500Y-90337258D01*
X100077500Y-89862742D02*
X100077500Y-90337258D01*
%TO.C,J1*%
X136980000Y-93130000D02*
X139050000Y-93130000D01*
X136750000Y-98300000D02*
X136450000Y-98600000D01*
X136980000Y-100000000D02*
X136980000Y-100870000D01*
X136750000Y-98300000D02*
X136450000Y-98000000D01*
X136980000Y-100870000D02*
X139050000Y-100870000D01*
X141450000Y-100870000D02*
X141700000Y-100870000D01*
X136450000Y-98000000D02*
X136450000Y-98600000D01*
X141450000Y-93130000D02*
X141700000Y-93130000D01*
X136980000Y-93130000D02*
X136980000Y-94000000D01*
%TO.C,C5*%
X120310000Y-96359420D02*
X120310000Y-96640580D01*
X119290000Y-96359420D02*
X119290000Y-96640580D01*
%TD*%
M02*
