%TF.GenerationSoftware,KiCad,Pcbnew,6.0.0*%
%TF.CreationDate,2022-01-07T13:30:00+01:00*%
%TF.ProjectId,ir_daughter_board,69725f64-6175-4676-9874-65725f626f61,rev?*%
%TF.SameCoordinates,Original*%
%TF.FileFunction,Copper,L2,Bot*%
%TF.FilePolarity,Positive*%
%FSLAX46Y46*%
G04 Gerber Fmt 4.6, Leading zero omitted, Abs format (unit mm)*
G04 Created by KiCad (PCBNEW 6.0.0) date 2022-01-07 13:30:00*
%MOMM*%
%LPD*%
G01*
G04 APERTURE LIST*
G04 Aperture macros list*
%AMRoundRect*
0 Rectangle with rounded corners*
0 $1 Rounding radius*
0 $2 $3 $4 $5 $6 $7 $8 $9 X,Y pos of 4 corners*
0 Add a 4 corners polygon primitive as box body*
4,1,4,$2,$3,$4,$5,$6,$7,$8,$9,$2,$3,0*
0 Add four circle primitives for the rounded corners*
1,1,$1+$1,$2,$3*
1,1,$1+$1,$4,$5*
1,1,$1+$1,$6,$7*
1,1,$1+$1,$8,$9*
0 Add four rect primitives between the rounded corners*
20,1,$1+$1,$2,$3,$4,$5,0*
20,1,$1+$1,$4,$5,$6,$7,0*
20,1,$1+$1,$6,$7,$8,$9,0*
20,1,$1+$1,$8,$9,$2,$3,0*%
G04 Aperture macros list end*
%TA.AperFunction,ComponentPad*%
%ADD10O,1.700000X1.700000*%
%TD*%
%TA.AperFunction,ComponentPad*%
%ADD11R,1.700000X1.700000*%
%TD*%
%TA.AperFunction,ComponentPad*%
%ADD12O,1.900000X1.000000*%
%TD*%
%TA.AperFunction,ComponentPad*%
%ADD13O,1.250000X1.050000*%
%TD*%
%TA.AperFunction,SMDPad,CuDef*%
%ADD14RoundRect,0.200000X-0.200000X-0.275000X0.200000X-0.275000X0.200000X0.275000X-0.200000X0.275000X0*%
%TD*%
%TA.AperFunction,SMDPad,CuDef*%
%ADD15RoundRect,0.200000X0.200000X0.275000X-0.200000X0.275000X-0.200000X-0.275000X0.200000X-0.275000X0*%
%TD*%
%TA.AperFunction,SMDPad,CuDef*%
%ADD16RoundRect,0.150000X0.725000X0.150000X-0.725000X0.150000X-0.725000X-0.150000X0.725000X-0.150000X0*%
%TD*%
%TA.AperFunction,SMDPad,CuDef*%
%ADD17RoundRect,0.225000X0.225000X0.250000X-0.225000X0.250000X-0.225000X-0.250000X0.225000X-0.250000X0*%
%TD*%
%TA.AperFunction,SMDPad,CuDef*%
%ADD18R,2.500000X1.800000*%
%TD*%
%TA.AperFunction,SMDPad,CuDef*%
%ADD19RoundRect,0.250000X-0.275000X-0.700000X0.275000X-0.700000X0.275000X0.700000X-0.275000X0.700000X0*%
%TD*%
%TA.AperFunction,SMDPad,CuDef*%
%ADD20RoundRect,0.225000X-0.250000X0.225000X-0.250000X-0.225000X0.250000X-0.225000X0.250000X0.225000X0*%
%TD*%
%TA.AperFunction,SMDPad,CuDef*%
%ADD21RoundRect,0.225000X0.250000X-0.225000X0.250000X0.225000X-0.250000X0.225000X-0.250000X-0.225000X0*%
%TD*%
%TA.AperFunction,ComponentPad*%
%ADD22C,1.800000*%
%TD*%
%TA.AperFunction,ComponentPad*%
%ADD23R,1.800000X1.800000*%
%TD*%
%TA.AperFunction,ViaPad*%
%ADD24C,0.400000*%
%TD*%
%TA.AperFunction,Conductor*%
%ADD25C,0.400000*%
%TD*%
G04 APERTURE END LIST*
D10*
%TO.P,J2,12,Pin_12*%
%TO.N,GPIO 15*%
X135255000Y-111000000D03*
%TO.P,J2,11,Pin_11*%
%TO.N,GPIO 13*%
X132715000Y-111000000D03*
%TO.P,J2,10,Pin_10*%
%TO.N,GPIO 12*%
X130175000Y-111000000D03*
%TO.P,J2,9,Pin_9*%
%TO.N,GPIO 27*%
X127635000Y-111000000D03*
%TO.P,J2,8,Pin_8*%
%TO.N,GPIO 26*%
X125095000Y-111000000D03*
%TO.P,J2,7,Pin_7*%
%TO.N,GPIO 25*%
X122555000Y-111000000D03*
%TO.P,J2,6,Pin_6*%
%TO.N,GPIO 33*%
X120015000Y-111000000D03*
%TO.P,J2,5,Pin_5*%
%TO.N,GPIO 32*%
X117475000Y-111000000D03*
%TO.P,J2,4,Pin_4*%
%TO.N,GPIO 35*%
X114935000Y-111000000D03*
%TO.P,J2,3,Pin_3*%
%TO.N,GPIO 34*%
X112395000Y-111000000D03*
%TO.P,J2,2,Pin_2*%
%TO.N,VCC_3V3*%
X109855000Y-111000000D03*
D11*
%TO.P,J2,1,Pin_1*%
%TO.N,GND*%
X107315000Y-111000000D03*
%TD*%
%TO.P,J3,1,Pin_1*%
%TO.N,GND*%
X107315000Y-79000000D03*
D10*
%TO.P,J3,2,Pin_2*%
%TO.N,GPIO 23*%
X109855000Y-79000000D03*
%TO.P,J3,3,Pin_3*%
%TO.N,GPIO 22*%
X112395000Y-79000000D03*
%TO.P,J3,4,Pin_4*%
%TO.N,GPIO 21*%
X114935000Y-79000000D03*
%TO.P,J3,5,Pin_5*%
%TO.N,GPIO 19*%
X117475000Y-79000000D03*
%TO.P,J3,6,Pin_6*%
%TO.N,GPIO 18*%
X120015000Y-79000000D03*
%TO.P,J3,7,Pin_7*%
%TO.N,GPIO 05*%
X122555000Y-79000000D03*
%TO.P,J3,8,Pin_8*%
%TO.N,GPIO 17*%
X125095000Y-79000000D03*
%TO.P,J3,9,Pin_9*%
%TO.N,GPIO 16*%
X127635000Y-79000000D03*
%TO.P,J3,10,Pin_10*%
%TO.N,GPIO 04*%
X130175000Y-79000000D03*
%TO.P,J3,11,Pin_11*%
%TO.N,GPIO 02*%
X132715000Y-79000000D03*
%TO.P,J3,12,Pin_12*%
%TO.N,VCC_3V3*%
X135255000Y-79000000D03*
%TD*%
D12*
%TO.P,J1,6,Shield*%
%TO.N,GND*%
X154800000Y-90825000D03*
D13*
X151800000Y-97225000D03*
X151800000Y-92775000D03*
D12*
X154800000Y-99175000D03*
%TD*%
D14*
%TO.P,R12,1*%
%TO.N,FEEDBACK*%
X112425000Y-92048000D03*
%TO.P,R12,2*%
%TO.N,GND*%
X114075000Y-92048000D03*
%TD*%
D15*
%TO.P,R11,2*%
%TO.N,FEEDBACK*%
X112425000Y-90250000D03*
%TO.P,R11,1*%
%TO.N,VCC_3V3*%
X114075000Y-90250000D03*
%TD*%
D14*
%TO.P,R10,2*%
%TO.N,GND*%
X114075000Y-93750000D03*
%TO.P,R10,1*%
%TO.N,Net-(C11-Pad2)*%
X112425000Y-93750000D03*
%TD*%
D16*
%TO.P,IC1,8,GND*%
%TO.N,GND*%
X103850000Y-89595000D03*
%TO.P,IC1,7,GND*%
X103850000Y-90865000D03*
%TO.P,IC1,6,GND*%
X103850000Y-92135000D03*
%TO.P,IC1,5,GND*%
X103850000Y-93405000D03*
%TO.P,IC1,4,ENABLE*%
%TO.N,Net-(C11-Pad2)*%
X109000000Y-93405000D03*
%TO.P,IC1,3,FEEDBACK*%
%TO.N,FEEDBACK*%
X109000000Y-92135000D03*
%TO.P,IC1,2,SW_OUTPUT*%
%TO.N,SW_OUTPUT*%
X109000000Y-90865000D03*
%TO.P,IC1,1,INPUT*%
%TO.N,VCC_USB*%
X109000000Y-89595000D03*
%TD*%
D17*
%TO.P,C12,2*%
%TO.N,FEEDBACK*%
X112475000Y-88500000D03*
%TO.P,C12,1*%
%TO.N,VCC_3V3*%
X114025000Y-88500000D03*
%TD*%
%TO.P,C11,1*%
%TO.N,VCC_USB*%
X114025000Y-95500000D03*
%TO.P,C11,2*%
%TO.N,Net-(C11-Pad2)*%
X112475000Y-95500000D03*
%TD*%
D18*
%TO.P,D1,2,A*%
%TO.N,GND*%
X104250000Y-86750000D03*
%TO.P,D1,1,K*%
%TO.N,SW_OUTPUT*%
X108250000Y-86750000D03*
%TD*%
D17*
%TO.P,C8,1*%
%TO.N,VCC_3V3*%
X114025000Y-99000000D03*
%TO.P,C8,2*%
%TO.N,GND*%
X112475000Y-99000000D03*
%TD*%
D19*
%TO.P,L1,2,2*%
%TO.N,VCC_3V3*%
X113900000Y-86250000D03*
%TO.P,L1,1,1*%
%TO.N,SW_OUTPUT*%
X110750000Y-86250000D03*
%TD*%
D20*
%TO.P,C10,1*%
%TO.N,EN*%
X110500000Y-97225000D03*
%TO.P,C10,2*%
%TO.N,GND*%
X110500000Y-98775000D03*
%TD*%
D14*
%TO.P,R7,1*%
%TO.N,Net-(D5-Pad2)*%
X139925000Y-79750000D03*
%TO.P,R7,2*%
%TO.N,VCC_USB*%
X141575000Y-79750000D03*
%TD*%
D21*
%TO.P,C2,1*%
%TO.N,VCC_USB*%
X119000000Y-92025000D03*
%TO.P,C2,2*%
%TO.N,GND*%
X119000000Y-90475000D03*
%TD*%
D22*
%TO.P,D6,2,A*%
%TO.N,IR*%
X100750000Y-96250000D03*
D23*
%TO.P,D6,1,K*%
%TO.N,GND*%
X100750000Y-93710000D03*
%TD*%
D17*
%TO.P,C3,2*%
%TO.N,GND*%
X112225000Y-84024000D03*
%TO.P,C3,1*%
%TO.N,VCC_3V3*%
X113775000Y-84024000D03*
%TD*%
D15*
%TO.P,R3,2*%
%TO.N,Net-(R3-Pad2)*%
X141500000Y-107500000D03*
%TO.P,R3,1*%
%TO.N,VCC_USB*%
X143150000Y-107500000D03*
%TD*%
D21*
%TO.P,C1,2*%
%TO.N,GND*%
X120750000Y-90475000D03*
%TO.P,C1,1*%
%TO.N,VCC_USB*%
X120750000Y-92025000D03*
%TD*%
D17*
%TO.P,C7,1*%
%TO.N,VCC_3V3*%
X114025000Y-100750000D03*
%TO.P,C7,2*%
%TO.N,GND*%
X112475000Y-100750000D03*
%TD*%
%TO.P,C4,1*%
%TO.N,VCC_3V3*%
X113775000Y-82500000D03*
%TO.P,C4,2*%
%TO.N,GND*%
X112225000Y-82500000D03*
%TD*%
D15*
%TO.P,R6,1*%
%TO.N,VCC_USB*%
X141575000Y-78000000D03*
%TO.P,R6,2*%
%TO.N,Net-(D4-Pad2)*%
X139925000Y-78000000D03*
%TD*%
D14*
%TO.P,R5,1*%
%TO.N,Net-(D3-Pad2)*%
X139925000Y-81500000D03*
%TO.P,R5,2*%
%TO.N,VCC_USB*%
X141575000Y-81500000D03*
%TD*%
D20*
%TO.P,C9,1*%
%TO.N,EN*%
X108774999Y-97224999D03*
%TO.P,C9,2*%
%TO.N,GND*%
X108774999Y-98774999D03*
%TD*%
D15*
%TO.P,R4,2*%
%TO.N,Net-(D2-Pad2)*%
X139925000Y-83250000D03*
%TO.P,R4,1*%
%TO.N,VCC_USB*%
X141575000Y-83250000D03*
%TD*%
D14*
%TO.P,R9,1*%
%TO.N,EN*%
X112425000Y-97250000D03*
%TO.P,R9,2*%
%TO.N,VCC_3V3*%
X114075000Y-97250000D03*
%TD*%
D24*
%TO.N,GND*%
X141400000Y-105200000D03*
%TO.N,VCC_USB*%
X146800000Y-93000000D03*
%TO.N,TXD*%
X135000000Y-108000000D03*
%TO.N,GND*%
X147600000Y-104600000D03*
%TO.N,TXLED*%
X144200000Y-104400000D03*
%TO.N,RXLED*%
X144400000Y-106600000D03*
%TO.N,USBCFG*%
X148968102Y-80601274D03*
%TO.N,SSPND*%
X148400000Y-81200000D03*
%TO.N,Net-(D2-Pad2)*%
X139250000Y-83250000D03*
%TO.N,Net-(D3-Pad2)*%
X139000000Y-81500000D03*
%TO.N,Net-(D5-Pad2)*%
X139250000Y-79750000D03*
%TO.N,Net-(D4-Pad2)*%
X139000000Y-78000000D03*
X139925000Y-78000000D03*
%TO.N,EN*%
X115750000Y-103500000D03*
X115735000Y-100560000D03*
%TO.N,GND*%
X115648000Y-90475000D03*
%TO.N,VCC_3V3*%
X132250000Y-88500000D03*
X139250000Y-103750000D03*
%TO.N,GND*%
X120750000Y-90475000D03*
%TO.N,VCC_3V3*%
X114075000Y-90250000D03*
X114025000Y-97300000D03*
%TO.N,GND*%
X133795000Y-92650000D03*
X132000000Y-101250000D03*
%TO.N,EN*%
X133795000Y-97150000D03*
X128500000Y-97250000D03*
X112425000Y-97250000D03*
%TO.N,RXD*%
X138000000Y-112250000D03*
X116500000Y-94000000D03*
%TO.N,TXD*%
X123500000Y-91250000D03*
%TO.N,USBCFG*%
X149129776Y-107624422D03*
%TO.N,SSPND*%
X148500000Y-107250000D03*
%TO.N,RXLED*%
X144000000Y-84250000D03*
%TO.N,TXLED*%
X143250000Y-84500000D03*
%TO.N,Net-(R3-Pad2)*%
X139245000Y-107275000D03*
%TO.N,VCC_USB*%
X146255000Y-107275000D03*
%TO.N,GND*%
X113195000Y-103500000D03*
%TO.N,VCC_3V3*%
X114465000Y-103500000D03*
%TO.N,BOOT*%
X133795000Y-85650000D03*
X129705000Y-86500000D03*
%TD*%
D25*
%TO.N,GND*%
X135950000Y-105200000D02*
X132000000Y-101250000D01*
X141400000Y-105200000D02*
X135950000Y-105200000D01*
%TO.N,VCC_USB*%
X141750000Y-87750000D02*
X146800000Y-92800000D01*
X146800000Y-92800000D02*
X146800000Y-93000000D01*
%TO.N,TXD*%
X135000000Y-108000000D02*
X135000000Y-105750000D01*
X135000000Y-105750000D02*
X123500000Y-94250000D01*
X123500000Y-94250000D02*
X123500000Y-91250000D01*
%TO.N,GND*%
X147600000Y-104600000D02*
X147600000Y-108400000D01*
X154800000Y-103800000D02*
X154800000Y-99175000D01*
X147600000Y-108400000D02*
X148600000Y-109400000D01*
X148600000Y-109400000D02*
X149200000Y-109400000D01*
X149200000Y-109400000D02*
X154800000Y-103800000D01*
%TO.N,TXLED*%
X147500000Y-101250000D02*
X147500000Y-88750000D01*
X144200000Y-104400000D02*
X147500000Y-101100000D01*
%TO.N,RXLED*%
X144400000Y-105350138D02*
X144400000Y-106600000D01*
X148166758Y-101583380D02*
X144400000Y-105350138D01*
%TO.N,USBCFG*%
X149500000Y-81133172D02*
X148968102Y-80601274D01*
X149500000Y-107254198D02*
X149500000Y-81133172D01*
%TO.N,SSPND*%
X148750000Y-81550000D02*
X148400000Y-81200000D01*
X148750000Y-107000000D02*
X148750000Y-81550000D01*
%TO.N,Net-(D2-Pad2)*%
X139925000Y-83250000D02*
X139250000Y-83250000D01*
%TO.N,Net-(D3-Pad2)*%
X139000000Y-81500000D02*
X139925000Y-81500000D01*
%TO.N,Net-(D5-Pad2)*%
X139925000Y-79750000D02*
X139250000Y-79750000D01*
%TO.N,Net-(D4-Pad2)*%
X139000000Y-78000000D02*
X139925000Y-78000000D01*
%TO.N,EN*%
X115750000Y-100575000D02*
X115735000Y-100560000D01*
X115750000Y-103500000D02*
X115750000Y-100575000D01*
%TO.N,VCC_3V3*%
X139250000Y-95500000D02*
X132250000Y-88500000D01*
X139250000Y-103750000D02*
X139250000Y-95500000D01*
X113775000Y-82500000D02*
X131755000Y-82500000D01*
X131755000Y-82500000D02*
X135255000Y-79000000D01*
%TO.N,GND*%
X108774999Y-98774999D02*
X103850000Y-93850000D01*
X103850000Y-93850000D02*
X103850000Y-93405000D01*
%TO.N,VCC_3V3*%
X114075000Y-97250000D02*
X114025000Y-97300000D01*
%TO.N,GND*%
X114075000Y-92048000D02*
X115648000Y-90475000D01*
X115648000Y-90475000D02*
X119000000Y-90475000D01*
X135225000Y-99250000D02*
X135225000Y-94080000D01*
X135225000Y-94080000D02*
X133795000Y-92650000D01*
X133225000Y-101250000D02*
X132000000Y-101250000D01*
X135225000Y-99250000D02*
X133225000Y-101250000D01*
%TO.N,EN*%
X128500000Y-97250000D02*
X133695000Y-97250000D01*
X133695000Y-97250000D02*
X133795000Y-97150000D01*
%TO.N,RXD*%
X138000000Y-112081161D02*
X125418839Y-99500000D01*
X118250000Y-99500000D02*
X125418839Y-99500000D01*
X138000000Y-112250000D02*
X138000000Y-112081161D01*
X116500000Y-97750000D02*
X116500000Y-94000000D01*
X118250000Y-99500000D02*
X116500000Y-97750000D01*
%TO.N,VCC_USB*%
X143150000Y-107500000D02*
X143150000Y-89150000D01*
%TO.N,USBCFG*%
X149129776Y-107624422D02*
X149500000Y-107254198D01*
%TO.N,SSPND*%
X148750000Y-107000000D02*
X148500000Y-107250000D01*
%TO.N,RXLED*%
X148166758Y-88416758D02*
X148166758Y-101583380D01*
X144000000Y-84250000D02*
X148166758Y-88416758D01*
%TO.N,TXLED*%
X147500000Y-88750000D02*
X143250000Y-84500000D01*
%TO.N,VCC_USB*%
X119000000Y-92025000D02*
X120750000Y-92025000D01*
X119000000Y-92025000D02*
X117500000Y-92025000D01*
X117500000Y-92025000D02*
X114025000Y-95500000D01*
X141750000Y-87750000D02*
X126000000Y-87750000D01*
X126000000Y-87750000D02*
X121725000Y-92025000D01*
X121725000Y-92025000D02*
X120750000Y-92025000D01*
X141575000Y-78000000D02*
X141575000Y-79750000D01*
X141575000Y-81500000D02*
X141575000Y-79750000D01*
X141575000Y-83250000D02*
X141575000Y-81500000D01*
X141750000Y-83425000D02*
X141575000Y-83250000D01*
X141750000Y-87750000D02*
X141750000Y-83425000D01*
%TO.N,Net-(R3-Pad2)*%
X141500000Y-107500000D02*
X139470000Y-107500000D01*
X139470000Y-107500000D02*
X139245000Y-107275000D01*
%TO.N,VCC_USB*%
X143150000Y-107500000D02*
X146030000Y-107500000D01*
X146030000Y-107500000D02*
X146255000Y-107275000D01*
%TO.N,GND*%
X151800000Y-97225000D02*
X152850000Y-97225000D01*
X152850000Y-97225000D02*
X154800000Y-99175000D01*
%TO.N,VCC_3V3*%
X113775000Y-84024000D02*
X113775000Y-82500000D01*
X113900000Y-86250000D02*
X113900000Y-84149000D01*
X113900000Y-84149000D02*
X113775000Y-84024000D01*
X114025000Y-88500000D02*
X114025000Y-86375000D01*
X114025000Y-86375000D02*
X113900000Y-86250000D01*
X114075000Y-90250000D02*
X114075000Y-88550000D01*
X114075000Y-88550000D02*
X114025000Y-88500000D01*
%TO.N,GND*%
X112475000Y-100750000D02*
X112475000Y-102780000D01*
X112475000Y-102780000D02*
X113195000Y-103500000D01*
%TO.N,VCC_3V3*%
X114025000Y-100750000D02*
X114025000Y-103060000D01*
X114025000Y-103060000D02*
X114465000Y-103500000D01*
X114025000Y-99000000D02*
X114025000Y-97300000D01*
X114025000Y-100750000D02*
X114025000Y-99000000D01*
%TO.N,GND*%
X112475000Y-99000000D02*
X110725000Y-99000000D01*
X110725000Y-99000000D02*
X110500000Y-98775000D01*
X112475000Y-100750000D02*
X112475000Y-99000000D01*
X108774999Y-98774999D02*
X110500000Y-98775000D01*
%TO.N,EN*%
X112425000Y-97250000D02*
X110525000Y-97250000D01*
X110525000Y-97250000D02*
X110500000Y-97225000D01*
X108774999Y-97224999D02*
X110500000Y-97225000D01*
%TO.N,SW_OUTPUT*%
X110750000Y-86250000D02*
X108750000Y-86250000D01*
X108750000Y-86250000D02*
X108250000Y-86750000D01*
X109000000Y-90865000D02*
X109278901Y-90865000D01*
X109278901Y-90865000D02*
X110750000Y-89393901D01*
X110750000Y-89393901D02*
X110750000Y-86250000D01*
%TO.N,VCC_USB*%
X109000000Y-89595000D02*
X108721099Y-89595000D01*
X108721099Y-89595000D02*
X107500000Y-90816099D01*
X107500000Y-90816099D02*
X107500000Y-93453901D01*
X107500000Y-93453901D02*
X110347619Y-96301520D01*
X110347619Y-96301520D02*
X113223480Y-96301520D01*
X113223480Y-96301520D02*
X114025000Y-95500000D01*
%TO.N,Net-(C11-Pad2)*%
X112425000Y-93750000D02*
X112425000Y-95450000D01*
X112425000Y-95450000D02*
X112475000Y-95500000D01*
X109000000Y-93405000D02*
X112080000Y-93405000D01*
X112080000Y-93405000D02*
X112425000Y-93750000D01*
%TO.N,FEEDBACK*%
X109000000Y-92135000D02*
X112338000Y-92135000D01*
X112338000Y-92135000D02*
X112425000Y-92048000D01*
X112475000Y-88500000D02*
X112475000Y-91998000D01*
X112475000Y-91998000D02*
X112425000Y-92048000D01*
%TO.N,GND*%
X119000000Y-90475000D02*
X120750000Y-90475000D01*
X114075000Y-93750000D02*
X114075000Y-92048000D01*
X103850000Y-93405000D02*
X101055000Y-93405000D01*
X101055000Y-93405000D02*
X100750000Y-93710000D01*
X103850000Y-92135000D02*
X103850000Y-93405000D01*
X103850000Y-90865000D02*
X103850000Y-92135000D01*
X103850000Y-89595000D02*
X103850000Y-90865000D01*
X104250000Y-86750000D02*
X104250000Y-89195000D01*
X104250000Y-89195000D02*
X103850000Y-89595000D01*
X104250000Y-86750000D02*
X104250000Y-82065000D01*
X104250000Y-82065000D02*
X107315000Y-79000000D01*
X112225000Y-82500000D02*
X110815000Y-82500000D01*
X110815000Y-82500000D02*
X107315000Y-79000000D01*
X112225000Y-82500000D02*
X112225000Y-84024000D01*
%TO.N,BOOT*%
X129705000Y-86500000D02*
X132945000Y-86500000D01*
X132945000Y-86500000D02*
X133795000Y-85650000D01*
%TD*%
%TA.AperFunction,Conductor*%
%TO.N,GND*%
G36*
X106164396Y-77528002D02*
G01*
X106210889Y-77581658D01*
X106220993Y-77651932D01*
X106191499Y-77716512D01*
X106171840Y-77734826D01*
X106109276Y-77781715D01*
X106096715Y-77794276D01*
X106020214Y-77896351D01*
X106011676Y-77911946D01*
X105966522Y-78032394D01*
X105962895Y-78047649D01*
X105957369Y-78098514D01*
X105957000Y-78105328D01*
X105957000Y-78727885D01*
X105961475Y-78743124D01*
X105962865Y-78744329D01*
X105970548Y-78746000D01*
X107443000Y-78746000D01*
X107511121Y-78766002D01*
X107557614Y-78819658D01*
X107569000Y-78872000D01*
X107569000Y-80339884D01*
X107573475Y-80355123D01*
X107574865Y-80356328D01*
X107582548Y-80357999D01*
X108209669Y-80357999D01*
X108216490Y-80357629D01*
X108267352Y-80352105D01*
X108282604Y-80348479D01*
X108403054Y-80303324D01*
X108418649Y-80294786D01*
X108520724Y-80218285D01*
X108533285Y-80205724D01*
X108609786Y-80103649D01*
X108618324Y-80088054D01*
X108659225Y-79978952D01*
X108701867Y-79922188D01*
X108768428Y-79897488D01*
X108837777Y-79912696D01*
X108872444Y-79940684D01*
X108897865Y-79970031D01*
X108897869Y-79970035D01*
X108901250Y-79973938D01*
X109073126Y-80116632D01*
X109266000Y-80229338D01*
X109474692Y-80309030D01*
X109479760Y-80310061D01*
X109479763Y-80310062D01*
X109554150Y-80325196D01*
X109693597Y-80353567D01*
X109698772Y-80353757D01*
X109698774Y-80353757D01*
X109911673Y-80361564D01*
X109911677Y-80361564D01*
X109916837Y-80361753D01*
X109921957Y-80361097D01*
X109921959Y-80361097D01*
X110133288Y-80334025D01*
X110133289Y-80334025D01*
X110138416Y-80333368D01*
X110155895Y-80328124D01*
X110347429Y-80270661D01*
X110347434Y-80270659D01*
X110352384Y-80269174D01*
X110552994Y-80170896D01*
X110734860Y-80041173D01*
X110738710Y-80037337D01*
X110828052Y-79948306D01*
X110893096Y-79883489D01*
X110906845Y-79864356D01*
X111023453Y-79702077D01*
X111024776Y-79703028D01*
X111071645Y-79659857D01*
X111141580Y-79647625D01*
X111207026Y-79675144D01*
X111234875Y-79706994D01*
X111294987Y-79805088D01*
X111441250Y-79973938D01*
X111613126Y-80116632D01*
X111806000Y-80229338D01*
X112014692Y-80309030D01*
X112019760Y-80310061D01*
X112019763Y-80310062D01*
X112094150Y-80325196D01*
X112233597Y-80353567D01*
X112238772Y-80353757D01*
X112238774Y-80353757D01*
X112451673Y-80361564D01*
X112451677Y-80361564D01*
X112456837Y-80361753D01*
X112461957Y-80361097D01*
X112461959Y-80361097D01*
X112673288Y-80334025D01*
X112673289Y-80334025D01*
X112678416Y-80333368D01*
X112695895Y-80328124D01*
X112887429Y-80270661D01*
X112887434Y-80270659D01*
X112892384Y-80269174D01*
X113092994Y-80170896D01*
X113274860Y-80041173D01*
X113278710Y-80037337D01*
X113368052Y-79948306D01*
X113433096Y-79883489D01*
X113446845Y-79864356D01*
X113563453Y-79702077D01*
X113564776Y-79703028D01*
X113611645Y-79659857D01*
X113681580Y-79647625D01*
X113747026Y-79675144D01*
X113774875Y-79706994D01*
X113834987Y-79805088D01*
X113981250Y-79973938D01*
X114153126Y-80116632D01*
X114346000Y-80229338D01*
X114554692Y-80309030D01*
X114559760Y-80310061D01*
X114559763Y-80310062D01*
X114634150Y-80325196D01*
X114773597Y-80353567D01*
X114778772Y-80353757D01*
X114778774Y-80353757D01*
X114991673Y-80361564D01*
X114991677Y-80361564D01*
X114996837Y-80361753D01*
X115001957Y-80361097D01*
X115001959Y-80361097D01*
X115213288Y-80334025D01*
X115213289Y-80334025D01*
X115218416Y-80333368D01*
X115235895Y-80328124D01*
X115427429Y-80270661D01*
X115427434Y-80270659D01*
X115432384Y-80269174D01*
X115632994Y-80170896D01*
X115814860Y-80041173D01*
X115818710Y-80037337D01*
X115908052Y-79948306D01*
X115973096Y-79883489D01*
X115986845Y-79864356D01*
X116103453Y-79702077D01*
X116104776Y-79703028D01*
X116151645Y-79659857D01*
X116221580Y-79647625D01*
X116287026Y-79675144D01*
X116314875Y-79706994D01*
X116374987Y-79805088D01*
X116521250Y-79973938D01*
X116693126Y-80116632D01*
X116886000Y-80229338D01*
X117094692Y-80309030D01*
X117099760Y-80310061D01*
X117099763Y-80310062D01*
X117174150Y-80325196D01*
X117313597Y-80353567D01*
X117318772Y-80353757D01*
X117318774Y-80353757D01*
X117531673Y-80361564D01*
X117531677Y-80361564D01*
X117536837Y-80361753D01*
X117541957Y-80361097D01*
X117541959Y-80361097D01*
X117753288Y-80334025D01*
X117753289Y-80334025D01*
X117758416Y-80333368D01*
X117775895Y-80328124D01*
X117967429Y-80270661D01*
X117967434Y-80270659D01*
X117972384Y-80269174D01*
X118172994Y-80170896D01*
X118354860Y-80041173D01*
X118358710Y-80037337D01*
X118448052Y-79948306D01*
X118513096Y-79883489D01*
X118526845Y-79864356D01*
X118643453Y-79702077D01*
X118644776Y-79703028D01*
X118691645Y-79659857D01*
X118761580Y-79647625D01*
X118827026Y-79675144D01*
X118854875Y-79706994D01*
X118914987Y-79805088D01*
X119061250Y-79973938D01*
X119233126Y-80116632D01*
X119426000Y-80229338D01*
X119634692Y-80309030D01*
X119639760Y-80310061D01*
X119639763Y-80310062D01*
X119714150Y-80325196D01*
X119853597Y-80353567D01*
X119858772Y-80353757D01*
X119858774Y-80353757D01*
X120071673Y-80361564D01*
X120071677Y-80361564D01*
X120076837Y-80361753D01*
X120081957Y-80361097D01*
X120081959Y-80361097D01*
X120293288Y-80334025D01*
X120293289Y-80334025D01*
X120298416Y-80333368D01*
X120315895Y-80328124D01*
X120507429Y-80270661D01*
X120507434Y-80270659D01*
X120512384Y-80269174D01*
X120712994Y-80170896D01*
X120894860Y-80041173D01*
X120898710Y-80037337D01*
X120988052Y-79948306D01*
X121053096Y-79883489D01*
X121066845Y-79864356D01*
X121183453Y-79702077D01*
X121184776Y-79703028D01*
X121231645Y-79659857D01*
X121301580Y-79647625D01*
X121367026Y-79675144D01*
X121394875Y-79706994D01*
X121454987Y-79805088D01*
X121601250Y-79973938D01*
X121773126Y-80116632D01*
X121966000Y-80229338D01*
X122174692Y-80309030D01*
X122179760Y-80310061D01*
X122179763Y-80310062D01*
X122254150Y-80325196D01*
X122393597Y-80353567D01*
X122398772Y-80353757D01*
X122398774Y-80353757D01*
X122611673Y-80361564D01*
X122611677Y-80361564D01*
X122616837Y-80361753D01*
X122621957Y-80361097D01*
X122621959Y-80361097D01*
X122833288Y-80334025D01*
X122833289Y-80334025D01*
X122838416Y-80333368D01*
X122855895Y-80328124D01*
X123047429Y-80270661D01*
X123047434Y-80270659D01*
X123052384Y-80269174D01*
X123252994Y-80170896D01*
X123434860Y-80041173D01*
X123438710Y-80037337D01*
X123528052Y-79948306D01*
X123593096Y-79883489D01*
X123606845Y-79864356D01*
X123723453Y-79702077D01*
X123724776Y-79703028D01*
X123771645Y-79659857D01*
X123841580Y-79647625D01*
X123907026Y-79675144D01*
X123934875Y-79706994D01*
X123994987Y-79805088D01*
X124141250Y-79973938D01*
X124313126Y-80116632D01*
X124506000Y-80229338D01*
X124714692Y-80309030D01*
X124719760Y-80310061D01*
X124719763Y-80310062D01*
X124794150Y-80325196D01*
X124933597Y-80353567D01*
X124938772Y-80353757D01*
X124938774Y-80353757D01*
X125151673Y-80361564D01*
X125151677Y-80361564D01*
X125156837Y-80361753D01*
X125161957Y-80361097D01*
X125161959Y-80361097D01*
X125373288Y-80334025D01*
X125373289Y-80334025D01*
X125378416Y-80333368D01*
X125395895Y-80328124D01*
X125587429Y-80270661D01*
X125587434Y-80270659D01*
X125592384Y-80269174D01*
X125792994Y-80170896D01*
X125974860Y-80041173D01*
X125978710Y-80037337D01*
X126068052Y-79948306D01*
X126133096Y-79883489D01*
X126146845Y-79864356D01*
X126263453Y-79702077D01*
X126264776Y-79703028D01*
X126311645Y-79659857D01*
X126381580Y-79647625D01*
X126447026Y-79675144D01*
X126474875Y-79706994D01*
X126534987Y-79805088D01*
X126681250Y-79973938D01*
X126853126Y-80116632D01*
X127046000Y-80229338D01*
X127254692Y-80309030D01*
X127259760Y-80310061D01*
X127259763Y-80310062D01*
X127334150Y-80325196D01*
X127473597Y-80353567D01*
X127478772Y-80353757D01*
X127478774Y-80353757D01*
X127691673Y-80361564D01*
X127691677Y-80361564D01*
X127696837Y-80361753D01*
X127701957Y-80361097D01*
X127701959Y-80361097D01*
X127913288Y-80334025D01*
X127913289Y-80334025D01*
X127918416Y-80333368D01*
X127935895Y-80328124D01*
X128127429Y-80270661D01*
X128127434Y-80270659D01*
X128132384Y-80269174D01*
X128332994Y-80170896D01*
X128514860Y-80041173D01*
X128518710Y-80037337D01*
X128608052Y-79948306D01*
X128673096Y-79883489D01*
X128686845Y-79864356D01*
X128803453Y-79702077D01*
X128804776Y-79703028D01*
X128851645Y-79659857D01*
X128921580Y-79647625D01*
X128987026Y-79675144D01*
X129014875Y-79706994D01*
X129074987Y-79805088D01*
X129221250Y-79973938D01*
X129393126Y-80116632D01*
X129586000Y-80229338D01*
X129794692Y-80309030D01*
X129799760Y-80310061D01*
X129799763Y-80310062D01*
X129874150Y-80325196D01*
X130013597Y-80353567D01*
X130018772Y-80353757D01*
X130018774Y-80353757D01*
X130231673Y-80361564D01*
X130231677Y-80361564D01*
X130236837Y-80361753D01*
X130241957Y-80361097D01*
X130241959Y-80361097D01*
X130453288Y-80334025D01*
X130453289Y-80334025D01*
X130458416Y-80333368D01*
X130475895Y-80328124D01*
X130667429Y-80270661D01*
X130667434Y-80270659D01*
X130672384Y-80269174D01*
X130872994Y-80170896D01*
X131054860Y-80041173D01*
X131058710Y-80037337D01*
X131148052Y-79948306D01*
X131213096Y-79883489D01*
X131226845Y-79864356D01*
X131343453Y-79702077D01*
X131344776Y-79703028D01*
X131391645Y-79659857D01*
X131461580Y-79647625D01*
X131527026Y-79675144D01*
X131554875Y-79706994D01*
X131614987Y-79805088D01*
X131761250Y-79973938D01*
X131933126Y-80116632D01*
X132126000Y-80229338D01*
X132334692Y-80309030D01*
X132339760Y-80310061D01*
X132339763Y-80310062D01*
X132414150Y-80325196D01*
X132553597Y-80353567D01*
X132558771Y-80353757D01*
X132558773Y-80353757D01*
X132570737Y-80354196D01*
X132598336Y-80355208D01*
X132665676Y-80377691D01*
X132710172Y-80433014D01*
X132717695Y-80503610D01*
X132682813Y-80570217D01*
X131498435Y-81754595D01*
X131436123Y-81788621D01*
X131409340Y-81791500D01*
X114631092Y-81791500D01*
X114562971Y-81771498D01*
X114542074Y-81754673D01*
X114502757Y-81715424D01*
X114457702Y-81670448D01*
X114433332Y-81655426D01*
X114318331Y-81584538D01*
X114318329Y-81584537D01*
X114312101Y-81580698D01*
X114149757Y-81526851D01*
X114142920Y-81526151D01*
X114142918Y-81526150D01*
X114101599Y-81521917D01*
X114048732Y-81516500D01*
X113501268Y-81516500D01*
X113498022Y-81516837D01*
X113498018Y-81516837D01*
X113468730Y-81519876D01*
X113398981Y-81527113D01*
X113389360Y-81530323D01*
X113243676Y-81578927D01*
X113243674Y-81578928D01*
X113236732Y-81581244D01*
X113230508Y-81585096D01*
X113230507Y-81585096D01*
X113158037Y-81629942D01*
X113091287Y-81671248D01*
X113086114Y-81676430D01*
X113080377Y-81680977D01*
X113078945Y-81679170D01*
X113026425Y-81707902D01*
X112955605Y-81702892D01*
X112919147Y-81679501D01*
X112918317Y-81680552D01*
X112901160Y-81667002D01*
X112768120Y-81584996D01*
X112754939Y-81578849D01*
X112606186Y-81529509D01*
X112592810Y-81526642D01*
X112501903Y-81517328D01*
X112496874Y-81517071D01*
X112481876Y-81521475D01*
X112480671Y-81522865D01*
X112479000Y-81530548D01*
X112479000Y-84988885D01*
X112483475Y-85004124D01*
X112484865Y-85005329D01*
X112492548Y-85007000D01*
X112495438Y-85007000D01*
X112501953Y-85006663D01*
X112594057Y-84997106D01*
X112607456Y-84994212D01*
X112756107Y-84944619D01*
X112769285Y-84938445D01*
X112882099Y-84868634D01*
X112950551Y-84849796D01*
X113018320Y-84870957D01*
X113063892Y-84925398D01*
X113072796Y-84995834D01*
X113037576Y-85064795D01*
X113025695Y-85076697D01*
X113021855Y-85082927D01*
X113021854Y-85082928D01*
X112945274Y-85207164D01*
X112932885Y-85227262D01*
X112930581Y-85234209D01*
X112886547Y-85366969D01*
X112877203Y-85395139D01*
X112876503Y-85401975D01*
X112876502Y-85401978D01*
X112875002Y-85416618D01*
X112866500Y-85499600D01*
X112866500Y-87000400D01*
X112866837Y-87003646D01*
X112866837Y-87003650D01*
X112876309Y-87094935D01*
X112877474Y-87106166D01*
X112879655Y-87112702D01*
X112879655Y-87112704D01*
X112883108Y-87123054D01*
X112933450Y-87273946D01*
X112971606Y-87335605D01*
X112990443Y-87404054D01*
X112969282Y-87471824D01*
X112914842Y-87517395D01*
X112850059Y-87523900D01*
X112849757Y-87526851D01*
X112748732Y-87516500D01*
X112201268Y-87516500D01*
X112198022Y-87516837D01*
X112198018Y-87516837D01*
X112163917Y-87520375D01*
X112098981Y-87527113D01*
X112092440Y-87529295D01*
X112092441Y-87529295D01*
X111943676Y-87578927D01*
X111943674Y-87578928D01*
X111936732Y-87581244D01*
X111930508Y-87585096D01*
X111930507Y-87585096D01*
X111838365Y-87642115D01*
X111791287Y-87671248D01*
X111786114Y-87676430D01*
X111673673Y-87789067D01*
X111611390Y-87823146D01*
X111540570Y-87818143D01*
X111483698Y-87775646D01*
X111458829Y-87709147D01*
X111458500Y-87700049D01*
X111458500Y-87640683D01*
X111478502Y-87572562D01*
X111499855Y-87548984D01*
X111499348Y-87548478D01*
X111554295Y-87493435D01*
X111624305Y-87423303D01*
X111717115Y-87272738D01*
X111764028Y-87131299D01*
X111770632Y-87111389D01*
X111770632Y-87111387D01*
X111772797Y-87104861D01*
X111774070Y-87092442D01*
X111778064Y-87053460D01*
X111783500Y-87000400D01*
X111783500Y-85499600D01*
X111782166Y-85486739D01*
X111773238Y-85400692D01*
X111773237Y-85400688D01*
X111772526Y-85393834D01*
X111761142Y-85359710D01*
X111718868Y-85233002D01*
X111716550Y-85226054D01*
X111686039Y-85176749D01*
X111667202Y-85108300D01*
X111688363Y-85040530D01*
X111742804Y-84994959D01*
X111813240Y-84986054D01*
X111832850Y-84990855D01*
X111843807Y-84994489D01*
X111857190Y-84997358D01*
X111948097Y-85006672D01*
X111953126Y-85006929D01*
X111968124Y-85002525D01*
X111969329Y-85001135D01*
X111971000Y-84993452D01*
X111971000Y-84296115D01*
X111966525Y-84280876D01*
X111965135Y-84279671D01*
X111957452Y-84278000D01*
X111285115Y-84278000D01*
X111269876Y-84282475D01*
X111268671Y-84283865D01*
X111267000Y-84291548D01*
X111267000Y-84319438D01*
X111267337Y-84325953D01*
X111276894Y-84418057D01*
X111279788Y-84431456D01*
X111329381Y-84580107D01*
X111335552Y-84593279D01*
X111355775Y-84625960D01*
X111374612Y-84694412D01*
X111353450Y-84762182D01*
X111299010Y-84807753D01*
X111228573Y-84816656D01*
X111208970Y-84811858D01*
X111179861Y-84802203D01*
X111173025Y-84801503D01*
X111173022Y-84801502D01*
X111129969Y-84797091D01*
X111075400Y-84791500D01*
X110424600Y-84791500D01*
X110421354Y-84791837D01*
X110421350Y-84791837D01*
X110325692Y-84801762D01*
X110325688Y-84801763D01*
X110318834Y-84802474D01*
X110312298Y-84804655D01*
X110312296Y-84804655D01*
X110276325Y-84816656D01*
X110151054Y-84858450D01*
X110000652Y-84951522D01*
X109995479Y-84956704D01*
X109958795Y-84993452D01*
X109875695Y-85076697D01*
X109871855Y-85082927D01*
X109871854Y-85082928D01*
X109795274Y-85207164D01*
X109782885Y-85227262D01*
X109769692Y-85267040D01*
X109769125Y-85268748D01*
X109728695Y-85327108D01*
X109663131Y-85354345D01*
X109620385Y-85351663D01*
X109617710Y-85351027D01*
X109610316Y-85348255D01*
X109602468Y-85347402D01*
X109602466Y-85347402D01*
X109551531Y-85341869D01*
X109548134Y-85341500D01*
X106951866Y-85341500D01*
X106889684Y-85348255D01*
X106753295Y-85399385D01*
X106636739Y-85486739D01*
X106549385Y-85603295D01*
X106498255Y-85739684D01*
X106491500Y-85801866D01*
X106491500Y-87698134D01*
X106498255Y-87760316D01*
X106549385Y-87896705D01*
X106636739Y-88013261D01*
X106753295Y-88100615D01*
X106889684Y-88151745D01*
X106951866Y-88158500D01*
X109548134Y-88158500D01*
X109610316Y-88151745D01*
X109746705Y-88100615D01*
X109839935Y-88030743D01*
X109906441Y-88005895D01*
X109975824Y-88020948D01*
X110026054Y-88071122D01*
X110041500Y-88131569D01*
X110041500Y-88683408D01*
X110021498Y-88751529D01*
X109967842Y-88798022D01*
X109897568Y-88808126D01*
X109880352Y-88804406D01*
X109854300Y-88796837D01*
X109835007Y-88791232D01*
X109835004Y-88791232D01*
X109828831Y-88789438D01*
X109822426Y-88788934D01*
X109822421Y-88788933D01*
X109793958Y-88786693D01*
X109793950Y-88786693D01*
X109791502Y-88786500D01*
X108208498Y-88786500D01*
X108206050Y-88786693D01*
X108206042Y-88786693D01*
X108177579Y-88788933D01*
X108177574Y-88788934D01*
X108171169Y-88789438D01*
X108106844Y-88808126D01*
X108019012Y-88833643D01*
X108019010Y-88833644D01*
X108011399Y-88835855D01*
X108004572Y-88839892D01*
X108004573Y-88839892D01*
X107875020Y-88916509D01*
X107875017Y-88916511D01*
X107868193Y-88920547D01*
X107750547Y-89038193D01*
X107746511Y-89045017D01*
X107746509Y-89045020D01*
X107732723Y-89068331D01*
X107665855Y-89181399D01*
X107663644Y-89189010D01*
X107663643Y-89189012D01*
X107657261Y-89210979D01*
X107619438Y-89341169D01*
X107616500Y-89378498D01*
X107616500Y-89645439D01*
X107596498Y-89713560D01*
X107579595Y-89734534D01*
X107019480Y-90294649D01*
X107013215Y-90300503D01*
X106969615Y-90338538D01*
X106965248Y-90344752D01*
X106932872Y-90390818D01*
X106928939Y-90396113D01*
X106889524Y-90446381D01*
X106886401Y-90453297D01*
X106885017Y-90455583D01*
X106876643Y-90470264D01*
X106875378Y-90472624D01*
X106871010Y-90478838D01*
X106868250Y-90485917D01*
X106868249Y-90485919D01*
X106847798Y-90538374D01*
X106845247Y-90544443D01*
X106818955Y-90602672D01*
X106817571Y-90610139D01*
X106816770Y-90612694D01*
X106812141Y-90628947D01*
X106811478Y-90631527D01*
X106808718Y-90638608D01*
X106801714Y-90691813D01*
X106800379Y-90701951D01*
X106799348Y-90708458D01*
X106787704Y-90771285D01*
X106788141Y-90778865D01*
X106788141Y-90778866D01*
X106791291Y-90833491D01*
X106791500Y-90840745D01*
X106791500Y-93424989D01*
X106791208Y-93433559D01*
X106788589Y-93471981D01*
X106787275Y-93491253D01*
X106788580Y-93498730D01*
X106788580Y-93498731D01*
X106798261Y-93554200D01*
X106799223Y-93560722D01*
X106806898Y-93624143D01*
X106809581Y-93631244D01*
X106810222Y-93633853D01*
X106814685Y-93650163D01*
X106815450Y-93652699D01*
X106816757Y-93660185D01*
X106828138Y-93686110D01*
X106842442Y-93718696D01*
X106844933Y-93724800D01*
X106867513Y-93784557D01*
X106871817Y-93790820D01*
X106873054Y-93793186D01*
X106881299Y-93807998D01*
X106882632Y-93810252D01*
X106885685Y-93817206D01*
X106901104Y-93837299D01*
X106924579Y-93867892D01*
X106928459Y-93873233D01*
X106960339Y-93919621D01*
X106960344Y-93919626D01*
X106964643Y-93925882D01*
X106970313Y-93930933D01*
X106970314Y-93930935D01*
X107011170Y-93967336D01*
X107016446Y-93972317D01*
X109095532Y-96051404D01*
X109129558Y-96113716D01*
X109124493Y-96184532D01*
X109081946Y-96241367D01*
X109015426Y-96266178D01*
X109006437Y-96266499D01*
X108476267Y-96266499D01*
X108473021Y-96266836D01*
X108473017Y-96266836D01*
X108438916Y-96270374D01*
X108373980Y-96277112D01*
X108367439Y-96279294D01*
X108367440Y-96279294D01*
X108218675Y-96328926D01*
X108218673Y-96328927D01*
X108211731Y-96331243D01*
X108205507Y-96335095D01*
X108205506Y-96335095D01*
X108109570Y-96394462D01*
X108066286Y-96421247D01*
X107945447Y-96542297D01*
X107941607Y-96548527D01*
X107941606Y-96548528D01*
X107861787Y-96678019D01*
X107855697Y-96687898D01*
X107801850Y-96850242D01*
X107801150Y-96857079D01*
X107801149Y-96857081D01*
X107797608Y-96891641D01*
X107791499Y-96951267D01*
X107791499Y-97498731D01*
X107791836Y-97501977D01*
X107791836Y-97501981D01*
X107793911Y-97521977D01*
X107802112Y-97601018D01*
X107805533Y-97611272D01*
X107822273Y-97661446D01*
X107856243Y-97763267D01*
X107860095Y-97769491D01*
X107860095Y-97769492D01*
X107890545Y-97818699D01*
X107946247Y-97908712D01*
X107951429Y-97913885D01*
X107955976Y-97919622D01*
X107954169Y-97921054D01*
X107982901Y-97973574D01*
X107977891Y-98044394D01*
X107954500Y-98080852D01*
X107955551Y-98081682D01*
X107942001Y-98098839D01*
X107859995Y-98231879D01*
X107853848Y-98245060D01*
X107804508Y-98393813D01*
X107801641Y-98407189D01*
X107792327Y-98498096D01*
X107792070Y-98503125D01*
X107796474Y-98518123D01*
X107797864Y-98519328D01*
X107805547Y-98520999D01*
X109797994Y-98520999D01*
X109798004Y-98521000D01*
X111397000Y-98521000D01*
X111465121Y-98541002D01*
X111511614Y-98594658D01*
X111523000Y-98647000D01*
X111523000Y-98727885D01*
X111527475Y-98743124D01*
X111528865Y-98744329D01*
X111536548Y-98746000D01*
X112603000Y-98746000D01*
X112671121Y-98766002D01*
X112717614Y-98819658D01*
X112729000Y-98872000D01*
X112729000Y-101714885D01*
X112733475Y-101730124D01*
X112734865Y-101731329D01*
X112742548Y-101733000D01*
X112745438Y-101733000D01*
X112751953Y-101732663D01*
X112844057Y-101723106D01*
X112857456Y-101720212D01*
X113006107Y-101670619D01*
X113019285Y-101664445D01*
X113124197Y-101599524D01*
X113192649Y-101580686D01*
X113260419Y-101601847D01*
X113305990Y-101656288D01*
X113316500Y-101706668D01*
X113316500Y-103031088D01*
X113316208Y-103039658D01*
X113313227Y-103083389D01*
X113312275Y-103097352D01*
X113313580Y-103104829D01*
X113313580Y-103104830D01*
X113323261Y-103160299D01*
X113324223Y-103166821D01*
X113331898Y-103230242D01*
X113334581Y-103237343D01*
X113335222Y-103239952D01*
X113339685Y-103256262D01*
X113340450Y-103258798D01*
X113341757Y-103266284D01*
X113344811Y-103273241D01*
X113367442Y-103324795D01*
X113369933Y-103330899D01*
X113392513Y-103390656D01*
X113396817Y-103396919D01*
X113398054Y-103399285D01*
X113406299Y-103414097D01*
X113407632Y-103416351D01*
X113410685Y-103423305D01*
X113436539Y-103456997D01*
X113449579Y-103473991D01*
X113453459Y-103479332D01*
X113485339Y-103525720D01*
X113485344Y-103525725D01*
X113489643Y-103531981D01*
X113495313Y-103537032D01*
X113495314Y-103537034D01*
X113536170Y-103573435D01*
X113541446Y-103578416D01*
X113906546Y-103943516D01*
X113915462Y-103954351D01*
X113915529Y-103954294D01*
X113920496Y-103960048D01*
X113924730Y-103966349D01*
X113936478Y-103977039D01*
X113974159Y-104011326D01*
X113978454Y-104015424D01*
X113994423Y-104031393D01*
X114003735Y-104038695D01*
X114010776Y-104044646D01*
X114051565Y-104081760D01*
X114058242Y-104085385D01*
X114058246Y-104085388D01*
X114065331Y-104089235D01*
X114082959Y-104100813D01*
X114095282Y-104110476D01*
X114102204Y-104113602D01*
X114102205Y-104113602D01*
X114145531Y-104133165D01*
X114153800Y-104137270D01*
X114195591Y-104159961D01*
X114195600Y-104159964D01*
X114202268Y-104163585D01*
X114209610Y-104165511D01*
X114209612Y-104165512D01*
X114217419Y-104167560D01*
X114237298Y-104174600D01*
X114244651Y-104177920D01*
X114244654Y-104177921D01*
X114251573Y-104181045D01*
X114259037Y-104182429D01*
X114259039Y-104182429D01*
X114305790Y-104191094D01*
X114314791Y-104193106D01*
X114368139Y-104207101D01*
X114381403Y-104207309D01*
X114383798Y-104207347D01*
X114404780Y-104209441D01*
X114412717Y-104210912D01*
X114412720Y-104210912D01*
X114420186Y-104212296D01*
X114427767Y-104211859D01*
X114427768Y-104211859D01*
X114475244Y-104209122D01*
X114484473Y-104208929D01*
X114532003Y-104209675D01*
X114532005Y-104209675D01*
X114539602Y-104209794D01*
X114554874Y-104206296D01*
X114575745Y-104203326D01*
X114576771Y-104203267D01*
X114591385Y-104202424D01*
X114644101Y-104186206D01*
X114653009Y-104183820D01*
X114699351Y-104173207D01*
X114699354Y-104173206D01*
X114706759Y-104171510D01*
X114713545Y-104168097D01*
X114713551Y-104168095D01*
X114720761Y-104164469D01*
X114740310Y-104156609D01*
X114755289Y-104152001D01*
X114761806Y-104148101D01*
X114761810Y-104148099D01*
X114802611Y-104123681D01*
X114810693Y-104119237D01*
X114859958Y-104094459D01*
X114871875Y-104084281D01*
X114888987Y-104071985D01*
X114902434Y-104063937D01*
X114922945Y-104043640D01*
X114941624Y-104025155D01*
X114948422Y-104018904D01*
X114984574Y-103988027D01*
X114984578Y-103988023D01*
X114990355Y-103983089D01*
X114999495Y-103970369D01*
X115013187Y-103954338D01*
X115013232Y-103954294D01*
X115018371Y-103949208D01*
X115080861Y-103915510D01*
X115151649Y-103920945D01*
X115202380Y-103956437D01*
X115205492Y-103960042D01*
X115209730Y-103966349D01*
X115212512Y-103968881D01*
X115214643Y-103971981D01*
X115220315Y-103977035D01*
X115220319Y-103977039D01*
X115275442Y-104026152D01*
X115276357Y-104026975D01*
X115336565Y-104081760D01*
X115339871Y-104083555D01*
X115342679Y-104086057D01*
X115349395Y-104089613D01*
X115349398Y-104089615D01*
X115414556Y-104124114D01*
X115415719Y-104124737D01*
X115480555Y-104159940D01*
X115487268Y-104163585D01*
X115490906Y-104164539D01*
X115494231Y-104166300D01*
X115573137Y-104186120D01*
X115574345Y-104186429D01*
X115653139Y-104207101D01*
X115656903Y-104207160D01*
X115660549Y-104208076D01*
X115668152Y-104208116D01*
X115668154Y-104208116D01*
X115741920Y-104208502D01*
X115743239Y-104208516D01*
X115817003Y-104209675D01*
X115817006Y-104209675D01*
X115824602Y-104209794D01*
X115828268Y-104208954D01*
X115832031Y-104208974D01*
X115911282Y-104189948D01*
X115912420Y-104189681D01*
X115950128Y-104181045D01*
X115984356Y-104173206D01*
X115984359Y-104173205D01*
X115991759Y-104171510D01*
X115995119Y-104169820D01*
X115998777Y-104168942D01*
X116071155Y-104131585D01*
X116072123Y-104131092D01*
X116144958Y-104094459D01*
X116147818Y-104092017D01*
X116151161Y-104090291D01*
X116156878Y-104085304D01*
X116156882Y-104085301D01*
X116187568Y-104058531D01*
X116212518Y-104036766D01*
X116213453Y-104035959D01*
X116269579Y-103988023D01*
X116269582Y-103988019D01*
X116275355Y-103983089D01*
X116277550Y-103980034D01*
X116280385Y-103977561D01*
X116286486Y-103968881D01*
X116327155Y-103911015D01*
X116327919Y-103909940D01*
X116370990Y-103850001D01*
X116370991Y-103849999D01*
X116375424Y-103843830D01*
X116376828Y-103840337D01*
X116378990Y-103837261D01*
X116408542Y-103761463D01*
X116409028Y-103760237D01*
X116436550Y-103691772D01*
X116439385Y-103684720D01*
X116439915Y-103680998D01*
X116441282Y-103677491D01*
X116451913Y-103596741D01*
X116452090Y-103595450D01*
X116462966Y-103519031D01*
X116462966Y-103519028D01*
X116463547Y-103514947D01*
X116463704Y-103500000D01*
X116459413Y-103464540D01*
X116458500Y-103449405D01*
X116458500Y-100603912D01*
X116458792Y-100595342D01*
X116462209Y-100545224D01*
X116462209Y-100545220D01*
X116462725Y-100537648D01*
X116451739Y-100474703D01*
X116450777Y-100468182D01*
X116448730Y-100451268D01*
X116443102Y-100404758D01*
X116440416Y-100397650D01*
X116439779Y-100395056D01*
X116435318Y-100378750D01*
X116434548Y-100376199D01*
X116433242Y-100368716D01*
X116430190Y-100361763D01*
X116407561Y-100310212D01*
X116405069Y-100304105D01*
X116385173Y-100251452D01*
X116385173Y-100251451D01*
X116382487Y-100244344D01*
X116378184Y-100238083D01*
X116376947Y-100235717D01*
X116368720Y-100220937D01*
X116367369Y-100218652D01*
X116364315Y-100211695D01*
X116359695Y-100205675D01*
X116359692Y-100205669D01*
X116331900Y-100169452D01*
X116325413Y-100160998D01*
X116321541Y-100155668D01*
X116289661Y-100109280D01*
X116289656Y-100109275D01*
X116285357Y-100103019D01*
X116277073Y-100095638D01*
X116272287Y-100090827D01*
X116270357Y-100088019D01*
X116223829Y-100046564D01*
X116218554Y-100041584D01*
X116205577Y-100028607D01*
X116202599Y-100026272D01*
X116202591Y-100026265D01*
X116192835Y-100018616D01*
X116186761Y-100013537D01*
X116147996Y-99978998D01*
X116147989Y-99978993D01*
X116142321Y-99973943D01*
X116132363Y-99968671D01*
X116113580Y-99956473D01*
X116110690Y-99954207D01*
X116104718Y-99949524D01*
X116097086Y-99946078D01*
X116050479Y-99925034D01*
X116043377Y-99921555D01*
X115990769Y-99893700D01*
X115983401Y-99891849D01*
X115983400Y-99891849D01*
X115982138Y-99891532D01*
X115979844Y-99890956D01*
X115958691Y-99883589D01*
X115955357Y-99882084D01*
X115955356Y-99882084D01*
X115948427Y-99878955D01*
X115889912Y-99868110D01*
X115882179Y-99866424D01*
X115831823Y-99853775D01*
X115831817Y-99853774D01*
X115824451Y-99851924D01*
X115816852Y-99851884D01*
X115816851Y-99851884D01*
X115813914Y-99851869D01*
X115813192Y-99851865D01*
X115790893Y-99849757D01*
X115779814Y-99847704D01*
X115772233Y-99848141D01*
X115772232Y-99848141D01*
X115720389Y-99851130D01*
X115712479Y-99851337D01*
X115685617Y-99851197D01*
X115652969Y-99851026D01*
X115645586Y-99852798D01*
X115645581Y-99852799D01*
X115642012Y-99853656D01*
X115619864Y-99856927D01*
X115618693Y-99856995D01*
X115608615Y-99857576D01*
X115551712Y-99875081D01*
X115544135Y-99877154D01*
X115486223Y-99891058D01*
X115479478Y-99894539D01*
X115479471Y-99894542D01*
X115476207Y-99896227D01*
X115455478Y-99904687D01*
X115444711Y-99907999D01*
X115438199Y-99911896D01*
X115438193Y-99911899D01*
X115393640Y-99938563D01*
X115386726Y-99942411D01*
X115340590Y-99966224D01*
X115340587Y-99966226D01*
X115333839Y-99969709D01*
X115328117Y-99974701D01*
X115328115Y-99974702D01*
X115325348Y-99977116D01*
X115307232Y-99990278D01*
X115297566Y-99996063D01*
X115292173Y-100001400D01*
X115292169Y-100001403D01*
X115255252Y-100037936D01*
X115249465Y-100043313D01*
X115204615Y-100082439D01*
X115200246Y-100088656D01*
X115198146Y-100091644D01*
X115183684Y-100108758D01*
X115175675Y-100116684D01*
X115171708Y-100123158D01*
X115171703Y-100123164D01*
X115144574Y-100167434D01*
X115140228Y-100174050D01*
X115128053Y-100191373D01*
X115072519Y-100235605D01*
X115001886Y-100242790D01*
X114938582Y-100210648D01*
X114917828Y-100185232D01*
X114828752Y-100041287D01*
X114823570Y-100036114D01*
X114823566Y-100036109D01*
X114770483Y-99983119D01*
X114736403Y-99920837D01*
X114733500Y-99893946D01*
X114733500Y-99856049D01*
X114753502Y-99787928D01*
X114770326Y-99767032D01*
X114824380Y-99712883D01*
X114829552Y-99707702D01*
X114833393Y-99701471D01*
X114915462Y-99568331D01*
X114915463Y-99568329D01*
X114919302Y-99562101D01*
X114973149Y-99399757D01*
X114983500Y-99298732D01*
X114983500Y-98701268D01*
X114972887Y-98598981D01*
X114946870Y-98520999D01*
X114921073Y-98443676D01*
X114921072Y-98443674D01*
X114918756Y-98436732D01*
X114855957Y-98335249D01*
X114832606Y-98297515D01*
X114828752Y-98291287D01*
X114823570Y-98286114D01*
X114823566Y-98286109D01*
X114770483Y-98233119D01*
X114736403Y-98170837D01*
X114733500Y-98143946D01*
X114733500Y-98120710D01*
X114753502Y-98052589D01*
X114770405Y-98031615D01*
X114836639Y-97965381D01*
X114925472Y-97818699D01*
X114928139Y-97810191D01*
X114954718Y-97725375D01*
X114976753Y-97655062D01*
X114983500Y-97581635D01*
X114983499Y-96918366D01*
X114976753Y-96844938D01*
X114966771Y-96813086D01*
X114927744Y-96688550D01*
X114927743Y-96688548D01*
X114925472Y-96681301D01*
X114836639Y-96534619D01*
X114758794Y-96456774D01*
X114724768Y-96394462D01*
X114729833Y-96323647D01*
X114758715Y-96278663D01*
X114829552Y-96207702D01*
X114919302Y-96062101D01*
X114973149Y-95899757D01*
X114983500Y-95798732D01*
X114983500Y-95595660D01*
X115003502Y-95527539D01*
X115020405Y-95506565D01*
X115576405Y-94950565D01*
X115638717Y-94916539D01*
X115709532Y-94921604D01*
X115766368Y-94964151D01*
X115791179Y-95030671D01*
X115791500Y-95039660D01*
X115791500Y-97721088D01*
X115791208Y-97729658D01*
X115788493Y-97769492D01*
X115787275Y-97787352D01*
X115788580Y-97794829D01*
X115788580Y-97794830D01*
X115798261Y-97850299D01*
X115799223Y-97856821D01*
X115806898Y-97920242D01*
X115809581Y-97927343D01*
X115810222Y-97929952D01*
X115814685Y-97946262D01*
X115815450Y-97948798D01*
X115816757Y-97956284D01*
X115819811Y-97963241D01*
X115842442Y-98014795D01*
X115844933Y-98020899D01*
X115867513Y-98080656D01*
X115871817Y-98086919D01*
X115873054Y-98089285D01*
X115881299Y-98104097D01*
X115882632Y-98106351D01*
X115885685Y-98113305D01*
X115909198Y-98143946D01*
X115924579Y-98163991D01*
X115928459Y-98169332D01*
X115960339Y-98215720D01*
X115960344Y-98215725D01*
X115964643Y-98221981D01*
X115970313Y-98227032D01*
X115970314Y-98227034D01*
X116011170Y-98263435D01*
X116016446Y-98268416D01*
X117728550Y-99980520D01*
X117734404Y-99986785D01*
X117772439Y-100030385D01*
X117778657Y-100034755D01*
X117824697Y-100067112D01*
X117829993Y-100071045D01*
X117880282Y-100110477D01*
X117887204Y-100113602D01*
X117889452Y-100114964D01*
X117904185Y-100123368D01*
X117906524Y-100124622D01*
X117912739Y-100128990D01*
X117919815Y-100131749D01*
X117919819Y-100131751D01*
X117972269Y-100152200D01*
X117978334Y-100154749D01*
X118036573Y-100181045D01*
X118044038Y-100182429D01*
X118046582Y-100183226D01*
X118062848Y-100187859D01*
X118065428Y-100188521D01*
X118072509Y-100191282D01*
X118080042Y-100192274D01*
X118080043Y-100192274D01*
X118101214Y-100195061D01*
X118135857Y-100199622D01*
X118142355Y-100200650D01*
X118205187Y-100212296D01*
X118212767Y-100211859D01*
X118212768Y-100211859D01*
X118267398Y-100208709D01*
X118274651Y-100208500D01*
X125073179Y-100208500D01*
X125141300Y-100228502D01*
X125162274Y-100245405D01*
X134561492Y-109644623D01*
X134595518Y-109706935D01*
X134590453Y-109777750D01*
X134547906Y-109834586D01*
X134537446Y-109841161D01*
X134537572Y-109841362D01*
X134533196Y-109844118D01*
X134528607Y-109846507D01*
X134524472Y-109849612D01*
X134524469Y-109849614D01*
X134364356Y-109969830D01*
X134349965Y-109980635D01*
X134195629Y-110142138D01*
X134088201Y-110299621D01*
X134033293Y-110344621D01*
X133962768Y-110352792D01*
X133899021Y-110321538D01*
X133878324Y-110297054D01*
X133797822Y-110172617D01*
X133797820Y-110172614D01*
X133795014Y-110168277D01*
X133644670Y-110003051D01*
X133640619Y-109999852D01*
X133640615Y-109999848D01*
X133473414Y-109867800D01*
X133473410Y-109867798D01*
X133469359Y-109864598D01*
X133442216Y-109849614D01*
X133341970Y-109794276D01*
X133273789Y-109756638D01*
X133268920Y-109754914D01*
X133268916Y-109754912D01*
X133068087Y-109683795D01*
X133068083Y-109683794D01*
X133063212Y-109682069D01*
X133058119Y-109681162D01*
X133058116Y-109681161D01*
X132848373Y-109643800D01*
X132848367Y-109643799D01*
X132843284Y-109642894D01*
X132769452Y-109641992D01*
X132625081Y-109640228D01*
X132625079Y-109640228D01*
X132619911Y-109640165D01*
X132399091Y-109673955D01*
X132186756Y-109743357D01*
X132156443Y-109759137D01*
X131998877Y-109841161D01*
X131988607Y-109846507D01*
X131984474Y-109849610D01*
X131984471Y-109849612D01*
X131814100Y-109977530D01*
X131809965Y-109980635D01*
X131655629Y-110142138D01*
X131548201Y-110299621D01*
X131493293Y-110344621D01*
X131422768Y-110352792D01*
X131359021Y-110321538D01*
X131338324Y-110297054D01*
X131257822Y-110172617D01*
X131257820Y-110172614D01*
X131255014Y-110168277D01*
X131104670Y-110003051D01*
X131100619Y-109999852D01*
X131100615Y-109999848D01*
X130933414Y-109867800D01*
X130933410Y-109867798D01*
X130929359Y-109864598D01*
X130902216Y-109849614D01*
X130801970Y-109794276D01*
X130733789Y-109756638D01*
X130728920Y-109754914D01*
X130728916Y-109754912D01*
X130528087Y-109683795D01*
X130528083Y-109683794D01*
X130523212Y-109682069D01*
X130518119Y-109681162D01*
X130518116Y-109681161D01*
X130308373Y-109643800D01*
X130308367Y-109643799D01*
X130303284Y-109642894D01*
X130229452Y-109641992D01*
X130085081Y-109640228D01*
X130085079Y-109640228D01*
X130079911Y-109640165D01*
X129859091Y-109673955D01*
X129646756Y-109743357D01*
X129616443Y-109759137D01*
X129458877Y-109841161D01*
X129448607Y-109846507D01*
X129444474Y-109849610D01*
X129444471Y-109849612D01*
X129274100Y-109977530D01*
X129269965Y-109980635D01*
X129115629Y-110142138D01*
X129008201Y-110299621D01*
X128953293Y-110344621D01*
X128882768Y-110352792D01*
X128819021Y-110321538D01*
X128798324Y-110297054D01*
X128717822Y-110172617D01*
X128717820Y-110172614D01*
X128715014Y-110168277D01*
X128564670Y-110003051D01*
X128560619Y-109999852D01*
X128560615Y-109999848D01*
X128393414Y-109867800D01*
X128393410Y-109867798D01*
X128389359Y-109864598D01*
X128362216Y-109849614D01*
X128261970Y-109794276D01*
X128193789Y-109756638D01*
X128188920Y-109754914D01*
X128188916Y-109754912D01*
X127988087Y-109683795D01*
X127988083Y-109683794D01*
X127983212Y-109682069D01*
X127978119Y-109681162D01*
X127978116Y-109681161D01*
X127768373Y-109643800D01*
X127768367Y-109643799D01*
X127763284Y-109642894D01*
X127689452Y-109641992D01*
X127545081Y-109640228D01*
X127545079Y-109640228D01*
X127539911Y-109640165D01*
X127319091Y-109673955D01*
X127106756Y-109743357D01*
X127076443Y-109759137D01*
X126918877Y-109841161D01*
X126908607Y-109846507D01*
X126904474Y-109849610D01*
X126904471Y-109849612D01*
X126734100Y-109977530D01*
X126729965Y-109980635D01*
X126575629Y-110142138D01*
X126468201Y-110299621D01*
X126413293Y-110344621D01*
X126342768Y-110352792D01*
X126279021Y-110321538D01*
X126258324Y-110297054D01*
X126177822Y-110172617D01*
X126177820Y-110172614D01*
X126175014Y-110168277D01*
X126024670Y-110003051D01*
X126020619Y-109999852D01*
X126020615Y-109999848D01*
X125853414Y-109867800D01*
X125853410Y-109867798D01*
X125849359Y-109864598D01*
X125822216Y-109849614D01*
X125721970Y-109794276D01*
X125653789Y-109756638D01*
X125648920Y-109754914D01*
X125648916Y-109754912D01*
X125448087Y-109683795D01*
X125448083Y-109683794D01*
X125443212Y-109682069D01*
X125438119Y-109681162D01*
X125438116Y-109681161D01*
X125228373Y-109643800D01*
X125228367Y-109643799D01*
X125223284Y-109642894D01*
X125149452Y-109641992D01*
X125005081Y-109640228D01*
X125005079Y-109640228D01*
X124999911Y-109640165D01*
X124779091Y-109673955D01*
X124566756Y-109743357D01*
X124536443Y-109759137D01*
X124378877Y-109841161D01*
X124368607Y-109846507D01*
X124364474Y-109849610D01*
X124364471Y-109849612D01*
X124194100Y-109977530D01*
X124189965Y-109980635D01*
X124035629Y-110142138D01*
X123928201Y-110299621D01*
X123873293Y-110344621D01*
X123802768Y-110352792D01*
X123739021Y-110321538D01*
X123718324Y-110297054D01*
X123637822Y-110172617D01*
X123637820Y-110172614D01*
X123635014Y-110168277D01*
X123484670Y-110003051D01*
X123480619Y-109999852D01*
X123480615Y-109999848D01*
X123313414Y-109867800D01*
X123313410Y-109867798D01*
X123309359Y-109864598D01*
X123282216Y-109849614D01*
X123181970Y-109794276D01*
X123113789Y-109756638D01*
X123108920Y-109754914D01*
X123108916Y-109754912D01*
X122908087Y-109683795D01*
X122908083Y-109683794D01*
X122903212Y-109682069D01*
X122898119Y-109681162D01*
X122898116Y-109681161D01*
X122688373Y-109643800D01*
X122688367Y-109643799D01*
X122683284Y-109642894D01*
X122609452Y-109641992D01*
X122465081Y-109640228D01*
X122465079Y-109640228D01*
X122459911Y-109640165D01*
X122239091Y-109673955D01*
X122026756Y-109743357D01*
X121996443Y-109759137D01*
X121838877Y-109841161D01*
X121828607Y-109846507D01*
X121824474Y-109849610D01*
X121824471Y-109849612D01*
X121654100Y-109977530D01*
X121649965Y-109980635D01*
X121495629Y-110142138D01*
X121388201Y-110299621D01*
X121333293Y-110344621D01*
X121262768Y-110352792D01*
X121199021Y-110321538D01*
X121178324Y-110297054D01*
X121097822Y-110172617D01*
X121097820Y-110172614D01*
X121095014Y-110168277D01*
X120944670Y-110003051D01*
X120940619Y-109999852D01*
X120940615Y-109999848D01*
X120773414Y-109867800D01*
X120773410Y-109867798D01*
X120769359Y-109864598D01*
X120742216Y-109849614D01*
X120641970Y-109794276D01*
X120573789Y-109756638D01*
X120568920Y-109754914D01*
X120568916Y-109754912D01*
X120368087Y-109683795D01*
X120368083Y-109683794D01*
X120363212Y-109682069D01*
X120358119Y-109681162D01*
X120358116Y-109681161D01*
X120148373Y-109643800D01*
X120148367Y-109643799D01*
X120143284Y-109642894D01*
X120069452Y-109641992D01*
X119925081Y-109640228D01*
X119925079Y-109640228D01*
X119919911Y-109640165D01*
X119699091Y-109673955D01*
X119486756Y-109743357D01*
X119456443Y-109759137D01*
X119298877Y-109841161D01*
X119288607Y-109846507D01*
X119284474Y-109849610D01*
X119284471Y-109849612D01*
X119114100Y-109977530D01*
X119109965Y-109980635D01*
X118955629Y-110142138D01*
X118848201Y-110299621D01*
X118793293Y-110344621D01*
X118722768Y-110352792D01*
X118659021Y-110321538D01*
X118638324Y-110297054D01*
X118557822Y-110172617D01*
X118557820Y-110172614D01*
X118555014Y-110168277D01*
X118404670Y-110003051D01*
X118400619Y-109999852D01*
X118400615Y-109999848D01*
X118233414Y-109867800D01*
X118233410Y-109867798D01*
X118229359Y-109864598D01*
X118202216Y-109849614D01*
X118101970Y-109794276D01*
X118033789Y-109756638D01*
X118028920Y-109754914D01*
X118028916Y-109754912D01*
X117828087Y-109683795D01*
X117828083Y-109683794D01*
X117823212Y-109682069D01*
X117818119Y-109681162D01*
X117818116Y-109681161D01*
X117608373Y-109643800D01*
X117608367Y-109643799D01*
X117603284Y-109642894D01*
X117529452Y-109641992D01*
X117385081Y-109640228D01*
X117385079Y-109640228D01*
X117379911Y-109640165D01*
X117159091Y-109673955D01*
X116946756Y-109743357D01*
X116916443Y-109759137D01*
X116758877Y-109841161D01*
X116748607Y-109846507D01*
X116744474Y-109849610D01*
X116744471Y-109849612D01*
X116574100Y-109977530D01*
X116569965Y-109980635D01*
X116415629Y-110142138D01*
X116308201Y-110299621D01*
X116253293Y-110344621D01*
X116182768Y-110352792D01*
X116119021Y-110321538D01*
X116098324Y-110297054D01*
X116017822Y-110172617D01*
X116017820Y-110172614D01*
X116015014Y-110168277D01*
X115864670Y-110003051D01*
X115860619Y-109999852D01*
X115860615Y-109999848D01*
X115693414Y-109867800D01*
X115693410Y-109867798D01*
X115689359Y-109864598D01*
X115662216Y-109849614D01*
X115561970Y-109794276D01*
X115493789Y-109756638D01*
X115488920Y-109754914D01*
X115488916Y-109754912D01*
X115288087Y-109683795D01*
X115288083Y-109683794D01*
X115283212Y-109682069D01*
X115278119Y-109681162D01*
X115278116Y-109681161D01*
X115068373Y-109643800D01*
X115068367Y-109643799D01*
X115063284Y-109642894D01*
X114989452Y-109641992D01*
X114845081Y-109640228D01*
X114845079Y-109640228D01*
X114839911Y-109640165D01*
X114619091Y-109673955D01*
X114406756Y-109743357D01*
X114376443Y-109759137D01*
X114218877Y-109841161D01*
X114208607Y-109846507D01*
X114204474Y-109849610D01*
X114204471Y-109849612D01*
X114034100Y-109977530D01*
X114029965Y-109980635D01*
X113875629Y-110142138D01*
X113768201Y-110299621D01*
X113713293Y-110344621D01*
X113642768Y-110352792D01*
X113579021Y-110321538D01*
X113558324Y-110297054D01*
X113477822Y-110172617D01*
X113477820Y-110172614D01*
X113475014Y-110168277D01*
X113324670Y-110003051D01*
X113320619Y-109999852D01*
X113320615Y-109999848D01*
X113153414Y-109867800D01*
X113153410Y-109867798D01*
X113149359Y-109864598D01*
X113122216Y-109849614D01*
X113021970Y-109794276D01*
X112953789Y-109756638D01*
X112948920Y-109754914D01*
X112948916Y-109754912D01*
X112748087Y-109683795D01*
X112748083Y-109683794D01*
X112743212Y-109682069D01*
X112738119Y-109681162D01*
X112738116Y-109681161D01*
X112528373Y-109643800D01*
X112528367Y-109643799D01*
X112523284Y-109642894D01*
X112449452Y-109641992D01*
X112305081Y-109640228D01*
X112305079Y-109640228D01*
X112299911Y-109640165D01*
X112079091Y-109673955D01*
X111866756Y-109743357D01*
X111836443Y-109759137D01*
X111678877Y-109841161D01*
X111668607Y-109846507D01*
X111664474Y-109849610D01*
X111664471Y-109849612D01*
X111494100Y-109977530D01*
X111489965Y-109980635D01*
X111335629Y-110142138D01*
X111228201Y-110299621D01*
X111173293Y-110344621D01*
X111102768Y-110352792D01*
X111039021Y-110321538D01*
X111018324Y-110297054D01*
X110937822Y-110172617D01*
X110937820Y-110172614D01*
X110935014Y-110168277D01*
X110784670Y-110003051D01*
X110780619Y-109999852D01*
X110780615Y-109999848D01*
X110613414Y-109867800D01*
X110613410Y-109867798D01*
X110609359Y-109864598D01*
X110582216Y-109849614D01*
X110481970Y-109794276D01*
X110413789Y-109756638D01*
X110408920Y-109754914D01*
X110408916Y-109754912D01*
X110208087Y-109683795D01*
X110208083Y-109683794D01*
X110203212Y-109682069D01*
X110198119Y-109681162D01*
X110198116Y-109681161D01*
X109988373Y-109643800D01*
X109988367Y-109643799D01*
X109983284Y-109642894D01*
X109909452Y-109641992D01*
X109765081Y-109640228D01*
X109765079Y-109640228D01*
X109759911Y-109640165D01*
X109539091Y-109673955D01*
X109326756Y-109743357D01*
X109296443Y-109759137D01*
X109138877Y-109841161D01*
X109128607Y-109846507D01*
X109124474Y-109849610D01*
X109124471Y-109849612D01*
X108954100Y-109977530D01*
X108949965Y-109980635D01*
X108946393Y-109984373D01*
X108868898Y-110065466D01*
X108807374Y-110100895D01*
X108736462Y-110097438D01*
X108678676Y-110056192D01*
X108659823Y-110022644D01*
X108618324Y-109911946D01*
X108609786Y-109896351D01*
X108533285Y-109794276D01*
X108520724Y-109781715D01*
X108418649Y-109705214D01*
X108403054Y-109696676D01*
X108282606Y-109651522D01*
X108267351Y-109647895D01*
X108216486Y-109642369D01*
X108209672Y-109642000D01*
X107587115Y-109642000D01*
X107571876Y-109646475D01*
X107570671Y-109647865D01*
X107569000Y-109655548D01*
X107569000Y-111128000D01*
X107548998Y-111196121D01*
X107495342Y-111242614D01*
X107443000Y-111254000D01*
X105975116Y-111254000D01*
X105959877Y-111258475D01*
X105958672Y-111259865D01*
X105957001Y-111267548D01*
X105957001Y-111894669D01*
X105957371Y-111901490D01*
X105962895Y-111952352D01*
X105966521Y-111967604D01*
X106011676Y-112088054D01*
X106020214Y-112103649D01*
X106096715Y-112205724D01*
X106109276Y-112218285D01*
X106171840Y-112265174D01*
X106214355Y-112322033D01*
X106219381Y-112392851D01*
X106185321Y-112455145D01*
X106122990Y-112489135D01*
X106096275Y-112492000D01*
X97634000Y-112492000D01*
X97565879Y-112471998D01*
X97519386Y-112418342D01*
X97508000Y-112366000D01*
X97508000Y-109382703D01*
X98640743Y-109382703D01*
X98678268Y-109667734D01*
X98679401Y-109671874D01*
X98679401Y-109671876D01*
X98682662Y-109683795D01*
X98754129Y-109945036D01*
X98755813Y-109948984D01*
X98847721Y-110164457D01*
X98866923Y-110209476D01*
X99014561Y-110456161D01*
X99194313Y-110680528D01*
X99402851Y-110878423D01*
X99636317Y-111046186D01*
X99640112Y-111048195D01*
X99640113Y-111048196D01*
X99661869Y-111059715D01*
X99890392Y-111180712D01*
X99914699Y-111189607D01*
X100127683Y-111267548D01*
X100160373Y-111279511D01*
X100441264Y-111340755D01*
X100469841Y-111343004D01*
X100664282Y-111358307D01*
X100664291Y-111358307D01*
X100666739Y-111358500D01*
X100822271Y-111358500D01*
X100824407Y-111358354D01*
X100824418Y-111358354D01*
X101032548Y-111344165D01*
X101032554Y-111344164D01*
X101036825Y-111343873D01*
X101041020Y-111343004D01*
X101041022Y-111343004D01*
X101177583Y-111314724D01*
X101318342Y-111285574D01*
X101589343Y-111189607D01*
X101844812Y-111057750D01*
X101848313Y-111055289D01*
X101848317Y-111055287D01*
X101974370Y-110966695D01*
X102080023Y-110892441D01*
X102242428Y-110741525D01*
X102257106Y-110727885D01*
X105957000Y-110727885D01*
X105961475Y-110743124D01*
X105962865Y-110744329D01*
X105970548Y-110746000D01*
X107042885Y-110746000D01*
X107058124Y-110741525D01*
X107059329Y-110740135D01*
X107061000Y-110732452D01*
X107061000Y-109660116D01*
X107056525Y-109644877D01*
X107055135Y-109643672D01*
X107047452Y-109642001D01*
X106420331Y-109642001D01*
X106413510Y-109642371D01*
X106362648Y-109647895D01*
X106347396Y-109651521D01*
X106226946Y-109696676D01*
X106211351Y-109705214D01*
X106109276Y-109781715D01*
X106096715Y-109794276D01*
X106020214Y-109896351D01*
X106011676Y-109911946D01*
X105966522Y-110032394D01*
X105962895Y-110047649D01*
X105957369Y-110098514D01*
X105957000Y-110105328D01*
X105957000Y-110727885D01*
X102257106Y-110727885D01*
X102287479Y-110699661D01*
X102287481Y-110699658D01*
X102290622Y-110696740D01*
X102472713Y-110474268D01*
X102622927Y-110229142D01*
X102679224Y-110100895D01*
X102736757Y-109969830D01*
X102738483Y-109965898D01*
X102772493Y-109846507D01*
X102816068Y-109693534D01*
X102817244Y-109689406D01*
X102857751Y-109404784D01*
X102857845Y-109386951D01*
X102859235Y-109121583D01*
X102859235Y-109121576D01*
X102859257Y-109117297D01*
X102821732Y-108832266D01*
X102745871Y-108554964D01*
X102711658Y-108474754D01*
X102634763Y-108294476D01*
X102634761Y-108294472D01*
X102633077Y-108290524D01*
X102530243Y-108118701D01*
X102487643Y-108047521D01*
X102487640Y-108047517D01*
X102485439Y-108043839D01*
X102305687Y-107819472D01*
X102107552Y-107631449D01*
X102100258Y-107624527D01*
X102100255Y-107624525D01*
X102097149Y-107621577D01*
X101863683Y-107453814D01*
X101854922Y-107449175D01*
X101807667Y-107424155D01*
X101609608Y-107319288D01*
X101364390Y-107229551D01*
X101343658Y-107221964D01*
X101343656Y-107221963D01*
X101339627Y-107220489D01*
X101058736Y-107159245D01*
X101020045Y-107156200D01*
X100835718Y-107141693D01*
X100835709Y-107141693D01*
X100833261Y-107141500D01*
X100677729Y-107141500D01*
X100675593Y-107141646D01*
X100675582Y-107141646D01*
X100467452Y-107155835D01*
X100467446Y-107155836D01*
X100463175Y-107156127D01*
X100458980Y-107156996D01*
X100458978Y-107156996D01*
X100322416Y-107185277D01*
X100181658Y-107214426D01*
X99910657Y-107310393D01*
X99785723Y-107374876D01*
X99690247Y-107424155D01*
X99655188Y-107442250D01*
X99651687Y-107444711D01*
X99651683Y-107444713D01*
X99602578Y-107479225D01*
X99419977Y-107607559D01*
X99348260Y-107674203D01*
X99225460Y-107788316D01*
X99209378Y-107803260D01*
X99027287Y-108025732D01*
X98877073Y-108270858D01*
X98875347Y-108274791D01*
X98875346Y-108274792D01*
X98843057Y-108348349D01*
X98761517Y-108534102D01*
X98682756Y-108810594D01*
X98642249Y-109095216D01*
X98642227Y-109099505D01*
X98642226Y-109099512D01*
X98640765Y-109378417D01*
X98640743Y-109382703D01*
X97508000Y-109382703D01*
X97508000Y-101045438D01*
X111517000Y-101045438D01*
X111517337Y-101051953D01*
X111526894Y-101144057D01*
X111529788Y-101157456D01*
X111579381Y-101306107D01*
X111585555Y-101319286D01*
X111667788Y-101452173D01*
X111676824Y-101463574D01*
X111787429Y-101573986D01*
X111798840Y-101582998D01*
X111931880Y-101665004D01*
X111945061Y-101671151D01*
X112093814Y-101720491D01*
X112107190Y-101723358D01*
X112198097Y-101732672D01*
X112203126Y-101732929D01*
X112218124Y-101728525D01*
X112219329Y-101727135D01*
X112221000Y-101719452D01*
X112221000Y-101022115D01*
X112216525Y-101006876D01*
X112215135Y-101005671D01*
X112207452Y-101004000D01*
X111535115Y-101004000D01*
X111519876Y-101008475D01*
X111518671Y-101009865D01*
X111517000Y-101017548D01*
X111517000Y-101045438D01*
X97508000Y-101045438D01*
X97508000Y-99045437D01*
X107791999Y-99045437D01*
X107792336Y-99051952D01*
X107801893Y-99144056D01*
X107804787Y-99157455D01*
X107854380Y-99306106D01*
X107860554Y-99319285D01*
X107942787Y-99452172D01*
X107951823Y-99463573D01*
X108062428Y-99573985D01*
X108073839Y-99582997D01*
X108206879Y-99665003D01*
X108220060Y-99671150D01*
X108368813Y-99720490D01*
X108382189Y-99723357D01*
X108473096Y-99732671D01*
X108479512Y-99732999D01*
X108502884Y-99732999D01*
X108518123Y-99728524D01*
X108519328Y-99727134D01*
X108520999Y-99719451D01*
X108520999Y-99714884D01*
X109028999Y-99714884D01*
X109033474Y-99730123D01*
X109034864Y-99731328D01*
X109042547Y-99732999D01*
X109070437Y-99732999D01*
X109076952Y-99732662D01*
X109169056Y-99723105D01*
X109182455Y-99720211D01*
X109331106Y-99670618D01*
X109344285Y-99664444D01*
X109477172Y-99582211D01*
X109488573Y-99573175D01*
X109548316Y-99513327D01*
X109610599Y-99479247D01*
X109681419Y-99484250D01*
X109726508Y-99513171D01*
X109787429Y-99573986D01*
X109798840Y-99582998D01*
X109931880Y-99665004D01*
X109945061Y-99671151D01*
X110093814Y-99720491D01*
X110107190Y-99723358D01*
X110198097Y-99732672D01*
X110204513Y-99733000D01*
X110227885Y-99733000D01*
X110243124Y-99728525D01*
X110244329Y-99727135D01*
X110246000Y-99719452D01*
X110246000Y-99714885D01*
X110754000Y-99714885D01*
X110758475Y-99730124D01*
X110759865Y-99731329D01*
X110767548Y-99733000D01*
X110795438Y-99733000D01*
X110801953Y-99732663D01*
X110894057Y-99723106D01*
X110907456Y-99720212D01*
X111056107Y-99670619D01*
X111069286Y-99664445D01*
X111202173Y-99582212D01*
X111213574Y-99573176D01*
X111323989Y-99462568D01*
X111337015Y-99446074D01*
X111394931Y-99405010D01*
X111465854Y-99401778D01*
X111527266Y-99437403D01*
X111555421Y-99484289D01*
X111579381Y-99556107D01*
X111585555Y-99569286D01*
X111667788Y-99702173D01*
X111676824Y-99713574D01*
X111749172Y-99785795D01*
X111783252Y-99848078D01*
X111778249Y-99918898D01*
X111749328Y-99963987D01*
X111676014Y-100037429D01*
X111667002Y-100048840D01*
X111584996Y-100181880D01*
X111578849Y-100195061D01*
X111529509Y-100343814D01*
X111526642Y-100357190D01*
X111517328Y-100448097D01*
X111517000Y-100454514D01*
X111517000Y-100477885D01*
X111521475Y-100493124D01*
X111522865Y-100494329D01*
X111530548Y-100496000D01*
X112202885Y-100496000D01*
X112218124Y-100491525D01*
X112219329Y-100490135D01*
X112221000Y-100482452D01*
X112221000Y-99272115D01*
X112216525Y-99256876D01*
X112215135Y-99255671D01*
X112207452Y-99254000D01*
X111601535Y-99254000D01*
X111533414Y-99233998D01*
X111486921Y-99180342D01*
X111476192Y-99115151D01*
X111476672Y-99110467D01*
X111477000Y-99104049D01*
X111477000Y-99047115D01*
X111472525Y-99031876D01*
X111471135Y-99030671D01*
X111463452Y-99029000D01*
X110772115Y-99029000D01*
X110756876Y-99033475D01*
X110755671Y-99034865D01*
X110754000Y-99042548D01*
X110754000Y-99714885D01*
X110246000Y-99714885D01*
X110246000Y-99047115D01*
X110241525Y-99031876D01*
X110240135Y-99030671D01*
X110232452Y-99029000D01*
X109477005Y-99029000D01*
X109476995Y-99028999D01*
X109047114Y-99028999D01*
X109031875Y-99033474D01*
X109030670Y-99034864D01*
X109028999Y-99042547D01*
X109028999Y-99714884D01*
X108520999Y-99714884D01*
X108520999Y-99047114D01*
X108516524Y-99031875D01*
X108515134Y-99030670D01*
X108507451Y-99028999D01*
X107810114Y-99028999D01*
X107794875Y-99033474D01*
X107793670Y-99034864D01*
X107791999Y-99042547D01*
X107791999Y-99045437D01*
X97508000Y-99045437D01*
X97508000Y-96215469D01*
X99337095Y-96215469D01*
X99337392Y-96220622D01*
X99337392Y-96220625D01*
X99343739Y-96330697D01*
X99350427Y-96446697D01*
X99351564Y-96451743D01*
X99351565Y-96451749D01*
X99377909Y-96568645D01*
X99401346Y-96672642D01*
X99403288Y-96677424D01*
X99403289Y-96677428D01*
X99486540Y-96882450D01*
X99488484Y-96887237D01*
X99609501Y-97084719D01*
X99761147Y-97259784D01*
X99939349Y-97407730D01*
X100139322Y-97524584D01*
X100144147Y-97526426D01*
X100144148Y-97526427D01*
X100218665Y-97554883D01*
X100355694Y-97607209D01*
X100360760Y-97608240D01*
X100360761Y-97608240D01*
X100375664Y-97611272D01*
X100582656Y-97653385D01*
X100713324Y-97658176D01*
X100808949Y-97661683D01*
X100808953Y-97661683D01*
X100814113Y-97661872D01*
X100819233Y-97661216D01*
X100819235Y-97661216D01*
X100897724Y-97651161D01*
X101043847Y-97632442D01*
X101048795Y-97630957D01*
X101048802Y-97630956D01*
X101260747Y-97567369D01*
X101265690Y-97565886D01*
X101346236Y-97526427D01*
X101469049Y-97466262D01*
X101469052Y-97466260D01*
X101473684Y-97463991D01*
X101662243Y-97329494D01*
X101826303Y-97166005D01*
X101961458Y-96977917D01*
X101965703Y-96969329D01*
X102061784Y-96774922D01*
X102061785Y-96774920D01*
X102064078Y-96770280D01*
X102131408Y-96548671D01*
X102161640Y-96319041D01*
X102163327Y-96250000D01*
X102157032Y-96173434D01*
X102144773Y-96024318D01*
X102144772Y-96024312D01*
X102144349Y-96019167D01*
X102087925Y-95794533D01*
X102085866Y-95789797D01*
X101997630Y-95586868D01*
X101997628Y-95586865D01*
X101995570Y-95582131D01*
X101869764Y-95387665D01*
X101779486Y-95288450D01*
X101748434Y-95224605D01*
X101756829Y-95154106D01*
X101802005Y-95099338D01*
X101828449Y-95085669D01*
X101888054Y-95063324D01*
X101903649Y-95054786D01*
X102005724Y-94978285D01*
X102018285Y-94965724D01*
X102094786Y-94863649D01*
X102103324Y-94848054D01*
X102148478Y-94727606D01*
X102152105Y-94712351D01*
X102157631Y-94661486D01*
X102158000Y-94654672D01*
X102158000Y-93982115D01*
X102153525Y-93966876D01*
X102152135Y-93965671D01*
X102144452Y-93964000D01*
X99360116Y-93964000D01*
X99344877Y-93968475D01*
X99343672Y-93969865D01*
X99342001Y-93977548D01*
X99342001Y-94654669D01*
X99342371Y-94661490D01*
X99347895Y-94712352D01*
X99351521Y-94727604D01*
X99396676Y-94848054D01*
X99405214Y-94863649D01*
X99481715Y-94965724D01*
X99494276Y-94978285D01*
X99596351Y-95054786D01*
X99611946Y-95063324D01*
X99671540Y-95085665D01*
X99728304Y-95128307D01*
X99753004Y-95194868D01*
X99737796Y-95264217D01*
X99718404Y-95290698D01*
X99651639Y-95360564D01*
X99648725Y-95364836D01*
X99648724Y-95364837D01*
X99587103Y-95455170D01*
X99521119Y-95551899D01*
X99423602Y-95761981D01*
X99361707Y-95985169D01*
X99337095Y-96215469D01*
X97508000Y-96215469D01*
X97508000Y-93670871D01*
X102473456Y-93670871D01*
X102514107Y-93810790D01*
X102520352Y-93825221D01*
X102596911Y-93954678D01*
X102606551Y-93967104D01*
X102712896Y-94073449D01*
X102725322Y-94083089D01*
X102854779Y-94159648D01*
X102869210Y-94165893D01*
X103015065Y-94208269D01*
X103027667Y-94210570D01*
X103056084Y-94212807D01*
X103061014Y-94213000D01*
X103577885Y-94213000D01*
X103593124Y-94208525D01*
X103594329Y-94207135D01*
X103596000Y-94199452D01*
X103596000Y-94194884D01*
X104104000Y-94194884D01*
X104108475Y-94210123D01*
X104109865Y-94211328D01*
X104117548Y-94212999D01*
X104638984Y-94212999D01*
X104643920Y-94212805D01*
X104672336Y-94210570D01*
X104684931Y-94208270D01*
X104830790Y-94165893D01*
X104845221Y-94159648D01*
X104974678Y-94083089D01*
X104987104Y-94073449D01*
X105093449Y-93967104D01*
X105103089Y-93954678D01*
X105179648Y-93825221D01*
X105185893Y-93810790D01*
X105224939Y-93676395D01*
X105224899Y-93662294D01*
X105217630Y-93659000D01*
X104122115Y-93659000D01*
X104106876Y-93663475D01*
X104105671Y-93664865D01*
X104104000Y-93672548D01*
X104104000Y-94194884D01*
X103596000Y-94194884D01*
X103596000Y-93677115D01*
X103591525Y-93661876D01*
X103590135Y-93660671D01*
X103582452Y-93659000D01*
X102488122Y-93659000D01*
X102474591Y-93662973D01*
X102473456Y-93670871D01*
X97508000Y-93670871D01*
X97508000Y-93437885D01*
X99342000Y-93437885D01*
X99346475Y-93453124D01*
X99347865Y-93454329D01*
X99355548Y-93456000D01*
X100477885Y-93456000D01*
X100493124Y-93451525D01*
X100494329Y-93450135D01*
X100496000Y-93442452D01*
X100496000Y-93437885D01*
X101004000Y-93437885D01*
X101008475Y-93453124D01*
X101009865Y-93454329D01*
X101017548Y-93456000D01*
X102139884Y-93456000D01*
X102155123Y-93451525D01*
X102156328Y-93450135D01*
X102157999Y-93442452D01*
X102157999Y-92765331D01*
X102157629Y-92758510D01*
X102152105Y-92707648D01*
X102148479Y-92692396D01*
X102103324Y-92571946D01*
X102094786Y-92556351D01*
X102018285Y-92454276D01*
X102005724Y-92441715D01*
X101951226Y-92400871D01*
X102473456Y-92400871D01*
X102514107Y-92540790D01*
X102520352Y-92555221D01*
X102596912Y-92684678D01*
X102603189Y-92692770D01*
X102629139Y-92758854D01*
X102615241Y-92828477D01*
X102603189Y-92847230D01*
X102596912Y-92855322D01*
X102520352Y-92984779D01*
X102514107Y-92999210D01*
X102475061Y-93133605D01*
X102475101Y-93147706D01*
X102482370Y-93151000D01*
X103577885Y-93151000D01*
X103593124Y-93146525D01*
X103594329Y-93145135D01*
X103596000Y-93137452D01*
X103596000Y-93132885D01*
X104104000Y-93132885D01*
X104108475Y-93148124D01*
X104109865Y-93149329D01*
X104117548Y-93151000D01*
X105211878Y-93151000D01*
X105225409Y-93147027D01*
X105226544Y-93139129D01*
X105185893Y-92999210D01*
X105179648Y-92984779D01*
X105103088Y-92855322D01*
X105096811Y-92847230D01*
X105070861Y-92781146D01*
X105084759Y-92711523D01*
X105096811Y-92692770D01*
X105103088Y-92684678D01*
X105179648Y-92555221D01*
X105185893Y-92540790D01*
X105224939Y-92406395D01*
X105224899Y-92392294D01*
X105217630Y-92389000D01*
X104122115Y-92389000D01*
X104106876Y-92393475D01*
X104105671Y-92394865D01*
X104104000Y-92402548D01*
X104104000Y-93132885D01*
X103596000Y-93132885D01*
X103596000Y-92407115D01*
X103591525Y-92391876D01*
X103590135Y-92390671D01*
X103582452Y-92389000D01*
X102488122Y-92389000D01*
X102474591Y-92392973D01*
X102473456Y-92400871D01*
X101951226Y-92400871D01*
X101903649Y-92365214D01*
X101888054Y-92356676D01*
X101767606Y-92311522D01*
X101752351Y-92307895D01*
X101701486Y-92302369D01*
X101694672Y-92302000D01*
X101022115Y-92302000D01*
X101006876Y-92306475D01*
X101005671Y-92307865D01*
X101004000Y-92315548D01*
X101004000Y-93437885D01*
X100496000Y-93437885D01*
X100496000Y-92320116D01*
X100491525Y-92304877D01*
X100490135Y-92303672D01*
X100482452Y-92302001D01*
X99805331Y-92302001D01*
X99798510Y-92302371D01*
X99747648Y-92307895D01*
X99732396Y-92311521D01*
X99611946Y-92356676D01*
X99596351Y-92365214D01*
X99494276Y-92441715D01*
X99481715Y-92454276D01*
X99405214Y-92556351D01*
X99396676Y-92571946D01*
X99351522Y-92692394D01*
X99347895Y-92707649D01*
X99342369Y-92758514D01*
X99342000Y-92765328D01*
X99342000Y-93437885D01*
X97508000Y-93437885D01*
X97508000Y-91130871D01*
X102473456Y-91130871D01*
X102514107Y-91270790D01*
X102520352Y-91285221D01*
X102596912Y-91414678D01*
X102603189Y-91422770D01*
X102629139Y-91488854D01*
X102615241Y-91558477D01*
X102603189Y-91577230D01*
X102596912Y-91585322D01*
X102520352Y-91714779D01*
X102514107Y-91729210D01*
X102475061Y-91863605D01*
X102475101Y-91877706D01*
X102482370Y-91881000D01*
X103577885Y-91881000D01*
X103593124Y-91876525D01*
X103594329Y-91875135D01*
X103596000Y-91867452D01*
X103596000Y-91862885D01*
X104104000Y-91862885D01*
X104108475Y-91878124D01*
X104109865Y-91879329D01*
X104117548Y-91881000D01*
X105211878Y-91881000D01*
X105225409Y-91877027D01*
X105226544Y-91869129D01*
X105185893Y-91729210D01*
X105179648Y-91714779D01*
X105103088Y-91585322D01*
X105096811Y-91577230D01*
X105070861Y-91511146D01*
X105084759Y-91441523D01*
X105096811Y-91422770D01*
X105103088Y-91414678D01*
X105179648Y-91285221D01*
X105185893Y-91270790D01*
X105224939Y-91136395D01*
X105224899Y-91122294D01*
X105217630Y-91119000D01*
X104122115Y-91119000D01*
X104106876Y-91123475D01*
X104105671Y-91124865D01*
X104104000Y-91132548D01*
X104104000Y-91862885D01*
X103596000Y-91862885D01*
X103596000Y-91137115D01*
X103591525Y-91121876D01*
X103590135Y-91120671D01*
X103582452Y-91119000D01*
X102488122Y-91119000D01*
X102474591Y-91122973D01*
X102473456Y-91130871D01*
X97508000Y-91130871D01*
X97508000Y-89860871D01*
X102473456Y-89860871D01*
X102514107Y-90000790D01*
X102520352Y-90015221D01*
X102596912Y-90144678D01*
X102603189Y-90152770D01*
X102629139Y-90218854D01*
X102615241Y-90288477D01*
X102603189Y-90307230D01*
X102596912Y-90315322D01*
X102520352Y-90444779D01*
X102514107Y-90459210D01*
X102475061Y-90593605D01*
X102475101Y-90607706D01*
X102482370Y-90611000D01*
X103577885Y-90611000D01*
X103593124Y-90606525D01*
X103594329Y-90605135D01*
X103596000Y-90597452D01*
X103596000Y-90592885D01*
X104104000Y-90592885D01*
X104108475Y-90608124D01*
X104109865Y-90609329D01*
X104117548Y-90611000D01*
X105211878Y-90611000D01*
X105225409Y-90607027D01*
X105226544Y-90599129D01*
X105185893Y-90459210D01*
X105179648Y-90444779D01*
X105103088Y-90315322D01*
X105096811Y-90307230D01*
X105070861Y-90241146D01*
X105084759Y-90171523D01*
X105096811Y-90152770D01*
X105103088Y-90144678D01*
X105179648Y-90015221D01*
X105185893Y-90000790D01*
X105224939Y-89866395D01*
X105224899Y-89852294D01*
X105217630Y-89849000D01*
X104122115Y-89849000D01*
X104106876Y-89853475D01*
X104105671Y-89854865D01*
X104104000Y-89862548D01*
X104104000Y-90592885D01*
X103596000Y-90592885D01*
X103596000Y-89867115D01*
X103591525Y-89851876D01*
X103590135Y-89850671D01*
X103582452Y-89849000D01*
X102488122Y-89849000D01*
X102474591Y-89852973D01*
X102473456Y-89860871D01*
X97508000Y-89860871D01*
X97508000Y-89323605D01*
X102475061Y-89323605D01*
X102475101Y-89337706D01*
X102482370Y-89341000D01*
X103577885Y-89341000D01*
X103593124Y-89336525D01*
X103594329Y-89335135D01*
X103596000Y-89327452D01*
X103596000Y-89322885D01*
X104104000Y-89322885D01*
X104108475Y-89338124D01*
X104109865Y-89339329D01*
X104117548Y-89341000D01*
X105211878Y-89341000D01*
X105225409Y-89337027D01*
X105226544Y-89329129D01*
X105185893Y-89189210D01*
X105179648Y-89174779D01*
X105103089Y-89045322D01*
X105093449Y-89032896D01*
X104987104Y-88926551D01*
X104974678Y-88916911D01*
X104845221Y-88840352D01*
X104830790Y-88834107D01*
X104684935Y-88791731D01*
X104672333Y-88789430D01*
X104643916Y-88787193D01*
X104638986Y-88787000D01*
X104122115Y-88787000D01*
X104106876Y-88791475D01*
X104105671Y-88792865D01*
X104104000Y-88800548D01*
X104104000Y-89322885D01*
X103596000Y-89322885D01*
X103596000Y-88805116D01*
X103591525Y-88789877D01*
X103590135Y-88788672D01*
X103582452Y-88787001D01*
X103061017Y-88787001D01*
X103056080Y-88787195D01*
X103027664Y-88789430D01*
X103015069Y-88791730D01*
X102869210Y-88834107D01*
X102854779Y-88840352D01*
X102725322Y-88916911D01*
X102712896Y-88926551D01*
X102606551Y-89032896D01*
X102596911Y-89045322D01*
X102520352Y-89174779D01*
X102514107Y-89189210D01*
X102475061Y-89323605D01*
X97508000Y-89323605D01*
X97508000Y-87694669D01*
X102492001Y-87694669D01*
X102492371Y-87701490D01*
X102497895Y-87752352D01*
X102501521Y-87767604D01*
X102546676Y-87888054D01*
X102555214Y-87903649D01*
X102631715Y-88005724D01*
X102644276Y-88018285D01*
X102746351Y-88094786D01*
X102761946Y-88103324D01*
X102882394Y-88148478D01*
X102897649Y-88152105D01*
X102948514Y-88157631D01*
X102955328Y-88158000D01*
X103977885Y-88158000D01*
X103993124Y-88153525D01*
X103994329Y-88152135D01*
X103996000Y-88144452D01*
X103996000Y-88139884D01*
X104504000Y-88139884D01*
X104508475Y-88155123D01*
X104509865Y-88156328D01*
X104517548Y-88157999D01*
X105544669Y-88157999D01*
X105551490Y-88157629D01*
X105602352Y-88152105D01*
X105617604Y-88148479D01*
X105738054Y-88103324D01*
X105753649Y-88094786D01*
X105855724Y-88018285D01*
X105868285Y-88005724D01*
X105944786Y-87903649D01*
X105953324Y-87888054D01*
X105998478Y-87767606D01*
X106002105Y-87752351D01*
X106007631Y-87701486D01*
X106008000Y-87694672D01*
X106008000Y-87022115D01*
X106003525Y-87006876D01*
X106002135Y-87005671D01*
X105994452Y-87004000D01*
X104522115Y-87004000D01*
X104506876Y-87008475D01*
X104505671Y-87009865D01*
X104504000Y-87017548D01*
X104504000Y-88139884D01*
X103996000Y-88139884D01*
X103996000Y-87022115D01*
X103991525Y-87006876D01*
X103990135Y-87005671D01*
X103982452Y-87004000D01*
X102510116Y-87004000D01*
X102494877Y-87008475D01*
X102493672Y-87009865D01*
X102492001Y-87017548D01*
X102492001Y-87694669D01*
X97508000Y-87694669D01*
X97508000Y-86477885D01*
X102492000Y-86477885D01*
X102496475Y-86493124D01*
X102497865Y-86494329D01*
X102505548Y-86496000D01*
X103977885Y-86496000D01*
X103993124Y-86491525D01*
X103994329Y-86490135D01*
X103996000Y-86482452D01*
X103996000Y-86477885D01*
X104504000Y-86477885D01*
X104508475Y-86493124D01*
X104509865Y-86494329D01*
X104517548Y-86496000D01*
X105989884Y-86496000D01*
X106005123Y-86491525D01*
X106006328Y-86490135D01*
X106007999Y-86482452D01*
X106007999Y-85805331D01*
X106007629Y-85798510D01*
X106002105Y-85747648D01*
X105998479Y-85732396D01*
X105953324Y-85611946D01*
X105944786Y-85596351D01*
X105868285Y-85494276D01*
X105855724Y-85481715D01*
X105753649Y-85405214D01*
X105738054Y-85396676D01*
X105617606Y-85351522D01*
X105602351Y-85347895D01*
X105551486Y-85342369D01*
X105544672Y-85342000D01*
X104522115Y-85342000D01*
X104506876Y-85346475D01*
X104505671Y-85347865D01*
X104504000Y-85355548D01*
X104504000Y-86477885D01*
X103996000Y-86477885D01*
X103996000Y-85360116D01*
X103991525Y-85344877D01*
X103990135Y-85343672D01*
X103982452Y-85342001D01*
X102955331Y-85342001D01*
X102948510Y-85342371D01*
X102897648Y-85347895D01*
X102882396Y-85351521D01*
X102761946Y-85396676D01*
X102746351Y-85405214D01*
X102644276Y-85481715D01*
X102631715Y-85494276D01*
X102555214Y-85596351D01*
X102546676Y-85611946D01*
X102501522Y-85732394D01*
X102497895Y-85747649D01*
X102492369Y-85798514D01*
X102492000Y-85805328D01*
X102492000Y-86477885D01*
X97508000Y-86477885D01*
X97508000Y-83751885D01*
X111267000Y-83751885D01*
X111271475Y-83767124D01*
X111272865Y-83768329D01*
X111280548Y-83770000D01*
X111952885Y-83770000D01*
X111968124Y-83765525D01*
X111969329Y-83764135D01*
X111971000Y-83756452D01*
X111971000Y-82772115D01*
X111966525Y-82756876D01*
X111965135Y-82755671D01*
X111957452Y-82754000D01*
X111285115Y-82754000D01*
X111269876Y-82758475D01*
X111268671Y-82759865D01*
X111267000Y-82767548D01*
X111267000Y-82795438D01*
X111267337Y-82801953D01*
X111276894Y-82894057D01*
X111279788Y-82907456D01*
X111329381Y-83056107D01*
X111335555Y-83069285D01*
X111413707Y-83195578D01*
X111432545Y-83264030D01*
X111413823Y-83327997D01*
X111334996Y-83455880D01*
X111328849Y-83469061D01*
X111279509Y-83617814D01*
X111276642Y-83631190D01*
X111267328Y-83722097D01*
X111267000Y-83728514D01*
X111267000Y-83751885D01*
X97508000Y-83751885D01*
X97508000Y-80882703D01*
X98640743Y-80882703D01*
X98641302Y-80886947D01*
X98641302Y-80886951D01*
X98654798Y-80989462D01*
X98678268Y-81167734D01*
X98754129Y-81445036D01*
X98755813Y-81448984D01*
X98864115Y-81702892D01*
X98866923Y-81709476D01*
X98920406Y-81798840D01*
X99007918Y-81945061D01*
X99014561Y-81956161D01*
X99194313Y-82180528D01*
X99270250Y-82252589D01*
X99352584Y-82330721D01*
X99402851Y-82378423D01*
X99636317Y-82546186D01*
X99640112Y-82548195D01*
X99640113Y-82548196D01*
X99661621Y-82559584D01*
X99890392Y-82680712D01*
X99914699Y-82689607D01*
X100127683Y-82767548D01*
X100160373Y-82779511D01*
X100441264Y-82840755D01*
X100465711Y-82842679D01*
X100664282Y-82858307D01*
X100664291Y-82858307D01*
X100666739Y-82858500D01*
X100822271Y-82858500D01*
X100824407Y-82858354D01*
X100824418Y-82858354D01*
X101032548Y-82844165D01*
X101032554Y-82844164D01*
X101036825Y-82843873D01*
X101041020Y-82843004D01*
X101041022Y-82843004D01*
X101270710Y-82795438D01*
X101318342Y-82785574D01*
X101589343Y-82689607D01*
X101759763Y-82601647D01*
X101841005Y-82559715D01*
X101841006Y-82559715D01*
X101844812Y-82557750D01*
X101848313Y-82555289D01*
X101848317Y-82555287D01*
X102027592Y-82429290D01*
X102080023Y-82392441D01*
X102213378Y-82268520D01*
X102257106Y-82227885D01*
X111267000Y-82227885D01*
X111271475Y-82243124D01*
X111272865Y-82244329D01*
X111280548Y-82246000D01*
X111952885Y-82246000D01*
X111968124Y-82241525D01*
X111969329Y-82240135D01*
X111971000Y-82232452D01*
X111971000Y-81535115D01*
X111966525Y-81519876D01*
X111965135Y-81518671D01*
X111957452Y-81517000D01*
X111954562Y-81517000D01*
X111948047Y-81517337D01*
X111855943Y-81526894D01*
X111842544Y-81529788D01*
X111693893Y-81579381D01*
X111680714Y-81585555D01*
X111547827Y-81667788D01*
X111536426Y-81676824D01*
X111426014Y-81787429D01*
X111417002Y-81798840D01*
X111334996Y-81931880D01*
X111328849Y-81945061D01*
X111279509Y-82093814D01*
X111276642Y-82107190D01*
X111267328Y-82198097D01*
X111267000Y-82204514D01*
X111267000Y-82227885D01*
X102257106Y-82227885D01*
X102287479Y-82199661D01*
X102287481Y-82199658D01*
X102290622Y-82196740D01*
X102472713Y-81974268D01*
X102622927Y-81729142D01*
X102648843Y-81670105D01*
X102736757Y-81469830D01*
X102738483Y-81465898D01*
X102817244Y-81189406D01*
X102849476Y-80962930D01*
X102857146Y-80909036D01*
X102857146Y-80909034D01*
X102857751Y-80904784D01*
X102857806Y-80894465D01*
X102859235Y-80621583D01*
X102859235Y-80621576D01*
X102859257Y-80617297D01*
X102847904Y-80531058D01*
X102837056Y-80448661D01*
X102821732Y-80332266D01*
X102812275Y-80297695D01*
X102777586Y-80170896D01*
X102745871Y-80054964D01*
X102720499Y-79995481D01*
X102677499Y-79894669D01*
X105957001Y-79894669D01*
X105957371Y-79901490D01*
X105962895Y-79952352D01*
X105966521Y-79967604D01*
X106011676Y-80088054D01*
X106020214Y-80103649D01*
X106096715Y-80205724D01*
X106109276Y-80218285D01*
X106211351Y-80294786D01*
X106226946Y-80303324D01*
X106347394Y-80348478D01*
X106362649Y-80352105D01*
X106413514Y-80357631D01*
X106420328Y-80358000D01*
X107042885Y-80358000D01*
X107058124Y-80353525D01*
X107059329Y-80352135D01*
X107061000Y-80344452D01*
X107061000Y-79272115D01*
X107056525Y-79256876D01*
X107055135Y-79255671D01*
X107047452Y-79254000D01*
X105975116Y-79254000D01*
X105959877Y-79258475D01*
X105958672Y-79259865D01*
X105957001Y-79267548D01*
X105957001Y-79894669D01*
X102677499Y-79894669D01*
X102634763Y-79794476D01*
X102634761Y-79794472D01*
X102633077Y-79790524D01*
X102524926Y-79609817D01*
X102487643Y-79547521D01*
X102487640Y-79547517D01*
X102485439Y-79543839D01*
X102305687Y-79319472D01*
X102153239Y-79174804D01*
X102100258Y-79124527D01*
X102100255Y-79124525D01*
X102097149Y-79121577D01*
X101881609Y-78966695D01*
X101867172Y-78956321D01*
X101867171Y-78956320D01*
X101863683Y-78953814D01*
X101841843Y-78942250D01*
X101787281Y-78913361D01*
X101609608Y-78819288D01*
X101459076Y-78764201D01*
X101343658Y-78721964D01*
X101343656Y-78721963D01*
X101339627Y-78720489D01*
X101058736Y-78659245D01*
X101027685Y-78656801D01*
X100835718Y-78641693D01*
X100835709Y-78641693D01*
X100833261Y-78641500D01*
X100677729Y-78641500D01*
X100675593Y-78641646D01*
X100675582Y-78641646D01*
X100467452Y-78655835D01*
X100467446Y-78655836D01*
X100463175Y-78656127D01*
X100458980Y-78656996D01*
X100458978Y-78656996D01*
X100322416Y-78685277D01*
X100181658Y-78714426D01*
X99910657Y-78810393D01*
X99906848Y-78812359D01*
X99711160Y-78913361D01*
X99655188Y-78942250D01*
X99651687Y-78944711D01*
X99651683Y-78944713D01*
X99620406Y-78966695D01*
X99419977Y-79107559D01*
X99367603Y-79156228D01*
X99247809Y-79267548D01*
X99209378Y-79303260D01*
X99027287Y-79525732D01*
X98877073Y-79770858D01*
X98875347Y-79774791D01*
X98875346Y-79774792D01*
X98763243Y-80030170D01*
X98761517Y-80034102D01*
X98760342Y-80038229D01*
X98760341Y-80038230D01*
X98754395Y-80059103D01*
X98682756Y-80310594D01*
X98655432Y-80502589D01*
X98643033Y-80589710D01*
X98642249Y-80595216D01*
X98642227Y-80599505D01*
X98642226Y-80599512D01*
X98640765Y-80878417D01*
X98640743Y-80882703D01*
X97508000Y-80882703D01*
X97508000Y-77634000D01*
X97528002Y-77565879D01*
X97581658Y-77519386D01*
X97634000Y-77508000D01*
X106096275Y-77508000D01*
X106164396Y-77528002D01*
G37*
%TD.AperFunction*%
%TA.AperFunction,Conductor*%
G36*
X156434121Y-77528002D02*
G01*
X156480614Y-77581658D01*
X156492000Y-77634000D01*
X156492000Y-90600627D01*
X156471998Y-90668748D01*
X156418342Y-90715241D01*
X156348068Y-90725345D01*
X156283488Y-90695851D01*
X156245104Y-90636125D01*
X156244634Y-90634182D01*
X156190862Y-90451479D01*
X156186269Y-90440111D01*
X156100393Y-90275846D01*
X156093679Y-90265585D01*
X155977532Y-90121127D01*
X155968954Y-90112368D01*
X155826961Y-89993222D01*
X155816841Y-89986292D01*
X155654415Y-89896998D01*
X155643142Y-89892166D01*
X155466462Y-89836120D01*
X155454468Y-89833570D01*
X155310239Y-89817393D01*
X155303215Y-89817000D01*
X155072115Y-89817000D01*
X155056876Y-89821475D01*
X155055671Y-89822865D01*
X155054000Y-89830548D01*
X155054000Y-91814885D01*
X155058475Y-91830124D01*
X155059865Y-91831329D01*
X155067548Y-91833000D01*
X155296657Y-91833000D01*
X155302805Y-91832699D01*
X155440603Y-91819188D01*
X155452638Y-91816805D01*
X155630076Y-91763233D01*
X155641416Y-91758559D01*
X155805077Y-91671540D01*
X155815294Y-91664751D01*
X155958933Y-91547603D01*
X155967637Y-91538959D01*
X156085784Y-91396144D01*
X156092644Y-91385973D01*
X156180804Y-91222924D01*
X156185556Y-91211619D01*
X156240367Y-91034554D01*
X156242574Y-91023802D01*
X156275866Y-90961095D01*
X156337775Y-90926342D01*
X156408646Y-90930576D01*
X156465976Y-90972454D01*
X156491565Y-91038679D01*
X156492000Y-91049140D01*
X156492000Y-98950627D01*
X156471998Y-99018748D01*
X156418342Y-99065241D01*
X156348068Y-99075345D01*
X156283488Y-99045851D01*
X156245104Y-98986125D01*
X156244634Y-98984182D01*
X156190862Y-98801479D01*
X156186269Y-98790111D01*
X156100393Y-98625846D01*
X156093679Y-98615585D01*
X155977532Y-98471127D01*
X155968954Y-98462368D01*
X155826961Y-98343222D01*
X155816841Y-98336292D01*
X155654415Y-98246998D01*
X155643142Y-98242166D01*
X155466462Y-98186120D01*
X155454468Y-98183570D01*
X155310239Y-98167393D01*
X155303215Y-98167000D01*
X155072115Y-98167000D01*
X155056876Y-98171475D01*
X155055671Y-98172865D01*
X155054000Y-98180548D01*
X155054000Y-100164885D01*
X155058475Y-100180124D01*
X155059865Y-100181329D01*
X155067548Y-100183000D01*
X155296657Y-100183000D01*
X155302805Y-100182699D01*
X155440603Y-100169188D01*
X155452638Y-100166805D01*
X155630076Y-100113233D01*
X155641416Y-100108559D01*
X155805077Y-100021540D01*
X155815294Y-100014751D01*
X155958933Y-99897603D01*
X155967637Y-99888959D01*
X156085784Y-99746144D01*
X156092644Y-99735973D01*
X156180804Y-99572924D01*
X156185556Y-99561619D01*
X156240367Y-99384554D01*
X156242574Y-99373802D01*
X156275866Y-99311095D01*
X156337775Y-99276342D01*
X156408646Y-99280576D01*
X156465976Y-99322454D01*
X156491565Y-99388679D01*
X156492000Y-99399140D01*
X156492000Y-112366000D01*
X156471998Y-112434121D01*
X156418342Y-112480614D01*
X156366000Y-112492000D01*
X138826465Y-112492000D01*
X138758344Y-112471998D01*
X138711851Y-112418342D01*
X138701542Y-112349564D01*
X138701910Y-112346767D01*
X138702090Y-112345450D01*
X138712966Y-112269031D01*
X138712966Y-112269028D01*
X138713547Y-112264947D01*
X138713704Y-112250000D01*
X138709413Y-112214540D01*
X138708500Y-112199405D01*
X138708500Y-112110088D01*
X138708792Y-112101519D01*
X138712210Y-112051386D01*
X138712210Y-112051382D01*
X138712726Y-112043809D01*
X138701736Y-111980842D01*
X138700775Y-111974326D01*
X138696704Y-111940684D01*
X138693102Y-111910919D01*
X138690419Y-111903818D01*
X138689778Y-111901209D01*
X138685313Y-111884889D01*
X138684548Y-111882356D01*
X138683243Y-111874878D01*
X138657552Y-111816351D01*
X138655067Y-111810263D01*
X138635172Y-111757610D01*
X138635171Y-111757608D01*
X138632487Y-111750505D01*
X138628186Y-111744246D01*
X138626949Y-111741881D01*
X138618727Y-111727109D01*
X138617372Y-111724817D01*
X138614316Y-111717856D01*
X138609691Y-111711829D01*
X138609689Y-111711825D01*
X138575407Y-111667148D01*
X138571529Y-111661811D01*
X138570187Y-111659857D01*
X138535357Y-111609180D01*
X138488838Y-111567733D01*
X138483563Y-111562753D01*
X136303513Y-109382703D01*
X151140743Y-109382703D01*
X151178268Y-109667734D01*
X151179401Y-109671874D01*
X151179401Y-109671876D01*
X151182662Y-109683795D01*
X151254129Y-109945036D01*
X151255813Y-109948984D01*
X151347721Y-110164457D01*
X151366923Y-110209476D01*
X151514561Y-110456161D01*
X151694313Y-110680528D01*
X151902851Y-110878423D01*
X152136317Y-111046186D01*
X152140112Y-111048195D01*
X152140113Y-111048196D01*
X152161869Y-111059715D01*
X152390392Y-111180712D01*
X152414699Y-111189607D01*
X152627683Y-111267548D01*
X152660373Y-111279511D01*
X152941264Y-111340755D01*
X152969841Y-111343004D01*
X153164282Y-111358307D01*
X153164291Y-111358307D01*
X153166739Y-111358500D01*
X153322271Y-111358500D01*
X153324407Y-111358354D01*
X153324418Y-111358354D01*
X153532548Y-111344165D01*
X153532554Y-111344164D01*
X153536825Y-111343873D01*
X153541020Y-111343004D01*
X153541022Y-111343004D01*
X153677583Y-111314724D01*
X153818342Y-111285574D01*
X154089343Y-111189607D01*
X154344812Y-111057750D01*
X154348313Y-111055289D01*
X154348317Y-111055287D01*
X154474370Y-110966695D01*
X154580023Y-110892441D01*
X154742428Y-110741525D01*
X154787479Y-110699661D01*
X154787481Y-110699658D01*
X154790622Y-110696740D01*
X154972713Y-110474268D01*
X155122927Y-110229142D01*
X155179224Y-110100895D01*
X155236757Y-109969830D01*
X155238483Y-109965898D01*
X155272493Y-109846507D01*
X155316068Y-109693534D01*
X155317244Y-109689406D01*
X155357751Y-109404784D01*
X155357845Y-109386951D01*
X155359235Y-109121583D01*
X155359235Y-109121576D01*
X155359257Y-109117297D01*
X155321732Y-108832266D01*
X155245871Y-108554964D01*
X155211658Y-108474754D01*
X155134763Y-108294476D01*
X155134761Y-108294472D01*
X155133077Y-108290524D01*
X155030243Y-108118701D01*
X154987643Y-108047521D01*
X154987640Y-108047517D01*
X154985439Y-108043839D01*
X154805687Y-107819472D01*
X154607552Y-107631449D01*
X154600258Y-107624527D01*
X154600255Y-107624525D01*
X154597149Y-107621577D01*
X154363683Y-107453814D01*
X154354922Y-107449175D01*
X154307667Y-107424155D01*
X154109608Y-107319288D01*
X153864390Y-107229551D01*
X153843658Y-107221964D01*
X153843656Y-107221963D01*
X153839627Y-107220489D01*
X153558736Y-107159245D01*
X153520045Y-107156200D01*
X153335718Y-107141693D01*
X153335709Y-107141693D01*
X153333261Y-107141500D01*
X153177729Y-107141500D01*
X153175593Y-107141646D01*
X153175582Y-107141646D01*
X152967452Y-107155835D01*
X152967446Y-107155836D01*
X152963175Y-107156127D01*
X152958980Y-107156996D01*
X152958978Y-107156996D01*
X152822416Y-107185277D01*
X152681658Y-107214426D01*
X152410657Y-107310393D01*
X152285723Y-107374876D01*
X152190247Y-107424155D01*
X152155188Y-107442250D01*
X152151687Y-107444711D01*
X152151683Y-107444713D01*
X152102578Y-107479225D01*
X151919977Y-107607559D01*
X151848260Y-107674203D01*
X151725460Y-107788316D01*
X151709378Y-107803260D01*
X151527287Y-108025732D01*
X151377073Y-108270858D01*
X151375347Y-108274791D01*
X151375346Y-108274792D01*
X151343057Y-108348349D01*
X151261517Y-108534102D01*
X151182756Y-108810594D01*
X151142249Y-109095216D01*
X151142227Y-109099505D01*
X151142226Y-109099512D01*
X151140765Y-109378417D01*
X151140743Y-109382703D01*
X136303513Y-109382703D01*
X135550790Y-108629980D01*
X135516764Y-108567668D01*
X135521829Y-108496853D01*
X135536795Y-108468441D01*
X135577243Y-108410889D01*
X135577829Y-108410065D01*
X135625424Y-108343830D01*
X135626828Y-108340337D01*
X135628990Y-108337261D01*
X135658542Y-108261463D01*
X135659028Y-108260237D01*
X135686550Y-108191772D01*
X135689385Y-108184720D01*
X135689915Y-108180998D01*
X135691282Y-108177491D01*
X135694612Y-108152202D01*
X135701911Y-108096757D01*
X135702090Y-108095450D01*
X135702464Y-108092826D01*
X135710642Y-108035357D01*
X135712966Y-108019031D01*
X135712966Y-108019028D01*
X135713547Y-108014947D01*
X135713704Y-108000000D01*
X135709413Y-107964540D01*
X135708500Y-107949405D01*
X135708500Y-105778912D01*
X135708792Y-105770342D01*
X135712209Y-105720224D01*
X135712209Y-105720220D01*
X135712725Y-105712648D01*
X135701738Y-105649697D01*
X135700776Y-105643175D01*
X135693102Y-105579758D01*
X135690419Y-105572657D01*
X135689778Y-105570048D01*
X135685315Y-105553738D01*
X135684550Y-105551202D01*
X135683243Y-105543716D01*
X135657556Y-105485200D01*
X135655065Y-105479096D01*
X135635173Y-105426452D01*
X135635172Y-105426451D01*
X135632487Y-105419344D01*
X135628183Y-105413081D01*
X135626946Y-105410715D01*
X135618701Y-105395903D01*
X135617368Y-105393649D01*
X135614315Y-105386695D01*
X135575413Y-105335998D01*
X135571541Y-105330668D01*
X135539661Y-105284280D01*
X135539656Y-105284275D01*
X135535357Y-105278019D01*
X135488829Y-105236564D01*
X135483554Y-105231584D01*
X128425939Y-98173969D01*
X128391913Y-98111657D01*
X128396978Y-98040842D01*
X128439525Y-97984006D01*
X128506045Y-97959195D01*
X128517012Y-97958890D01*
X128567003Y-97959675D01*
X128567006Y-97959675D01*
X128574602Y-97959794D01*
X128578908Y-97958808D01*
X128584784Y-97958500D01*
X133666088Y-97958500D01*
X133674658Y-97958792D01*
X133724776Y-97962209D01*
X133724780Y-97962209D01*
X133732352Y-97962725D01*
X133739829Y-97961420D01*
X133739830Y-97961420D01*
X133775394Y-97955213D01*
X133795303Y-97951738D01*
X133801821Y-97950777D01*
X133865242Y-97943102D01*
X133872343Y-97940419D01*
X133874952Y-97939778D01*
X133891262Y-97935315D01*
X133893798Y-97934550D01*
X133901284Y-97933243D01*
X133959800Y-97907556D01*
X133965904Y-97905065D01*
X134018548Y-97885173D01*
X134018549Y-97885172D01*
X134025656Y-97882487D01*
X134031919Y-97878183D01*
X134034285Y-97876946D01*
X134049097Y-97868701D01*
X134051351Y-97867368D01*
X134058305Y-97864315D01*
X134109002Y-97825413D01*
X134114332Y-97821541D01*
X134160720Y-97789661D01*
X134160725Y-97789656D01*
X134166981Y-97785357D01*
X134208434Y-97738831D01*
X134213415Y-97733555D01*
X134272490Y-97674481D01*
X134279754Y-97667766D01*
X134314578Y-97638023D01*
X134320355Y-97633089D01*
X134328789Y-97621353D01*
X134360194Y-97577648D01*
X134363345Y-97573450D01*
X134405476Y-97519718D01*
X134408602Y-97512795D01*
X134412445Y-97506449D01*
X134415990Y-97500000D01*
X134420424Y-97493830D01*
X134424587Y-97483475D01*
X134445892Y-97430478D01*
X134447962Y-97425624D01*
X134472919Y-97370350D01*
X134476045Y-97363427D01*
X134477430Y-97355956D01*
X134479636Y-97348914D01*
X134481550Y-97341773D01*
X134484385Y-97334720D01*
X134494004Y-97267131D01*
X134494856Y-97261928D01*
X134495254Y-97259784D01*
X134507295Y-97194814D01*
X134506858Y-97187233D01*
X134507335Y-97179647D01*
X134507686Y-97179669D01*
X134507958Y-97173171D01*
X134507653Y-97173148D01*
X134507966Y-97169025D01*
X134508547Y-97164947D01*
X134508704Y-97150000D01*
X134501552Y-97090904D01*
X134500849Y-97083028D01*
X134499835Y-97065432D01*
X134497424Y-97023615D01*
X134495191Y-97016358D01*
X134495190Y-97016350D01*
X134494111Y-97012844D01*
X134489455Y-96990940D01*
X134489014Y-96987296D01*
X134488102Y-96979758D01*
X134467054Y-96924057D01*
X134464500Y-96916594D01*
X134449234Y-96866969D01*
X134449233Y-96866968D01*
X134447001Y-96859711D01*
X134441219Y-96850050D01*
X134431469Y-96829882D01*
X134430171Y-96826447D01*
X134427487Y-96819344D01*
X134393770Y-96770286D01*
X134389499Y-96763632D01*
X134362839Y-96719086D01*
X134362835Y-96719081D01*
X134358936Y-96712566D01*
X134353594Y-96707168D01*
X134353592Y-96707165D01*
X134351017Y-96704563D01*
X134336741Y-96687308D01*
X134330357Y-96678019D01*
X134285919Y-96638426D01*
X134280182Y-96632982D01*
X134243659Y-96596075D01*
X134243658Y-96596074D01*
X134238315Y-96590675D01*
X134228716Y-96584793D01*
X134210725Y-96571431D01*
X134207993Y-96568996D01*
X134207989Y-96568994D01*
X134202321Y-96563943D01*
X134195609Y-96560389D01*
X134195606Y-96560387D01*
X134149715Y-96536089D01*
X134142863Y-96532182D01*
X134092101Y-96501075D01*
X134081374Y-96497652D01*
X134060726Y-96488972D01*
X134050769Y-96483700D01*
X133993032Y-96469197D01*
X133985419Y-96467028D01*
X133980481Y-96465452D01*
X133928735Y-96448938D01*
X133917499Y-96448172D01*
X133895381Y-96444669D01*
X133884451Y-96441924D01*
X133876852Y-96441884D01*
X133876850Y-96441884D01*
X133852433Y-96441757D01*
X133824922Y-96441613D01*
X133817030Y-96441323D01*
X133757648Y-96437275D01*
X133750172Y-96438580D01*
X133750169Y-96438580D01*
X133746555Y-96439211D01*
X133724232Y-96441085D01*
X133723597Y-96441082D01*
X133712969Y-96441026D01*
X133670386Y-96451249D01*
X133655090Y-96454921D01*
X133647342Y-96456526D01*
X133588716Y-96466758D01*
X133578407Y-96471284D01*
X133557175Y-96478429D01*
X133546223Y-96481058D01*
X133539472Y-96484542D01*
X133539473Y-96484542D01*
X133493333Y-96508356D01*
X133486190Y-96511763D01*
X133442657Y-96530873D01*
X133392011Y-96541500D01*
X128508762Y-96541500D01*
X128508102Y-96541498D01*
X128417969Y-96541026D01*
X128388873Y-96548011D01*
X128381379Y-96549810D01*
X128367105Y-96552378D01*
X128337300Y-96555985D01*
X128337298Y-96555985D01*
X128329758Y-96556898D01*
X128322651Y-96559583D01*
X128322649Y-96559584D01*
X128298670Y-96568645D01*
X128283543Y-96573299D01*
X128258606Y-96579285D01*
X128258602Y-96579287D01*
X128251223Y-96581058D01*
X128217781Y-96598318D01*
X128204539Y-96604214D01*
X128176451Y-96614827D01*
X128176448Y-96614829D01*
X128169344Y-96617513D01*
X128141944Y-96636345D01*
X128128387Y-96644459D01*
X128098839Y-96659709D01*
X128093118Y-96664700D01*
X128093112Y-96664704D01*
X128070487Y-96684442D01*
X128059021Y-96693336D01*
X128034280Y-96710339D01*
X128034275Y-96710344D01*
X128028019Y-96714643D01*
X128005906Y-96739462D01*
X127994662Y-96750588D01*
X127975341Y-96767443D01*
X127975338Y-96767447D01*
X127969615Y-96772439D01*
X127965247Y-96778653D01*
X127965245Y-96778656D01*
X127947979Y-96803222D01*
X127938972Y-96814586D01*
X127913943Y-96842679D01*
X127910391Y-96849388D01*
X127910388Y-96849392D01*
X127898389Y-96872054D01*
X127890124Y-96885541D01*
X127875381Y-96906519D01*
X127871010Y-96912739D01*
X127868249Y-96919820D01*
X127868247Y-96919824D01*
X127857343Y-96947790D01*
X127851306Y-96960977D01*
X127837372Y-96987296D01*
X127833700Y-96994231D01*
X127831851Y-97001591D01*
X127831849Y-97001597D01*
X127825603Y-97026466D01*
X127820791Y-97041543D01*
X127808718Y-97072509D01*
X127807727Y-97080036D01*
X127803806Y-97109817D01*
X127801088Y-97124064D01*
X127791924Y-97160549D01*
X127791884Y-97168141D01*
X127791884Y-97168142D01*
X127791750Y-97193783D01*
X127790675Y-97209560D01*
X127786335Y-97242526D01*
X127786335Y-97242527D01*
X127784380Y-97242270D01*
X127766632Y-97300434D01*
X127712489Y-97346358D01*
X127642113Y-97355720D01*
X127577846Y-97325548D01*
X127572264Y-97320294D01*
X124245405Y-93993435D01*
X124211379Y-93931123D01*
X124208500Y-93904340D01*
X124208500Y-91309331D01*
X124209757Y-91291577D01*
X124212966Y-91269030D01*
X124212966Y-91269029D01*
X124213547Y-91264947D01*
X124213704Y-91250000D01*
X124204905Y-91177290D01*
X124194015Y-91087299D01*
X124194014Y-91087296D01*
X124193102Y-91079758D01*
X124190016Y-91071589D01*
X124135171Y-90926447D01*
X124132487Y-90919344D01*
X124069700Y-90827988D01*
X124047599Y-90760520D01*
X124065484Y-90691813D01*
X124084444Y-90667526D01*
X126256565Y-88495405D01*
X126318877Y-88461379D01*
X126345660Y-88458500D01*
X131417599Y-88458500D01*
X131485720Y-88478502D01*
X131532213Y-88532158D01*
X131541723Y-88562838D01*
X131547507Y-88595981D01*
X131548622Y-88603817D01*
X131555153Y-88662975D01*
X131559021Y-88673544D01*
X131564820Y-88695187D01*
X131566757Y-88706284D01*
X131586619Y-88751529D01*
X131590680Y-88760781D01*
X131593632Y-88768125D01*
X131611474Y-88816880D01*
X131614085Y-88824015D01*
X131618324Y-88830323D01*
X131620365Y-88833361D01*
X131631157Y-88852991D01*
X131632629Y-88856345D01*
X131632632Y-88856349D01*
X131635685Y-88863305D01*
X131668664Y-88906284D01*
X131671914Y-88910520D01*
X131676529Y-88916942D01*
X131709730Y-88966349D01*
X131715346Y-88971459D01*
X131759159Y-89011326D01*
X131763454Y-89015424D01*
X138504595Y-95756565D01*
X138538621Y-95818877D01*
X138541500Y-95845660D01*
X138541500Y-103695036D01*
X138540422Y-103711482D01*
X138536335Y-103742526D01*
X138541170Y-103786316D01*
X138541500Y-103790184D01*
X138541500Y-103793003D01*
X138546058Y-103830656D01*
X138546070Y-103830759D01*
X138546217Y-103832027D01*
X138547050Y-103839575D01*
X138554319Y-103905425D01*
X138554320Y-103905429D01*
X138555153Y-103912975D01*
X138556446Y-103916509D01*
X138556898Y-103920242D01*
X138559584Y-103927350D01*
X138585639Y-103996305D01*
X138586094Y-103997526D01*
X138614085Y-104074015D01*
X138616184Y-104077138D01*
X138617513Y-104080656D01*
X138634787Y-104105790D01*
X138663618Y-104147740D01*
X138664358Y-104148829D01*
X138671879Y-104160021D01*
X138709730Y-104216349D01*
X138712512Y-104218881D01*
X138714643Y-104221981D01*
X138720315Y-104227035D01*
X138720319Y-104227039D01*
X138775442Y-104276152D01*
X138776357Y-104276975D01*
X138836565Y-104331760D01*
X138839871Y-104333555D01*
X138842679Y-104336057D01*
X138849395Y-104339613D01*
X138849398Y-104339615D01*
X138914556Y-104374114D01*
X138915716Y-104374735D01*
X138987268Y-104413585D01*
X138990906Y-104414539D01*
X138994231Y-104416300D01*
X139073137Y-104436120D01*
X139074345Y-104436429D01*
X139153139Y-104457101D01*
X139156903Y-104457160D01*
X139160549Y-104458076D01*
X139168152Y-104458116D01*
X139168154Y-104458116D01*
X139241920Y-104458502D01*
X139243239Y-104458516D01*
X139317003Y-104459675D01*
X139317006Y-104459675D01*
X139324602Y-104459794D01*
X139328268Y-104458954D01*
X139332031Y-104458974D01*
X139411282Y-104439948D01*
X139412420Y-104439681D01*
X139440616Y-104433224D01*
X139484356Y-104423206D01*
X139484359Y-104423205D01*
X139491759Y-104421510D01*
X139495119Y-104419820D01*
X139498777Y-104418942D01*
X139571155Y-104381585D01*
X139572123Y-104381092D01*
X139644958Y-104344459D01*
X139647818Y-104342017D01*
X139651161Y-104340291D01*
X139656878Y-104335304D01*
X139656882Y-104335301D01*
X139687568Y-104308531D01*
X139712518Y-104286766D01*
X139713453Y-104285959D01*
X139769579Y-104238023D01*
X139769582Y-104238019D01*
X139775355Y-104233089D01*
X139777550Y-104230034D01*
X139780385Y-104227561D01*
X139786486Y-104218881D01*
X139827155Y-104161015D01*
X139827919Y-104159940D01*
X139870990Y-104100001D01*
X139870991Y-104099999D01*
X139875424Y-104093830D01*
X139876828Y-104090337D01*
X139878990Y-104087261D01*
X139908542Y-104011463D01*
X139909028Y-104010237D01*
X139936550Y-103941772D01*
X139939385Y-103934720D01*
X139939915Y-103930998D01*
X139941282Y-103927491D01*
X139942860Y-103915510D01*
X139951911Y-103846757D01*
X139952090Y-103845450D01*
X139953256Y-103837261D01*
X139963547Y-103764947D01*
X139963704Y-103750000D01*
X139959413Y-103714540D01*
X139958500Y-103699405D01*
X139958500Y-95528912D01*
X139958792Y-95520342D01*
X139962209Y-95470224D01*
X139962209Y-95470220D01*
X139962725Y-95462648D01*
X139951738Y-95399697D01*
X139950776Y-95393175D01*
X139946830Y-95360564D01*
X139943102Y-95329758D01*
X139940419Y-95322657D01*
X139939778Y-95320048D01*
X139935315Y-95303738D01*
X139934550Y-95301202D01*
X139933243Y-95293716D01*
X139907556Y-95235200D01*
X139905065Y-95229096D01*
X139885173Y-95176452D01*
X139885172Y-95176451D01*
X139882487Y-95169344D01*
X139878183Y-95163081D01*
X139876946Y-95160715D01*
X139868701Y-95145903D01*
X139867368Y-95143649D01*
X139864315Y-95136695D01*
X139825413Y-95085998D01*
X139821541Y-95080668D01*
X139789661Y-95034280D01*
X139789656Y-95034275D01*
X139785357Y-95028019D01*
X139738829Y-94986564D01*
X139733554Y-94981584D01*
X133425565Y-88673595D01*
X133391539Y-88611283D01*
X133396604Y-88540468D01*
X133439151Y-88483632D01*
X133505671Y-88458821D01*
X133514660Y-88458500D01*
X141404340Y-88458500D01*
X141472461Y-88478502D01*
X141493435Y-88495405D01*
X142404595Y-89406565D01*
X142438621Y-89468877D01*
X142441500Y-89495660D01*
X142441500Y-106660290D01*
X142421498Y-106728411D01*
X142367842Y-106774904D01*
X142297568Y-106785008D01*
X142232988Y-106755514D01*
X142226405Y-106749385D01*
X142140381Y-106663361D01*
X141993699Y-106574528D01*
X141986452Y-106572257D01*
X141986450Y-106572256D01*
X141913532Y-106549405D01*
X141830062Y-106523247D01*
X141756635Y-106516500D01*
X141753737Y-106516500D01*
X141499335Y-106516501D01*
X141243366Y-106516501D01*
X141240508Y-106516764D01*
X141240499Y-106516764D01*
X141204996Y-106520026D01*
X141169938Y-106523247D01*
X141163560Y-106525246D01*
X141163559Y-106525246D01*
X141013550Y-106572256D01*
X141013548Y-106572257D01*
X141006301Y-106574528D01*
X140859619Y-106663361D01*
X140768385Y-106754595D01*
X140706073Y-106788621D01*
X140679290Y-106791500D01*
X139815660Y-106791500D01*
X139747539Y-106771498D01*
X139726565Y-106754595D01*
X139715577Y-106743607D01*
X139712599Y-106741272D01*
X139712591Y-106741265D01*
X139702835Y-106733616D01*
X139696761Y-106728537D01*
X139657996Y-106693998D01*
X139657989Y-106693993D01*
X139652321Y-106688943D01*
X139642363Y-106683671D01*
X139623580Y-106671473D01*
X139620690Y-106669207D01*
X139614718Y-106664524D01*
X139599456Y-106657633D01*
X139560479Y-106640034D01*
X139553377Y-106636555D01*
X139500769Y-106608700D01*
X139493401Y-106606849D01*
X139493400Y-106606849D01*
X139492138Y-106606532D01*
X139489844Y-106605956D01*
X139468691Y-106598589D01*
X139465357Y-106597084D01*
X139465356Y-106597084D01*
X139458427Y-106593955D01*
X139399912Y-106583110D01*
X139392179Y-106581424D01*
X139341823Y-106568775D01*
X139341817Y-106568774D01*
X139334451Y-106566924D01*
X139326852Y-106566884D01*
X139326851Y-106566884D01*
X139323914Y-106566869D01*
X139323192Y-106566865D01*
X139300893Y-106564757D01*
X139289814Y-106562704D01*
X139282233Y-106563141D01*
X139282232Y-106563141D01*
X139230389Y-106566130D01*
X139222479Y-106566337D01*
X139195617Y-106566197D01*
X139162969Y-106566026D01*
X139155586Y-106567798D01*
X139155581Y-106567799D01*
X139152012Y-106568656D01*
X139129864Y-106571927D01*
X139128693Y-106571995D01*
X139118615Y-106572576D01*
X139061712Y-106590081D01*
X139054135Y-106592154D01*
X138996223Y-106606058D01*
X138989478Y-106609539D01*
X138989471Y-106609542D01*
X138986207Y-106611227D01*
X138965478Y-106619687D01*
X138954711Y-106622999D01*
X138948199Y-106626896D01*
X138948193Y-106626899D01*
X138903640Y-106653563D01*
X138896726Y-106657411D01*
X138850590Y-106681224D01*
X138850587Y-106681226D01*
X138843839Y-106684709D01*
X138838117Y-106689701D01*
X138838115Y-106689702D01*
X138835348Y-106692116D01*
X138817232Y-106705278D01*
X138807566Y-106711063D01*
X138802173Y-106716400D01*
X138802169Y-106716403D01*
X138765252Y-106752936D01*
X138759465Y-106758313D01*
X138714615Y-106797439D01*
X138710246Y-106803656D01*
X138708146Y-106806644D01*
X138693684Y-106823758D01*
X138685675Y-106831684D01*
X138681708Y-106838158D01*
X138681703Y-106838164D01*
X138654574Y-106882434D01*
X138650229Y-106889049D01*
X138620381Y-106931518D01*
X138620377Y-106931525D01*
X138616010Y-106937739D01*
X138613250Y-106944819D01*
X138611921Y-106948227D01*
X138601958Y-106968297D01*
X138596075Y-106977898D01*
X138577984Y-107034585D01*
X138575342Y-107042045D01*
X138556478Y-107090428D01*
X138556477Y-107090434D01*
X138553718Y-107097509D01*
X138552727Y-107105039D01*
X138552726Y-107105042D01*
X138552248Y-107108676D01*
X138547362Y-107130537D01*
X138543938Y-107141265D01*
X138543422Y-107148839D01*
X138543421Y-107148843D01*
X138539892Y-107200625D01*
X138539108Y-107208490D01*
X138538326Y-107214426D01*
X138533633Y-107250075D01*
X138531335Y-107267526D01*
X138532572Y-107278734D01*
X138533041Y-107301116D01*
X138532275Y-107312352D01*
X138533580Y-107319829D01*
X138533580Y-107319831D01*
X138542507Y-107370980D01*
X138543622Y-107378817D01*
X138548181Y-107420108D01*
X138550153Y-107437975D01*
X138554021Y-107448544D01*
X138559820Y-107470187D01*
X138561757Y-107481284D01*
X138583989Y-107531929D01*
X138585680Y-107535781D01*
X138588632Y-107543125D01*
X138596472Y-107564549D01*
X138609085Y-107599015D01*
X138613324Y-107605323D01*
X138615365Y-107608361D01*
X138626157Y-107627991D01*
X138627629Y-107631345D01*
X138627632Y-107631349D01*
X138630685Y-107638305D01*
X138662296Y-107679501D01*
X138666914Y-107685520D01*
X138671529Y-107691942D01*
X138704730Y-107741349D01*
X138735991Y-107769794D01*
X138754159Y-107786326D01*
X138758454Y-107790424D01*
X138948550Y-107980520D01*
X138954404Y-107986785D01*
X138992439Y-108030385D01*
X139006820Y-108040492D01*
X139044719Y-108067128D01*
X139050014Y-108071061D01*
X139100282Y-108110476D01*
X139107198Y-108113599D01*
X139109484Y-108114983D01*
X139124165Y-108123357D01*
X139126525Y-108124622D01*
X139132739Y-108128990D01*
X139139818Y-108131750D01*
X139139820Y-108131751D01*
X139192275Y-108152202D01*
X139198344Y-108154753D01*
X139256573Y-108181045D01*
X139264046Y-108182430D01*
X139266612Y-108183234D01*
X139282835Y-108187855D01*
X139285427Y-108188520D01*
X139292509Y-108191282D01*
X139300044Y-108192274D01*
X139355861Y-108199622D01*
X139362377Y-108200654D01*
X139392204Y-108206182D01*
X139425186Y-108212295D01*
X139432766Y-108211858D01*
X139432767Y-108211858D01*
X139487380Y-108208709D01*
X139494633Y-108208500D01*
X140679290Y-108208500D01*
X140747411Y-108228502D01*
X140768385Y-108245405D01*
X140859619Y-108336639D01*
X141006301Y-108425472D01*
X141013548Y-108427743D01*
X141013550Y-108427744D01*
X141079836Y-108448517D01*
X141169938Y-108476753D01*
X141243365Y-108483500D01*
X141246263Y-108483500D01*
X141500665Y-108483499D01*
X141756634Y-108483499D01*
X141759492Y-108483236D01*
X141759501Y-108483236D01*
X141795004Y-108479974D01*
X141830062Y-108476753D01*
X141856611Y-108468433D01*
X141986450Y-108427744D01*
X141986452Y-108427743D01*
X141993699Y-108425472D01*
X142140381Y-108336639D01*
X142235905Y-108241115D01*
X142298217Y-108207089D01*
X142369032Y-108212154D01*
X142414095Y-108241115D01*
X142509619Y-108336639D01*
X142656301Y-108425472D01*
X142663548Y-108427743D01*
X142663550Y-108427744D01*
X142729836Y-108448517D01*
X142819938Y-108476753D01*
X142893365Y-108483500D01*
X142896263Y-108483500D01*
X143150665Y-108483499D01*
X143406634Y-108483499D01*
X143409492Y-108483236D01*
X143409501Y-108483236D01*
X143445004Y-108479974D01*
X143480062Y-108476753D01*
X143506611Y-108468433D01*
X143636450Y-108427744D01*
X143636452Y-108427743D01*
X143643699Y-108425472D01*
X143790381Y-108336639D01*
X143881615Y-108245405D01*
X143943927Y-108211379D01*
X143970710Y-108208500D01*
X146001088Y-108208500D01*
X146009658Y-108208792D01*
X146059776Y-108212209D01*
X146059780Y-108212209D01*
X146067352Y-108212725D01*
X146074829Y-108211420D01*
X146074830Y-108211420D01*
X146104842Y-108206182D01*
X146130303Y-108201738D01*
X146136821Y-108200777D01*
X146200242Y-108193102D01*
X146207343Y-108190419D01*
X146209952Y-108189778D01*
X146226262Y-108185315D01*
X146228798Y-108184550D01*
X146236284Y-108183243D01*
X146294800Y-108157556D01*
X146300904Y-108155065D01*
X146353548Y-108135173D01*
X146353549Y-108135172D01*
X146360656Y-108132487D01*
X146366919Y-108128183D01*
X146369285Y-108126946D01*
X146384097Y-108118701D01*
X146386351Y-108117368D01*
X146393305Y-108114315D01*
X146444002Y-108075413D01*
X146449332Y-108071541D01*
X146495720Y-108039661D01*
X146495725Y-108039656D01*
X146501981Y-108035357D01*
X146529737Y-108004205D01*
X146543435Y-107988830D01*
X146548416Y-107983554D01*
X146732479Y-107799491D01*
X146739743Y-107792775D01*
X146774577Y-107763024D01*
X146780355Y-107758089D01*
X146820191Y-107702651D01*
X146823339Y-107698458D01*
X146865476Y-107644718D01*
X146868602Y-107637794D01*
X146872445Y-107631449D01*
X146875990Y-107625000D01*
X146880424Y-107618830D01*
X146883259Y-107611778D01*
X146905892Y-107555478D01*
X146907962Y-107550624D01*
X146932919Y-107495350D01*
X146936045Y-107488427D01*
X146937430Y-107480956D01*
X146939636Y-107473914D01*
X146941550Y-107466773D01*
X146944385Y-107459720D01*
X146954004Y-107392131D01*
X146954856Y-107386928D01*
X146958216Y-107368802D01*
X146967295Y-107319814D01*
X146966858Y-107312233D01*
X146967335Y-107304647D01*
X146967686Y-107304669D01*
X146967958Y-107298171D01*
X146967653Y-107298148D01*
X146967966Y-107294025D01*
X146968547Y-107289947D01*
X146968704Y-107275000D01*
X146961552Y-107215904D01*
X146960849Y-107208028D01*
X146960685Y-107205186D01*
X146957424Y-107148615D01*
X146955191Y-107141358D01*
X146955190Y-107141350D01*
X146954111Y-107137844D01*
X146949455Y-107115940D01*
X146949014Y-107112296D01*
X146948102Y-107104758D01*
X146927054Y-107049057D01*
X146924500Y-107041594D01*
X146922956Y-107036573D01*
X146907001Y-106984711D01*
X146901219Y-106975050D01*
X146891469Y-106954882D01*
X146890171Y-106951447D01*
X146887487Y-106944344D01*
X146870633Y-106919820D01*
X146853775Y-106895292D01*
X146849500Y-106888633D01*
X146840926Y-106874307D01*
X146818937Y-106837566D01*
X146811009Y-106829554D01*
X146796735Y-106812299D01*
X146794662Y-106809283D01*
X146790357Y-106803019D01*
X146778491Y-106792447D01*
X146745930Y-106763435D01*
X146740190Y-106757989D01*
X146703660Y-106721075D01*
X146703659Y-106721074D01*
X146698316Y-106715675D01*
X146691840Y-106711707D01*
X146691838Y-106711705D01*
X146688714Y-106709791D01*
X146670732Y-106696436D01*
X146667996Y-106693998D01*
X146667989Y-106693993D01*
X146662321Y-106688943D01*
X146609731Y-106661098D01*
X146602857Y-106657177D01*
X146558579Y-106630044D01*
X146558574Y-106630042D01*
X146552101Y-106626075D01*
X146541374Y-106622652D01*
X146520726Y-106613972D01*
X146510769Y-106608700D01*
X146453032Y-106594197D01*
X146445419Y-106592028D01*
X146442944Y-106591238D01*
X146388735Y-106573938D01*
X146377499Y-106573172D01*
X146355381Y-106569669D01*
X146344451Y-106566924D01*
X146336852Y-106566884D01*
X146336850Y-106566884D01*
X146312433Y-106566757D01*
X146284922Y-106566613D01*
X146277030Y-106566323D01*
X146217648Y-106562275D01*
X146206554Y-106564211D01*
X146184233Y-106566085D01*
X146183507Y-106566081D01*
X146172969Y-106566026D01*
X146115077Y-106579925D01*
X146107351Y-106581524D01*
X146084800Y-106585460D01*
X146056197Y-106590451D01*
X146056194Y-106590452D01*
X146048716Y-106591757D01*
X146038399Y-106596286D01*
X146017173Y-106603429D01*
X146006223Y-106606058D01*
X145999473Y-106609542D01*
X145953340Y-106633353D01*
X145946202Y-106636758D01*
X145891695Y-106660685D01*
X145885674Y-106665305D01*
X145885666Y-106665310D01*
X145882758Y-106667542D01*
X145863848Y-106679543D01*
X145853839Y-106684709D01*
X145848118Y-106689699D01*
X145848116Y-106689701D01*
X145840767Y-106696112D01*
X145808980Y-106723842D01*
X145802876Y-106728838D01*
X145787041Y-106740989D01*
X145774480Y-106753550D01*
X145768211Y-106759407D01*
X145767013Y-106760452D01*
X145702529Y-106790158D01*
X145684187Y-106791500D01*
X145233622Y-106791500D01*
X145165501Y-106771498D01*
X145119008Y-106717842D01*
X145108879Y-106647747D01*
X145112966Y-106619031D01*
X145112966Y-106619028D01*
X145113547Y-106614947D01*
X145113632Y-106606849D01*
X145113661Y-106604134D01*
X145113661Y-106604128D01*
X145113704Y-106600000D01*
X145109413Y-106564540D01*
X145108500Y-106549405D01*
X145108500Y-105695798D01*
X145128502Y-105627677D01*
X145145405Y-105606703D01*
X147826405Y-102925704D01*
X147888717Y-102891678D01*
X147959533Y-102896743D01*
X148016368Y-102939290D01*
X148041179Y-103005810D01*
X148041500Y-103014799D01*
X148041500Y-106652440D01*
X148021498Y-106720561D01*
X147998330Y-106747388D01*
X147975342Y-106767442D01*
X147975338Y-106767447D01*
X147969615Y-106772439D01*
X147958242Y-106788621D01*
X147932872Y-106824719D01*
X147928939Y-106830014D01*
X147889524Y-106880282D01*
X147886401Y-106887198D01*
X147885017Y-106889484D01*
X147876643Y-106904165D01*
X147875378Y-106906525D01*
X147871010Y-106912739D01*
X147868250Y-106919818D01*
X147868249Y-106919820D01*
X147847798Y-106972275D01*
X147845247Y-106978344D01*
X147818955Y-107036573D01*
X147817571Y-107044040D01*
X147816770Y-107046595D01*
X147812141Y-107062848D01*
X147811478Y-107065428D01*
X147808718Y-107072509D01*
X147802489Y-107119827D01*
X147800379Y-107135852D01*
X147799348Y-107142359D01*
X147787704Y-107205186D01*
X147788141Y-107212764D01*
X147787975Y-107215399D01*
X147787354Y-107232345D01*
X147787326Y-107234995D01*
X147786335Y-107242526D01*
X147793193Y-107304647D01*
X147793346Y-107306029D01*
X147793897Y-107312594D01*
X147797576Y-107376385D01*
X147799809Y-107383645D01*
X147800279Y-107386256D01*
X147803716Y-107402854D01*
X147804319Y-107405427D01*
X147805153Y-107412975D01*
X147807763Y-107420106D01*
X147807763Y-107420108D01*
X147827109Y-107472975D01*
X147829213Y-107479225D01*
X147831986Y-107488239D01*
X147847999Y-107540289D01*
X147851899Y-107546806D01*
X147852974Y-107549220D01*
X147860286Y-107564549D01*
X147861474Y-107566882D01*
X147864085Y-107574015D01*
X147899726Y-107627053D01*
X147903245Y-107632599D01*
X147929694Y-107676792D01*
X147936063Y-107687434D01*
X147941405Y-107692832D01*
X147943015Y-107694908D01*
X147953750Y-107708024D01*
X147955492Y-107710042D01*
X147959730Y-107716349D01*
X147965348Y-107721461D01*
X147965349Y-107721462D01*
X148006985Y-107759348D01*
X148011736Y-107763904D01*
X148056684Y-107809325D01*
X148063156Y-107813291D01*
X148065235Y-107814939D01*
X148078743Y-107825081D01*
X148080944Y-107826646D01*
X148086565Y-107831760D01*
X148093239Y-107835383D01*
X148093245Y-107835388D01*
X148142717Y-107862248D01*
X148148405Y-107865532D01*
X148202898Y-107898925D01*
X148210130Y-107901233D01*
X148212534Y-107902334D01*
X148228096Y-107908972D01*
X148230591Y-107909960D01*
X148237268Y-107913585D01*
X148244614Y-107915512D01*
X148244616Y-107915513D01*
X148272453Y-107922816D01*
X148299093Y-107929805D01*
X148305390Y-107931634D01*
X148366265Y-107951062D01*
X148373841Y-107951578D01*
X148376470Y-107952080D01*
X148393179Y-107954816D01*
X148395794Y-107955174D01*
X148403139Y-107957101D01*
X148433970Y-107957585D01*
X148501768Y-107978653D01*
X148540109Y-108018864D01*
X148561938Y-108055339D01*
X148561941Y-108055343D01*
X148565839Y-108061856D01*
X148571180Y-108067253D01*
X148572791Y-108069330D01*
X148583526Y-108082446D01*
X148585268Y-108084464D01*
X148589506Y-108090771D01*
X148595124Y-108095883D01*
X148595125Y-108095884D01*
X148636761Y-108133770D01*
X148641512Y-108138326D01*
X148686460Y-108183747D01*
X148692932Y-108187713D01*
X148695011Y-108189361D01*
X148708519Y-108199503D01*
X148710720Y-108201068D01*
X148716341Y-108206182D01*
X148723015Y-108209805D01*
X148723021Y-108209810D01*
X148772493Y-108236670D01*
X148778181Y-108239954D01*
X148832674Y-108273347D01*
X148839906Y-108275655D01*
X148842310Y-108276756D01*
X148857872Y-108283394D01*
X148860367Y-108284382D01*
X148867044Y-108288007D01*
X148874390Y-108289934D01*
X148874392Y-108289935D01*
X148884250Y-108292521D01*
X148928869Y-108304227D01*
X148935166Y-108306056D01*
X148996041Y-108325484D01*
X149003617Y-108326000D01*
X149006246Y-108326502D01*
X149022955Y-108329238D01*
X149025570Y-108329596D01*
X149032915Y-108331523D01*
X149096809Y-108332526D01*
X149103393Y-108332802D01*
X149112261Y-108333406D01*
X149159552Y-108336631D01*
X149159556Y-108336631D01*
X149167128Y-108337147D01*
X149174602Y-108335842D01*
X149177265Y-108335703D01*
X149194113Y-108334377D01*
X149196781Y-108334097D01*
X149204378Y-108334216D01*
X149238060Y-108326502D01*
X149266651Y-108319954D01*
X149273117Y-108318650D01*
X149328578Y-108308971D01*
X149328580Y-108308970D01*
X149336060Y-108307665D01*
X149343013Y-108304613D01*
X149345550Y-108303847D01*
X149361640Y-108298525D01*
X149364134Y-108297627D01*
X149371535Y-108295932D01*
X149378314Y-108292522D01*
X149378318Y-108292521D01*
X149428611Y-108267226D01*
X149434579Y-108264418D01*
X149486124Y-108241791D01*
X149486125Y-108241791D01*
X149493081Y-108238737D01*
X149499110Y-108234110D01*
X149501409Y-108232751D01*
X149515755Y-108223751D01*
X149517947Y-108222294D01*
X149524734Y-108218881D01*
X149573336Y-108177371D01*
X149578432Y-108173245D01*
X149594459Y-108160947D01*
X149594461Y-108160946D01*
X149597735Y-108158433D01*
X149607255Y-108148913D01*
X149614519Y-108142197D01*
X149649355Y-108112445D01*
X149649358Y-108112441D01*
X149655131Y-108107511D01*
X149659563Y-108101344D01*
X149659568Y-108101338D01*
X149665684Y-108092826D01*
X149678911Y-108077257D01*
X149980520Y-107775648D01*
X149986785Y-107769794D01*
X149993526Y-107763913D01*
X150030385Y-107731759D01*
X150067114Y-107679498D01*
X150071046Y-107674203D01*
X150099194Y-107638305D01*
X150110477Y-107623916D01*
X150113602Y-107616994D01*
X150114964Y-107614746D01*
X150123368Y-107600013D01*
X150124622Y-107597674D01*
X150128990Y-107591459D01*
X150131749Y-107584383D01*
X150131751Y-107584379D01*
X150152200Y-107531929D01*
X150154749Y-107525864D01*
X150181045Y-107467625D01*
X150182429Y-107460160D01*
X150183226Y-107457616D01*
X150187859Y-107441350D01*
X150188521Y-107438770D01*
X150191282Y-107431689D01*
X150199622Y-107368341D01*
X150200653Y-107361827D01*
X150208440Y-107319814D01*
X150212296Y-107299011D01*
X150210916Y-107275070D01*
X150208709Y-107236805D01*
X150208500Y-107229551D01*
X150208500Y-99440768D01*
X153377425Y-99440768D01*
X153409137Y-99548519D01*
X153413731Y-99559889D01*
X153499607Y-99724154D01*
X153506321Y-99734415D01*
X153622468Y-99878873D01*
X153631046Y-99887632D01*
X153773039Y-100006778D01*
X153783159Y-100013708D01*
X153945585Y-100103002D01*
X153956858Y-100107834D01*
X154133538Y-100163880D01*
X154145532Y-100166430D01*
X154289761Y-100182607D01*
X154296785Y-100183000D01*
X154527885Y-100183000D01*
X154543124Y-100178525D01*
X154544329Y-100177135D01*
X154546000Y-100169452D01*
X154546000Y-99447115D01*
X154541525Y-99431876D01*
X154540135Y-99430671D01*
X154532452Y-99429000D01*
X153392076Y-99429000D01*
X153378545Y-99432973D01*
X153377425Y-99440768D01*
X150208500Y-99440768D01*
X150208500Y-98917795D01*
X153378544Y-98917795D01*
X153385299Y-98921000D01*
X154527885Y-98921000D01*
X154543124Y-98916525D01*
X154544329Y-98915135D01*
X154546000Y-98907452D01*
X154546000Y-98185115D01*
X154541525Y-98169876D01*
X154540135Y-98168671D01*
X154532452Y-98167000D01*
X154303343Y-98167000D01*
X154297195Y-98167301D01*
X154159397Y-98180812D01*
X154147362Y-98183195D01*
X153969924Y-98236767D01*
X153958584Y-98241441D01*
X153794923Y-98328460D01*
X153784706Y-98335249D01*
X153641067Y-98452397D01*
X153632363Y-98461041D01*
X153514216Y-98603856D01*
X153507356Y-98614027D01*
X153419196Y-98777076D01*
X153414444Y-98788381D01*
X153378750Y-98903692D01*
X153378544Y-98917795D01*
X150208500Y-98917795D01*
X150208500Y-97490768D01*
X150701363Y-97490768D01*
X150735846Y-97607932D01*
X150740439Y-97619300D01*
X150828586Y-97787911D01*
X150835302Y-97798173D01*
X150954515Y-97946443D01*
X150963103Y-97955213D01*
X151108838Y-98077499D01*
X151118969Y-98084437D01*
X151285692Y-98176094D01*
X151296962Y-98180924D01*
X151478316Y-98238452D01*
X151490308Y-98241001D01*
X151527998Y-98245229D01*
X151542528Y-98242676D01*
X151546000Y-98230132D01*
X151546000Y-98229783D01*
X152054000Y-98229783D01*
X152058236Y-98244210D01*
X152070589Y-98246271D01*
X152095481Y-98243830D01*
X152107519Y-98241447D01*
X152289651Y-98186458D01*
X152300993Y-98181783D01*
X152468977Y-98092465D01*
X152479193Y-98085678D01*
X152626634Y-97965428D01*
X152635338Y-97956784D01*
X152756610Y-97810191D01*
X152763470Y-97800020D01*
X152853962Y-97632658D01*
X152858714Y-97621353D01*
X152897422Y-97496308D01*
X152897628Y-97482205D01*
X152890873Y-97479000D01*
X152072115Y-97479000D01*
X152056876Y-97483475D01*
X152055671Y-97484865D01*
X152054000Y-97492548D01*
X152054000Y-98229783D01*
X151546000Y-98229783D01*
X151546000Y-97497115D01*
X151541525Y-97481876D01*
X151540135Y-97480671D01*
X151532452Y-97479000D01*
X150716014Y-97479000D01*
X150702483Y-97482973D01*
X150701363Y-97490768D01*
X150208500Y-97490768D01*
X150208500Y-96967795D01*
X150702372Y-96967795D01*
X150709127Y-96971000D01*
X151527885Y-96971000D01*
X151543124Y-96966525D01*
X151544329Y-96965135D01*
X151546000Y-96957452D01*
X151546000Y-96952885D01*
X152054000Y-96952885D01*
X152058475Y-96968124D01*
X152059865Y-96969329D01*
X152067548Y-96971000D01*
X152883986Y-96971000D01*
X152897517Y-96967027D01*
X152898637Y-96959232D01*
X152864154Y-96842068D01*
X152859561Y-96830700D01*
X152771414Y-96662089D01*
X152764698Y-96651827D01*
X152645485Y-96503557D01*
X152636897Y-96494787D01*
X152491162Y-96372501D01*
X152481031Y-96365563D01*
X152314308Y-96273906D01*
X152303038Y-96269076D01*
X152121684Y-96211548D01*
X152109692Y-96208999D01*
X152072002Y-96204771D01*
X152057472Y-96207324D01*
X152054000Y-96219868D01*
X152054000Y-96952885D01*
X151546000Y-96952885D01*
X151546000Y-96220217D01*
X151541764Y-96205790D01*
X151529411Y-96203729D01*
X151504519Y-96206170D01*
X151492481Y-96208553D01*
X151310349Y-96263542D01*
X151299007Y-96268217D01*
X151131023Y-96357535D01*
X151120807Y-96364322D01*
X150973366Y-96484572D01*
X150964662Y-96493216D01*
X150843390Y-96639809D01*
X150836530Y-96649980D01*
X150746038Y-96817342D01*
X150741286Y-96828647D01*
X150702578Y-96953692D01*
X150702372Y-96967795D01*
X150208500Y-96967795D01*
X150208500Y-93040768D01*
X150701363Y-93040768D01*
X150735846Y-93157932D01*
X150740439Y-93169300D01*
X150828586Y-93337911D01*
X150835302Y-93348173D01*
X150954515Y-93496443D01*
X150963103Y-93505213D01*
X151108838Y-93627499D01*
X151118969Y-93634437D01*
X151285692Y-93726094D01*
X151296962Y-93730924D01*
X151478316Y-93788452D01*
X151490308Y-93791001D01*
X151527998Y-93795229D01*
X151542528Y-93792676D01*
X151546000Y-93780132D01*
X151546000Y-93779783D01*
X152054000Y-93779783D01*
X152058236Y-93794210D01*
X152070589Y-93796271D01*
X152095481Y-93793830D01*
X152107519Y-93791447D01*
X152289651Y-93736458D01*
X152300993Y-93731783D01*
X152468977Y-93642465D01*
X152479193Y-93635678D01*
X152626634Y-93515428D01*
X152635338Y-93506784D01*
X152756610Y-93360191D01*
X152763470Y-93350020D01*
X152853962Y-93182658D01*
X152858714Y-93171353D01*
X152897422Y-93046308D01*
X152897628Y-93032205D01*
X152890873Y-93029000D01*
X152072115Y-93029000D01*
X152056876Y-93033475D01*
X152055671Y-93034865D01*
X152054000Y-93042548D01*
X152054000Y-93779783D01*
X151546000Y-93779783D01*
X151546000Y-93047115D01*
X151541525Y-93031876D01*
X151540135Y-93030671D01*
X151532452Y-93029000D01*
X150716014Y-93029000D01*
X150702483Y-93032973D01*
X150701363Y-93040768D01*
X150208500Y-93040768D01*
X150208500Y-92517795D01*
X150702372Y-92517795D01*
X150709127Y-92521000D01*
X151527885Y-92521000D01*
X151543124Y-92516525D01*
X151544329Y-92515135D01*
X151546000Y-92507452D01*
X151546000Y-92502885D01*
X152054000Y-92502885D01*
X152058475Y-92518124D01*
X152059865Y-92519329D01*
X152067548Y-92521000D01*
X152883986Y-92521000D01*
X152897517Y-92517027D01*
X152898637Y-92509232D01*
X152864154Y-92392068D01*
X152859561Y-92380700D01*
X152771414Y-92212089D01*
X152764698Y-92201827D01*
X152645485Y-92053557D01*
X152636897Y-92044787D01*
X152491162Y-91922501D01*
X152481031Y-91915563D01*
X152314308Y-91823906D01*
X152303038Y-91819076D01*
X152121684Y-91761548D01*
X152109692Y-91758999D01*
X152072002Y-91754771D01*
X152057472Y-91757324D01*
X152054000Y-91769868D01*
X152054000Y-92502885D01*
X151546000Y-92502885D01*
X151546000Y-91770217D01*
X151541764Y-91755790D01*
X151529411Y-91753729D01*
X151504519Y-91756170D01*
X151492481Y-91758553D01*
X151310349Y-91813542D01*
X151299007Y-91818217D01*
X151131023Y-91907535D01*
X151120807Y-91914322D01*
X150973366Y-92034572D01*
X150964662Y-92043216D01*
X150843390Y-92189809D01*
X150836530Y-92199980D01*
X150746038Y-92367342D01*
X150741286Y-92378647D01*
X150702578Y-92503692D01*
X150702372Y-92517795D01*
X150208500Y-92517795D01*
X150208500Y-91090768D01*
X153377425Y-91090768D01*
X153409138Y-91198521D01*
X153413731Y-91209889D01*
X153499607Y-91374154D01*
X153506321Y-91384415D01*
X153622468Y-91528873D01*
X153631046Y-91537632D01*
X153773039Y-91656778D01*
X153783159Y-91663708D01*
X153945585Y-91753002D01*
X153956858Y-91757834D01*
X154133538Y-91813880D01*
X154145532Y-91816430D01*
X154289761Y-91832607D01*
X154296785Y-91833000D01*
X154527885Y-91833000D01*
X154543124Y-91828525D01*
X154544329Y-91827135D01*
X154546000Y-91819452D01*
X154546000Y-91097115D01*
X154541525Y-91081876D01*
X154540135Y-91080671D01*
X154532452Y-91079000D01*
X153392076Y-91079000D01*
X153378545Y-91082973D01*
X153377425Y-91090768D01*
X150208500Y-91090768D01*
X150208500Y-90567795D01*
X153378544Y-90567795D01*
X153385299Y-90571000D01*
X154527885Y-90571000D01*
X154543124Y-90566525D01*
X154544329Y-90565135D01*
X154546000Y-90557452D01*
X154546000Y-89835115D01*
X154541525Y-89819876D01*
X154540135Y-89818671D01*
X154532452Y-89817000D01*
X154303343Y-89817000D01*
X154297195Y-89817301D01*
X154159397Y-89830812D01*
X154147362Y-89833195D01*
X153969924Y-89886767D01*
X153958584Y-89891441D01*
X153794923Y-89978460D01*
X153784706Y-89985249D01*
X153641067Y-90102397D01*
X153632363Y-90111041D01*
X153514216Y-90253856D01*
X153507356Y-90264027D01*
X153419196Y-90427076D01*
X153414444Y-90438381D01*
X153378750Y-90553692D01*
X153378544Y-90567795D01*
X150208500Y-90567795D01*
X150208500Y-81162084D01*
X150208792Y-81153514D01*
X150212209Y-81103396D01*
X150212209Y-81103392D01*
X150212725Y-81095820D01*
X150201739Y-81032875D01*
X150200777Y-81026354D01*
X150194015Y-80970476D01*
X150193102Y-80962930D01*
X150190416Y-80955822D01*
X150189779Y-80953228D01*
X150185318Y-80936922D01*
X150184548Y-80934371D01*
X150183242Y-80926888D01*
X150169868Y-80896421D01*
X150163846Y-80882703D01*
X151140743Y-80882703D01*
X151141302Y-80886947D01*
X151141302Y-80886951D01*
X151154798Y-80989462D01*
X151178268Y-81167734D01*
X151254129Y-81445036D01*
X151255813Y-81448984D01*
X151364115Y-81702892D01*
X151366923Y-81709476D01*
X151420406Y-81798840D01*
X151507918Y-81945061D01*
X151514561Y-81956161D01*
X151694313Y-82180528D01*
X151770250Y-82252589D01*
X151852584Y-82330721D01*
X151902851Y-82378423D01*
X152136317Y-82546186D01*
X152140112Y-82548195D01*
X152140113Y-82548196D01*
X152161621Y-82559584D01*
X152390392Y-82680712D01*
X152414699Y-82689607D01*
X152627683Y-82767548D01*
X152660373Y-82779511D01*
X152941264Y-82840755D01*
X152965711Y-82842679D01*
X153164282Y-82858307D01*
X153164291Y-82858307D01*
X153166739Y-82858500D01*
X153322271Y-82858500D01*
X153324407Y-82858354D01*
X153324418Y-82858354D01*
X153532548Y-82844165D01*
X153532554Y-82844164D01*
X153536825Y-82843873D01*
X153541020Y-82843004D01*
X153541022Y-82843004D01*
X153770710Y-82795438D01*
X153818342Y-82785574D01*
X154089343Y-82689607D01*
X154259763Y-82601647D01*
X154341005Y-82559715D01*
X154341006Y-82559715D01*
X154344812Y-82557750D01*
X154348313Y-82555289D01*
X154348317Y-82555287D01*
X154527592Y-82429290D01*
X154580023Y-82392441D01*
X154713378Y-82268520D01*
X154787479Y-82199661D01*
X154787481Y-82199658D01*
X154790622Y-82196740D01*
X154972713Y-81974268D01*
X155122927Y-81729142D01*
X155148843Y-81670105D01*
X155236757Y-81469830D01*
X155238483Y-81465898D01*
X155317244Y-81189406D01*
X155349476Y-80962930D01*
X155357146Y-80909036D01*
X155357146Y-80909034D01*
X155357751Y-80904784D01*
X155357806Y-80894465D01*
X155359235Y-80621583D01*
X155359235Y-80621576D01*
X155359257Y-80617297D01*
X155347904Y-80531058D01*
X155337056Y-80448661D01*
X155321732Y-80332266D01*
X155312275Y-80297695D01*
X155277586Y-80170896D01*
X155245871Y-80054964D01*
X155220499Y-79995481D01*
X155134763Y-79794476D01*
X155134761Y-79794472D01*
X155133077Y-79790524D01*
X155024926Y-79609817D01*
X154987643Y-79547521D01*
X154987640Y-79547517D01*
X154985439Y-79543839D01*
X154805687Y-79319472D01*
X154653239Y-79174804D01*
X154600258Y-79124527D01*
X154600255Y-79124525D01*
X154597149Y-79121577D01*
X154381609Y-78966695D01*
X154367172Y-78956321D01*
X154367171Y-78956320D01*
X154363683Y-78953814D01*
X154341843Y-78942250D01*
X154287281Y-78913361D01*
X154109608Y-78819288D01*
X153959076Y-78764201D01*
X153843658Y-78721964D01*
X153843656Y-78721963D01*
X153839627Y-78720489D01*
X153558736Y-78659245D01*
X153527685Y-78656801D01*
X153335718Y-78641693D01*
X153335709Y-78641693D01*
X153333261Y-78641500D01*
X153177729Y-78641500D01*
X153175593Y-78641646D01*
X153175582Y-78641646D01*
X152967452Y-78655835D01*
X152967446Y-78655836D01*
X152963175Y-78656127D01*
X152958980Y-78656996D01*
X152958978Y-78656996D01*
X152822416Y-78685277D01*
X152681658Y-78714426D01*
X152410657Y-78810393D01*
X152406848Y-78812359D01*
X152211160Y-78913361D01*
X152155188Y-78942250D01*
X152151687Y-78944711D01*
X152151683Y-78944713D01*
X152120406Y-78966695D01*
X151919977Y-79107559D01*
X151867603Y-79156228D01*
X151747809Y-79267548D01*
X151709378Y-79303260D01*
X151527287Y-79525732D01*
X151377073Y-79770858D01*
X151375347Y-79774791D01*
X151375346Y-79774792D01*
X151263243Y-80030170D01*
X151261517Y-80034102D01*
X151260342Y-80038229D01*
X151260341Y-80038230D01*
X151254395Y-80059103D01*
X151182756Y-80310594D01*
X151155432Y-80502589D01*
X151143033Y-80589710D01*
X151142249Y-80595216D01*
X151142227Y-80599505D01*
X151142226Y-80599512D01*
X151140765Y-80878417D01*
X151140743Y-80882703D01*
X150163846Y-80882703D01*
X150157561Y-80868384D01*
X150155069Y-80862277D01*
X150135173Y-80809624D01*
X150135173Y-80809623D01*
X150132487Y-80802516D01*
X150128184Y-80796255D01*
X150126947Y-80793889D01*
X150118720Y-80779109D01*
X150117369Y-80776824D01*
X150114315Y-80769867D01*
X150109695Y-80763847D01*
X150109692Y-80763841D01*
X150075421Y-80719181D01*
X150071541Y-80713840D01*
X150039661Y-80667452D01*
X150039656Y-80667447D01*
X150035357Y-80661191D01*
X150013148Y-80641403D01*
X149988830Y-80619737D01*
X149983554Y-80614756D01*
X149523448Y-80154650D01*
X149508703Y-80136923D01*
X149507761Y-80135553D01*
X149503459Y-80129293D01*
X149456931Y-80087838D01*
X149451656Y-80082858D01*
X149438679Y-80069881D01*
X149435701Y-80067546D01*
X149435693Y-80067539D01*
X149425937Y-80059890D01*
X149419863Y-80054811D01*
X149381098Y-80020272D01*
X149381091Y-80020267D01*
X149375423Y-80015217D01*
X149365465Y-80009945D01*
X149346682Y-79997747D01*
X149343792Y-79995481D01*
X149337820Y-79990798D01*
X149330899Y-79987673D01*
X149283581Y-79966308D01*
X149276479Y-79962829D01*
X149223871Y-79934974D01*
X149216503Y-79933123D01*
X149216502Y-79933123D01*
X149215240Y-79932806D01*
X149212946Y-79932230D01*
X149191793Y-79924863D01*
X149188459Y-79923358D01*
X149188458Y-79923358D01*
X149181529Y-79920229D01*
X149123014Y-79909384D01*
X149115281Y-79907698D01*
X149064925Y-79895049D01*
X149064919Y-79895048D01*
X149057553Y-79893198D01*
X149049954Y-79893158D01*
X149049953Y-79893158D01*
X149047016Y-79893143D01*
X149046294Y-79893139D01*
X149023995Y-79891031D01*
X149012916Y-79888978D01*
X149005335Y-79889415D01*
X149005334Y-79889415D01*
X148953491Y-79892404D01*
X148945581Y-79892611D01*
X148918719Y-79892471D01*
X148886071Y-79892300D01*
X148878688Y-79894072D01*
X148878683Y-79894073D01*
X148875114Y-79894930D01*
X148852966Y-79898201D01*
X148851795Y-79898269D01*
X148841717Y-79898850D01*
X148784814Y-79916355D01*
X148777237Y-79918428D01*
X148719325Y-79932332D01*
X148712580Y-79935813D01*
X148712573Y-79935816D01*
X148709309Y-79937501D01*
X148688580Y-79945961D01*
X148677813Y-79949273D01*
X148671301Y-79953170D01*
X148671295Y-79953173D01*
X148626742Y-79979837D01*
X148619828Y-79983685D01*
X148573692Y-80007498D01*
X148573689Y-80007500D01*
X148566941Y-80010983D01*
X148561219Y-80015975D01*
X148561217Y-80015976D01*
X148558450Y-80018390D01*
X148540334Y-80031552D01*
X148530668Y-80037337D01*
X148525275Y-80042674D01*
X148525271Y-80042677D01*
X148488354Y-80079210D01*
X148482567Y-80084587D01*
X148437717Y-80123713D01*
X148433348Y-80129930D01*
X148431248Y-80132918D01*
X148416786Y-80150032D01*
X148408777Y-80157958D01*
X148404810Y-80164432D01*
X148404805Y-80164438D01*
X148377676Y-80208708D01*
X148373331Y-80215323D01*
X148343483Y-80257792D01*
X148343479Y-80257799D01*
X148339112Y-80264013D01*
X148336352Y-80271093D01*
X148335023Y-80274501D01*
X148325060Y-80294571D01*
X148323146Y-80297695D01*
X148319177Y-80304172D01*
X148301998Y-80358000D01*
X148301086Y-80360859D01*
X148298444Y-80368319D01*
X148279580Y-80416703D01*
X148276820Y-80423783D01*
X148275828Y-80431316D01*
X148275588Y-80432252D01*
X148239275Y-80493259D01*
X148182962Y-80523438D01*
X148151223Y-80531058D01*
X148144478Y-80534539D01*
X148144471Y-80534542D01*
X148141207Y-80536227D01*
X148120478Y-80544687D01*
X148109711Y-80547999D01*
X148103199Y-80551896D01*
X148103193Y-80551899D01*
X148058640Y-80578563D01*
X148051726Y-80582411D01*
X148005590Y-80606224D01*
X148005587Y-80606226D01*
X147998839Y-80609709D01*
X147993117Y-80614701D01*
X147993115Y-80614702D01*
X147990348Y-80617116D01*
X147972232Y-80630278D01*
X147962566Y-80636063D01*
X147957173Y-80641400D01*
X147957169Y-80641403D01*
X147920252Y-80677936D01*
X147914465Y-80683313D01*
X147869615Y-80722439D01*
X147865246Y-80728656D01*
X147863146Y-80731644D01*
X147848684Y-80748758D01*
X147840675Y-80756684D01*
X147836708Y-80763158D01*
X147836703Y-80763164D01*
X147809574Y-80807434D01*
X147805229Y-80814049D01*
X147775381Y-80856518D01*
X147775377Y-80856525D01*
X147771010Y-80862739D01*
X147766921Y-80873227D01*
X147756958Y-80893297D01*
X147755044Y-80896421D01*
X147751075Y-80902898D01*
X147737519Y-80945374D01*
X147732984Y-80959585D01*
X147730342Y-80967045D01*
X147711478Y-81015428D01*
X147711477Y-81015434D01*
X147708718Y-81022509D01*
X147707727Y-81030039D01*
X147707726Y-81030042D01*
X147707248Y-81033676D01*
X147702362Y-81055537D01*
X147698938Y-81066265D01*
X147698422Y-81073839D01*
X147698421Y-81073843D01*
X147694892Y-81125625D01*
X147694108Y-81133490D01*
X147686335Y-81192526D01*
X147687572Y-81203734D01*
X147688041Y-81226116D01*
X147687275Y-81237352D01*
X147688580Y-81244829D01*
X147688580Y-81244831D01*
X147697507Y-81295980D01*
X147698622Y-81303817D01*
X147701517Y-81330036D01*
X147705153Y-81362975D01*
X147709021Y-81373544D01*
X147714820Y-81395187D01*
X147716757Y-81406284D01*
X147736698Y-81451710D01*
X147740680Y-81460781D01*
X147743632Y-81468125D01*
X147764085Y-81524015D01*
X147768324Y-81530323D01*
X147770365Y-81533361D01*
X147781157Y-81552991D01*
X147782629Y-81556345D01*
X147782632Y-81556349D01*
X147785685Y-81563305D01*
X147801978Y-81584538D01*
X147821914Y-81610520D01*
X147826529Y-81616942D01*
X147859730Y-81666349D01*
X147865346Y-81671459D01*
X147909159Y-81711326D01*
X147913454Y-81715424D01*
X148004595Y-81806565D01*
X148038621Y-81868877D01*
X148041500Y-81895660D01*
X148041500Y-86985339D01*
X148021498Y-87053460D01*
X147967842Y-87099953D01*
X147897568Y-87110057D01*
X147832988Y-87080563D01*
X147826405Y-87074434D01*
X144555346Y-83803376D01*
X144540601Y-83785649D01*
X144535357Y-83778019D01*
X144488829Y-83736564D01*
X144483554Y-83731584D01*
X144470577Y-83718607D01*
X144467599Y-83716272D01*
X144467591Y-83716265D01*
X144457835Y-83708616D01*
X144451761Y-83703537D01*
X144412996Y-83668998D01*
X144412989Y-83668993D01*
X144407321Y-83663943D01*
X144397363Y-83658671D01*
X144378580Y-83646473D01*
X144375690Y-83644207D01*
X144369718Y-83639524D01*
X144362797Y-83636399D01*
X144315479Y-83615034D01*
X144308377Y-83611555D01*
X144255769Y-83583700D01*
X144248401Y-83581849D01*
X144248400Y-83581849D01*
X144247138Y-83581532D01*
X144244844Y-83580956D01*
X144223691Y-83573589D01*
X144220357Y-83572084D01*
X144220356Y-83572084D01*
X144213427Y-83568955D01*
X144154912Y-83558110D01*
X144147179Y-83556424D01*
X144096823Y-83543775D01*
X144096817Y-83543774D01*
X144089451Y-83541924D01*
X144081852Y-83541884D01*
X144081851Y-83541884D01*
X144078914Y-83541869D01*
X144078192Y-83541865D01*
X144055893Y-83539757D01*
X144044814Y-83537704D01*
X144037233Y-83538141D01*
X144037232Y-83538141D01*
X143985389Y-83541130D01*
X143977479Y-83541337D01*
X143950617Y-83541197D01*
X143917969Y-83541026D01*
X143910586Y-83542798D01*
X143910581Y-83542799D01*
X143907012Y-83543656D01*
X143884864Y-83546927D01*
X143883693Y-83546995D01*
X143873615Y-83547576D01*
X143816712Y-83565081D01*
X143809135Y-83567154D01*
X143751223Y-83581058D01*
X143744478Y-83584539D01*
X143744471Y-83584542D01*
X143741207Y-83586227D01*
X143720478Y-83594687D01*
X143709711Y-83597999D01*
X143703199Y-83601896D01*
X143703193Y-83601899D01*
X143658640Y-83628563D01*
X143651726Y-83632411D01*
X143605590Y-83656224D01*
X143605587Y-83656226D01*
X143598839Y-83659709D01*
X143593117Y-83664701D01*
X143593115Y-83664702D01*
X143590348Y-83667116D01*
X143572232Y-83680278D01*
X143562566Y-83686063D01*
X143557173Y-83691400D01*
X143557169Y-83691403D01*
X143520252Y-83727936D01*
X143514465Y-83733313D01*
X143472810Y-83769652D01*
X143408330Y-83799359D01*
X143359288Y-83796906D01*
X143346825Y-83793776D01*
X143346823Y-83793776D01*
X143339451Y-83791924D01*
X143331852Y-83791884D01*
X143331851Y-83791884D01*
X143328914Y-83791869D01*
X143328192Y-83791865D01*
X143305893Y-83789757D01*
X143294814Y-83787704D01*
X143287233Y-83788141D01*
X143287232Y-83788141D01*
X143235389Y-83791130D01*
X143227479Y-83791337D01*
X143200617Y-83791197D01*
X143167969Y-83791026D01*
X143160586Y-83792798D01*
X143160581Y-83792799D01*
X143157012Y-83793656D01*
X143134864Y-83796927D01*
X143133693Y-83796995D01*
X143123615Y-83797576D01*
X143066712Y-83815081D01*
X143059135Y-83817154D01*
X143001223Y-83831058D01*
X142994478Y-83834539D01*
X142994471Y-83834542D01*
X142991207Y-83836227D01*
X142970478Y-83844687D01*
X142959711Y-83847999D01*
X142953199Y-83851896D01*
X142953193Y-83851899D01*
X142908640Y-83878563D01*
X142901726Y-83882411D01*
X142855590Y-83906224D01*
X142855587Y-83906226D01*
X142848839Y-83909709D01*
X142843117Y-83914701D01*
X142843115Y-83914702D01*
X142840348Y-83917116D01*
X142822232Y-83930278D01*
X142812566Y-83936063D01*
X142807173Y-83941400D01*
X142807169Y-83941403D01*
X142770252Y-83977936D01*
X142764465Y-83983313D01*
X142719615Y-84022439D01*
X142715246Y-84028656D01*
X142713146Y-84031644D01*
X142698684Y-84048758D01*
X142690675Y-84056684D01*
X142686708Y-84063158D01*
X142683245Y-84067527D01*
X142625257Y-84108488D01*
X142554328Y-84111596D01*
X142492979Y-84075864D01*
X142460687Y-84012636D01*
X142458500Y-83989262D01*
X142458500Y-83732587D01*
X142464266Y-83694908D01*
X142470660Y-83674505D01*
X142476753Y-83655062D01*
X142483500Y-83581635D01*
X142483499Y-82918366D01*
X142481906Y-82901019D01*
X142477999Y-82858500D01*
X142476753Y-82844938D01*
X142467241Y-82814586D01*
X142427744Y-82688550D01*
X142427743Y-82688548D01*
X142425472Y-82681301D01*
X142336639Y-82534619D01*
X142320405Y-82518385D01*
X142286379Y-82456073D01*
X142283500Y-82429290D01*
X142283500Y-82320710D01*
X142303502Y-82252589D01*
X142320405Y-82231615D01*
X142336639Y-82215381D01*
X142425472Y-82068699D01*
X142430062Y-82054054D01*
X142459522Y-81960046D01*
X142476753Y-81905062D01*
X142483500Y-81831635D01*
X142483499Y-81168366D01*
X142476753Y-81094938D01*
X142467241Y-81064586D01*
X142427744Y-80938550D01*
X142427743Y-80938548D01*
X142425472Y-80931301D01*
X142336639Y-80784619D01*
X142320405Y-80768385D01*
X142286379Y-80706073D01*
X142283500Y-80679290D01*
X142283500Y-80570710D01*
X142303502Y-80502589D01*
X142320405Y-80481615D01*
X142336639Y-80465381D01*
X142425472Y-80318699D01*
X142427758Y-80311406D01*
X142457868Y-80215323D01*
X142476753Y-80155062D01*
X142483500Y-80081635D01*
X142483499Y-79418366D01*
X142482514Y-79407639D01*
X142477364Y-79351592D01*
X142476753Y-79344938D01*
X142467241Y-79314586D01*
X142427744Y-79188550D01*
X142427743Y-79188548D01*
X142425472Y-79181301D01*
X142336639Y-79034619D01*
X142320405Y-79018385D01*
X142286379Y-78956073D01*
X142283500Y-78929290D01*
X142283500Y-78820710D01*
X142303502Y-78752589D01*
X142320405Y-78731615D01*
X142336639Y-78715381D01*
X142425472Y-78568699D01*
X142430062Y-78554054D01*
X142459522Y-78460046D01*
X142476753Y-78405062D01*
X142483500Y-78331635D01*
X142483499Y-77668366D01*
X142481401Y-77645526D01*
X142495088Y-77575861D01*
X142544266Y-77524655D01*
X142606873Y-77508000D01*
X156366000Y-77508000D01*
X156434121Y-77528002D01*
G37*
%TD.AperFunction*%
%TA.AperFunction,Conductor*%
G36*
X138315098Y-77528002D02*
G01*
X138361591Y-77581658D01*
X138371695Y-77651932D01*
X138364371Y-77679768D01*
X138357343Y-77697793D01*
X138351306Y-77710977D01*
X138337254Y-77737518D01*
X138333700Y-77744231D01*
X138331851Y-77751591D01*
X138331849Y-77751597D01*
X138325603Y-77776466D01*
X138320791Y-77791543D01*
X138319726Y-77794276D01*
X138308718Y-77822509D01*
X138307727Y-77830036D01*
X138303806Y-77859817D01*
X138301088Y-77874064D01*
X138291924Y-77910549D01*
X138291884Y-77918141D01*
X138291884Y-77918142D01*
X138291750Y-77943783D01*
X138290675Y-77959560D01*
X138286335Y-77992526D01*
X138287169Y-78000076D01*
X138290464Y-78029925D01*
X138291223Y-78044411D01*
X138291026Y-78082031D01*
X138292799Y-78089415D01*
X138298786Y-78114356D01*
X138301506Y-78129942D01*
X138305153Y-78162975D01*
X138316356Y-78193590D01*
X138318082Y-78198306D01*
X138322273Y-78212189D01*
X138329283Y-78241386D01*
X138329285Y-78241390D01*
X138331058Y-78248777D01*
X138346301Y-78278310D01*
X138352659Y-78292795D01*
X138361472Y-78316877D01*
X138361475Y-78316883D01*
X138364085Y-78324015D01*
X138369206Y-78331635D01*
X138385070Y-78355243D01*
X138392455Y-78367732D01*
X138409709Y-78401161D01*
X138414705Y-78406887D01*
X138414705Y-78406888D01*
X138431559Y-78426208D01*
X138441191Y-78438760D01*
X138459730Y-78466349D01*
X138487566Y-78491678D01*
X138497701Y-78502028D01*
X138522439Y-78530385D01*
X138528657Y-78534755D01*
X138549630Y-78549495D01*
X138561980Y-78559389D01*
X138586565Y-78581760D01*
X138593243Y-78585386D01*
X138593246Y-78585388D01*
X138619626Y-78599711D01*
X138631956Y-78607356D01*
X138656517Y-78624618D01*
X138656523Y-78624621D01*
X138662739Y-78628990D01*
X138669815Y-78631749D01*
X138669821Y-78631752D01*
X138693707Y-78641064D01*
X138708061Y-78647727D01*
X138730588Y-78659959D01*
X138730595Y-78659962D01*
X138737268Y-78663585D01*
X138773656Y-78673131D01*
X138787452Y-78677614D01*
X138815430Y-78688522D01*
X138822509Y-78691282D01*
X138848861Y-78694751D01*
X138855459Y-78695620D01*
X138870985Y-78698666D01*
X138895787Y-78705173D01*
X138895793Y-78705174D01*
X138903139Y-78707101D01*
X138943316Y-78707732D01*
X138949305Y-78707975D01*
X138953294Y-78708500D01*
X138991253Y-78708500D01*
X138993232Y-78708516D01*
X139067003Y-78709675D01*
X139067006Y-78709675D01*
X139074602Y-78709794D01*
X139078908Y-78708808D01*
X139084784Y-78708500D01*
X139104290Y-78708500D01*
X139172411Y-78728502D01*
X139193385Y-78745405D01*
X139233885Y-78785905D01*
X139267911Y-78848217D01*
X139262846Y-78919032D01*
X139233885Y-78964095D01*
X139180290Y-79017690D01*
X139117978Y-79051716D01*
X139106335Y-79053682D01*
X139096246Y-79054903D01*
X139087301Y-79055985D01*
X139087300Y-79055985D01*
X139079758Y-79056898D01*
X139072651Y-79059583D01*
X139072649Y-79059584D01*
X139048670Y-79068645D01*
X139033543Y-79073299D01*
X139008606Y-79079285D01*
X139008602Y-79079287D01*
X139001223Y-79081058D01*
X138967781Y-79098318D01*
X138954539Y-79104214D01*
X138926451Y-79114827D01*
X138926448Y-79114829D01*
X138919344Y-79117513D01*
X138891944Y-79136345D01*
X138878387Y-79144459D01*
X138848839Y-79159709D01*
X138843118Y-79164700D01*
X138843112Y-79164704D01*
X138820487Y-79184442D01*
X138809021Y-79193336D01*
X138784280Y-79210339D01*
X138784275Y-79210344D01*
X138778019Y-79214643D01*
X138755906Y-79239462D01*
X138744662Y-79250588D01*
X138725341Y-79267443D01*
X138725338Y-79267447D01*
X138719615Y-79272439D01*
X138715247Y-79278653D01*
X138715245Y-79278656D01*
X138697979Y-79303222D01*
X138688972Y-79314586D01*
X138663943Y-79342679D01*
X138660391Y-79349388D01*
X138660388Y-79349392D01*
X138648389Y-79372054D01*
X138640124Y-79385541D01*
X138625381Y-79406519D01*
X138621010Y-79412739D01*
X138618249Y-79419820D01*
X138618247Y-79419824D01*
X138607343Y-79447790D01*
X138601306Y-79460977D01*
X138587254Y-79487518D01*
X138583700Y-79494231D01*
X138581851Y-79501591D01*
X138581849Y-79501597D01*
X138575603Y-79526466D01*
X138570791Y-79541543D01*
X138558718Y-79572509D01*
X138557727Y-79580036D01*
X138553806Y-79609817D01*
X138551088Y-79624064D01*
X138541924Y-79660549D01*
X138541884Y-79668141D01*
X138541884Y-79668142D01*
X138541750Y-79693783D01*
X138540675Y-79709560D01*
X138536335Y-79742526D01*
X138537169Y-79750076D01*
X138540464Y-79779925D01*
X138541223Y-79794411D01*
X138541026Y-79832031D01*
X138542799Y-79839415D01*
X138548786Y-79864356D01*
X138551506Y-79879942D01*
X138552504Y-79888978D01*
X138555153Y-79912975D01*
X138563512Y-79935816D01*
X138568082Y-79948306D01*
X138572273Y-79962189D01*
X138579283Y-79991386D01*
X138579285Y-79991390D01*
X138581058Y-79998777D01*
X138594995Y-80025779D01*
X138596301Y-80028310D01*
X138602659Y-80042795D01*
X138611472Y-80066877D01*
X138611475Y-80066883D01*
X138614085Y-80074015D01*
X138633999Y-80103649D01*
X138635070Y-80105243D01*
X138642455Y-80117732D01*
X138645542Y-80123713D01*
X138659709Y-80151161D01*
X138664705Y-80156887D01*
X138664705Y-80156888D01*
X138681559Y-80176208D01*
X138691191Y-80188760D01*
X138709730Y-80216349D01*
X138737566Y-80241678D01*
X138747701Y-80252028D01*
X138772439Y-80280385D01*
X138778657Y-80284755D01*
X138799630Y-80299495D01*
X138811980Y-80309389D01*
X138836565Y-80331760D01*
X138843243Y-80335386D01*
X138843246Y-80335388D01*
X138869626Y-80349711D01*
X138881956Y-80357356D01*
X138906517Y-80374618D01*
X138906523Y-80374621D01*
X138912739Y-80378990D01*
X138919815Y-80381749D01*
X138919821Y-80381752D01*
X138943707Y-80391064D01*
X138958061Y-80397727D01*
X138980588Y-80409959D01*
X138980595Y-80409962D01*
X138987268Y-80413585D01*
X139023656Y-80423131D01*
X139037452Y-80427614D01*
X139065430Y-80438522D01*
X139072509Y-80441282D01*
X139098861Y-80444751D01*
X139105459Y-80445620D01*
X139120964Y-80448661D01*
X139122753Y-80449130D01*
X139179896Y-80481916D01*
X139233885Y-80535905D01*
X139267911Y-80598217D01*
X139262846Y-80669032D01*
X139233885Y-80714095D01*
X139193385Y-80754595D01*
X139131073Y-80788621D01*
X139104290Y-80791500D01*
X139008762Y-80791500D01*
X139008102Y-80791498D01*
X138917969Y-80791026D01*
X138888873Y-80798011D01*
X138881379Y-80799810D01*
X138867105Y-80802378D01*
X138837300Y-80805985D01*
X138837298Y-80805985D01*
X138829758Y-80806898D01*
X138822651Y-80809583D01*
X138822649Y-80809584D01*
X138798670Y-80818645D01*
X138783543Y-80823299D01*
X138758606Y-80829285D01*
X138758602Y-80829287D01*
X138751223Y-80831058D01*
X138717781Y-80848318D01*
X138704539Y-80854214D01*
X138676451Y-80864827D01*
X138676448Y-80864829D01*
X138669344Y-80867513D01*
X138641944Y-80886345D01*
X138628387Y-80894459D01*
X138598839Y-80909709D01*
X138593118Y-80914700D01*
X138593112Y-80914704D01*
X138570487Y-80934442D01*
X138559021Y-80943336D01*
X138534280Y-80960339D01*
X138534275Y-80960344D01*
X138528019Y-80964643D01*
X138505906Y-80989462D01*
X138494662Y-81000588D01*
X138475341Y-81017443D01*
X138475338Y-81017447D01*
X138469615Y-81022439D01*
X138465247Y-81028653D01*
X138465245Y-81028656D01*
X138447979Y-81053222D01*
X138438972Y-81064586D01*
X138430725Y-81073843D01*
X138413943Y-81092679D01*
X138410391Y-81099388D01*
X138410388Y-81099392D01*
X138398389Y-81122054D01*
X138390124Y-81135541D01*
X138377493Y-81153514D01*
X138371010Y-81162739D01*
X138368249Y-81169820D01*
X138368247Y-81169824D01*
X138357343Y-81197790D01*
X138351306Y-81210977D01*
X138341350Y-81229782D01*
X138333700Y-81244231D01*
X138331851Y-81251591D01*
X138331849Y-81251597D01*
X138325603Y-81276466D01*
X138320791Y-81291543D01*
X138308718Y-81322509D01*
X138304385Y-81355423D01*
X138303806Y-81359817D01*
X138301088Y-81374064D01*
X138291924Y-81410549D01*
X138291884Y-81418141D01*
X138291884Y-81418142D01*
X138291750Y-81443783D01*
X138290675Y-81459560D01*
X138286335Y-81492526D01*
X138290364Y-81529016D01*
X138290464Y-81529925D01*
X138291223Y-81544411D01*
X138291026Y-81582031D01*
X138292799Y-81589415D01*
X138298786Y-81614356D01*
X138301506Y-81629942D01*
X138305153Y-81662975D01*
X138311741Y-81680977D01*
X138318082Y-81698306D01*
X138322273Y-81712189D01*
X138329283Y-81741386D01*
X138329285Y-81741390D01*
X138331058Y-81748777D01*
X138342785Y-81771498D01*
X138346301Y-81778310D01*
X138352659Y-81792795D01*
X138361472Y-81816877D01*
X138361475Y-81816883D01*
X138364085Y-81824015D01*
X138377159Y-81843470D01*
X138385070Y-81855243D01*
X138392455Y-81867732D01*
X138409709Y-81901161D01*
X138414705Y-81906887D01*
X138414705Y-81906888D01*
X138431559Y-81926208D01*
X138441191Y-81938760D01*
X138459730Y-81966349D01*
X138487566Y-81991678D01*
X138497701Y-82002028D01*
X138522439Y-82030385D01*
X138528657Y-82034755D01*
X138549630Y-82049495D01*
X138561980Y-82059389D01*
X138586565Y-82081760D01*
X138593243Y-82085386D01*
X138593246Y-82085388D01*
X138619626Y-82099711D01*
X138631956Y-82107356D01*
X138656517Y-82124618D01*
X138656523Y-82124621D01*
X138662739Y-82128990D01*
X138669815Y-82131749D01*
X138669821Y-82131752D01*
X138693707Y-82141064D01*
X138708061Y-82147727D01*
X138730588Y-82159959D01*
X138730595Y-82159962D01*
X138737268Y-82163585D01*
X138773656Y-82173131D01*
X138787452Y-82177614D01*
X138815430Y-82188522D01*
X138822509Y-82191282D01*
X138848861Y-82194751D01*
X138855459Y-82195620D01*
X138870985Y-82198666D01*
X138895787Y-82205173D01*
X138895793Y-82205174D01*
X138903139Y-82207101D01*
X138943316Y-82207732D01*
X138949305Y-82207975D01*
X138953294Y-82208500D01*
X138991253Y-82208500D01*
X138993232Y-82208516D01*
X139067003Y-82209675D01*
X139067006Y-82209675D01*
X139074602Y-82209794D01*
X139078908Y-82208808D01*
X139084784Y-82208500D01*
X139104290Y-82208500D01*
X139172411Y-82228502D01*
X139193385Y-82245405D01*
X139233885Y-82285905D01*
X139267911Y-82348217D01*
X139262846Y-82419032D01*
X139233885Y-82464095D01*
X139180290Y-82517690D01*
X139117978Y-82551716D01*
X139106335Y-82553682D01*
X139096246Y-82554903D01*
X139087301Y-82555985D01*
X139087300Y-82555985D01*
X139079758Y-82556898D01*
X139072651Y-82559583D01*
X139072649Y-82559584D01*
X139048670Y-82568645D01*
X139033543Y-82573299D01*
X139008606Y-82579285D01*
X139008602Y-82579287D01*
X139001223Y-82581058D01*
X138967781Y-82598318D01*
X138954539Y-82604214D01*
X138926451Y-82614827D01*
X138926448Y-82614829D01*
X138919344Y-82617513D01*
X138891944Y-82636345D01*
X138878387Y-82644459D01*
X138848839Y-82659709D01*
X138843118Y-82664700D01*
X138843112Y-82664704D01*
X138820487Y-82684442D01*
X138809021Y-82693336D01*
X138784280Y-82710339D01*
X138784275Y-82710344D01*
X138778019Y-82714643D01*
X138755906Y-82739462D01*
X138744662Y-82750588D01*
X138725341Y-82767443D01*
X138725338Y-82767447D01*
X138719615Y-82772439D01*
X138715247Y-82778653D01*
X138715245Y-82778656D01*
X138697979Y-82803222D01*
X138688972Y-82814586D01*
X138663943Y-82842679D01*
X138660391Y-82849388D01*
X138660388Y-82849392D01*
X138648389Y-82872054D01*
X138640124Y-82885541D01*
X138625381Y-82906519D01*
X138621010Y-82912739D01*
X138618249Y-82919820D01*
X138618247Y-82919824D01*
X138607343Y-82947790D01*
X138601306Y-82960977D01*
X138589353Y-82983554D01*
X138583700Y-82994231D01*
X138581851Y-83001591D01*
X138581849Y-83001597D01*
X138575603Y-83026466D01*
X138570791Y-83041543D01*
X138558718Y-83072509D01*
X138557727Y-83080036D01*
X138553806Y-83109817D01*
X138551088Y-83124064D01*
X138541924Y-83160549D01*
X138541754Y-83193102D01*
X138541750Y-83193783D01*
X138540675Y-83209560D01*
X138536335Y-83242526D01*
X138538709Y-83264030D01*
X138540464Y-83279925D01*
X138541223Y-83294411D01*
X138541026Y-83332031D01*
X138542799Y-83339415D01*
X138548786Y-83364356D01*
X138551506Y-83379942D01*
X138555153Y-83412975D01*
X138566356Y-83443590D01*
X138568082Y-83448306D01*
X138572273Y-83462189D01*
X138579283Y-83491386D01*
X138579285Y-83491390D01*
X138581058Y-83498777D01*
X138596301Y-83528310D01*
X138602659Y-83542795D01*
X138611472Y-83566877D01*
X138611475Y-83566883D01*
X138614085Y-83574015D01*
X138625756Y-83591382D01*
X138635070Y-83605243D01*
X138642455Y-83617732D01*
X138652090Y-83636399D01*
X138659709Y-83651161D01*
X138664705Y-83656887D01*
X138664705Y-83656888D01*
X138681559Y-83676208D01*
X138691191Y-83688760D01*
X138709730Y-83716349D01*
X138737566Y-83741678D01*
X138747701Y-83752028D01*
X138772439Y-83780385D01*
X138778657Y-83784755D01*
X138799630Y-83799495D01*
X138811980Y-83809389D01*
X138836565Y-83831760D01*
X138843243Y-83835386D01*
X138843246Y-83835388D01*
X138869626Y-83849711D01*
X138881956Y-83857356D01*
X138906517Y-83874618D01*
X138906523Y-83874621D01*
X138912739Y-83878990D01*
X138919815Y-83881749D01*
X138919821Y-83881752D01*
X138943707Y-83891064D01*
X138958061Y-83897727D01*
X138980588Y-83909959D01*
X138980595Y-83909962D01*
X138987268Y-83913585D01*
X139023656Y-83923131D01*
X139037452Y-83927614D01*
X139059123Y-83936063D01*
X139072509Y-83941282D01*
X139098861Y-83944751D01*
X139105459Y-83945620D01*
X139120964Y-83948661D01*
X139122753Y-83949130D01*
X139179896Y-83981916D01*
X139284619Y-84086639D01*
X139431301Y-84175472D01*
X139438548Y-84177743D01*
X139438550Y-84177744D01*
X139457585Y-84183709D01*
X139594938Y-84226753D01*
X139668365Y-84233500D01*
X139671263Y-84233500D01*
X139925665Y-84233499D01*
X140181634Y-84233499D01*
X140184492Y-84233236D01*
X140184501Y-84233236D01*
X140220004Y-84229974D01*
X140255062Y-84226753D01*
X140269064Y-84222365D01*
X140411450Y-84177744D01*
X140411452Y-84177743D01*
X140418699Y-84175472D01*
X140565381Y-84086639D01*
X140660905Y-83991115D01*
X140723217Y-83957089D01*
X140794032Y-83962154D01*
X140839095Y-83991115D01*
X140934619Y-84086639D01*
X140980772Y-84114590D01*
X141028677Y-84166985D01*
X141041500Y-84222365D01*
X141041500Y-86915500D01*
X141021498Y-86983621D01*
X140967842Y-87030114D01*
X140915500Y-87041500D01*
X133709660Y-87041500D01*
X133641539Y-87021498D01*
X133595046Y-86967842D01*
X133584942Y-86897568D01*
X133614436Y-86832988D01*
X133620565Y-86826405D01*
X134272479Y-86174491D01*
X134279743Y-86167775D01*
X134314579Y-86138023D01*
X134314582Y-86138019D01*
X134320355Y-86133089D01*
X134360220Y-86077611D01*
X134363327Y-86073474D01*
X134405477Y-86019718D01*
X134408603Y-86012795D01*
X134412431Y-86006474D01*
X134415990Y-86000000D01*
X134420424Y-85993830D01*
X134445888Y-85930487D01*
X134447956Y-85925638D01*
X134472917Y-85870353D01*
X134476045Y-85863426D01*
X134477430Y-85855951D01*
X134479642Y-85848894D01*
X134481551Y-85841771D01*
X134484385Y-85834720D01*
X134494002Y-85767147D01*
X134494855Y-85761938D01*
X134497503Y-85747648D01*
X134507296Y-85694813D01*
X134506859Y-85687232D01*
X134507336Y-85679648D01*
X134507688Y-85679670D01*
X134507961Y-85673166D01*
X134507653Y-85673143D01*
X134507966Y-85669031D01*
X134508547Y-85664947D01*
X134508704Y-85650000D01*
X134501555Y-85590927D01*
X134500851Y-85583043D01*
X134497862Y-85531198D01*
X134497425Y-85523614D01*
X134494112Y-85512844D01*
X134489454Y-85490931D01*
X134489015Y-85487302D01*
X134489015Y-85487301D01*
X134488102Y-85479758D01*
X134467068Y-85424093D01*
X134464509Y-85416618D01*
X134461001Y-85405214D01*
X134447002Y-85359710D01*
X134441218Y-85350046D01*
X134431464Y-85329869D01*
X134430173Y-85326453D01*
X134427487Y-85319344D01*
X134393782Y-85270303D01*
X134389506Y-85263643D01*
X134371890Y-85234209D01*
X134358937Y-85212566D01*
X134351009Y-85204554D01*
X134336735Y-85187299D01*
X134334662Y-85184283D01*
X134330357Y-85178019D01*
X134318491Y-85167447D01*
X134285930Y-85138435D01*
X134280190Y-85132989D01*
X134255757Y-85108300D01*
X134238316Y-85090675D01*
X134228711Y-85084789D01*
X134210731Y-85071436D01*
X134207994Y-85068997D01*
X134207992Y-85068995D01*
X134202321Y-85063943D01*
X134195611Y-85060390D01*
X134195605Y-85060386D01*
X134149738Y-85036101D01*
X134142862Y-85032179D01*
X134098580Y-85005043D01*
X134098575Y-85005041D01*
X134092102Y-85001074D01*
X134081371Y-84997649D01*
X134060712Y-84988965D01*
X134057480Y-84987253D01*
X134057477Y-84987252D01*
X134050769Y-84983700D01*
X134043403Y-84981850D01*
X134043401Y-84981849D01*
X133993063Y-84969205D01*
X133985450Y-84967036D01*
X133935977Y-84951247D01*
X133935968Y-84951245D01*
X133928735Y-84948937D01*
X133921157Y-84948420D01*
X133921155Y-84948420D01*
X133917498Y-84948171D01*
X133895374Y-84944668D01*
X133884451Y-84941924D01*
X133876853Y-84941884D01*
X133876851Y-84941884D01*
X133852675Y-84941758D01*
X133824936Y-84941613D01*
X133817045Y-84941323D01*
X133757648Y-84937274D01*
X133750172Y-84938579D01*
X133750170Y-84938579D01*
X133746550Y-84939211D01*
X133724226Y-84941085D01*
X133723842Y-84941083D01*
X133712969Y-84941026D01*
X133705584Y-84942799D01*
X133655098Y-84954919D01*
X133647349Y-84956524D01*
X133596193Y-84965452D01*
X133596191Y-84965453D01*
X133588717Y-84966757D01*
X133581771Y-84969806D01*
X133581768Y-84969807D01*
X133578402Y-84971285D01*
X133557175Y-84978428D01*
X133546223Y-84981058D01*
X133493330Y-85008359D01*
X133486206Y-85011756D01*
X133439680Y-85032179D01*
X133431695Y-85035684D01*
X133425673Y-85040305D01*
X133425666Y-85040309D01*
X133422754Y-85042544D01*
X133403842Y-85054546D01*
X133393839Y-85059709D01*
X133388116Y-85064702D01*
X133388111Y-85064705D01*
X133348998Y-85098825D01*
X133342876Y-85103836D01*
X133330327Y-85113466D01*
X133330322Y-85113471D01*
X133327041Y-85115988D01*
X133314472Y-85128557D01*
X133308207Y-85134411D01*
X133264615Y-85172439D01*
X133260247Y-85178654D01*
X133256758Y-85183618D01*
X133242768Y-85200261D01*
X132952099Y-85490931D01*
X132688435Y-85754595D01*
X132626122Y-85788620D01*
X132599339Y-85791500D01*
X129713762Y-85791500D01*
X129713102Y-85791498D01*
X129622969Y-85791026D01*
X129593873Y-85798011D01*
X129586379Y-85799810D01*
X129572105Y-85802378D01*
X129542300Y-85805985D01*
X129542298Y-85805985D01*
X129534758Y-85806898D01*
X129527651Y-85809583D01*
X129527649Y-85809584D01*
X129503670Y-85818645D01*
X129488543Y-85823299D01*
X129463606Y-85829285D01*
X129463602Y-85829287D01*
X129456223Y-85831058D01*
X129422781Y-85848318D01*
X129409539Y-85854214D01*
X129381451Y-85864827D01*
X129381448Y-85864829D01*
X129374344Y-85867513D01*
X129346944Y-85886345D01*
X129333387Y-85894459D01*
X129303839Y-85909709D01*
X129298118Y-85914700D01*
X129298112Y-85914704D01*
X129275487Y-85934442D01*
X129264021Y-85943336D01*
X129239280Y-85960339D01*
X129239275Y-85960344D01*
X129233019Y-85964643D01*
X129213297Y-85986778D01*
X129210906Y-85989462D01*
X129199662Y-86000588D01*
X129180341Y-86017443D01*
X129180338Y-86017447D01*
X129174615Y-86022439D01*
X129170247Y-86028653D01*
X129170245Y-86028656D01*
X129152979Y-86053222D01*
X129143972Y-86064586D01*
X129118943Y-86092679D01*
X129115391Y-86099388D01*
X129115388Y-86099392D01*
X129103389Y-86122054D01*
X129095124Y-86135541D01*
X129080381Y-86156519D01*
X129076010Y-86162739D01*
X129073249Y-86169820D01*
X129073247Y-86169824D01*
X129062343Y-86197790D01*
X129056306Y-86210977D01*
X129042254Y-86237518D01*
X129038700Y-86244231D01*
X129036851Y-86251591D01*
X129036849Y-86251597D01*
X129030603Y-86276466D01*
X129025791Y-86291543D01*
X129013718Y-86322509D01*
X129012727Y-86330036D01*
X129008806Y-86359817D01*
X129006088Y-86374064D01*
X128996924Y-86410549D01*
X128996884Y-86418141D01*
X128996884Y-86418142D01*
X128996750Y-86443783D01*
X128995675Y-86459560D01*
X128991335Y-86492526D01*
X128992169Y-86500076D01*
X128995464Y-86529925D01*
X128996223Y-86544411D01*
X128996026Y-86582031D01*
X128997799Y-86589415D01*
X129003786Y-86614356D01*
X129006506Y-86629942D01*
X129010153Y-86662975D01*
X129021356Y-86693590D01*
X129023082Y-86698306D01*
X129027273Y-86712189D01*
X129034283Y-86741386D01*
X129034285Y-86741390D01*
X129036058Y-86748777D01*
X129051301Y-86778310D01*
X129057659Y-86792795D01*
X129066472Y-86816877D01*
X129066475Y-86816883D01*
X129069085Y-86824015D01*
X129073324Y-86830323D01*
X129083337Y-86845225D01*
X129104729Y-86912922D01*
X129086125Y-86981438D01*
X129033431Y-87029019D01*
X128978755Y-87041500D01*
X126028912Y-87041500D01*
X126020342Y-87041208D01*
X125970224Y-87037791D01*
X125970220Y-87037791D01*
X125962648Y-87037275D01*
X125955171Y-87038580D01*
X125955170Y-87038580D01*
X125928692Y-87043201D01*
X125899697Y-87048262D01*
X125893179Y-87049223D01*
X125829758Y-87056898D01*
X125822657Y-87059581D01*
X125820048Y-87060222D01*
X125803738Y-87064685D01*
X125801202Y-87065450D01*
X125793716Y-87066757D01*
X125762266Y-87080563D01*
X125735205Y-87092442D01*
X125729101Y-87094933D01*
X125669344Y-87117513D01*
X125663081Y-87121817D01*
X125660715Y-87123054D01*
X125645903Y-87131299D01*
X125643649Y-87132632D01*
X125636695Y-87135685D01*
X125585998Y-87174587D01*
X125580668Y-87178459D01*
X125534280Y-87210339D01*
X125534275Y-87210344D01*
X125528019Y-87214643D01*
X125522968Y-87220313D01*
X125522966Y-87220314D01*
X125486565Y-87261170D01*
X125481584Y-87266446D01*
X121943973Y-90804057D01*
X121881661Y-90838083D01*
X121810846Y-90833018D01*
X121754010Y-90790471D01*
X121733982Y-90750460D01*
X121728525Y-90731876D01*
X121727135Y-90730671D01*
X121719452Y-90729000D01*
X118035115Y-90729000D01*
X118019876Y-90733475D01*
X118018671Y-90734865D01*
X118017000Y-90742548D01*
X118017000Y-90745438D01*
X118017337Y-90751953D01*
X118026894Y-90844057D01*
X118029788Y-90857456D01*
X118079381Y-91006107D01*
X118085555Y-91019285D01*
X118150476Y-91124197D01*
X118169314Y-91192649D01*
X118148153Y-91260419D01*
X118093712Y-91305990D01*
X118043332Y-91316500D01*
X117528912Y-91316500D01*
X117520342Y-91316208D01*
X117470224Y-91312791D01*
X117470220Y-91312791D01*
X117462648Y-91312275D01*
X117455171Y-91313580D01*
X117455170Y-91313580D01*
X117428692Y-91318201D01*
X117399697Y-91323262D01*
X117393179Y-91324223D01*
X117329758Y-91331898D01*
X117322657Y-91334581D01*
X117320048Y-91335222D01*
X117303738Y-91339685D01*
X117301202Y-91340450D01*
X117293716Y-91341757D01*
X117286759Y-91344811D01*
X117235205Y-91367442D01*
X117229101Y-91369933D01*
X117169344Y-91392513D01*
X117163081Y-91396817D01*
X117160715Y-91398054D01*
X117145903Y-91406299D01*
X117143649Y-91407632D01*
X117136695Y-91410685D01*
X117085998Y-91449587D01*
X117080668Y-91453459D01*
X117034280Y-91485339D01*
X117034275Y-91485344D01*
X117028019Y-91489643D01*
X117022968Y-91495313D01*
X117022966Y-91495314D01*
X116986565Y-91536170D01*
X116981584Y-91541446D01*
X115171508Y-93351522D01*
X115109196Y-93385548D01*
X115038381Y-93380483D01*
X114981545Y-93337936D01*
X114962179Y-93300106D01*
X114927285Y-93188757D01*
X114921079Y-93175012D01*
X114840176Y-93041426D01*
X114830869Y-93029557D01*
X114789407Y-92988095D01*
X114755381Y-92925783D01*
X114760446Y-92854968D01*
X114789407Y-92809905D01*
X114830869Y-92768443D01*
X114840176Y-92756574D01*
X114921079Y-92622988D01*
X114927285Y-92609243D01*
X114974256Y-92459356D01*
X114976869Y-92446306D01*
X114982734Y-92382479D01*
X114983000Y-92376691D01*
X114983000Y-92320115D01*
X114978525Y-92304876D01*
X114977135Y-92303671D01*
X114969452Y-92302000D01*
X114347115Y-92302000D01*
X114331876Y-92306475D01*
X114330671Y-92307865D01*
X114329000Y-92315548D01*
X114329000Y-93878000D01*
X114308998Y-93946121D01*
X114255342Y-93992614D01*
X114203000Y-94004000D01*
X113947000Y-94004000D01*
X113878879Y-93983998D01*
X113832386Y-93930342D01*
X113821000Y-93878000D01*
X113821000Y-91920000D01*
X113841002Y-91851879D01*
X113894658Y-91805386D01*
X113947000Y-91794000D01*
X114964884Y-91794000D01*
X114980123Y-91789525D01*
X114981328Y-91788135D01*
X114982999Y-91780452D01*
X114982999Y-91719295D01*
X114982736Y-91713546D01*
X114976868Y-91649685D01*
X114974257Y-91636649D01*
X114927285Y-91486757D01*
X114921079Y-91473012D01*
X114840176Y-91339426D01*
X114830869Y-91327557D01*
X114741761Y-91238449D01*
X114707735Y-91176137D01*
X114712800Y-91105322D01*
X114741761Y-91060259D01*
X114836639Y-90965381D01*
X114925472Y-90818699D01*
X114938221Y-90778019D01*
X114954690Y-90725466D01*
X114976753Y-90655062D01*
X114983500Y-90581635D01*
X114983499Y-90203126D01*
X118017071Y-90203126D01*
X118021475Y-90218124D01*
X118022865Y-90219329D01*
X118030548Y-90221000D01*
X118727885Y-90221000D01*
X118743124Y-90216525D01*
X118744329Y-90215135D01*
X118746000Y-90207452D01*
X118746000Y-90202885D01*
X119254000Y-90202885D01*
X119258475Y-90218124D01*
X119259865Y-90219329D01*
X119267548Y-90221000D01*
X120477885Y-90221000D01*
X120493124Y-90216525D01*
X120494329Y-90215135D01*
X120496000Y-90207452D01*
X120496000Y-90202885D01*
X121004000Y-90202885D01*
X121008475Y-90218124D01*
X121009865Y-90219329D01*
X121017548Y-90221000D01*
X121714885Y-90221000D01*
X121730124Y-90216525D01*
X121731329Y-90215135D01*
X121733000Y-90207452D01*
X121733000Y-90204562D01*
X121732663Y-90198047D01*
X121723106Y-90105943D01*
X121720212Y-90092544D01*
X121670619Y-89943893D01*
X121664445Y-89930714D01*
X121582212Y-89797827D01*
X121573176Y-89786426D01*
X121462571Y-89676014D01*
X121451160Y-89667002D01*
X121318120Y-89584996D01*
X121304939Y-89578849D01*
X121156186Y-89529509D01*
X121142810Y-89526642D01*
X121051903Y-89517328D01*
X121045486Y-89517000D01*
X121022115Y-89517000D01*
X121006876Y-89521475D01*
X121005671Y-89522865D01*
X121004000Y-89530548D01*
X121004000Y-90202885D01*
X120496000Y-90202885D01*
X120496000Y-89535115D01*
X120491525Y-89519876D01*
X120490135Y-89518671D01*
X120482452Y-89517000D01*
X120454562Y-89517000D01*
X120448047Y-89517337D01*
X120355943Y-89526894D01*
X120342544Y-89529788D01*
X120193893Y-89579381D01*
X120180714Y-89585555D01*
X120047827Y-89667788D01*
X120036426Y-89676824D01*
X119964205Y-89749172D01*
X119901922Y-89783252D01*
X119831102Y-89778249D01*
X119786013Y-89749328D01*
X119712571Y-89676014D01*
X119701160Y-89667002D01*
X119568120Y-89584996D01*
X119554939Y-89578849D01*
X119406186Y-89529509D01*
X119392810Y-89526642D01*
X119301903Y-89517328D01*
X119295486Y-89517000D01*
X119272115Y-89517000D01*
X119256876Y-89521475D01*
X119255671Y-89522865D01*
X119254000Y-89530548D01*
X119254000Y-90202885D01*
X118746000Y-90202885D01*
X118746000Y-89535115D01*
X118741525Y-89519876D01*
X118740135Y-89518671D01*
X118732452Y-89517000D01*
X118704562Y-89517000D01*
X118698047Y-89517337D01*
X118605943Y-89526894D01*
X118592544Y-89529788D01*
X118443893Y-89579381D01*
X118430714Y-89585555D01*
X118297827Y-89667788D01*
X118286426Y-89676824D01*
X118176014Y-89787429D01*
X118167002Y-89798840D01*
X118084996Y-89931880D01*
X118078849Y-89945061D01*
X118029509Y-90093814D01*
X118026642Y-90107190D01*
X118017328Y-90198097D01*
X118017071Y-90203126D01*
X114983499Y-90203126D01*
X114983499Y-89918366D01*
X114976753Y-89844938D01*
X114973675Y-89835115D01*
X114927744Y-89688550D01*
X114927743Y-89688548D01*
X114925472Y-89681301D01*
X114836639Y-89534619D01*
X114820405Y-89518385D01*
X114786379Y-89456073D01*
X114783500Y-89429290D01*
X114783500Y-89305961D01*
X114803502Y-89237840D01*
X114820327Y-89216943D01*
X114824381Y-89212882D01*
X114829552Y-89207702D01*
X114843214Y-89185538D01*
X114915462Y-89068331D01*
X114915463Y-89068329D01*
X114919302Y-89062101D01*
X114973149Y-88899757D01*
X114983500Y-88798732D01*
X114983500Y-88201268D01*
X114972887Y-88098981D01*
X114946084Y-88018642D01*
X114921073Y-87943676D01*
X114921072Y-87943674D01*
X114918756Y-87936732D01*
X114898434Y-87903891D01*
X114832606Y-87797515D01*
X114828752Y-87791287D01*
X114823570Y-87786114D01*
X114823566Y-87786109D01*
X114770483Y-87733119D01*
X114736403Y-87670837D01*
X114733500Y-87643946D01*
X114733500Y-87516306D01*
X114753502Y-87448185D01*
X114764683Y-87434298D01*
X114764596Y-87434229D01*
X114769134Y-87428483D01*
X114774305Y-87423303D01*
X114867115Y-87272738D01*
X114914028Y-87131299D01*
X114920632Y-87111389D01*
X114920632Y-87111387D01*
X114922797Y-87104861D01*
X114924070Y-87092442D01*
X114928064Y-87053460D01*
X114933500Y-87000400D01*
X114933500Y-85499600D01*
X114932166Y-85486739D01*
X114923238Y-85400692D01*
X114923237Y-85400688D01*
X114922526Y-85393834D01*
X114911142Y-85359710D01*
X114868868Y-85233002D01*
X114866550Y-85226054D01*
X114773478Y-85075652D01*
X114648303Y-84950695D01*
X114649941Y-84949055D01*
X114615344Y-84900256D01*
X114608500Y-84859294D01*
X114608500Y-84720454D01*
X114627240Y-84654338D01*
X114665462Y-84592331D01*
X114665463Y-84592329D01*
X114669302Y-84586101D01*
X114723149Y-84423757D01*
X114733500Y-84322732D01*
X114733500Y-83725268D01*
X114722887Y-83622981D01*
X114695558Y-83541066D01*
X114671073Y-83467676D01*
X114671072Y-83467674D01*
X114668756Y-83460732D01*
X114631669Y-83400801D01*
X114612833Y-83332351D01*
X114633994Y-83264581D01*
X114688435Y-83219010D01*
X114738815Y-83208500D01*
X131726088Y-83208500D01*
X131734658Y-83208792D01*
X131784776Y-83212209D01*
X131784780Y-83212209D01*
X131792352Y-83212725D01*
X131799829Y-83211420D01*
X131799830Y-83211420D01*
X131826308Y-83206799D01*
X131855303Y-83201738D01*
X131861821Y-83200777D01*
X131925242Y-83193102D01*
X131932343Y-83190419D01*
X131934952Y-83189778D01*
X131951262Y-83185315D01*
X131953798Y-83184550D01*
X131961284Y-83183243D01*
X132019800Y-83157556D01*
X132025904Y-83155065D01*
X132078548Y-83135173D01*
X132078549Y-83135172D01*
X132085656Y-83132487D01*
X132091919Y-83128183D01*
X132094285Y-83126946D01*
X132109097Y-83118701D01*
X132111351Y-83117368D01*
X132118305Y-83114315D01*
X132169002Y-83075413D01*
X132174332Y-83071541D01*
X132220720Y-83039661D01*
X132220725Y-83039656D01*
X132226981Y-83035357D01*
X132268436Y-82988829D01*
X132273416Y-82983554D01*
X134887684Y-80369286D01*
X134949996Y-80335260D01*
X135001896Y-80334910D01*
X135093597Y-80353567D01*
X135098772Y-80353757D01*
X135098774Y-80353757D01*
X135311673Y-80361564D01*
X135311677Y-80361564D01*
X135316837Y-80361753D01*
X135321957Y-80361097D01*
X135321959Y-80361097D01*
X135533288Y-80334025D01*
X135533289Y-80334025D01*
X135538416Y-80333368D01*
X135555895Y-80328124D01*
X135747429Y-80270661D01*
X135747434Y-80270659D01*
X135752384Y-80269174D01*
X135952994Y-80170896D01*
X136134860Y-80041173D01*
X136138710Y-80037337D01*
X136228052Y-79948306D01*
X136293096Y-79883489D01*
X136306845Y-79864356D01*
X136420435Y-79706277D01*
X136423453Y-79702077D01*
X136443978Y-79660549D01*
X136520136Y-79506453D01*
X136520137Y-79506451D01*
X136522430Y-79501811D01*
X136572030Y-79338559D01*
X136585865Y-79293023D01*
X136585865Y-79293021D01*
X136587370Y-79288069D01*
X136616529Y-79066590D01*
X136616788Y-79055985D01*
X136618074Y-79003365D01*
X136618074Y-79003361D01*
X136618156Y-79000000D01*
X136599852Y-78777361D01*
X136545431Y-78560702D01*
X136456354Y-78355840D01*
X136415568Y-78292795D01*
X136337822Y-78172617D01*
X136337820Y-78172614D01*
X136335014Y-78168277D01*
X136184670Y-78003051D01*
X136180619Y-77999852D01*
X136180615Y-77999848D01*
X136013414Y-77867800D01*
X136013410Y-77867798D01*
X136009359Y-77864598D01*
X135813789Y-77756638D01*
X135808919Y-77754913D01*
X135808909Y-77754909D01*
X135802874Y-77752772D01*
X135745338Y-77711178D01*
X135719423Y-77645080D01*
X135733358Y-77575464D01*
X135782717Y-77524433D01*
X135844935Y-77508000D01*
X138246977Y-77508000D01*
X138315098Y-77528002D01*
G37*
%TD.AperFunction*%
%TD*%
M02*
