%TF.GenerationSoftware,KiCad,Pcbnew,6.0.0*%
%TF.CreationDate,2022-01-07T13:30:01+01:00*%
%TF.ProjectId,ir_daughter_board,69725f64-6175-4676-9874-65725f626f61,rev?*%
%TF.SameCoordinates,Original*%
%TF.FileFunction,Legend,Bot*%
%TF.FilePolarity,Positive*%
%FSLAX46Y46*%
G04 Gerber Fmt 4.6, Leading zero omitted, Abs format (unit mm)*
G04 Created by KiCad (PCBNEW 6.0.0) date 2022-01-07 13:30:01*
%MOMM*%
%LPD*%
G01*
G04 APERTURE LIST*
%ADD10C,0.150000*%
%ADD11C,0.120000*%
G04 APERTURE END LIST*
D10*
X98380952Y-104547619D02*
X98380952Y-103833333D01*
X98333333Y-103690476D01*
X98238095Y-103595238D01*
X98095238Y-103547619D01*
X98000000Y-103547619D01*
X99333333Y-103547619D02*
X98857142Y-103547619D01*
X98857142Y-104547619D01*
X100238095Y-103642857D02*
X100190476Y-103595238D01*
X100047619Y-103547619D01*
X99952380Y-103547619D01*
X99809523Y-103595238D01*
X99714285Y-103690476D01*
X99666666Y-103785714D01*
X99619047Y-103976190D01*
X99619047Y-104119047D01*
X99666666Y-104309523D01*
X99714285Y-104404761D01*
X99809523Y-104500000D01*
X99952380Y-104547619D01*
X100047619Y-104547619D01*
X100190476Y-104500000D01*
X100238095Y-104452380D01*
X100952380Y-104547619D02*
X100952380Y-103833333D01*
X100904761Y-103690476D01*
X100809523Y-103595238D01*
X100666666Y-103547619D01*
X100571428Y-103547619D01*
X101904761Y-103547619D02*
X101428571Y-103547619D01*
X101428571Y-104547619D01*
X102809523Y-103642857D02*
X102761904Y-103595238D01*
X102619047Y-103547619D01*
X102523809Y-103547619D01*
X102380952Y-103595238D01*
X102285714Y-103690476D01*
X102238095Y-103785714D01*
X102190476Y-103976190D01*
X102190476Y-104119047D01*
X102238095Y-104309523D01*
X102285714Y-104404761D01*
X102380952Y-104500000D01*
X102523809Y-104547619D01*
X102619047Y-104547619D01*
X102761904Y-104500000D01*
X102809523Y-104452380D01*
X103523809Y-104547619D02*
X103523809Y-103833333D01*
X103476190Y-103690476D01*
X103380952Y-103595238D01*
X103238095Y-103547619D01*
X103142857Y-103547619D01*
X104476190Y-103547619D02*
X104000000Y-103547619D01*
X104000000Y-104547619D01*
X105380952Y-103642857D02*
X105333333Y-103595238D01*
X105190476Y-103547619D01*
X105095238Y-103547619D01*
X104952380Y-103595238D01*
X104857142Y-103690476D01*
X104809523Y-103785714D01*
X104761904Y-103976190D01*
X104761904Y-104119047D01*
X104809523Y-104309523D01*
X104857142Y-104404761D01*
X104952380Y-104500000D01*
X105095238Y-104547619D01*
X105190476Y-104547619D01*
X105333333Y-104500000D01*
X105380952Y-104452380D01*
X106095238Y-104547619D02*
X106095238Y-103833333D01*
X106047619Y-103690476D01*
X105952380Y-103595238D01*
X105809523Y-103547619D01*
X105714285Y-103547619D01*
X107047619Y-103547619D02*
X106571428Y-103547619D01*
X106571428Y-104547619D01*
X107952380Y-103642857D02*
X107904761Y-103595238D01*
X107761904Y-103547619D01*
X107666666Y-103547619D01*
X107523809Y-103595238D01*
X107428571Y-103690476D01*
X107380952Y-103785714D01*
X107333333Y-103976190D01*
X107333333Y-104119047D01*
X107380952Y-104309523D01*
X107428571Y-104404761D01*
X107523809Y-104500000D01*
X107666666Y-104547619D01*
X107761904Y-104547619D01*
X107904761Y-104500000D01*
X107952380Y-104452380D01*
%TO.C,R12*%
X116940857Y-92500380D02*
X117274190Y-92024190D01*
X117512285Y-92500380D02*
X117512285Y-91500380D01*
X117131333Y-91500380D01*
X117036095Y-91548000D01*
X116988476Y-91595619D01*
X116940857Y-91690857D01*
X116940857Y-91833714D01*
X116988476Y-91928952D01*
X117036095Y-91976571D01*
X117131333Y-92024190D01*
X117512285Y-92024190D01*
X115988476Y-92500380D02*
X116559904Y-92500380D01*
X116274190Y-92500380D02*
X116274190Y-91500380D01*
X116369428Y-91643238D01*
X116464666Y-91738476D01*
X116559904Y-91786095D01*
X115607523Y-91595619D02*
X115559904Y-91548000D01*
X115464666Y-91500380D01*
X115226571Y-91500380D01*
X115131333Y-91548000D01*
X115083714Y-91595619D01*
X115036095Y-91690857D01*
X115036095Y-91786095D01*
X115083714Y-91928952D01*
X115655142Y-92500380D01*
X115036095Y-92500380D01*
%TO.C,R11*%
X116940857Y-90829380D02*
X117274190Y-90353190D01*
X117512285Y-90829380D02*
X117512285Y-89829380D01*
X117131333Y-89829380D01*
X117036095Y-89877000D01*
X116988476Y-89924619D01*
X116940857Y-90019857D01*
X116940857Y-90162714D01*
X116988476Y-90257952D01*
X117036095Y-90305571D01*
X117131333Y-90353190D01*
X117512285Y-90353190D01*
X115988476Y-90829380D02*
X116559904Y-90829380D01*
X116274190Y-90829380D02*
X116274190Y-89829380D01*
X116369428Y-89972238D01*
X116464666Y-90067476D01*
X116559904Y-90115095D01*
X115036095Y-90829380D02*
X115607523Y-90829380D01*
X115321809Y-90829380D02*
X115321809Y-89829380D01*
X115417047Y-89972238D01*
X115512285Y-90067476D01*
X115607523Y-90115095D01*
%TO.C,R10*%
X116892857Y-94202380D02*
X117226190Y-93726190D01*
X117464285Y-94202380D02*
X117464285Y-93202380D01*
X117083333Y-93202380D01*
X116988095Y-93250000D01*
X116940476Y-93297619D01*
X116892857Y-93392857D01*
X116892857Y-93535714D01*
X116940476Y-93630952D01*
X116988095Y-93678571D01*
X117083333Y-93726190D01*
X117464285Y-93726190D01*
X115940476Y-94202380D02*
X116511904Y-94202380D01*
X116226190Y-94202380D02*
X116226190Y-93202380D01*
X116321428Y-93345238D01*
X116416666Y-93440476D01*
X116511904Y-93488095D01*
X115321428Y-93202380D02*
X115226190Y-93202380D01*
X115130952Y-93250000D01*
X115083333Y-93297619D01*
X115035714Y-93392857D01*
X114988095Y-93583333D01*
X114988095Y-93821428D01*
X115035714Y-94011904D01*
X115083333Y-94107142D01*
X115130952Y-94154761D01*
X115226190Y-94202380D01*
X115321428Y-94202380D01*
X115416666Y-94154761D01*
X115464285Y-94107142D01*
X115511904Y-94011904D01*
X115559523Y-93821428D01*
X115559523Y-93583333D01*
X115511904Y-93392857D01*
X115464285Y-93297619D01*
X115416666Y-93250000D01*
X115321428Y-93202380D01*
%TO.C,IC1*%
X107476190Y-95607380D02*
X107476190Y-94607380D01*
X106428571Y-95512142D02*
X106476190Y-95559761D01*
X106619047Y-95607380D01*
X106714285Y-95607380D01*
X106857142Y-95559761D01*
X106952380Y-95464523D01*
X107000000Y-95369285D01*
X107047619Y-95178809D01*
X107047619Y-95035952D01*
X107000000Y-94845476D01*
X106952380Y-94750238D01*
X106857142Y-94655000D01*
X106714285Y-94607380D01*
X106619047Y-94607380D01*
X106476190Y-94655000D01*
X106428571Y-94702619D01*
X105476190Y-95607380D02*
X106047619Y-95607380D01*
X105761904Y-95607380D02*
X105761904Y-94607380D01*
X105857142Y-94750238D01*
X105952380Y-94845476D01*
X106047619Y-94893095D01*
%TO.C,C12*%
X116940857Y-88857142D02*
X116988476Y-88904761D01*
X117131333Y-88952380D01*
X117226571Y-88952380D01*
X117369428Y-88904761D01*
X117464666Y-88809523D01*
X117512285Y-88714285D01*
X117559904Y-88523809D01*
X117559904Y-88380952D01*
X117512285Y-88190476D01*
X117464666Y-88095238D01*
X117369428Y-88000000D01*
X117226571Y-87952380D01*
X117131333Y-87952380D01*
X116988476Y-88000000D01*
X116940857Y-88047619D01*
X115988476Y-88952380D02*
X116559904Y-88952380D01*
X116274190Y-88952380D02*
X116274190Y-87952380D01*
X116369428Y-88095238D01*
X116464666Y-88190476D01*
X116559904Y-88238095D01*
X115607523Y-88047619D02*
X115559904Y-88000000D01*
X115464666Y-87952380D01*
X115226571Y-87952380D01*
X115131333Y-88000000D01*
X115083714Y-88047619D01*
X115036095Y-88142857D01*
X115036095Y-88238095D01*
X115083714Y-88380952D01*
X115655142Y-88952380D01*
X115036095Y-88952380D01*
%TO.C,C11*%
X116892857Y-95857142D02*
X116940476Y-95904761D01*
X117083333Y-95952380D01*
X117178571Y-95952380D01*
X117321428Y-95904761D01*
X117416666Y-95809523D01*
X117464285Y-95714285D01*
X117511904Y-95523809D01*
X117511904Y-95380952D01*
X117464285Y-95190476D01*
X117416666Y-95095238D01*
X117321428Y-95000000D01*
X117178571Y-94952380D01*
X117083333Y-94952380D01*
X116940476Y-95000000D01*
X116892857Y-95047619D01*
X115940476Y-95952380D02*
X116511904Y-95952380D01*
X116226190Y-95952380D02*
X116226190Y-94952380D01*
X116321428Y-95095238D01*
X116416666Y-95190476D01*
X116511904Y-95238095D01*
X114988095Y-95952380D02*
X115559523Y-95952380D01*
X115273809Y-95952380D02*
X115273809Y-94952380D01*
X115369047Y-95095238D01*
X115464285Y-95190476D01*
X115559523Y-95238095D01*
%TO.C,D1*%
X101988095Y-87330380D02*
X101988095Y-86330380D01*
X101750000Y-86330380D01*
X101607142Y-86378000D01*
X101511904Y-86473238D01*
X101464285Y-86568476D01*
X101416666Y-86758952D01*
X101416666Y-86901809D01*
X101464285Y-87092285D01*
X101511904Y-87187523D01*
X101607142Y-87282761D01*
X101750000Y-87330380D01*
X101988095Y-87330380D01*
X100464285Y-87330380D02*
X101035714Y-87330380D01*
X100750000Y-87330380D02*
X100750000Y-86330380D01*
X100845238Y-86473238D01*
X100940476Y-86568476D01*
X101035714Y-86616095D01*
%TO.C,C8*%
X115976666Y-99407142D02*
X116024285Y-99454761D01*
X116167142Y-99502380D01*
X116262380Y-99502380D01*
X116405238Y-99454761D01*
X116500476Y-99359523D01*
X116548095Y-99264285D01*
X116595714Y-99073809D01*
X116595714Y-98930952D01*
X116548095Y-98740476D01*
X116500476Y-98645238D01*
X116405238Y-98550000D01*
X116262380Y-98502380D01*
X116167142Y-98502380D01*
X116024285Y-98550000D01*
X115976666Y-98597619D01*
X115405238Y-98930952D02*
X115500476Y-98883333D01*
X115548095Y-98835714D01*
X115595714Y-98740476D01*
X115595714Y-98692857D01*
X115548095Y-98597619D01*
X115500476Y-98550000D01*
X115405238Y-98502380D01*
X115214761Y-98502380D01*
X115119523Y-98550000D01*
X115071904Y-98597619D01*
X115024285Y-98692857D01*
X115024285Y-98740476D01*
X115071904Y-98835714D01*
X115119523Y-98883333D01*
X115214761Y-98930952D01*
X115405238Y-98930952D01*
X115500476Y-98978571D01*
X115548095Y-99026190D01*
X115595714Y-99121428D01*
X115595714Y-99311904D01*
X115548095Y-99407142D01*
X115500476Y-99454761D01*
X115405238Y-99502380D01*
X115214761Y-99502380D01*
X115119523Y-99454761D01*
X115071904Y-99407142D01*
X115024285Y-99311904D01*
X115024285Y-99121428D01*
X115071904Y-99026190D01*
X115119523Y-98978571D01*
X115214761Y-98930952D01*
%TO.C,L1*%
X116491666Y-86702380D02*
X116967857Y-86702380D01*
X116967857Y-85702380D01*
X115634523Y-86702380D02*
X116205952Y-86702380D01*
X115920238Y-86702380D02*
X115920238Y-85702380D01*
X116015476Y-85845238D01*
X116110714Y-85940476D01*
X116205952Y-85988095D01*
%TO.C,C10*%
X110882141Y-100357141D02*
X110929760Y-100309522D01*
X110977379Y-100166665D01*
X110977379Y-100071427D01*
X110929760Y-99928570D01*
X110834522Y-99833332D01*
X110739284Y-99785713D01*
X110548808Y-99738094D01*
X110405951Y-99738094D01*
X110215475Y-99785713D01*
X110120237Y-99833332D01*
X110024999Y-99928570D01*
X109977379Y-100071427D01*
X109977379Y-100166665D01*
X110024999Y-100309522D01*
X110072618Y-100357141D01*
X110977379Y-101309522D02*
X110977379Y-100738094D01*
X110977379Y-101023808D02*
X109977379Y-101023808D01*
X110120237Y-100928570D01*
X110215475Y-100833332D01*
X110263094Y-100738094D01*
X109977379Y-101928570D02*
X109977379Y-102023808D01*
X110024999Y-102119046D01*
X110072618Y-102166665D01*
X110167856Y-102214284D01*
X110358332Y-102261903D01*
X110596427Y-102261903D01*
X110786903Y-102214284D01*
X110882141Y-102166665D01*
X110929760Y-102119046D01*
X110977379Y-102023808D01*
X110977379Y-101928570D01*
X110929760Y-101833332D01*
X110882141Y-101785713D01*
X110786903Y-101738094D01*
X110596427Y-101690475D01*
X110358332Y-101690475D01*
X110167856Y-101738094D01*
X110072618Y-101785713D01*
X110024999Y-101833332D01*
X109977379Y-101928570D01*
%TO.C,R7*%
X138279166Y-80251380D02*
X138612500Y-79775190D01*
X138850595Y-80251380D02*
X138850595Y-79251380D01*
X138469642Y-79251380D01*
X138374404Y-79299000D01*
X138326785Y-79346619D01*
X138279166Y-79441857D01*
X138279166Y-79584714D01*
X138326785Y-79679952D01*
X138374404Y-79727571D01*
X138469642Y-79775190D01*
X138850595Y-79775190D01*
X137945833Y-79251380D02*
X137279166Y-79251380D01*
X137707738Y-80251380D01*
%TO.C,C2*%
X119357142Y-88583333D02*
X119404761Y-88535714D01*
X119452380Y-88392857D01*
X119452380Y-88297619D01*
X119404761Y-88154761D01*
X119309523Y-88059523D01*
X119214285Y-88011904D01*
X119023809Y-87964285D01*
X118880952Y-87964285D01*
X118690476Y-88011904D01*
X118595238Y-88059523D01*
X118500000Y-88154761D01*
X118452380Y-88297619D01*
X118452380Y-88392857D01*
X118500000Y-88535714D01*
X118547619Y-88583333D01*
X118547619Y-88964285D02*
X118500000Y-89011904D01*
X118452380Y-89107142D01*
X118452380Y-89345238D01*
X118500000Y-89440476D01*
X118547619Y-89488095D01*
X118642857Y-89535714D01*
X118738095Y-89535714D01*
X118880952Y-89488095D01*
X119452380Y-88916666D01*
X119452380Y-89535714D01*
%TO.C,C3*%
X110626666Y-84381142D02*
X110674285Y-84428761D01*
X110817142Y-84476380D01*
X110912380Y-84476380D01*
X111055238Y-84428761D01*
X111150476Y-84333523D01*
X111198095Y-84238285D01*
X111245714Y-84047809D01*
X111245714Y-83904952D01*
X111198095Y-83714476D01*
X111150476Y-83619238D01*
X111055238Y-83524000D01*
X110912380Y-83476380D01*
X110817142Y-83476380D01*
X110674285Y-83524000D01*
X110626666Y-83571619D01*
X110293333Y-83476380D02*
X109674285Y-83476380D01*
X110007619Y-83857333D01*
X109864761Y-83857333D01*
X109769523Y-83904952D01*
X109721904Y-83952571D01*
X109674285Y-84047809D01*
X109674285Y-84285904D01*
X109721904Y-84381142D01*
X109769523Y-84428761D01*
X109864761Y-84476380D01*
X110150476Y-84476380D01*
X110245714Y-84428761D01*
X110293333Y-84381142D01*
%TO.C,R3*%
X142416666Y-106452380D02*
X142750000Y-105976190D01*
X142988095Y-106452380D02*
X142988095Y-105452380D01*
X142607142Y-105452380D01*
X142511904Y-105500000D01*
X142464285Y-105547619D01*
X142416666Y-105642857D01*
X142416666Y-105785714D01*
X142464285Y-105880952D01*
X142511904Y-105928571D01*
X142607142Y-105976190D01*
X142988095Y-105976190D01*
X142083333Y-105452380D02*
X141464285Y-105452380D01*
X141797619Y-105833333D01*
X141654761Y-105833333D01*
X141559523Y-105880952D01*
X141511904Y-105928571D01*
X141464285Y-106023809D01*
X141464285Y-106261904D01*
X141511904Y-106357142D01*
X141559523Y-106404761D01*
X141654761Y-106452380D01*
X141940476Y-106452380D01*
X142035714Y-106404761D01*
X142083333Y-106357142D01*
%TO.C,C1*%
X121107142Y-88583333D02*
X121154761Y-88535714D01*
X121202380Y-88392857D01*
X121202380Y-88297619D01*
X121154761Y-88154761D01*
X121059523Y-88059523D01*
X120964285Y-88011904D01*
X120773809Y-87964285D01*
X120630952Y-87964285D01*
X120440476Y-88011904D01*
X120345238Y-88059523D01*
X120250000Y-88154761D01*
X120202380Y-88297619D01*
X120202380Y-88392857D01*
X120250000Y-88535714D01*
X120297619Y-88583333D01*
X121202380Y-89535714D02*
X121202380Y-88964285D01*
X121202380Y-89250000D02*
X120202380Y-89250000D01*
X120345238Y-89154761D01*
X120440476Y-89059523D01*
X120488095Y-88964285D01*
%TO.C,C7*%
X116011666Y-101197142D02*
X116059285Y-101244761D01*
X116202142Y-101292380D01*
X116297380Y-101292380D01*
X116440238Y-101244761D01*
X116535476Y-101149523D01*
X116583095Y-101054285D01*
X116630714Y-100863809D01*
X116630714Y-100720952D01*
X116583095Y-100530476D01*
X116535476Y-100435238D01*
X116440238Y-100340000D01*
X116297380Y-100292380D01*
X116202142Y-100292380D01*
X116059285Y-100340000D01*
X116011666Y-100387619D01*
X115678333Y-100292380D02*
X115011666Y-100292380D01*
X115440238Y-101292380D01*
%TO.C,C4*%
X110666666Y-82857142D02*
X110714285Y-82904761D01*
X110857142Y-82952380D01*
X110952380Y-82952380D01*
X111095238Y-82904761D01*
X111190476Y-82809523D01*
X111238095Y-82714285D01*
X111285714Y-82523809D01*
X111285714Y-82380952D01*
X111238095Y-82190476D01*
X111190476Y-82095238D01*
X111095238Y-82000000D01*
X110952380Y-81952380D01*
X110857142Y-81952380D01*
X110714285Y-82000000D01*
X110666666Y-82047619D01*
X109809523Y-82285714D02*
X109809523Y-82952380D01*
X110047619Y-81904761D02*
X110285714Y-82619047D01*
X109666666Y-82619047D01*
%TO.C,R6*%
X138279166Y-78552380D02*
X138612500Y-78076190D01*
X138850595Y-78552380D02*
X138850595Y-77552380D01*
X138469642Y-77552380D01*
X138374404Y-77600000D01*
X138326785Y-77647619D01*
X138279166Y-77742857D01*
X138279166Y-77885714D01*
X138326785Y-77980952D01*
X138374404Y-78028571D01*
X138469642Y-78076190D01*
X138850595Y-78076190D01*
X137422023Y-77552380D02*
X137612500Y-77552380D01*
X137707738Y-77600000D01*
X137755357Y-77647619D01*
X137850595Y-77790476D01*
X137898214Y-77980952D01*
X137898214Y-78361904D01*
X137850595Y-78457142D01*
X137802976Y-78504761D01*
X137707738Y-78552380D01*
X137517261Y-78552380D01*
X137422023Y-78504761D01*
X137374404Y-78457142D01*
X137326785Y-78361904D01*
X137326785Y-78123809D01*
X137374404Y-78028571D01*
X137422023Y-77980952D01*
X137517261Y-77933333D01*
X137707738Y-77933333D01*
X137802976Y-77980952D01*
X137850595Y-78028571D01*
X137898214Y-78123809D01*
%TO.C,R5*%
X138241666Y-81952380D02*
X138575000Y-81476190D01*
X138813095Y-81952380D02*
X138813095Y-80952380D01*
X138432142Y-80952380D01*
X138336904Y-81000000D01*
X138289285Y-81047619D01*
X138241666Y-81142857D01*
X138241666Y-81285714D01*
X138289285Y-81380952D01*
X138336904Y-81428571D01*
X138432142Y-81476190D01*
X138813095Y-81476190D01*
X137336904Y-80952380D02*
X137813095Y-80952380D01*
X137860714Y-81428571D01*
X137813095Y-81380952D01*
X137717857Y-81333333D01*
X137479761Y-81333333D01*
X137384523Y-81380952D01*
X137336904Y-81428571D01*
X137289285Y-81523809D01*
X137289285Y-81761904D01*
X137336904Y-81857142D01*
X137384523Y-81904761D01*
X137479761Y-81952380D01*
X137717857Y-81952380D01*
X137813095Y-81904761D01*
X137860714Y-81857142D01*
%TO.C,C9*%
X109132141Y-100333332D02*
X109179760Y-100285713D01*
X109227379Y-100142856D01*
X109227379Y-100047618D01*
X109179760Y-99904760D01*
X109084522Y-99809522D01*
X108989284Y-99761903D01*
X108798808Y-99714284D01*
X108655951Y-99714284D01*
X108465475Y-99761903D01*
X108370237Y-99809522D01*
X108274999Y-99904760D01*
X108227379Y-100047618D01*
X108227379Y-100142856D01*
X108274999Y-100285713D01*
X108322618Y-100333332D01*
X109227379Y-100809522D02*
X109227379Y-100999999D01*
X109179760Y-101095237D01*
X109132141Y-101142856D01*
X108989284Y-101238094D01*
X108798808Y-101285713D01*
X108417856Y-101285713D01*
X108322618Y-101238094D01*
X108274999Y-101190475D01*
X108227379Y-101095237D01*
X108227379Y-100904760D01*
X108274999Y-100809522D01*
X108322618Y-100761903D01*
X108417856Y-100714284D01*
X108655951Y-100714284D01*
X108751189Y-100761903D01*
X108798808Y-100809522D01*
X108846427Y-100904760D01*
X108846427Y-101095237D01*
X108798808Y-101190475D01*
X108751189Y-101238094D01*
X108655951Y-101285713D01*
%TO.C,R4*%
X138241666Y-83702380D02*
X138575000Y-83226190D01*
X138813095Y-83702380D02*
X138813095Y-82702380D01*
X138432142Y-82702380D01*
X138336904Y-82750000D01*
X138289285Y-82797619D01*
X138241666Y-82892857D01*
X138241666Y-83035714D01*
X138289285Y-83130952D01*
X138336904Y-83178571D01*
X138432142Y-83226190D01*
X138813095Y-83226190D01*
X137384523Y-83035714D02*
X137384523Y-83702380D01*
X137622619Y-82654761D02*
X137860714Y-83369047D01*
X137241666Y-83369047D01*
%TO.C,R9*%
X116056666Y-97792380D02*
X116390000Y-97316190D01*
X116628095Y-97792380D02*
X116628095Y-96792380D01*
X116247142Y-96792380D01*
X116151904Y-96840000D01*
X116104285Y-96887619D01*
X116056666Y-96982857D01*
X116056666Y-97125714D01*
X116104285Y-97220952D01*
X116151904Y-97268571D01*
X116247142Y-97316190D01*
X116628095Y-97316190D01*
X115580476Y-97792380D02*
X115390000Y-97792380D01*
X115294761Y-97744761D01*
X115247142Y-97697142D01*
X115151904Y-97554285D01*
X115104285Y-97363809D01*
X115104285Y-96982857D01*
X115151904Y-96887619D01*
X115199523Y-96840000D01*
X115294761Y-96792380D01*
X115485238Y-96792380D01*
X115580476Y-96840000D01*
X115628095Y-96887619D01*
X115675714Y-96982857D01*
X115675714Y-97220952D01*
X115628095Y-97316190D01*
X115580476Y-97363809D01*
X115485238Y-97411428D01*
X115294761Y-97411428D01*
X115199523Y-97363809D01*
X115151904Y-97316190D01*
X115104285Y-97220952D01*
D11*
%TO.C,R12*%
X113012742Y-92570500D02*
X113487258Y-92570500D01*
X113012742Y-91525500D02*
X113487258Y-91525500D01*
%TO.C,R11*%
X113487258Y-90772500D02*
X113012742Y-90772500D01*
X113487258Y-89727500D02*
X113012742Y-89727500D01*
%TO.C,R10*%
X113012742Y-93227500D02*
X113487258Y-93227500D01*
X113012742Y-94272500D02*
X113487258Y-94272500D01*
%TO.C,IC1*%
X106425000Y-88940000D02*
X109875000Y-88940000D01*
X106425000Y-88940000D02*
X104475000Y-88940000D01*
X106425000Y-94060000D02*
X108375000Y-94060000D01*
X106425000Y-94060000D02*
X104475000Y-94060000D01*
%TO.C,C12*%
X113390580Y-89010000D02*
X113109420Y-89010000D01*
X113390580Y-87990000D02*
X113109420Y-87990000D01*
%TO.C,C11*%
X113390580Y-94990000D02*
X113109420Y-94990000D01*
X113390580Y-96010000D02*
X113109420Y-96010000D01*
%TO.C,D1*%
X109650000Y-88400000D02*
X104250000Y-88400000D01*
X109650000Y-85100000D02*
X109650000Y-88400000D01*
X109650000Y-85100000D02*
X104250000Y-85100000D01*
%TO.C,C8*%
X113390580Y-98490000D02*
X113109420Y-98490000D01*
X113390580Y-99510000D02*
X113109420Y-99510000D01*
%TO.C,L1*%
X111489758Y-85340000D02*
X113160242Y-85340000D01*
X111489758Y-87160000D02*
X113160242Y-87160000D01*
%TO.C,C10*%
X109990000Y-97859420D02*
X109990000Y-98140580D01*
X111010000Y-97859420D02*
X111010000Y-98140580D01*
%TO.C,R7*%
X140512742Y-79227500D02*
X140987258Y-79227500D01*
X140512742Y-80272500D02*
X140987258Y-80272500D01*
%TO.C,C2*%
X118490000Y-91390580D02*
X118490000Y-91109420D01*
X119510000Y-91390580D02*
X119510000Y-91109420D01*
%TO.C,C3*%
X113140580Y-83514000D02*
X112859420Y-83514000D01*
X113140580Y-84534000D02*
X112859420Y-84534000D01*
%TO.C,R3*%
X142562258Y-108022500D02*
X142087742Y-108022500D01*
X142562258Y-106977500D02*
X142087742Y-106977500D01*
%TO.C,C1*%
X120240000Y-91390580D02*
X120240000Y-91109420D01*
X121260000Y-91390580D02*
X121260000Y-91109420D01*
%TO.C,C7*%
X113390580Y-101260000D02*
X113109420Y-101260000D01*
X113390580Y-100240000D02*
X113109420Y-100240000D01*
%TO.C,C4*%
X113140580Y-81990000D02*
X112859420Y-81990000D01*
X113140580Y-83010000D02*
X112859420Y-83010000D01*
%TO.C,R6*%
X140987258Y-78522500D02*
X140512742Y-78522500D01*
X140987258Y-77477500D02*
X140512742Y-77477500D01*
%TO.C,R5*%
X140512742Y-82022500D02*
X140987258Y-82022500D01*
X140512742Y-80977500D02*
X140987258Y-80977500D01*
%TO.C,C9*%
X108264999Y-97859419D02*
X108264999Y-98140579D01*
X109284999Y-97859419D02*
X109284999Y-98140579D01*
%TO.C,R4*%
X140987258Y-82727500D02*
X140512742Y-82727500D01*
X140987258Y-83772500D02*
X140512742Y-83772500D01*
%TO.C,R9*%
X113012742Y-96727500D02*
X113487258Y-96727500D01*
X113012742Y-97772500D02*
X113487258Y-97772500D01*
%TD*%
M02*
