%TF.GenerationSoftware,KiCad,Pcbnew,6.0.0*%
%TF.CreationDate,2022-01-15T12:52:59+01:00*%
%TF.ProjectId,ir_daughter_board,69725f64-6175-4676-9874-65725f626f61,rev?*%
%TF.SameCoordinates,Original*%
%TF.FileFunction,Soldermask,Bot*%
%TF.FilePolarity,Negative*%
%FSLAX46Y46*%
G04 Gerber Fmt 4.6, Leading zero omitted, Abs format (unit mm)*
G04 Created by KiCad (PCBNEW 6.0.0) date 2022-01-15 12:52:59*
%MOMM*%
%LPD*%
G01*
G04 APERTURE LIST*
G04 Aperture macros list*
%AMRoundRect*
0 Rectangle with rounded corners*
0 $1 Rounding radius*
0 $2 $3 $4 $5 $6 $7 $8 $9 X,Y pos of 4 corners*
0 Add a 4 corners polygon primitive as box body*
4,1,4,$2,$3,$4,$5,$6,$7,$8,$9,$2,$3,0*
0 Add four circle primitives for the rounded corners*
1,1,$1+$1,$2,$3*
1,1,$1+$1,$4,$5*
1,1,$1+$1,$6,$7*
1,1,$1+$1,$8,$9*
0 Add four rect primitives between the rounded corners*
20,1,$1+$1,$2,$3,$4,$5,0*
20,1,$1+$1,$4,$5,$6,$7,0*
20,1,$1+$1,$6,$7,$8,$9,0*
20,1,$1+$1,$8,$9,$2,$3,0*%
G04 Aperture macros list end*
%ADD10RoundRect,0.225000X0.250000X-0.225000X0.250000X0.225000X-0.250000X0.225000X-0.250000X-0.225000X0*%
%ADD11C,3.200000*%
%ADD12R,1.700000X1.700000*%
%ADD13O,1.700000X1.700000*%
%ADD14RoundRect,0.200000X-0.275000X0.200000X-0.275000X-0.200000X0.275000X-0.200000X0.275000X0.200000X0*%
%ADD15RoundRect,0.200000X0.275000X-0.200000X0.275000X0.200000X-0.275000X0.200000X-0.275000X-0.200000X0*%
%ADD16RoundRect,0.125000X0.125000X-0.825000X0.125000X0.825000X-0.125000X0.825000X-0.125000X-0.825000X0*%
%ADD17RoundRect,0.250000X-0.275000X-0.700000X0.275000X-0.700000X0.275000X0.700000X-0.275000X0.700000X0*%
%ADD18RoundRect,0.225000X-0.250000X0.225000X-0.250000X-0.225000X0.250000X-0.225000X0.250000X0.225000X0*%
%ADD19RoundRect,0.200000X0.200000X0.275000X-0.200000X0.275000X-0.200000X-0.275000X0.200000X-0.275000X0*%
%ADD20RoundRect,0.225000X0.225000X0.250000X-0.225000X0.250000X-0.225000X-0.250000X0.225000X-0.250000X0*%
%ADD21R,0.700000X0.510000*%
%ADD22R,1.800000X1.800000*%
%ADD23C,1.800000*%
%ADD24R,7.875000X2.000000*%
%ADD25RoundRect,0.200000X-0.200000X-0.275000X0.200000X-0.275000X0.200000X0.275000X-0.200000X0.275000X0*%
%ADD26R,1.350000X0.400000*%
%ADD27O,1.900000X1.000000*%
%ADD28O,1.250000X1.050000*%
%ADD29R,1.900000X2.900000*%
%ADD30R,1.900000X0.875000*%
G04 APERTURE END LIST*
D10*
%TO.C,C3*%
X123510000Y-109601600D03*
X123510000Y-108051600D03*
%TD*%
D11*
%TO.C,H4*%
X101000000Y-85000000D03*
%TD*%
%TO.C,H2*%
X101000000Y-109000000D03*
%TD*%
D12*
%TO.C,J3*%
X132080000Y-91000000D03*
D13*
X132080000Y-93540000D03*
X132080000Y-96080000D03*
X132080000Y-98620000D03*
X132080000Y-101160000D03*
X132080000Y-103700000D03*
%TD*%
D11*
%TO.C,H3*%
X138000000Y-109000000D03*
%TD*%
%TO.C,H1*%
X138000000Y-85000000D03*
%TD*%
D12*
%TO.C,J2*%
X106680000Y-91000000D03*
D13*
X106680000Y-93540000D03*
X106680000Y-96080000D03*
X106680000Y-98620000D03*
X106680000Y-101160000D03*
X106680000Y-103700000D03*
%TD*%
D14*
%TO.C,R2*%
X123000000Y-95675000D03*
X123000000Y-97325000D03*
%TD*%
%TO.C,R13*%
X114071400Y-105359200D03*
X114071400Y-107009200D03*
%TD*%
D15*
%TO.C,R10*%
X112268000Y-106959400D03*
X112268000Y-105309400D03*
%TD*%
D10*
%TO.C,C8*%
X121930132Y-109601600D03*
X121930132Y-108051600D03*
%TD*%
D16*
%TO.C,U1*%
X116082000Y-96819600D03*
X115432000Y-96819600D03*
X114782000Y-96819600D03*
X114132000Y-96819600D03*
X113482000Y-96819600D03*
X112832000Y-96819600D03*
X112182000Y-96819600D03*
X111532000Y-96819600D03*
X110882000Y-96819600D03*
X110232000Y-96819600D03*
X110232000Y-89819600D03*
X110882000Y-89819600D03*
X111532000Y-89819600D03*
X112182000Y-89819600D03*
X112832000Y-89819600D03*
X113482000Y-89819600D03*
X114132000Y-89819600D03*
X114782000Y-89819600D03*
X115432000Y-89819600D03*
X116082000Y-89819600D03*
%TD*%
D17*
%TO.C,L1*%
X112216800Y-108991400D03*
X115366800Y-108991400D03*
%TD*%
D18*
%TO.C,C10*%
X102200000Y-89325000D03*
X102200000Y-90875000D03*
%TD*%
D19*
%TO.C,R7*%
X119481600Y-90881200D03*
X117831600Y-90881200D03*
%TD*%
%TO.C,R11*%
X117221000Y-105384600D03*
X115571000Y-105384600D03*
%TD*%
D20*
%TO.C,C2*%
X117170200Y-106959400D03*
X115620200Y-106959400D03*
%TD*%
D14*
%TO.C,R1*%
X121400000Y-95650000D03*
X121400000Y-97300000D03*
%TD*%
D21*
%TO.C,IC1*%
X108364800Y-109306400D03*
X108364800Y-108356400D03*
X108364800Y-107406400D03*
X110684800Y-107406400D03*
X110684800Y-109306400D03*
%TD*%
D10*
%TO.C,C5*%
X118160800Y-97295000D03*
X118160800Y-95745000D03*
%TD*%
D22*
%TO.C,D6*%
X100400000Y-95700000D03*
D23*
X100400000Y-98240000D03*
%TD*%
D15*
%TO.C,R3*%
X102400000Y-102925000D03*
X102400000Y-101275000D03*
%TD*%
D18*
%TO.C,C1*%
X106756200Y-107911600D03*
X106756200Y-109461600D03*
%TD*%
D10*
%TO.C,C7*%
X120350266Y-109601600D03*
X120350266Y-108051600D03*
%TD*%
D14*
%TO.C,R8*%
X100800000Y-101275000D03*
X100800000Y-102925000D03*
%TD*%
D10*
%TO.C,C4*%
X118770400Y-109601600D03*
X118770400Y-108051600D03*
%TD*%
D24*
%TO.C,Y1*%
X125342900Y-101803200D03*
X113467900Y-101803200D03*
%TD*%
D25*
%TO.C,R6*%
X117843800Y-89306400D03*
X119493800Y-89306400D03*
%TD*%
D15*
%TO.C,R5*%
X136500000Y-104825000D03*
X136500000Y-103175000D03*
%TD*%
%TO.C,R14*%
X99200000Y-102900000D03*
X99200000Y-101250000D03*
%TD*%
D14*
%TO.C,R4*%
X134900000Y-103175000D03*
X134900000Y-104825000D03*
%TD*%
%TO.C,R9*%
X100600000Y-89275000D03*
X100600000Y-90925000D03*
%TD*%
D26*
%TO.C,J1*%
X137575000Y-98300000D03*
X137575000Y-97650000D03*
X137575000Y-97000000D03*
X137575000Y-96350000D03*
X137575000Y-95700000D03*
D27*
X140250000Y-92825000D03*
D28*
X137250000Y-99225000D03*
D29*
X140250000Y-97000000D03*
D28*
X137250000Y-94775000D03*
D30*
X140250000Y-93262500D03*
D27*
X140250000Y-101175000D03*
D30*
X140250000Y-100737500D03*
%TD*%
D18*
%TO.C,C6*%
X119800000Y-95725000D03*
X119800000Y-97275000D03*
%TD*%
M02*
