%TF.GenerationSoftware,KiCad,Pcbnew,6.0.0*%
%TF.CreationDate,2022-01-07T13:30:00+01:00*%
%TF.ProjectId,ir_daughter_board,69725f64-6175-4676-9874-65725f626f61,rev?*%
%TF.SameCoordinates,Original*%
%TF.FileFunction,Copper,L1,Top*%
%TF.FilePolarity,Positive*%
%FSLAX46Y46*%
G04 Gerber Fmt 4.6, Leading zero omitted, Abs format (unit mm)*
G04 Created by KiCad (PCBNEW 6.0.0) date 2022-01-07 13:30:00*
%MOMM*%
%LPD*%
G01*
G04 APERTURE LIST*
G04 Aperture macros list*
%AMRoundRect*
0 Rectangle with rounded corners*
0 $1 Rounding radius*
0 $2 $3 $4 $5 $6 $7 $8 $9 X,Y pos of 4 corners*
0 Add a 4 corners polygon primitive as box body*
4,1,4,$2,$3,$4,$5,$6,$7,$8,$9,$2,$3,0*
0 Add four circle primitives for the rounded corners*
1,1,$1+$1,$2,$3*
1,1,$1+$1,$4,$5*
1,1,$1+$1,$6,$7*
1,1,$1+$1,$8,$9*
0 Add four rect primitives between the rounded corners*
20,1,$1+$1,$2,$3,$4,$5,0*
20,1,$1+$1,$4,$5,$6,$7,0*
20,1,$1+$1,$6,$7,$8,$9,0*
20,1,$1+$1,$8,$9,$2,$3,0*%
G04 Aperture macros list end*
%TA.AperFunction,SMDPad,CuDef*%
%ADD10R,2.000000X7.875000*%
%TD*%
%TA.AperFunction,SMDPad,CuDef*%
%ADD11R,0.900000X2.000000*%
%TD*%
%TA.AperFunction,SMDPad,CuDef*%
%ADD12R,2.000000X0.900000*%
%TD*%
%TA.AperFunction,SMDPad,CuDef*%
%ADD13R,1.330000X1.330000*%
%TD*%
%TA.AperFunction,ComponentPad*%
%ADD14O,1.700000X1.700000*%
%TD*%
%TA.AperFunction,ComponentPad*%
%ADD15R,1.700000X1.700000*%
%TD*%
%TA.AperFunction,SMDPad,CuDef*%
%ADD16R,1.900000X0.875000*%
%TD*%
%TA.AperFunction,ComponentPad*%
%ADD17O,1.900000X1.000000*%
%TD*%
%TA.AperFunction,ComponentPad*%
%ADD18O,1.250000X1.050000*%
%TD*%
%TA.AperFunction,SMDPad,CuDef*%
%ADD19R,1.900000X2.900000*%
%TD*%
%TA.AperFunction,SMDPad,CuDef*%
%ADD20R,1.350000X0.400000*%
%TD*%
%TA.AperFunction,SMDPad,CuDef*%
%ADD21R,1.600000X1.400000*%
%TD*%
%TA.AperFunction,SMDPad,CuDef*%
%ADD22RoundRect,0.218750X0.218750X0.256250X-0.218750X0.256250X-0.218750X-0.256250X0.218750X-0.256250X0*%
%TD*%
%TA.AperFunction,SMDPad,CuDef*%
%ADD23RoundRect,0.200000X-0.200000X-0.275000X0.200000X-0.275000X0.200000X0.275000X-0.200000X0.275000X0*%
%TD*%
%TA.AperFunction,SMDPad,CuDef*%
%ADD24R,1.900000X0.480000*%
%TD*%
%TA.AperFunction,SMDPad,CuDef*%
%ADD25RoundRect,0.225000X0.250000X-0.225000X0.250000X0.225000X-0.250000X0.225000X-0.250000X-0.225000X0*%
%TD*%
%TA.AperFunction,ComponentPad*%
%ADD26C,1.800000*%
%TD*%
%TA.AperFunction,ComponentPad*%
%ADD27R,1.800000X1.800000*%
%TD*%
%TA.AperFunction,SMDPad,CuDef*%
%ADD28RoundRect,0.225000X-0.225000X-0.250000X0.225000X-0.250000X0.225000X0.250000X-0.225000X0.250000X0*%
%TD*%
%TA.AperFunction,ViaPad*%
%ADD29C,0.400000*%
%TD*%
%TA.AperFunction,Conductor*%
%ADD30C,0.400000*%
%TD*%
%TA.AperFunction,Conductor*%
%ADD31C,0.200000*%
%TD*%
G04 APERTURE END LIST*
D10*
%TO.P,Y1,1,1*%
%TO.N,Net-(C6-Pad2)*%
X147800000Y-100137500D03*
%TO.P,Y1,2,2*%
%TO.N,OSC1*%
X147800000Y-88262500D03*
%TD*%
D11*
%TO.P,U2,1,GND*%
%TO.N,GND*%
X113195000Y-103500000D03*
%TO.P,U2,2,3V3*%
%TO.N,VCC_3V3*%
X114465000Y-103500000D03*
%TO.P,U2,3,EN*%
%TO.N,EN*%
X115735000Y-103500000D03*
%TO.P,U2,4,SENSOR_VP*%
%TO.N,unconnected-(U2-Pad4)*%
X117005000Y-103500000D03*
%TO.P,U2,5,SENSOR_VN*%
%TO.N,unconnected-(U2-Pad5)*%
X118275000Y-103500000D03*
%TO.P,U2,6,IO34*%
%TO.N,GPIO 34*%
X119545000Y-103500000D03*
%TO.P,U2,7,IO35*%
%TO.N,GPIO 35*%
X120815000Y-103500000D03*
%TO.P,U2,8,IO32*%
%TO.N,GPIO 32*%
X122085000Y-103500000D03*
%TO.P,U2,9,IO33*%
%TO.N,GPIO 33*%
X123355000Y-103500000D03*
%TO.P,U2,10,IO25*%
%TO.N,GPIO 25*%
X124625000Y-103500000D03*
%TO.P,U2,11,IO26*%
%TO.N,GPIO 26*%
X125895000Y-103500000D03*
%TO.P,U2,12,IO27*%
%TO.N,GPIO 27*%
X127165000Y-103500000D03*
%TO.P,U2,13,IO14*%
%TO.N,IR*%
X128435000Y-103500000D03*
%TO.P,U2,14,IO12*%
%TO.N,GPIO 12*%
X129705000Y-103500000D03*
D12*
%TO.P,U2,15,GND*%
%TO.N,GND*%
X130705000Y-100715000D03*
%TO.P,U2,16,IO13*%
%TO.N,GPIO 13*%
X130705000Y-99445000D03*
%TO.P,U2,17,NC*%
%TO.N,unconnected-(U2-Pad17)*%
X130705000Y-98175000D03*
%TO.P,U2,18,NC*%
%TO.N,unconnected-(U2-Pad18)*%
X130705000Y-96905000D03*
%TO.P,U2,19,NC*%
%TO.N,unconnected-(U2-Pad19)*%
X130705000Y-95635000D03*
%TO.P,U2,20,NC*%
%TO.N,unconnected-(U2-Pad20)*%
X130705000Y-94365000D03*
%TO.P,U2,21,NC*%
%TO.N,unconnected-(U2-Pad21)*%
X130705000Y-93095000D03*
%TO.P,U2,22,NC*%
%TO.N,unconnected-(U2-Pad22)*%
X130705000Y-91825000D03*
%TO.P,U2,23,IO15*%
%TO.N,GPIO 15*%
X130705000Y-90555000D03*
%TO.P,U2,24,IO2*%
%TO.N,GPIO 02*%
X130705000Y-89285000D03*
D11*
%TO.P,U2,25,IO0*%
%TO.N,BOOT*%
X129705000Y-86500000D03*
%TO.P,U2,26,IO4*%
%TO.N,GPIO 04*%
X128435000Y-86500000D03*
%TO.P,U2,27,IO16*%
%TO.N,GPIO 16*%
X127165000Y-86500000D03*
%TO.P,U2,28,IO17*%
%TO.N,GPIO 17*%
X125895000Y-86500000D03*
%TO.P,U2,29,IO5*%
%TO.N,GPIO 05*%
X124625000Y-86500000D03*
%TO.P,U2,30,IO18*%
%TO.N,GPIO 18*%
X123355000Y-86500000D03*
%TO.P,U2,31,IO19*%
%TO.N,GPIO 19*%
X122085000Y-86500000D03*
%TO.P,U2,32,NC1*%
%TO.N,unconnected-(U2-Pad32)*%
X120815000Y-86500000D03*
%TO.P,U2,33,IO21*%
%TO.N,GPIO 21*%
X119545000Y-86500000D03*
%TO.P,U2,34,RXD0*%
%TO.N,TXD*%
X118275000Y-86500000D03*
%TO.P,U2,35,TXD0*%
%TO.N,RXD*%
X117005000Y-86500000D03*
%TO.P,U2,36,IO22*%
%TO.N,GPIO 22*%
X115735000Y-86500000D03*
%TO.P,U2,37,IO23*%
%TO.N,GPIO 23*%
X114465000Y-86500000D03*
%TO.P,U2,38,GND*%
%TO.N,GND*%
X113195000Y-86500000D03*
D13*
%TO.P,U2,39_1,GND*%
X118860000Y-97835000D03*
%TO.P,U2,39_2,GND*%
X118860000Y-96000000D03*
%TO.P,U2,39_3,GND*%
X118860000Y-94165000D03*
%TO.P,U2,39_4,GND*%
X120695000Y-97835000D03*
%TO.P,U2,39_5,GND*%
X120695000Y-96000000D03*
%TO.P,U2,39_6,GND*%
X120695000Y-94165000D03*
%TO.P,U2,39_7,GND*%
X122530000Y-97835000D03*
%TO.P,U2,39_8,GND*%
X122530000Y-96000000D03*
%TO.P,U2,39_9,GND*%
X122530000Y-94165000D03*
%TD*%
D14*
%TO.P,J2,12,Pin_12*%
%TO.N,GPIO 15*%
X135255000Y-111000000D03*
%TO.P,J2,11,Pin_11*%
%TO.N,GPIO 13*%
X132715000Y-111000000D03*
%TO.P,J2,10,Pin_10*%
%TO.N,GPIO 12*%
X130175000Y-111000000D03*
%TO.P,J2,9,Pin_9*%
%TO.N,GPIO 27*%
X127635000Y-111000000D03*
%TO.P,J2,8,Pin_8*%
%TO.N,GPIO 26*%
X125095000Y-111000000D03*
%TO.P,J2,7,Pin_7*%
%TO.N,GPIO 25*%
X122555000Y-111000000D03*
%TO.P,J2,6,Pin_6*%
%TO.N,GPIO 33*%
X120015000Y-111000000D03*
%TO.P,J2,5,Pin_5*%
%TO.N,GPIO 32*%
X117475000Y-111000000D03*
%TO.P,J2,4,Pin_4*%
%TO.N,GPIO 35*%
X114935000Y-111000000D03*
%TO.P,J2,3,Pin_3*%
%TO.N,GPIO 34*%
X112395000Y-111000000D03*
%TO.P,J2,2,Pin_2*%
%TO.N,VCC_3V3*%
X109855000Y-111000000D03*
D15*
%TO.P,J2,1,Pin_1*%
%TO.N,GND*%
X107315000Y-111000000D03*
%TD*%
%TO.P,J3,1,Pin_1*%
%TO.N,GND*%
X107315000Y-79000000D03*
D14*
%TO.P,J3,2,Pin_2*%
%TO.N,GPIO 23*%
X109855000Y-79000000D03*
%TO.P,J3,3,Pin_3*%
%TO.N,GPIO 22*%
X112395000Y-79000000D03*
%TO.P,J3,4,Pin_4*%
%TO.N,GPIO 21*%
X114935000Y-79000000D03*
%TO.P,J3,5,Pin_5*%
%TO.N,GPIO 19*%
X117475000Y-79000000D03*
%TO.P,J3,6,Pin_6*%
%TO.N,GPIO 18*%
X120015000Y-79000000D03*
%TO.P,J3,7,Pin_7*%
%TO.N,GPIO 05*%
X122555000Y-79000000D03*
%TO.P,J3,8,Pin_8*%
%TO.N,GPIO 17*%
X125095000Y-79000000D03*
%TO.P,J3,9,Pin_9*%
%TO.N,GPIO 16*%
X127635000Y-79000000D03*
%TO.P,J3,10,Pin_10*%
%TO.N,GPIO 04*%
X130175000Y-79000000D03*
%TO.P,J3,11,Pin_11*%
%TO.N,GPIO 02*%
X132715000Y-79000000D03*
%TO.P,J3,12,Pin_12*%
%TO.N,VCC_3V3*%
X135255000Y-79000000D03*
%TD*%
D16*
%TO.P,J1,6,Shield*%
%TO.N,GND*%
X154800000Y-91262500D03*
D17*
X154800000Y-90825000D03*
D16*
X154800000Y-98737500D03*
D18*
X151800000Y-97225000D03*
D19*
X154800000Y-95000000D03*
D18*
X151800000Y-92775000D03*
D17*
X154800000Y-99175000D03*
D20*
%TO.P,J1,5,GND*%
X152125000Y-96300000D03*
%TO.P,J1,4,ID*%
%TO.N,unconnected-(J1-Pad4)*%
X152125000Y-95650000D03*
%TO.P,J1,3,D+*%
%TO.N,USB_D+*%
X152125000Y-95000000D03*
%TO.P,J1,2,D-*%
%TO.N,USB_D-*%
X152125000Y-94350000D03*
%TO.P,J1,1,VBUS*%
%TO.N,VCC_USB*%
X152125000Y-93700000D03*
%TD*%
D21*
%TO.P,SW1,1,1*%
%TO.N,BOOT*%
X133795000Y-85650000D03*
%TO.P,SW1,2,2*%
X141795000Y-85650000D03*
%TO.P,SW1,3,K*%
%TO.N,GND*%
X133795000Y-90150000D03*
%TO.P,SW1,4,A*%
X141795000Y-90150000D03*
%TD*%
D22*
%TO.P,D4,1,K*%
%TO.N,USBCFG*%
X141537500Y-78000000D03*
%TO.P,D4,2,A*%
%TO.N,Net-(D4-Pad2)*%
X139962500Y-78000000D03*
%TD*%
D21*
%TO.P,SW2,4,A*%
%TO.N,GND*%
X133795000Y-92650000D03*
%TO.P,SW2,3,K*%
X141795000Y-92650000D03*
%TO.P,SW2,2,2*%
%TO.N,EN*%
X133795000Y-97150000D03*
%TO.P,SW2,1,1*%
X141795000Y-97150000D03*
%TD*%
D22*
%TO.P,D2,2,A*%
%TO.N,Net-(D2-Pad2)*%
X139962500Y-83250000D03*
%TO.P,D2,1,K*%
%TO.N,TXLED*%
X141537500Y-83250000D03*
%TD*%
%TO.P,D5,1,K*%
%TO.N,SSPND*%
X141537500Y-79750000D03*
%TO.P,D5,2,A*%
%TO.N,Net-(D5-Pad2)*%
X139962500Y-79750000D03*
%TD*%
%TO.P,D3,2,A*%
%TO.N,Net-(D3-Pad2)*%
X139962500Y-81500000D03*
%TO.P,D3,1,K*%
%TO.N,RXLED*%
X141537500Y-81500000D03*
%TD*%
D23*
%TO.P,R2,2*%
%TO.N,Net-(C6-Pad2)*%
X143625000Y-99800000D03*
%TO.P,R2,1*%
%TO.N,OSC2*%
X141975000Y-99800000D03*
%TD*%
D24*
%TO.P,U1,1,VDD*%
%TO.N,VCC_3V3*%
X139245000Y-105325000D03*
%TO.P,U1,2,OSC1*%
%TO.N,OSC1*%
X139245000Y-105975000D03*
%TO.P,U1,3,OSC2*%
%TO.N,OSC2*%
X139245000Y-106625000D03*
%TO.P,U1,4,~{RST}*%
%TO.N,Net-(R3-Pad2)*%
X139245000Y-107275000D03*
%TO.P,U1,5,GP7/TXLED*%
%TO.N,TXLED*%
X139245000Y-107925000D03*
%TO.P,U1,6,GP6/RXLED*%
%TO.N,RXLED*%
X139245000Y-108575000D03*
%TO.P,U1,7,GP5*%
%TO.N,unconnected-(U1-Pad7)*%
X139245000Y-109225000D03*
%TO.P,U1,8,GP4*%
%TO.N,unconnected-(U1-Pad8)*%
X139245000Y-109875000D03*
%TO.P,U1,9,GP3*%
%TO.N,unconnected-(U1-Pad9)*%
X139245000Y-110525000D03*
%TO.P,U1,10,TX*%
%TO.N,TXD*%
X139245000Y-111175000D03*
%TO.P,U1,11,~{RTS}*%
%TO.N,unconnected-(U1-Pad11)*%
X146255000Y-111175000D03*
%TO.P,U1,12,RX*%
%TO.N,RXD*%
X146255000Y-110525000D03*
%TO.P,U1,13,~{CTS}*%
%TO.N,unconnected-(U1-Pad13)*%
X146255000Y-109875000D03*
%TO.P,U1,14,GP2*%
%TO.N,unconnected-(U1-Pad14)*%
X146255000Y-109225000D03*
%TO.P,U1,15,GP1/USBCFG*%
%TO.N,USBCFG*%
X146255000Y-108575000D03*
%TO.P,U1,16,GP0/SSPND*%
%TO.N,SSPND*%
X146255000Y-107925000D03*
%TO.P,U1,17,VUSB*%
%TO.N,VCC_USB*%
X146255000Y-107275000D03*
%TO.P,U1,18,D-*%
%TO.N,USB_D-*%
X146255000Y-106625000D03*
%TO.P,U1,19,D+*%
%TO.N,USB_D+*%
X146255000Y-105975000D03*
%TO.P,U1,20,VSS*%
%TO.N,GND*%
X146255000Y-105325000D03*
%TD*%
D23*
%TO.P,R1,2*%
%TO.N,Net-(C6-Pad2)*%
X143625000Y-101400000D03*
%TO.P,R1,1*%
%TO.N,OSC2*%
X141975000Y-101400000D03*
%TD*%
D25*
%TO.P,C5,2*%
%TO.N,GND*%
X144100000Y-91500000D03*
%TO.P,C5,1*%
%TO.N,OSC1*%
X144100000Y-93050000D03*
%TD*%
D26*
%TO.P,D6,2,A*%
%TO.N,IR*%
X100750000Y-96250000D03*
D27*
%TO.P,D6,1,K*%
%TO.N,GND*%
X100750000Y-93710000D03*
%TD*%
D23*
%TO.P,R8,2*%
%TO.N,VCC_3V3*%
X102500000Y-99500000D03*
%TO.P,R8,1*%
%TO.N,IR*%
X100850000Y-99500000D03*
%TD*%
D28*
%TO.P,C6,1*%
%TO.N,GND*%
X142025000Y-103000000D03*
%TO.P,C6,2*%
%TO.N,Net-(C6-Pad2)*%
X143575000Y-103000000D03*
%TD*%
D29*
%TO.N,GND*%
X141400000Y-105200000D03*
%TO.N,VCC_USB*%
X146800000Y-93000000D03*
%TO.N,TXD*%
X135000000Y-108000000D03*
%TO.N,GND*%
X147600000Y-104600000D03*
%TO.N,TXLED*%
X144200000Y-104400000D03*
%TO.N,RXLED*%
X144400000Y-106600000D03*
%TO.N,USBCFG*%
X148968102Y-80601274D03*
%TO.N,SSPND*%
X148400000Y-81200000D03*
%TO.N,Net-(D2-Pad2)*%
X139250000Y-83250000D03*
%TO.N,Net-(D3-Pad2)*%
X139000000Y-81500000D03*
%TO.N,Net-(D5-Pad2)*%
X139250000Y-79750000D03*
%TO.N,Net-(D4-Pad2)*%
X139000000Y-78000000D03*
X139925000Y-78000000D03*
%TO.N,EN*%
X115750000Y-103500000D03*
X115735000Y-100560000D03*
%TO.N,GND*%
X115648000Y-90475000D03*
%TO.N,VCC_3V3*%
X132250000Y-88500000D03*
X139250000Y-103750000D03*
%TO.N,GND*%
X120750000Y-90475000D03*
%TO.N,VCC_3V3*%
X114075000Y-90250000D03*
X114025000Y-97300000D03*
%TO.N,GND*%
X133795000Y-92650000D03*
X132000000Y-101250000D03*
%TO.N,EN*%
X133795000Y-97150000D03*
X128500000Y-97250000D03*
X112425000Y-97250000D03*
%TO.N,RXD*%
X138000000Y-112250000D03*
X116500000Y-94000000D03*
%TO.N,TXD*%
X123500000Y-91250000D03*
%TO.N,USBCFG*%
X149129776Y-107624422D03*
%TO.N,SSPND*%
X148500000Y-107250000D03*
%TO.N,RXLED*%
X144000000Y-84250000D03*
%TO.N,TXLED*%
X143250000Y-84500000D03*
%TO.N,Net-(R3-Pad2)*%
X139245000Y-107275000D03*
%TO.N,VCC_USB*%
X146255000Y-107275000D03*
%TO.N,GND*%
X113195000Y-103500000D03*
%TO.N,VCC_3V3*%
X114465000Y-103500000D03*
%TO.N,BOOT*%
X133795000Y-85650000D03*
X129705000Y-86500000D03*
%TD*%
D30*
%TO.N,OSC1*%
X144100000Y-93050000D02*
X144100000Y-97500000D01*
X144100000Y-93050000D02*
X147800000Y-89350000D01*
X147800000Y-89350000D02*
X147800000Y-88262500D01*
%TO.N,GND*%
X143145000Y-91500000D02*
X141795000Y-90150000D01*
X142945000Y-91500000D02*
X144100000Y-91500000D01*
X142945000Y-91500000D02*
X141795000Y-92650000D01*
X142025000Y-104575000D02*
X141400000Y-105200000D01*
X142025000Y-103000000D02*
X142025000Y-104575000D01*
%TO.N,VCC_USB*%
X150000000Y-93000000D02*
X150700000Y-93700000D01*
X146800000Y-93000000D02*
X150000000Y-93000000D01*
X150700000Y-93700000D02*
X152125000Y-93700000D01*
%TO.N,OSC1*%
X139245000Y-105975000D02*
X138051978Y-105975000D01*
X138051978Y-105975000D02*
X137800000Y-105723022D01*
X143000000Y-98600000D02*
X144200000Y-97400000D01*
X137800000Y-105723022D02*
X137800000Y-101400000D01*
X140600000Y-98600000D02*
X143000000Y-98600000D01*
X137800000Y-101400000D02*
X140600000Y-98600000D01*
%TO.N,Net-(C6-Pad2)*%
X143625000Y-99800000D02*
X143962500Y-100137500D01*
X143962500Y-100137500D02*
X147800000Y-100137500D01*
X143625000Y-99800000D02*
X143625000Y-101400000D01*
X143575000Y-103000000D02*
X143575000Y-101450000D01*
X143575000Y-101450000D02*
X143625000Y-101400000D01*
%TO.N,OSC2*%
X141975000Y-99800000D02*
X141975000Y-100425000D01*
X140600000Y-101800000D02*
X141975000Y-100425000D01*
X140600000Y-106620000D02*
X140600000Y-101800000D01*
X140595000Y-106625000D02*
X140600000Y-106620000D01*
X141000000Y-101400000D02*
X141975000Y-101400000D01*
X139245000Y-106625000D02*
X140595000Y-106625000D01*
%TO.N,GND*%
X146875000Y-105325000D02*
X147600000Y-104600000D01*
X146255000Y-105325000D02*
X146875000Y-105325000D01*
%TO.N,TXLED*%
X144200000Y-104450000D02*
X144200000Y-104400000D01*
X139245000Y-107925000D02*
X140725000Y-107925000D01*
X140725000Y-107925000D02*
X144200000Y-104450000D01*
%TO.N,RXLED*%
X144400000Y-106600000D02*
X142425000Y-108575000D01*
X139245000Y-108575000D02*
X142425000Y-108575000D01*
%TO.N,USBCFG*%
X148968102Y-80601274D02*
X146366828Y-78000000D01*
X146366828Y-78000000D02*
X141537500Y-78000000D01*
%TO.N,SSPND*%
X148400000Y-81200000D02*
X146950000Y-79750000D01*
X146950000Y-79750000D02*
X141537500Y-79750000D01*
%TO.N,VCC_3V3*%
X102500000Y-99500000D02*
X106200000Y-95800000D01*
X106200000Y-95800000D02*
X112525000Y-95800000D01*
X112525000Y-95800000D02*
X114025000Y-97300000D01*
%TO.N,IR*%
X100850000Y-99500000D02*
X102600000Y-101250000D01*
X102600000Y-101250000D02*
X127018022Y-101250000D01*
X127018022Y-101250000D02*
X128435000Y-102666978D01*
X128435000Y-102666978D02*
X128435000Y-103500000D01*
D31*
%TO.N,USB_D+*%
X152125000Y-95000000D02*
X152138603Y-95000000D01*
%TO.N,USB_D-*%
X153012894Y-94573489D02*
X153476502Y-95037097D01*
%TO.N,USB_D+*%
X152138603Y-95000000D02*
X152362092Y-95223489D01*
X152362092Y-95223489D02*
X153026511Y-95223489D01*
X153026511Y-95223489D02*
X153026511Y-97161298D01*
%TO.N,USB_D-*%
X152348489Y-94573489D02*
X153012894Y-94573489D01*
%TO.N,USB_D+*%
X153026511Y-97161298D02*
X152226511Y-97961298D01*
%TO.N,USB_D-*%
X153476502Y-95037097D02*
X153476502Y-97347691D01*
X152676502Y-98147691D02*
X152676502Y-101182903D01*
%TO.N,USB_D+*%
X152226511Y-97961298D02*
X152226511Y-100996511D01*
%TO.N,USB_D-*%
X152125000Y-94350000D02*
X152348489Y-94573489D01*
X153476502Y-97347691D02*
X152676502Y-98147691D01*
D30*
%TO.N,Net-(D2-Pad2)*%
X139250000Y-83250000D02*
X139962500Y-83250000D01*
%TO.N,Net-(D3-Pad2)*%
X139962500Y-81500000D02*
X139000000Y-81500000D01*
%TO.N,Net-(D5-Pad2)*%
X139250000Y-79750000D02*
X139962500Y-79750000D01*
%TO.N,Net-(D4-Pad2)*%
X139962500Y-78000000D02*
X139000000Y-78000000D01*
%TO.N,IR*%
X100850000Y-99500000D02*
X100850000Y-96350000D01*
X100850000Y-96350000D02*
X100750000Y-96250000D01*
%TO.N,EN*%
X115735000Y-103500000D02*
X115750000Y-103500000D01*
%TO.N,GND*%
X113195000Y-86500000D02*
X113195000Y-88022000D01*
X113195000Y-88022000D02*
X115648000Y-90475000D01*
%TO.N,VCC_3V3*%
X139245000Y-105325000D02*
X139245000Y-103755000D01*
X139245000Y-103755000D02*
X139250000Y-103750000D01*
X132250000Y-88500000D02*
X132250000Y-82005000D01*
X132250000Y-82005000D02*
X135255000Y-79000000D01*
%TO.N,GND*%
X120695000Y-94165000D02*
X120695000Y-90530000D01*
X120695000Y-90530000D02*
X120750000Y-90475000D01*
X130705000Y-100715000D02*
X129871978Y-100715000D01*
X129871978Y-100715000D02*
X129250000Y-100093022D01*
X129250000Y-100093022D02*
X129250000Y-97000000D01*
X129250000Y-97000000D02*
X126415000Y-94165000D01*
X126415000Y-94165000D02*
X122530000Y-94165000D01*
%TO.N,VCC_3V3*%
X114025000Y-97300000D02*
X114025000Y-90300000D01*
X114025000Y-90300000D02*
X114075000Y-90250000D01*
%TO.N,GND*%
X122530000Y-97835000D02*
X122530000Y-96000000D01*
X120695000Y-97835000D02*
X122530000Y-97835000D01*
X120695000Y-96000000D02*
X120695000Y-97835000D01*
X118860000Y-97835000D02*
X120695000Y-97835000D01*
X118860000Y-96000000D02*
X118860000Y-97835000D01*
X120695000Y-96000000D02*
X118860000Y-96000000D01*
X120695000Y-96000000D02*
X120695000Y-94165000D01*
X122530000Y-96000000D02*
X120695000Y-96000000D01*
X122530000Y-94165000D02*
X122530000Y-96000000D01*
X120695000Y-94165000D02*
X122530000Y-94165000D01*
X120695000Y-94165000D02*
X118860000Y-94165000D01*
X118860000Y-94165000D02*
X118860000Y-96000000D01*
X132000000Y-101250000D02*
X131240000Y-101250000D01*
X131240000Y-101250000D02*
X130705000Y-100715000D01*
%TO.N,EN*%
X115735000Y-100560000D02*
X125190000Y-100560000D01*
X125190000Y-100560000D02*
X128500000Y-97250000D01*
X115735000Y-100560000D02*
X112425000Y-97250000D01*
%TO.N,RXD*%
X146255000Y-110525000D02*
X144905000Y-110525000D01*
X144905000Y-110525000D02*
X143180000Y-112250000D01*
X143180000Y-112250000D02*
X138000000Y-112250000D01*
X116500000Y-94000000D02*
X117005000Y-93495000D01*
X117005000Y-93495000D02*
X117005000Y-86500000D01*
%TO.N,TXD*%
X135000000Y-108000000D02*
X138175000Y-111175000D01*
X121250000Y-89000000D02*
X120000000Y-89000000D01*
X139245000Y-111175000D02*
X138175000Y-111175000D01*
X120000000Y-89000000D02*
X118275000Y-87275000D01*
X123500000Y-91250000D02*
X121250000Y-89000000D01*
X118275000Y-87275000D02*
X118275000Y-86500000D01*
%TO.N,USBCFG*%
X148179198Y-108575000D02*
X149129776Y-107624422D01*
X146255000Y-108575000D02*
X148179198Y-108575000D01*
%TO.N,SSPND*%
X147825000Y-107925000D02*
X146255000Y-107925000D01*
X148500000Y-107250000D02*
X147825000Y-107925000D01*
%TO.N,RXLED*%
X141537500Y-81500000D02*
X141537500Y-81787500D01*
X141537500Y-81787500D02*
X144000000Y-84250000D01*
%TO.N,TXLED*%
X143250000Y-84500000D02*
X142787500Y-84500000D01*
X142787500Y-84500000D02*
X141537500Y-83250000D01*
%TO.N,GND*%
X154800000Y-98737500D02*
X154800000Y-95000000D01*
X152125000Y-96300000D02*
X152125000Y-96900000D01*
X152125000Y-96900000D02*
X151800000Y-97225000D01*
X151800000Y-92775000D02*
X152575000Y-92775000D01*
X152575000Y-92775000D02*
X154800000Y-95000000D01*
X154800000Y-90825000D02*
X153750000Y-90825000D01*
X153750000Y-90825000D02*
X151800000Y-92775000D01*
X113195000Y-86500000D02*
X113195000Y-84880000D01*
X113195000Y-84880000D02*
X107315000Y-79000000D01*
%TO.N,GPIO 23*%
X114465000Y-86500000D02*
X114465000Y-83610000D01*
X114465000Y-83610000D02*
X109855000Y-79000000D01*
%TO.N,GPIO 22*%
X115735000Y-86500000D02*
X115735000Y-82340000D01*
X115735000Y-82340000D02*
X112395000Y-79000000D01*
%TO.N,GPIO 21*%
X119545000Y-86500000D02*
X119545000Y-83610000D01*
X119545000Y-83610000D02*
X114935000Y-79000000D01*
%TO.N,GPIO 19*%
X122085000Y-86500000D02*
X122085000Y-83610000D01*
X122085000Y-83610000D02*
X117475000Y-79000000D01*
%TO.N,GPIO 18*%
X123355000Y-86500000D02*
X123355000Y-82340000D01*
X123355000Y-82340000D02*
X120015000Y-79000000D01*
%TO.N,GPIO 05*%
X124625000Y-86500000D02*
X124625000Y-81070000D01*
X124625000Y-81070000D02*
X122555000Y-79000000D01*
%TO.N,GPIO 17*%
X125895000Y-86500000D02*
X125895000Y-79800000D01*
X125895000Y-79800000D02*
X125095000Y-79000000D01*
%TO.N,GPIO 16*%
X127165000Y-86500000D02*
X127165000Y-79470000D01*
X127165000Y-79470000D02*
X127635000Y-79000000D01*
%TO.N,GPIO 02*%
X130705000Y-89285000D02*
X130705000Y-81010000D01*
X130705000Y-81010000D02*
X132715000Y-79000000D01*
%TO.N,GPIO 04*%
X128435000Y-86500000D02*
X128435000Y-85666978D01*
X128435000Y-85666978D02*
X130175000Y-83926978D01*
X130175000Y-83926978D02*
X130175000Y-79000000D01*
%TO.N,BOOT*%
X133795000Y-85650000D02*
X141795000Y-85650000D01*
%TO.N,EN*%
X133795000Y-97150000D02*
X141795000Y-97150000D01*
%TO.N,GND*%
X141795000Y-92650000D02*
X133795000Y-92650000D01*
X141795000Y-90150000D02*
X141795000Y-92650000D01*
X133795000Y-90150000D02*
X141795000Y-90150000D01*
X133795000Y-92650000D02*
X133795000Y-90150000D01*
%TO.N,GPIO 15*%
X135255000Y-111000000D02*
X133500000Y-109245000D01*
X133500000Y-100250000D02*
X132250000Y-99000000D01*
X133500000Y-109245000D02*
X133500000Y-100250000D01*
X132250000Y-99000000D02*
X132250000Y-91266978D01*
X131538022Y-90555000D02*
X130705000Y-90555000D01*
X132250000Y-91266978D02*
X131538022Y-90555000D01*
%TO.N,GPIO 13*%
X132715000Y-111000000D02*
X132715000Y-100621978D01*
X132715000Y-100621978D02*
X131538022Y-99445000D01*
X131538022Y-99445000D02*
X130705000Y-99445000D01*
%TO.N,GPIO 12*%
X129705000Y-103500000D02*
X129705000Y-110530000D01*
X129705000Y-110530000D02*
X130175000Y-111000000D01*
%TO.N,GPIO 27*%
X127165000Y-103500000D02*
X127165000Y-110530000D01*
X127165000Y-110530000D02*
X127635000Y-111000000D01*
%TO.N,GPIO 26*%
X125095000Y-111000000D02*
X125895000Y-110200000D01*
X125895000Y-110200000D02*
X125895000Y-103500000D01*
%TO.N,GPIO 25*%
X122555000Y-111000000D02*
X124625000Y-108930000D01*
X124625000Y-108930000D02*
X124625000Y-103500000D01*
%TO.N,GPIO 33*%
X120015000Y-111000000D02*
X123355000Y-107660000D01*
X123355000Y-107660000D02*
X123355000Y-103500000D01*
%TO.N,GPIO 32*%
X117475000Y-111000000D02*
X122085000Y-106390000D01*
X122085000Y-106390000D02*
X122085000Y-103500000D01*
%TO.N,GPIO 35*%
X114935000Y-111000000D02*
X120815000Y-105120000D01*
X120815000Y-105120000D02*
X120815000Y-103500000D01*
%TO.N,GPIO 34*%
X112395000Y-111000000D02*
X112878022Y-111000000D01*
X112878022Y-111000000D02*
X119545000Y-104333022D01*
X119545000Y-104333022D02*
X119545000Y-103500000D01*
%TO.N,VCC_3V3*%
X109855000Y-111000000D02*
X114465000Y-106390000D01*
X114465000Y-106390000D02*
X114465000Y-103500000D01*
%TO.N,GND*%
X107315000Y-111000000D02*
X107315000Y-109380000D01*
X107315000Y-109380000D02*
X113195000Y-103500000D01*
D31*
%TO.N,USB_D+*%
X152226511Y-100996511D02*
X147248022Y-105975000D01*
X147248022Y-105975000D02*
X146255000Y-105975000D01*
%TO.N,USB_D-*%
X147417894Y-106441511D02*
X146438489Y-106441511D01*
X152676502Y-101182903D02*
X147417894Y-106441511D01*
X146438489Y-106441511D02*
X146255000Y-106625000D01*
%TD*%
%TA.AperFunction,Conductor*%
%TO.N,GND*%
G36*
X156434121Y-77528002D02*
G01*
X156480614Y-77581658D01*
X156492000Y-77634000D01*
X156492000Y-90600627D01*
X156471998Y-90668748D01*
X156418342Y-90715241D01*
X156348068Y-90725345D01*
X156283488Y-90695851D01*
X156245104Y-90636125D01*
X156244634Y-90634182D01*
X156190862Y-90451479D01*
X156186269Y-90440111D01*
X156100393Y-90275846D01*
X156093679Y-90265585D01*
X155977532Y-90121127D01*
X155968954Y-90112368D01*
X155826961Y-89993222D01*
X155816841Y-89986292D01*
X155654415Y-89896998D01*
X155643142Y-89892166D01*
X155466462Y-89836120D01*
X155454468Y-89833570D01*
X155310239Y-89817393D01*
X155303215Y-89817000D01*
X155072115Y-89817000D01*
X155056876Y-89821475D01*
X155055671Y-89822865D01*
X155054000Y-89830548D01*
X155054000Y-92189884D01*
X155058475Y-92205123D01*
X155059865Y-92206328D01*
X155067548Y-92207999D01*
X155794669Y-92207999D01*
X155801490Y-92207629D01*
X155852352Y-92202105D01*
X155867604Y-92198479D01*
X155988054Y-92153324D01*
X156003649Y-92144786D01*
X156105724Y-92068285D01*
X156118285Y-92055724D01*
X156194786Y-91953649D01*
X156203324Y-91938054D01*
X156248018Y-91818834D01*
X156290660Y-91762070D01*
X156357221Y-91737370D01*
X156426570Y-91752578D01*
X156476688Y-91802864D01*
X156492000Y-91863064D01*
X156492000Y-93386936D01*
X156471998Y-93455057D01*
X156418342Y-93501550D01*
X156348068Y-93511654D01*
X156283488Y-93482160D01*
X156248018Y-93431166D01*
X156203324Y-93311946D01*
X156194786Y-93296351D01*
X156118285Y-93194276D01*
X156105724Y-93181715D01*
X156003649Y-93105214D01*
X155988054Y-93096676D01*
X155867606Y-93051522D01*
X155852351Y-93047895D01*
X155801486Y-93042369D01*
X155794672Y-93042000D01*
X155072115Y-93042000D01*
X155056876Y-93046475D01*
X155055671Y-93047865D01*
X155054000Y-93055548D01*
X155054000Y-96939884D01*
X155058475Y-96955123D01*
X155059865Y-96956328D01*
X155067548Y-96957999D01*
X155794669Y-96957999D01*
X155801490Y-96957629D01*
X155852352Y-96952105D01*
X155867604Y-96948479D01*
X155988054Y-96903324D01*
X156003649Y-96894786D01*
X156105724Y-96818285D01*
X156118285Y-96805724D01*
X156194786Y-96703649D01*
X156203324Y-96688054D01*
X156248018Y-96568834D01*
X156290660Y-96512070D01*
X156357221Y-96487370D01*
X156426570Y-96502578D01*
X156476688Y-96552864D01*
X156492000Y-96613064D01*
X156492000Y-98136936D01*
X156471998Y-98205057D01*
X156418342Y-98251550D01*
X156348068Y-98261654D01*
X156283488Y-98232160D01*
X156248018Y-98181166D01*
X156203324Y-98061946D01*
X156194786Y-98046351D01*
X156118285Y-97944276D01*
X156105724Y-97931715D01*
X156003649Y-97855214D01*
X155988054Y-97846676D01*
X155867606Y-97801522D01*
X155852351Y-97797895D01*
X155801486Y-97792369D01*
X155794672Y-97792000D01*
X155072115Y-97792000D01*
X155056876Y-97796475D01*
X155055671Y-97797865D01*
X155054000Y-97805548D01*
X155054000Y-100164885D01*
X155058475Y-100180124D01*
X155059865Y-100181329D01*
X155067548Y-100183000D01*
X155296657Y-100183000D01*
X155302805Y-100182699D01*
X155440603Y-100169188D01*
X155452638Y-100166805D01*
X155630076Y-100113233D01*
X155641416Y-100108559D01*
X155805077Y-100021540D01*
X155815294Y-100014751D01*
X155958933Y-99897603D01*
X155967637Y-99888959D01*
X156085784Y-99746144D01*
X156092644Y-99735973D01*
X156180804Y-99572924D01*
X156185556Y-99561619D01*
X156240367Y-99384554D01*
X156242574Y-99373802D01*
X156275866Y-99311095D01*
X156337775Y-99276342D01*
X156408646Y-99280576D01*
X156465976Y-99322454D01*
X156491565Y-99388679D01*
X156492000Y-99399140D01*
X156492000Y-112366000D01*
X156471998Y-112434121D01*
X156418342Y-112480614D01*
X156366000Y-112492000D01*
X144244161Y-112492000D01*
X144176040Y-112471998D01*
X144129547Y-112418342D01*
X144119443Y-112348068D01*
X144148937Y-112283488D01*
X144155066Y-112276904D01*
X144387800Y-112044171D01*
X144715586Y-111716385D01*
X144777898Y-111682360D01*
X144848714Y-111687425D01*
X144905506Y-111729916D01*
X144941739Y-111778261D01*
X145058295Y-111865615D01*
X145194684Y-111916745D01*
X145256866Y-111923500D01*
X147253134Y-111923500D01*
X147315316Y-111916745D01*
X147451705Y-111865615D01*
X147568261Y-111778261D01*
X147655615Y-111661705D01*
X147706745Y-111525316D01*
X147713500Y-111463134D01*
X147713500Y-110886866D01*
X147710973Y-110863605D01*
X147710973Y-110836395D01*
X147713500Y-110813134D01*
X147713500Y-110236866D01*
X147710973Y-110213605D01*
X147710973Y-110186395D01*
X147713500Y-110163134D01*
X147713500Y-109586866D01*
X147710973Y-109563605D01*
X147710973Y-109536395D01*
X147713500Y-109513134D01*
X147713500Y-109409500D01*
X147721368Y-109382703D01*
X151140743Y-109382703D01*
X151141302Y-109386947D01*
X151141302Y-109386951D01*
X151149393Y-109448405D01*
X151178268Y-109667734D01*
X151179401Y-109671874D01*
X151179401Y-109671876D01*
X151182661Y-109683793D01*
X151254129Y-109945036D01*
X151255813Y-109948984D01*
X151347721Y-110164457D01*
X151366923Y-110209476D01*
X151514561Y-110456161D01*
X151694313Y-110680528D01*
X151902851Y-110878423D01*
X152136317Y-111046186D01*
X152140112Y-111048195D01*
X152140113Y-111048196D01*
X152161869Y-111059715D01*
X152390392Y-111180712D01*
X152414699Y-111189607D01*
X152627683Y-111267548D01*
X152660373Y-111279511D01*
X152941264Y-111340755D01*
X152969841Y-111343004D01*
X153164282Y-111358307D01*
X153164291Y-111358307D01*
X153166739Y-111358500D01*
X153322271Y-111358500D01*
X153324407Y-111358354D01*
X153324418Y-111358354D01*
X153532548Y-111344165D01*
X153532554Y-111344164D01*
X153536825Y-111343873D01*
X153541020Y-111343004D01*
X153541022Y-111343004D01*
X153677583Y-111314724D01*
X153818342Y-111285574D01*
X154089343Y-111189607D01*
X154344812Y-111057750D01*
X154348313Y-111055289D01*
X154348317Y-111055287D01*
X154528968Y-110928323D01*
X154580023Y-110892441D01*
X154665367Y-110813134D01*
X154787479Y-110699661D01*
X154787481Y-110699658D01*
X154790622Y-110696740D01*
X154972713Y-110474268D01*
X155122927Y-110229142D01*
X155135720Y-110200000D01*
X155236757Y-109969830D01*
X155238483Y-109965898D01*
X155272493Y-109846507D01*
X155316068Y-109693534D01*
X155317244Y-109689406D01*
X155357751Y-109404784D01*
X155357845Y-109386951D01*
X155359235Y-109121583D01*
X155359235Y-109121576D01*
X155359257Y-109117297D01*
X155358344Y-109110357D01*
X155330562Y-108899340D01*
X155321732Y-108832266D01*
X155245871Y-108554964D01*
X155229006Y-108515424D01*
X155134763Y-108294476D01*
X155134761Y-108294472D01*
X155133077Y-108290524D01*
X155044302Y-108142192D01*
X154987643Y-108047521D01*
X154987640Y-108047517D01*
X154985439Y-108043839D01*
X154805687Y-107819472D01*
X154631412Y-107654091D01*
X154600258Y-107624527D01*
X154600255Y-107624525D01*
X154597149Y-107621577D01*
X154363683Y-107453814D01*
X154341843Y-107442250D01*
X154268534Y-107403435D01*
X154109608Y-107319288D01*
X153905825Y-107244714D01*
X153843658Y-107221964D01*
X153843656Y-107221963D01*
X153839627Y-107220489D01*
X153558736Y-107159245D01*
X153527685Y-107156801D01*
X153335718Y-107141693D01*
X153335709Y-107141693D01*
X153333261Y-107141500D01*
X153177729Y-107141500D01*
X153175593Y-107141646D01*
X153175582Y-107141646D01*
X152967452Y-107155835D01*
X152967446Y-107155836D01*
X152963175Y-107156127D01*
X152958980Y-107156996D01*
X152958978Y-107156996D01*
X152840237Y-107181586D01*
X152681658Y-107214426D01*
X152410657Y-107310393D01*
X152330240Y-107351899D01*
X152170880Y-107434151D01*
X152155188Y-107442250D01*
X152151687Y-107444711D01*
X152151683Y-107444713D01*
X152086148Y-107490772D01*
X151919977Y-107607559D01*
X151884762Y-107640283D01*
X151781382Y-107736350D01*
X151709378Y-107803260D01*
X151527287Y-108025732D01*
X151377073Y-108270858D01*
X151375347Y-108274791D01*
X151375346Y-108274792D01*
X151318338Y-108404661D01*
X151261517Y-108534102D01*
X151182756Y-108810594D01*
X151142249Y-109095216D01*
X151142227Y-109099505D01*
X151142226Y-109099512D01*
X151140765Y-109378417D01*
X151140743Y-109382703D01*
X147721368Y-109382703D01*
X147733502Y-109341379D01*
X147787158Y-109294886D01*
X147839500Y-109283500D01*
X148150286Y-109283500D01*
X148158856Y-109283792D01*
X148208974Y-109287209D01*
X148208978Y-109287209D01*
X148216550Y-109287725D01*
X148224027Y-109286420D01*
X148224028Y-109286420D01*
X148250506Y-109281799D01*
X148279501Y-109276738D01*
X148286019Y-109275777D01*
X148349440Y-109268102D01*
X148356541Y-109265419D01*
X148359150Y-109264778D01*
X148375460Y-109260315D01*
X148377996Y-109259550D01*
X148385482Y-109258243D01*
X148443998Y-109232556D01*
X148450102Y-109230065D01*
X148502746Y-109210173D01*
X148502747Y-109210172D01*
X148509854Y-109207487D01*
X148516117Y-109203183D01*
X148518483Y-109201946D01*
X148533295Y-109193701D01*
X148535549Y-109192368D01*
X148542503Y-109189315D01*
X148593200Y-109150413D01*
X148598530Y-109146541D01*
X148644918Y-109114661D01*
X148644923Y-109114656D01*
X148651179Y-109110357D01*
X148692634Y-109063829D01*
X148697614Y-109058554D01*
X149607259Y-108148909D01*
X149614524Y-108142192D01*
X149619946Y-108137561D01*
X149655131Y-108107511D01*
X149694970Y-108052070D01*
X149698121Y-108047872D01*
X149740252Y-107994140D01*
X149743378Y-107987217D01*
X149747221Y-107980871D01*
X149750766Y-107974422D01*
X149755200Y-107968252D01*
X149758035Y-107961200D01*
X149780668Y-107904900D01*
X149782738Y-107900046D01*
X149807695Y-107844772D01*
X149810821Y-107837849D01*
X149812206Y-107830378D01*
X149814412Y-107823336D01*
X149816326Y-107816195D01*
X149819161Y-107809142D01*
X149828780Y-107741553D01*
X149829632Y-107736350D01*
X149840687Y-107676703D01*
X149842071Y-107669236D01*
X149841634Y-107661655D01*
X149842111Y-107654069D01*
X149842462Y-107654091D01*
X149842734Y-107647593D01*
X149842429Y-107647570D01*
X149842742Y-107643447D01*
X149843323Y-107639369D01*
X149843480Y-107624422D01*
X149836328Y-107565326D01*
X149835625Y-107557450D01*
X149833319Y-107517447D01*
X149832200Y-107498037D01*
X149829967Y-107490780D01*
X149829966Y-107490772D01*
X149828887Y-107487266D01*
X149824231Y-107465362D01*
X149823790Y-107461718D01*
X149822878Y-107454180D01*
X149801830Y-107398479D01*
X149799276Y-107391016D01*
X149791744Y-107366530D01*
X149790212Y-107361551D01*
X149784011Y-107341394D01*
X149784010Y-107341392D01*
X149781777Y-107334133D01*
X149775995Y-107324472D01*
X149766245Y-107304304D01*
X149764947Y-107300869D01*
X149762263Y-107293766D01*
X149728551Y-107244714D01*
X149724276Y-107238055D01*
X149704774Y-107205470D01*
X149693713Y-107186988D01*
X149685785Y-107178976D01*
X149671511Y-107161721D01*
X149669435Y-107158700D01*
X149669434Y-107158699D01*
X149665133Y-107152441D01*
X149620689Y-107112842D01*
X149614953Y-107107398D01*
X149578438Y-107070500D01*
X149578437Y-107070499D01*
X149573091Y-107065097D01*
X149563492Y-107059215D01*
X149545501Y-107045853D01*
X149542769Y-107043418D01*
X149542765Y-107043416D01*
X149537097Y-107038365D01*
X149530385Y-107034811D01*
X149530382Y-107034809D01*
X149484491Y-107010511D01*
X149477639Y-107006604D01*
X149426877Y-106975497D01*
X149416150Y-106972074D01*
X149395502Y-106963394D01*
X149385545Y-106958122D01*
X149327808Y-106943619D01*
X149320195Y-106941450D01*
X149318051Y-106940766D01*
X149263511Y-106923360D01*
X149252275Y-106922594D01*
X149230157Y-106919091D01*
X149219227Y-106916346D01*
X149211626Y-106916306D01*
X149211624Y-106916306D01*
X149196749Y-106916228D01*
X149128735Y-106895869D01*
X149089295Y-106854936D01*
X149067841Y-106819088D01*
X149067838Y-106819084D01*
X149063937Y-106812566D01*
X149056009Y-106804554D01*
X149041735Y-106787299D01*
X149039662Y-106784283D01*
X149035357Y-106778019D01*
X149021524Y-106765694D01*
X148990930Y-106738435D01*
X148985190Y-106732989D01*
X148948660Y-106696075D01*
X148948659Y-106696074D01*
X148943316Y-106690675D01*
X148936840Y-106686707D01*
X148936838Y-106686705D01*
X148933714Y-106684791D01*
X148915732Y-106671436D01*
X148912996Y-106668998D01*
X148912989Y-106668993D01*
X148907321Y-106663943D01*
X148854731Y-106636098D01*
X148847857Y-106632177D01*
X148803579Y-106605044D01*
X148803574Y-106605042D01*
X148797101Y-106601075D01*
X148786374Y-106597652D01*
X148765726Y-106588972D01*
X148755769Y-106583700D01*
X148698032Y-106569197D01*
X148690419Y-106567028D01*
X148688275Y-106566344D01*
X148633735Y-106548938D01*
X148622499Y-106548172D01*
X148600381Y-106544669D01*
X148589451Y-106541924D01*
X148581852Y-106541884D01*
X148581850Y-106541884D01*
X148557433Y-106541757D01*
X148529922Y-106541613D01*
X148522031Y-106541324D01*
X148489842Y-106539129D01*
X148477025Y-106538255D01*
X148410423Y-106513665D01*
X148367688Y-106456971D01*
X148362388Y-106386172D01*
X148396502Y-106323452D01*
X153072736Y-101647218D01*
X153085127Y-101636351D01*
X153103939Y-101621916D01*
X153110489Y-101616890D01*
X153134976Y-101584978D01*
X153134980Y-101584974D01*
X153208026Y-101489779D01*
X153269340Y-101341754D01*
X153276502Y-101287352D01*
X153285002Y-101222788D01*
X153285002Y-101222783D01*
X153290252Y-101182903D01*
X153286080Y-101151210D01*
X153285002Y-101134765D01*
X153285002Y-99816946D01*
X153305004Y-99748825D01*
X153358660Y-99702332D01*
X153428934Y-99692228D01*
X153493514Y-99721722D01*
X153509199Y-99737994D01*
X153622468Y-99878873D01*
X153631046Y-99887632D01*
X153773039Y-100006778D01*
X153783159Y-100013708D01*
X153945585Y-100103002D01*
X153956858Y-100107834D01*
X154133538Y-100163880D01*
X154145532Y-100166430D01*
X154289761Y-100182607D01*
X154296785Y-100183000D01*
X154527885Y-100183000D01*
X154543124Y-100178525D01*
X154544329Y-100177135D01*
X154546000Y-100169452D01*
X154546000Y-97810116D01*
X154541525Y-97794877D01*
X154540135Y-97793672D01*
X154532452Y-97792001D01*
X154139671Y-97792001D01*
X154071550Y-97771999D01*
X154025057Y-97718343D01*
X154014953Y-97648069D01*
X154023260Y-97617788D01*
X154069340Y-97506542D01*
X154075016Y-97463427D01*
X154085002Y-97387576D01*
X154085002Y-97387571D01*
X154090252Y-97347691D01*
X154086080Y-97315998D01*
X154085002Y-97299555D01*
X154085002Y-97084000D01*
X154105004Y-97015879D01*
X154158660Y-96969386D01*
X154211002Y-96958000D01*
X154527885Y-96958000D01*
X154543124Y-96953525D01*
X154544329Y-96952135D01*
X154546000Y-96944452D01*
X154546000Y-93060116D01*
X154541525Y-93044877D01*
X154540135Y-93043672D01*
X154532452Y-93042001D01*
X153805331Y-93042001D01*
X153798510Y-93042371D01*
X153747648Y-93047895D01*
X153732396Y-93051521D01*
X153611946Y-93096676D01*
X153596351Y-93105214D01*
X153494276Y-93181715D01*
X153481716Y-93194275D01*
X153444876Y-93243431D01*
X153388017Y-93285947D01*
X153317198Y-93290973D01*
X153254905Y-93256913D01*
X153243223Y-93243432D01*
X153219808Y-93212189D01*
X153163261Y-93136739D01*
X153046705Y-93049385D01*
X152910316Y-92998255D01*
X152848134Y-92991500D01*
X151672000Y-92991500D01*
X151603879Y-92971498D01*
X151557386Y-92917842D01*
X151546000Y-92865500D01*
X151546000Y-92502885D01*
X152054000Y-92502885D01*
X152058475Y-92518124D01*
X152059865Y-92519329D01*
X152067548Y-92521000D01*
X152883986Y-92521000D01*
X152897517Y-92517027D01*
X152898637Y-92509232D01*
X152864154Y-92392068D01*
X152859561Y-92380700D01*
X152771414Y-92212089D01*
X152764698Y-92201827D01*
X152645485Y-92053557D01*
X152636897Y-92044787D01*
X152491162Y-91922501D01*
X152481031Y-91915563D01*
X152314308Y-91823906D01*
X152303038Y-91819076D01*
X152121684Y-91761548D01*
X152109692Y-91758999D01*
X152072002Y-91754771D01*
X152057472Y-91757324D01*
X152054000Y-91769868D01*
X152054000Y-92502885D01*
X151546000Y-92502885D01*
X151546000Y-91770217D01*
X151541764Y-91755790D01*
X151529411Y-91753729D01*
X151504519Y-91756170D01*
X151492481Y-91758553D01*
X151310349Y-91813542D01*
X151299007Y-91818217D01*
X151131023Y-91907535D01*
X151120807Y-91914322D01*
X150973366Y-92034572D01*
X150964662Y-92043216D01*
X150843390Y-92189809D01*
X150836530Y-92199980D01*
X150746038Y-92367342D01*
X150741287Y-92378644D01*
X150718234Y-92453115D01*
X150678982Y-92512274D01*
X150613978Y-92540821D01*
X150543859Y-92529692D01*
X150502921Y-92498686D01*
X150477561Y-92469615D01*
X150425280Y-92432871D01*
X150419986Y-92428939D01*
X150375693Y-92394209D01*
X150369718Y-92389524D01*
X150362802Y-92386401D01*
X150360516Y-92385017D01*
X150345835Y-92376643D01*
X150343475Y-92375378D01*
X150337261Y-92371010D01*
X150330182Y-92368250D01*
X150330180Y-92368249D01*
X150277725Y-92347798D01*
X150271656Y-92345247D01*
X150213427Y-92318955D01*
X150205960Y-92317571D01*
X150203405Y-92316770D01*
X150187152Y-92312141D01*
X150184572Y-92311478D01*
X150177491Y-92308718D01*
X150169960Y-92307727D01*
X150169958Y-92307726D01*
X150139163Y-92303672D01*
X150114139Y-92300378D01*
X150107641Y-92299348D01*
X150044814Y-92287704D01*
X150037234Y-92288141D01*
X150037233Y-92288141D01*
X149982608Y-92291291D01*
X149975354Y-92291500D01*
X149434500Y-92291500D01*
X149366379Y-92271498D01*
X149319886Y-92217842D01*
X149308500Y-92165500D01*
X149308500Y-91744669D01*
X153342001Y-91744669D01*
X153342371Y-91751490D01*
X153347895Y-91802352D01*
X153351521Y-91817604D01*
X153396676Y-91938054D01*
X153405214Y-91953649D01*
X153481715Y-92055724D01*
X153494276Y-92068285D01*
X153596351Y-92144786D01*
X153611946Y-92153324D01*
X153732394Y-92198478D01*
X153747649Y-92202105D01*
X153798514Y-92207631D01*
X153805328Y-92208000D01*
X154527885Y-92208000D01*
X154543124Y-92203525D01*
X154544329Y-92202135D01*
X154546000Y-92194452D01*
X154546000Y-91534615D01*
X154541525Y-91519376D01*
X154540135Y-91518171D01*
X154532452Y-91516500D01*
X153360116Y-91516500D01*
X153344877Y-91520975D01*
X153343672Y-91522365D01*
X153342001Y-91530048D01*
X153342001Y-91744669D01*
X149308500Y-91744669D01*
X149308500Y-90567795D01*
X153378544Y-90567795D01*
X153385299Y-90571000D01*
X154527885Y-90571000D01*
X154543124Y-90566525D01*
X154544329Y-90565135D01*
X154546000Y-90557452D01*
X154546000Y-89835115D01*
X154541525Y-89819876D01*
X154540135Y-89818671D01*
X154532452Y-89817000D01*
X154303343Y-89817000D01*
X154297195Y-89817301D01*
X154159397Y-89830812D01*
X154147362Y-89833195D01*
X153969924Y-89886767D01*
X153958584Y-89891441D01*
X153794923Y-89978460D01*
X153784706Y-89985249D01*
X153641067Y-90102397D01*
X153632363Y-90111041D01*
X153514216Y-90253856D01*
X153507356Y-90264027D01*
X153419196Y-90427076D01*
X153414444Y-90438381D01*
X153378750Y-90553692D01*
X153378544Y-90567795D01*
X149308500Y-90567795D01*
X149308500Y-84276866D01*
X149301745Y-84214684D01*
X149250615Y-84078295D01*
X149163261Y-83961739D01*
X149046705Y-83874385D01*
X148910316Y-83823255D01*
X148848134Y-83816500D01*
X146751866Y-83816500D01*
X146689684Y-83823255D01*
X146553295Y-83874385D01*
X146436739Y-83961739D01*
X146349385Y-84078295D01*
X146298255Y-84214684D01*
X146291500Y-84276866D01*
X146291500Y-89804340D01*
X146271498Y-89872461D01*
X146254595Y-89893435D01*
X145194950Y-90953080D01*
X145132638Y-90987106D01*
X145061823Y-90982041D01*
X145004987Y-90939494D01*
X144998711Y-90930288D01*
X144932212Y-90822827D01*
X144923176Y-90811426D01*
X144812571Y-90701014D01*
X144801160Y-90692002D01*
X144668120Y-90609996D01*
X144654939Y-90603849D01*
X144506186Y-90554509D01*
X144492810Y-90551642D01*
X144401903Y-90542328D01*
X144395486Y-90542000D01*
X144372115Y-90542000D01*
X144356876Y-90546475D01*
X144355671Y-90547865D01*
X144354000Y-90555548D01*
X144354000Y-91628000D01*
X144333998Y-91696121D01*
X144280342Y-91742614D01*
X144228000Y-91754000D01*
X143146013Y-91754000D01*
X143077892Y-91733998D01*
X143047611Y-91701710D01*
X143045172Y-91703538D01*
X142963285Y-91594276D01*
X142950724Y-91581715D01*
X142842794Y-91500826D01*
X142800279Y-91443967D01*
X142795253Y-91373148D01*
X142829313Y-91310855D01*
X142842794Y-91299174D01*
X142945615Y-91222114D01*
X143012121Y-91197266D01*
X143081504Y-91212319D01*
X143103693Y-91227716D01*
X143122865Y-91244329D01*
X143130548Y-91246000D01*
X143827885Y-91246000D01*
X143843124Y-91241525D01*
X143844329Y-91240135D01*
X143846000Y-91232452D01*
X143846000Y-90560115D01*
X143841525Y-90544876D01*
X143840135Y-90543671D01*
X143832452Y-90542000D01*
X143804562Y-90542000D01*
X143798047Y-90542337D01*
X143705943Y-90551894D01*
X143692544Y-90554788D01*
X143543893Y-90604381D01*
X143530714Y-90610555D01*
X143397827Y-90692788D01*
X143386426Y-90701824D01*
X143318173Y-90770196D01*
X143255890Y-90804275D01*
X143185070Y-90799272D01*
X143128198Y-90756775D01*
X143103329Y-90690276D01*
X143103000Y-90681178D01*
X143103000Y-90422115D01*
X143098525Y-90406876D01*
X143097135Y-90405671D01*
X143089452Y-90404000D01*
X140505116Y-90404000D01*
X140489877Y-90408475D01*
X140488672Y-90409865D01*
X140487001Y-90417548D01*
X140487001Y-90894669D01*
X140487371Y-90901490D01*
X140492895Y-90952352D01*
X140496521Y-90967604D01*
X140541676Y-91088054D01*
X140550214Y-91103649D01*
X140626715Y-91205724D01*
X140639276Y-91218285D01*
X140747206Y-91299174D01*
X140789721Y-91356033D01*
X140794747Y-91426852D01*
X140760687Y-91489145D01*
X140747206Y-91500826D01*
X140639276Y-91581715D01*
X140626715Y-91594276D01*
X140550214Y-91696351D01*
X140541676Y-91711946D01*
X140496522Y-91832394D01*
X140492895Y-91847649D01*
X140487369Y-91898514D01*
X140487000Y-91905328D01*
X140487000Y-92377885D01*
X140491475Y-92393124D01*
X140492865Y-92394329D01*
X140500548Y-92396000D01*
X141923000Y-92396000D01*
X141991121Y-92416002D01*
X142037614Y-92469658D01*
X142049000Y-92522000D01*
X142049000Y-93839884D01*
X142053475Y-93855123D01*
X142054865Y-93856328D01*
X142062548Y-93857999D01*
X142639669Y-93857999D01*
X142646490Y-93857629D01*
X142697352Y-93852105D01*
X142712604Y-93848479D01*
X142833054Y-93803324D01*
X142848649Y-93794786D01*
X142950724Y-93718285D01*
X142963284Y-93705725D01*
X143011706Y-93641115D01*
X143068565Y-93598599D01*
X143139384Y-93593573D01*
X143201677Y-93627633D01*
X143219677Y-93650376D01*
X143255646Y-93708500D01*
X143271248Y-93733713D01*
X143276430Y-93738886D01*
X143354518Y-93816838D01*
X143388597Y-93879120D01*
X143391500Y-93906011D01*
X143391500Y-97154340D01*
X143371498Y-97222461D01*
X143354595Y-97243435D01*
X143318595Y-97279435D01*
X143256283Y-97313461D01*
X143185468Y-97308396D01*
X143128632Y-97265849D01*
X143103821Y-97199329D01*
X143103500Y-97190340D01*
X143103500Y-96401866D01*
X143096745Y-96339684D01*
X143045615Y-96203295D01*
X142958261Y-96086739D01*
X142841705Y-95999385D01*
X142705316Y-95948255D01*
X142643134Y-95941500D01*
X140946866Y-95941500D01*
X140884684Y-95948255D01*
X140748295Y-95999385D01*
X140631739Y-96086739D01*
X140544385Y-96203295D01*
X140541233Y-96211703D01*
X140496029Y-96332285D01*
X140493255Y-96339684D01*
X140492628Y-96345453D01*
X140457874Y-96406291D01*
X140394919Y-96439113D01*
X140370507Y-96441500D01*
X135219493Y-96441500D01*
X135151372Y-96421498D01*
X135104879Y-96367842D01*
X135097457Y-96346237D01*
X135096745Y-96339684D01*
X135093972Y-96332285D01*
X135048767Y-96211703D01*
X135045615Y-96203295D01*
X134958261Y-96086739D01*
X134841705Y-95999385D01*
X134705316Y-95948255D01*
X134643134Y-95941500D01*
X133084500Y-95941500D01*
X133016379Y-95921498D01*
X132969886Y-95867842D01*
X132958500Y-95815500D01*
X132958500Y-93984000D01*
X132978502Y-93915879D01*
X133032158Y-93869386D01*
X133084500Y-93858000D01*
X133522885Y-93858000D01*
X133538124Y-93853525D01*
X133539329Y-93852135D01*
X133541000Y-93844452D01*
X133541000Y-93839884D01*
X134049000Y-93839884D01*
X134053475Y-93855123D01*
X134054865Y-93856328D01*
X134062548Y-93857999D01*
X134639669Y-93857999D01*
X134646490Y-93857629D01*
X134697352Y-93852105D01*
X134712604Y-93848479D01*
X134833054Y-93803324D01*
X134848649Y-93794786D01*
X134950724Y-93718285D01*
X134963285Y-93705724D01*
X135039786Y-93603649D01*
X135048324Y-93588054D01*
X135093478Y-93467606D01*
X135097105Y-93452351D01*
X135102631Y-93401486D01*
X135103000Y-93394672D01*
X135103000Y-93394669D01*
X140487001Y-93394669D01*
X140487371Y-93401490D01*
X140492895Y-93452352D01*
X140496521Y-93467604D01*
X140541676Y-93588054D01*
X140550214Y-93603649D01*
X140626715Y-93705724D01*
X140639276Y-93718285D01*
X140741351Y-93794786D01*
X140756946Y-93803324D01*
X140877394Y-93848478D01*
X140892649Y-93852105D01*
X140943514Y-93857631D01*
X140950328Y-93858000D01*
X141522885Y-93858000D01*
X141538124Y-93853525D01*
X141539329Y-93852135D01*
X141541000Y-93844452D01*
X141541000Y-92922115D01*
X141536525Y-92906876D01*
X141535135Y-92905671D01*
X141527452Y-92904000D01*
X140505116Y-92904000D01*
X140489877Y-92908475D01*
X140488672Y-92909865D01*
X140487001Y-92917548D01*
X140487001Y-93394669D01*
X135103000Y-93394669D01*
X135103000Y-92922115D01*
X135098525Y-92906876D01*
X135097135Y-92905671D01*
X135089452Y-92904000D01*
X134067115Y-92904000D01*
X134051876Y-92908475D01*
X134050671Y-92909865D01*
X134049000Y-92917548D01*
X134049000Y-93839884D01*
X133541000Y-93839884D01*
X133541000Y-92522000D01*
X133561002Y-92453879D01*
X133614658Y-92407386D01*
X133667000Y-92396000D01*
X135084884Y-92396000D01*
X135100123Y-92391525D01*
X135101328Y-92390135D01*
X135102999Y-92382452D01*
X135102999Y-91905331D01*
X135102629Y-91898510D01*
X135097105Y-91847648D01*
X135093479Y-91832396D01*
X135048324Y-91711946D01*
X135039786Y-91696351D01*
X134963285Y-91594276D01*
X134950724Y-91581715D01*
X134842794Y-91500826D01*
X134800279Y-91443967D01*
X134795253Y-91373148D01*
X134829313Y-91310855D01*
X134842794Y-91299174D01*
X134950724Y-91218285D01*
X134963285Y-91205724D01*
X135039786Y-91103649D01*
X135048324Y-91088054D01*
X135093478Y-90967606D01*
X135097105Y-90952351D01*
X135102631Y-90901486D01*
X135103000Y-90894672D01*
X135103000Y-90422115D01*
X135098525Y-90406876D01*
X135097135Y-90405671D01*
X135089452Y-90404000D01*
X132505116Y-90404000D01*
X132487080Y-90409296D01*
X132416084Y-90409296D01*
X132362487Y-90377495D01*
X132250405Y-90265413D01*
X132216379Y-90203101D01*
X132213500Y-90176318D01*
X132213500Y-90056866D01*
X132206745Y-89994684D01*
X132195328Y-89964229D01*
X132190145Y-89893423D01*
X132195326Y-89875776D01*
X132206745Y-89845316D01*
X132213500Y-89783134D01*
X132213500Y-89334031D01*
X132233502Y-89265910D01*
X132287158Y-89219417D01*
X132321850Y-89209751D01*
X132324602Y-89209794D01*
X132328268Y-89208954D01*
X132332031Y-89208974D01*
X132339415Y-89207201D01*
X132346963Y-89206328D01*
X132347134Y-89207805D01*
X132409578Y-89210929D01*
X132467311Y-89252250D01*
X132493539Y-89318224D01*
X132493344Y-89343507D01*
X132487369Y-89398512D01*
X132487000Y-89405328D01*
X132487000Y-89877885D01*
X132491475Y-89893124D01*
X132492865Y-89894329D01*
X132500548Y-89896000D01*
X133522885Y-89896000D01*
X133538124Y-89891525D01*
X133539329Y-89890135D01*
X133541000Y-89882452D01*
X133541000Y-89877885D01*
X134049000Y-89877885D01*
X134053475Y-89893124D01*
X134054865Y-89894329D01*
X134062548Y-89896000D01*
X135084884Y-89896000D01*
X135100123Y-89891525D01*
X135101328Y-89890135D01*
X135102999Y-89882452D01*
X135102999Y-89877885D01*
X140487000Y-89877885D01*
X140491475Y-89893124D01*
X140492865Y-89894329D01*
X140500548Y-89896000D01*
X141522885Y-89896000D01*
X141538124Y-89891525D01*
X141539329Y-89890135D01*
X141541000Y-89882452D01*
X141541000Y-89877885D01*
X142049000Y-89877885D01*
X142053475Y-89893124D01*
X142054865Y-89894329D01*
X142062548Y-89896000D01*
X143084884Y-89896000D01*
X143100123Y-89891525D01*
X143101328Y-89890135D01*
X143102999Y-89882452D01*
X143102999Y-89405331D01*
X143102629Y-89398510D01*
X143097105Y-89347648D01*
X143093479Y-89332396D01*
X143048324Y-89211946D01*
X143039786Y-89196351D01*
X142963285Y-89094276D01*
X142950724Y-89081715D01*
X142848649Y-89005214D01*
X142833054Y-88996676D01*
X142712606Y-88951522D01*
X142697351Y-88947895D01*
X142646486Y-88942369D01*
X142639672Y-88942000D01*
X142067115Y-88942000D01*
X142051876Y-88946475D01*
X142050671Y-88947865D01*
X142049000Y-88955548D01*
X142049000Y-89877885D01*
X141541000Y-89877885D01*
X141541000Y-88960116D01*
X141536525Y-88944877D01*
X141535135Y-88943672D01*
X141527452Y-88942001D01*
X140950331Y-88942001D01*
X140943510Y-88942371D01*
X140892648Y-88947895D01*
X140877396Y-88951521D01*
X140756946Y-88996676D01*
X140741351Y-89005214D01*
X140639276Y-89081715D01*
X140626715Y-89094276D01*
X140550214Y-89196351D01*
X140541676Y-89211946D01*
X140496522Y-89332394D01*
X140492895Y-89347649D01*
X140487369Y-89398514D01*
X140487000Y-89405328D01*
X140487000Y-89877885D01*
X135102999Y-89877885D01*
X135102999Y-89405331D01*
X135102629Y-89398510D01*
X135097105Y-89347648D01*
X135093479Y-89332396D01*
X135048324Y-89211946D01*
X135039786Y-89196351D01*
X134963285Y-89094276D01*
X134950724Y-89081715D01*
X134848649Y-89005214D01*
X134833054Y-88996676D01*
X134712606Y-88951522D01*
X134697351Y-88947895D01*
X134646486Y-88942369D01*
X134639672Y-88942000D01*
X134067115Y-88942000D01*
X134051876Y-88946475D01*
X134050671Y-88947865D01*
X134049000Y-88955548D01*
X134049000Y-89877885D01*
X133541000Y-89877885D01*
X133541000Y-88960116D01*
X133536525Y-88944877D01*
X133535135Y-88943672D01*
X133527452Y-88942001D01*
X133022516Y-88942001D01*
X132954395Y-88921999D01*
X132907902Y-88868343D01*
X132897798Y-88798069D01*
X132905125Y-88770226D01*
X132908544Y-88761458D01*
X132909028Y-88760237D01*
X132936550Y-88691772D01*
X132939385Y-88684720D01*
X132939915Y-88680998D01*
X132941282Y-88677491D01*
X132951918Y-88596703D01*
X132952090Y-88595450D01*
X132962966Y-88519031D01*
X132962966Y-88519028D01*
X132963547Y-88514947D01*
X132963704Y-88500000D01*
X132959413Y-88464540D01*
X132958500Y-88449405D01*
X132958500Y-86984500D01*
X132978502Y-86916379D01*
X133032158Y-86869886D01*
X133084500Y-86858500D01*
X134643134Y-86858500D01*
X134705316Y-86851745D01*
X134841705Y-86800615D01*
X134958261Y-86713261D01*
X135045615Y-86596705D01*
X135051120Y-86582022D01*
X135093972Y-86467714D01*
X135093973Y-86467711D01*
X135096745Y-86460316D01*
X135097372Y-86454547D01*
X135132126Y-86393709D01*
X135195081Y-86360887D01*
X135219493Y-86358500D01*
X140370507Y-86358500D01*
X140438628Y-86378502D01*
X140485121Y-86432158D01*
X140492543Y-86453763D01*
X140493255Y-86460316D01*
X140496027Y-86467711D01*
X140496028Y-86467714D01*
X140538880Y-86582022D01*
X140544385Y-86596705D01*
X140631739Y-86713261D01*
X140748295Y-86800615D01*
X140884684Y-86851745D01*
X140946866Y-86858500D01*
X142643134Y-86858500D01*
X142705316Y-86851745D01*
X142841705Y-86800615D01*
X142958261Y-86713261D01*
X143045615Y-86596705D01*
X143096745Y-86460316D01*
X143103500Y-86398134D01*
X143103500Y-85334500D01*
X143123502Y-85266379D01*
X143177158Y-85219886D01*
X143229500Y-85208500D01*
X143241253Y-85208500D01*
X143243232Y-85208516D01*
X143317003Y-85209675D01*
X143317006Y-85209675D01*
X143324602Y-85209794D01*
X143365561Y-85200413D01*
X143378540Y-85198149D01*
X143420242Y-85193102D01*
X143447232Y-85182904D01*
X143463630Y-85177953D01*
X143491759Y-85171510D01*
X143529294Y-85152632D01*
X143541355Y-85147338D01*
X143573552Y-85135172D01*
X143573556Y-85135170D01*
X143580656Y-85132487D01*
X143586916Y-85128185D01*
X143586919Y-85128183D01*
X143604430Y-85116148D01*
X143619183Y-85107423D01*
X143638167Y-85097875D01*
X143638171Y-85097873D01*
X143644958Y-85094459D01*
X143676911Y-85067168D01*
X143687349Y-85059158D01*
X143721981Y-85035357D01*
X143727033Y-85029686D01*
X143727036Y-85029684D01*
X143741176Y-85013814D01*
X143753419Y-85001825D01*
X143775354Y-84983090D01*
X143776857Y-84984850D01*
X143827925Y-84954118D01*
X143891822Y-84954132D01*
X143895788Y-84955173D01*
X143895792Y-84955174D01*
X143903139Y-84957101D01*
X143916403Y-84957309D01*
X143918798Y-84957347D01*
X143939780Y-84959441D01*
X143947717Y-84960912D01*
X143947720Y-84960912D01*
X143955186Y-84962296D01*
X143962767Y-84961859D01*
X143962768Y-84961859D01*
X144010244Y-84959122D01*
X144019473Y-84958929D01*
X144067003Y-84959675D01*
X144067005Y-84959675D01*
X144074602Y-84959794D01*
X144082007Y-84958098D01*
X144082008Y-84958098D01*
X144089871Y-84956297D01*
X144110745Y-84953326D01*
X144111155Y-84953302D01*
X144126386Y-84952424D01*
X144133646Y-84950191D01*
X144133649Y-84950190D01*
X144179087Y-84936211D01*
X144188007Y-84933821D01*
X144234354Y-84923206D01*
X144241759Y-84921510D01*
X144255753Y-84914472D01*
X144275314Y-84906608D01*
X144290289Y-84902001D01*
X144296805Y-84898101D01*
X144296808Y-84898100D01*
X144337611Y-84873681D01*
X144345693Y-84869237D01*
X144394958Y-84844459D01*
X144406875Y-84834281D01*
X144423987Y-84821985D01*
X144437434Y-84813937D01*
X144476624Y-84775155D01*
X144483422Y-84768904D01*
X144519574Y-84738027D01*
X144519577Y-84738024D01*
X144525355Y-84733089D01*
X144534495Y-84720369D01*
X144548187Y-84704338D01*
X144553928Y-84698657D01*
X144553928Y-84698656D01*
X144559325Y-84693316D01*
X144563290Y-84686846D01*
X144563293Y-84686842D01*
X144588137Y-84646299D01*
X144593248Y-84638607D01*
X144620990Y-84600001D01*
X144620991Y-84599999D01*
X144625424Y-84593830D01*
X144631268Y-84579291D01*
X144640741Y-84560457D01*
X144648925Y-84547102D01*
X144665689Y-84494575D01*
X144668816Y-84485890D01*
X144686552Y-84441767D01*
X144689385Y-84434720D01*
X144691591Y-84419220D01*
X144696300Y-84398658D01*
X144698754Y-84390969D01*
X144701063Y-84383735D01*
X144702147Y-84367842D01*
X144704813Y-84328717D01*
X144705776Y-84319545D01*
X144713547Y-84264947D01*
X144713704Y-84250000D01*
X144713210Y-84245914D01*
X144713209Y-84245903D01*
X144712880Y-84243187D01*
X144712347Y-84222846D01*
X144712210Y-84220224D01*
X144712726Y-84212648D01*
X144701737Y-84149686D01*
X144700775Y-84143164D01*
X144694014Y-84087298D01*
X144693102Y-84079758D01*
X144690419Y-84072657D01*
X144689778Y-84070048D01*
X144685309Y-84053715D01*
X144684548Y-84051195D01*
X144683243Y-84043717D01*
X144673322Y-84021116D01*
X144657559Y-83985204D01*
X144655068Y-83979099D01*
X144635175Y-83926456D01*
X144635173Y-83926452D01*
X144632487Y-83919344D01*
X144628184Y-83913083D01*
X144626947Y-83910717D01*
X144618720Y-83895937D01*
X144617369Y-83893652D01*
X144614315Y-83886695D01*
X144609695Y-83880675D01*
X144609692Y-83880669D01*
X144575421Y-83836009D01*
X144571541Y-83830668D01*
X144539661Y-83784280D01*
X144539656Y-83784275D01*
X144535357Y-83778019D01*
X144488829Y-83736564D01*
X144483554Y-83731584D01*
X142520405Y-81768435D01*
X142486379Y-81706123D01*
X142483500Y-81679340D01*
X142483500Y-81195428D01*
X142481200Y-81173256D01*
X142473689Y-81100874D01*
X142472978Y-81094018D01*
X142419308Y-80933151D01*
X142330071Y-80788945D01*
X142324893Y-80783776D01*
X142324889Y-80783771D01*
X142255196Y-80714200D01*
X142221116Y-80651918D01*
X142226119Y-80581098D01*
X142255041Y-80536009D01*
X142295498Y-80495482D01*
X142357780Y-80461403D01*
X142384670Y-80458500D01*
X146604340Y-80458500D01*
X146672461Y-80478502D01*
X146693435Y-80495405D01*
X147841546Y-81643516D01*
X147850462Y-81654351D01*
X147850529Y-81654294D01*
X147855496Y-81660048D01*
X147859730Y-81666349D01*
X147874007Y-81679340D01*
X147909159Y-81711326D01*
X147913454Y-81715424D01*
X147929423Y-81731393D01*
X147938740Y-81738699D01*
X147945773Y-81744642D01*
X147986565Y-81781760D01*
X147993242Y-81785385D01*
X148000331Y-81789234D01*
X148017953Y-81800809D01*
X148030282Y-81810477D01*
X148037204Y-81813602D01*
X148037205Y-81813603D01*
X148080543Y-81833171D01*
X148088815Y-81837277D01*
X148130146Y-81859718D01*
X148137268Y-81863585D01*
X148144615Y-81865512D01*
X148144616Y-81865513D01*
X148152419Y-81867560D01*
X148172293Y-81874598D01*
X148179642Y-81877916D01*
X148179645Y-81877917D01*
X148186573Y-81881045D01*
X148194046Y-81882430D01*
X148240789Y-81891093D01*
X148249803Y-81893108D01*
X148286982Y-81902862D01*
X148303139Y-81907101D01*
X148316197Y-81907306D01*
X148318799Y-81907347D01*
X148339781Y-81909441D01*
X148347718Y-81910912D01*
X148347721Y-81910912D01*
X148355187Y-81912296D01*
X148362768Y-81911859D01*
X148362769Y-81911859D01*
X148410250Y-81909122D01*
X148419478Y-81908929D01*
X148467003Y-81909675D01*
X148467006Y-81909675D01*
X148474602Y-81909794D01*
X148482004Y-81908099D01*
X148482011Y-81908098D01*
X148489869Y-81906298D01*
X148510743Y-81903327D01*
X148512165Y-81903245D01*
X148526386Y-81902425D01*
X148533648Y-81900191D01*
X148579097Y-81886209D01*
X148588016Y-81883819D01*
X148634356Y-81873206D01*
X148634360Y-81873205D01*
X148641759Y-81871510D01*
X148655753Y-81864472D01*
X148675314Y-81856608D01*
X148690289Y-81852001D01*
X148696805Y-81848101D01*
X148696808Y-81848100D01*
X148737611Y-81823681D01*
X148745693Y-81819237D01*
X148794958Y-81794459D01*
X148806875Y-81784281D01*
X148823987Y-81771985D01*
X148837434Y-81763937D01*
X148857945Y-81743640D01*
X148876624Y-81725155D01*
X148883422Y-81718904D01*
X148919574Y-81688027D01*
X148919577Y-81688024D01*
X148925355Y-81683089D01*
X148934495Y-81670369D01*
X148948187Y-81654338D01*
X148948232Y-81654294D01*
X148959325Y-81643316D01*
X148988139Y-81596296D01*
X148993250Y-81588604D01*
X149014542Y-81558973D01*
X149025424Y-81543830D01*
X149029515Y-81533653D01*
X149031266Y-81529298D01*
X149040741Y-81510459D01*
X149044956Y-81503581D01*
X149044958Y-81503577D01*
X149048926Y-81497102D01*
X149065703Y-81444533D01*
X149068817Y-81435884D01*
X149089385Y-81384720D01*
X149090455Y-81377200D01*
X149092422Y-81369860D01*
X149095330Y-81370639D01*
X149119020Y-81318614D01*
X149178704Y-81280165D01*
X149186204Y-81278202D01*
X149209861Y-81272784D01*
X149216647Y-81269371D01*
X149216653Y-81269369D01*
X149223863Y-81265743D01*
X149243412Y-81257883D01*
X149258391Y-81253275D01*
X149264908Y-81249375D01*
X149264912Y-81249373D01*
X149305713Y-81224955D01*
X149313795Y-81220511D01*
X149363060Y-81195733D01*
X149374977Y-81185555D01*
X149392089Y-81173259D01*
X149405536Y-81165211D01*
X149444726Y-81126429D01*
X149451524Y-81120178D01*
X149487676Y-81089301D01*
X149487679Y-81089298D01*
X149493457Y-81084363D01*
X149502597Y-81071643D01*
X149516289Y-81055612D01*
X149522030Y-81049931D01*
X149522030Y-81049930D01*
X149527427Y-81044590D01*
X149531392Y-81038120D01*
X149531395Y-81038116D01*
X149556239Y-80997573D01*
X149561350Y-80989881D01*
X149589092Y-80951275D01*
X149589093Y-80951273D01*
X149593526Y-80945104D01*
X149599370Y-80930565D01*
X149608843Y-80911731D01*
X149617027Y-80898376D01*
X149622029Y-80882703D01*
X151140743Y-80882703D01*
X151141302Y-80886947D01*
X151141302Y-80886951D01*
X151152277Y-80970312D01*
X151178268Y-81167734D01*
X151254129Y-81445036D01*
X151255813Y-81448984D01*
X151362159Y-81698306D01*
X151366923Y-81709476D01*
X151434018Y-81821584D01*
X151504147Y-81938760D01*
X151514561Y-81956161D01*
X151694313Y-82180528D01*
X151725028Y-82209675D01*
X151883798Y-82360342D01*
X151902851Y-82378423D01*
X152021931Y-82463991D01*
X152127635Y-82539947D01*
X152136317Y-82546186D01*
X152140112Y-82548195D01*
X152140113Y-82548196D01*
X152161621Y-82559584D01*
X152390392Y-82680712D01*
X152414699Y-82689607D01*
X152627396Y-82767443D01*
X152660373Y-82779511D01*
X152941264Y-82840755D01*
X152965711Y-82842679D01*
X153164282Y-82858307D01*
X153164291Y-82858307D01*
X153166739Y-82858500D01*
X153322271Y-82858500D01*
X153324407Y-82858354D01*
X153324418Y-82858354D01*
X153532548Y-82844165D01*
X153532554Y-82844164D01*
X153536825Y-82843873D01*
X153541020Y-82843004D01*
X153541022Y-82843004D01*
X153733122Y-82803222D01*
X153818342Y-82785574D01*
X154089343Y-82689607D01*
X154259763Y-82601647D01*
X154341005Y-82559715D01*
X154341006Y-82559715D01*
X154344812Y-82557750D01*
X154348313Y-82555289D01*
X154348317Y-82555287D01*
X154478218Y-82463991D01*
X154580023Y-82392441D01*
X154694782Y-82285800D01*
X154787479Y-82199661D01*
X154787481Y-82199658D01*
X154790622Y-82196740D01*
X154972713Y-81974268D01*
X155122927Y-81729142D01*
X155148843Y-81670105D01*
X155236757Y-81469830D01*
X155238483Y-81465898D01*
X155247037Y-81435871D01*
X155289290Y-81287539D01*
X155317244Y-81189406D01*
X155349232Y-80964643D01*
X155357146Y-80909036D01*
X155357146Y-80909034D01*
X155357751Y-80904784D01*
X155357806Y-80894465D01*
X155359235Y-80621583D01*
X155359235Y-80621576D01*
X155359257Y-80617297D01*
X155358573Y-80612096D01*
X155342190Y-80487660D01*
X155321732Y-80332266D01*
X155245871Y-80054964D01*
X155221905Y-79998777D01*
X155134763Y-79794476D01*
X155134761Y-79794472D01*
X155133077Y-79790524D01*
X155024926Y-79609817D01*
X154987643Y-79547521D01*
X154987640Y-79547517D01*
X154985439Y-79543839D01*
X154805687Y-79319472D01*
X154663395Y-79184442D01*
X154600258Y-79124527D01*
X154600255Y-79124525D01*
X154597149Y-79121577D01*
X154377846Y-78963991D01*
X154367172Y-78956321D01*
X154367171Y-78956320D01*
X154363683Y-78953814D01*
X154341843Y-78942250D01*
X154297746Y-78918902D01*
X154109608Y-78819288D01*
X153907500Y-78745327D01*
X153843658Y-78721964D01*
X153843656Y-78721963D01*
X153839627Y-78720489D01*
X153558736Y-78659245D01*
X153527685Y-78656801D01*
X153335718Y-78641693D01*
X153335709Y-78641693D01*
X153333261Y-78641500D01*
X153177729Y-78641500D01*
X153175593Y-78641646D01*
X153175582Y-78641646D01*
X152967452Y-78655835D01*
X152967446Y-78655836D01*
X152963175Y-78656127D01*
X152958980Y-78656996D01*
X152958978Y-78656996D01*
X152822416Y-78685277D01*
X152681658Y-78714426D01*
X152410657Y-78810393D01*
X152155188Y-78942250D01*
X152151687Y-78944711D01*
X152151683Y-78944713D01*
X152123956Y-78964200D01*
X151919977Y-79107559D01*
X151867603Y-79156228D01*
X151747809Y-79267548D01*
X151709378Y-79303260D01*
X151527287Y-79525732D01*
X151377073Y-79770858D01*
X151375347Y-79774791D01*
X151375346Y-79774792D01*
X151263243Y-80030170D01*
X151261517Y-80034102D01*
X151182756Y-80310594D01*
X151164255Y-80440590D01*
X151144292Y-80580864D01*
X151142249Y-80595216D01*
X151142227Y-80599505D01*
X151142226Y-80599512D01*
X151140800Y-80871815D01*
X151140743Y-80882703D01*
X149622029Y-80882703D01*
X149625504Y-80871815D01*
X149633793Y-80845843D01*
X149636920Y-80837155D01*
X149642490Y-80823299D01*
X149657487Y-80785994D01*
X149659694Y-80770487D01*
X149664402Y-80749931D01*
X149666854Y-80742248D01*
X149666854Y-80742246D01*
X149669164Y-80735009D01*
X149670583Y-80714200D01*
X149672913Y-80680004D01*
X149673876Y-80670832D01*
X149681649Y-80616221D01*
X149681806Y-80601274D01*
X149680982Y-80594465D01*
X149680450Y-80574162D01*
X149680311Y-80571499D01*
X149680827Y-80563922D01*
X149679123Y-80554154D01*
X149669841Y-80500974D01*
X149668878Y-80494448D01*
X149664386Y-80457328D01*
X149661204Y-80431032D01*
X149658521Y-80423931D01*
X149657880Y-80421322D01*
X149653417Y-80405012D01*
X149652652Y-80402476D01*
X149651345Y-80394990D01*
X149625658Y-80336474D01*
X149623167Y-80330370D01*
X149615695Y-80310594D01*
X149600589Y-80270618D01*
X149596285Y-80264355D01*
X149595048Y-80261989D01*
X149586803Y-80247177D01*
X149585470Y-80244923D01*
X149582417Y-80237969D01*
X149543515Y-80187272D01*
X149539643Y-80181942D01*
X149507763Y-80135554D01*
X149507758Y-80135549D01*
X149503459Y-80129293D01*
X149490484Y-80117732D01*
X149456932Y-80087839D01*
X149451656Y-80082858D01*
X147091893Y-77723095D01*
X147057867Y-77660783D01*
X147062932Y-77589968D01*
X147105479Y-77533132D01*
X147171999Y-77508321D01*
X147180988Y-77508000D01*
X156366000Y-77508000D01*
X156434121Y-77528002D01*
G37*
%TD.AperFunction*%
%TA.AperFunction,Conductor*%
G36*
X106164396Y-77528002D02*
G01*
X106210889Y-77581658D01*
X106220993Y-77651932D01*
X106191499Y-77716512D01*
X106171840Y-77734826D01*
X106109276Y-77781715D01*
X106096715Y-77794276D01*
X106020214Y-77896351D01*
X106011676Y-77911946D01*
X105966522Y-78032394D01*
X105962895Y-78047649D01*
X105957369Y-78098514D01*
X105957000Y-78105328D01*
X105957000Y-78727885D01*
X105961475Y-78743124D01*
X105962865Y-78744329D01*
X105970548Y-78746000D01*
X107443000Y-78746000D01*
X107511121Y-78766002D01*
X107557614Y-78819658D01*
X107569000Y-78872000D01*
X107569000Y-80339884D01*
X107573475Y-80355123D01*
X107574865Y-80356328D01*
X107582548Y-80357999D01*
X108209669Y-80357999D01*
X108216490Y-80357629D01*
X108267352Y-80352105D01*
X108282604Y-80348479D01*
X108403054Y-80303324D01*
X108418649Y-80294786D01*
X108520724Y-80218285D01*
X108533285Y-80205724D01*
X108609786Y-80103649D01*
X108618324Y-80088054D01*
X108659225Y-79978952D01*
X108701867Y-79922188D01*
X108768428Y-79897488D01*
X108837777Y-79912696D01*
X108872444Y-79940684D01*
X108897865Y-79970031D01*
X108897869Y-79970035D01*
X108901250Y-79973938D01*
X109073126Y-80116632D01*
X109266000Y-80229338D01*
X109270825Y-80231180D01*
X109270826Y-80231181D01*
X109325435Y-80252034D01*
X109474692Y-80309030D01*
X109479760Y-80310061D01*
X109479763Y-80310062D01*
X109561277Y-80326646D01*
X109693597Y-80353567D01*
X109698772Y-80353757D01*
X109698774Y-80353757D01*
X109911673Y-80361564D01*
X109911677Y-80361564D01*
X109916837Y-80361753D01*
X109921957Y-80361097D01*
X109921959Y-80361097D01*
X110119589Y-80335780D01*
X110189699Y-80346965D01*
X110224694Y-80371664D01*
X113719595Y-83866565D01*
X113753621Y-83928877D01*
X113756500Y-83955660D01*
X113756500Y-84866000D01*
X113736498Y-84934121D01*
X113682842Y-84980614D01*
X113630500Y-84992000D01*
X113467115Y-84992000D01*
X113451876Y-84996475D01*
X113450671Y-84997865D01*
X113449000Y-85005548D01*
X113449000Y-87989884D01*
X113453475Y-88005123D01*
X113454865Y-88006328D01*
X113462548Y-88007999D01*
X113689669Y-88007999D01*
X113696490Y-88007629D01*
X113747352Y-88002105D01*
X113762600Y-87998480D01*
X113785057Y-87990061D01*
X113855864Y-87984878D01*
X113873510Y-87990058D01*
X113904684Y-88001745D01*
X113966866Y-88008500D01*
X114963134Y-88008500D01*
X115025316Y-88001745D01*
X115055771Y-87990328D01*
X115126577Y-87985145D01*
X115144224Y-87990326D01*
X115174684Y-88001745D01*
X115236866Y-88008500D01*
X116170500Y-88008500D01*
X116238621Y-88028502D01*
X116285114Y-88082158D01*
X116296500Y-88134500D01*
X116296500Y-93149340D01*
X116276498Y-93217461D01*
X116259595Y-93238435D01*
X116019480Y-93478550D01*
X116013215Y-93484404D01*
X115969615Y-93522439D01*
X115950600Y-93549495D01*
X115932872Y-93574719D01*
X115928939Y-93580014D01*
X115889524Y-93630282D01*
X115886401Y-93637198D01*
X115885017Y-93639484D01*
X115876643Y-93654165D01*
X115875378Y-93656525D01*
X115871010Y-93662739D01*
X115868250Y-93669818D01*
X115868249Y-93669820D01*
X115847798Y-93722275D01*
X115845247Y-93728344D01*
X115818955Y-93786573D01*
X115817571Y-93794040D01*
X115816770Y-93796595D01*
X115812141Y-93812848D01*
X115811478Y-93815428D01*
X115808718Y-93822509D01*
X115807727Y-93830040D01*
X115807726Y-93830042D01*
X115805829Y-93844452D01*
X115802429Y-93870283D01*
X115800379Y-93885852D01*
X115799348Y-93892359D01*
X115787704Y-93955186D01*
X115788141Y-93962764D01*
X115787975Y-93965399D01*
X115787354Y-93982345D01*
X115787326Y-93984995D01*
X115786335Y-93992526D01*
X115790864Y-94033546D01*
X115793346Y-94056029D01*
X115793897Y-94062594D01*
X115797576Y-94126385D01*
X115799809Y-94133645D01*
X115800279Y-94136256D01*
X115803716Y-94152854D01*
X115804319Y-94155427D01*
X115805153Y-94162975D01*
X115807763Y-94170106D01*
X115807763Y-94170108D01*
X115827109Y-94222975D01*
X115829213Y-94229225D01*
X115847999Y-94290289D01*
X115851899Y-94296806D01*
X115852974Y-94299220D01*
X115860286Y-94314549D01*
X115861474Y-94316882D01*
X115864085Y-94324015D01*
X115899726Y-94377053D01*
X115903245Y-94382599D01*
X115926031Y-94420671D01*
X115936063Y-94437434D01*
X115941405Y-94442832D01*
X115943015Y-94444908D01*
X115953750Y-94458024D01*
X115955492Y-94460042D01*
X115959730Y-94466349D01*
X115965348Y-94471461D01*
X115965349Y-94471462D01*
X116006985Y-94509348D01*
X116011736Y-94513904D01*
X116056684Y-94559325D01*
X116063156Y-94563291D01*
X116065235Y-94564939D01*
X116078743Y-94575081D01*
X116080944Y-94576646D01*
X116086565Y-94581760D01*
X116093239Y-94585383D01*
X116093245Y-94585388D01*
X116142717Y-94612248D01*
X116148405Y-94615532D01*
X116202898Y-94648925D01*
X116210130Y-94651233D01*
X116212534Y-94652334D01*
X116228096Y-94658972D01*
X116230591Y-94659960D01*
X116237268Y-94663585D01*
X116244614Y-94665512D01*
X116244616Y-94665513D01*
X116254474Y-94668099D01*
X116299093Y-94679805D01*
X116305390Y-94681634D01*
X116366265Y-94701062D01*
X116373841Y-94701578D01*
X116376470Y-94702080D01*
X116393179Y-94704816D01*
X116395794Y-94705174D01*
X116403139Y-94707101D01*
X116467033Y-94708104D01*
X116473617Y-94708380D01*
X116482485Y-94708984D01*
X116529776Y-94712209D01*
X116529780Y-94712209D01*
X116537352Y-94712725D01*
X116544826Y-94711420D01*
X116547489Y-94711281D01*
X116564337Y-94709955D01*
X116567005Y-94709675D01*
X116574602Y-94709794D01*
X116608284Y-94702080D01*
X116636875Y-94695532D01*
X116643341Y-94694228D01*
X116698802Y-94684549D01*
X116698804Y-94684548D01*
X116706284Y-94683243D01*
X116713237Y-94680191D01*
X116715774Y-94679425D01*
X116731864Y-94674103D01*
X116734358Y-94673205D01*
X116741759Y-94671510D01*
X116748538Y-94668100D01*
X116748542Y-94668099D01*
X116798835Y-94642804D01*
X116804803Y-94639996D01*
X116856348Y-94617369D01*
X116856349Y-94617369D01*
X116863305Y-94614315D01*
X116869334Y-94609688D01*
X116871633Y-94608329D01*
X116885979Y-94599329D01*
X116888171Y-94597872D01*
X116894958Y-94594459D01*
X116943560Y-94552949D01*
X116948656Y-94548823D01*
X116964683Y-94536525D01*
X116964685Y-94536524D01*
X116967959Y-94534011D01*
X116977479Y-94524491D01*
X116984743Y-94517775D01*
X117019579Y-94488023D01*
X117019582Y-94488019D01*
X117025355Y-94483089D01*
X117029787Y-94476922D01*
X117029792Y-94476916D01*
X117035908Y-94468404D01*
X117049135Y-94452835D01*
X117485520Y-94016450D01*
X117491785Y-94010596D01*
X117529660Y-93977555D01*
X117535385Y-93972561D01*
X117546705Y-93956454D01*
X117602240Y-93912223D01*
X117676573Y-93905785D01*
X117700547Y-93911000D01*
X118587885Y-93911000D01*
X118603124Y-93906525D01*
X118604329Y-93905135D01*
X118606000Y-93897452D01*
X118606000Y-93892885D01*
X119114000Y-93892885D01*
X119118475Y-93908124D01*
X119119865Y-93909329D01*
X119127548Y-93911000D01*
X120422885Y-93911000D01*
X120438124Y-93906525D01*
X120439329Y-93905135D01*
X120441000Y-93897452D01*
X120441000Y-93892885D01*
X120949000Y-93892885D01*
X120953475Y-93908124D01*
X120954865Y-93909329D01*
X120962548Y-93911000D01*
X122257885Y-93911000D01*
X122273124Y-93906525D01*
X122274329Y-93905135D01*
X122276000Y-93897452D01*
X122276000Y-93892885D01*
X122784000Y-93892885D01*
X122788475Y-93908124D01*
X122789865Y-93909329D01*
X122797548Y-93911000D01*
X123684884Y-93911000D01*
X123700123Y-93906525D01*
X123701328Y-93905135D01*
X123702999Y-93897452D01*
X123702999Y-93455331D01*
X123702629Y-93448510D01*
X123697105Y-93397648D01*
X123693479Y-93382396D01*
X123648324Y-93261946D01*
X123639786Y-93246351D01*
X123563285Y-93144276D01*
X123550724Y-93131715D01*
X123448649Y-93055214D01*
X123433054Y-93046676D01*
X123312606Y-93001522D01*
X123297351Y-92997895D01*
X123246486Y-92992369D01*
X123239672Y-92992000D01*
X122802115Y-92992000D01*
X122786876Y-92996475D01*
X122785671Y-92997865D01*
X122784000Y-93005548D01*
X122784000Y-93892885D01*
X122276000Y-93892885D01*
X122276000Y-93010116D01*
X122271525Y-92994877D01*
X122270135Y-92993672D01*
X122262452Y-92992001D01*
X121820331Y-92992001D01*
X121813510Y-92992371D01*
X121762648Y-92997895D01*
X121747394Y-93001522D01*
X121656729Y-93035510D01*
X121585922Y-93040693D01*
X121568271Y-93035510D01*
X121477609Y-93001522D01*
X121462351Y-92997895D01*
X121411486Y-92992369D01*
X121404672Y-92992000D01*
X120967115Y-92992000D01*
X120951876Y-92996475D01*
X120950671Y-92997865D01*
X120949000Y-93005548D01*
X120949000Y-93892885D01*
X120441000Y-93892885D01*
X120441000Y-93010116D01*
X120436525Y-92994877D01*
X120435135Y-92993672D01*
X120427452Y-92992001D01*
X119985331Y-92992001D01*
X119978510Y-92992371D01*
X119927648Y-92997895D01*
X119912394Y-93001522D01*
X119821729Y-93035510D01*
X119750922Y-93040693D01*
X119733271Y-93035510D01*
X119642609Y-93001522D01*
X119627351Y-92997895D01*
X119576486Y-92992369D01*
X119569672Y-92992000D01*
X119132115Y-92992000D01*
X119116876Y-92996475D01*
X119115671Y-92997865D01*
X119114000Y-93005548D01*
X119114000Y-93892885D01*
X118606000Y-93892885D01*
X118606000Y-93010116D01*
X118601525Y-92994877D01*
X118600135Y-92993672D01*
X118592452Y-92992001D01*
X118150331Y-92992001D01*
X118143510Y-92992371D01*
X118092648Y-92997895D01*
X118077396Y-93001521D01*
X117956946Y-93046676D01*
X117941352Y-93055214D01*
X117915064Y-93074915D01*
X117848557Y-93099762D01*
X117779175Y-93084708D01*
X117728945Y-93034534D01*
X117713500Y-92974088D01*
X117713500Y-88134500D01*
X117733502Y-88066379D01*
X117787158Y-88019886D01*
X117839500Y-88008500D01*
X117954340Y-88008500D01*
X118022461Y-88028502D01*
X118043435Y-88045405D01*
X118768255Y-88770226D01*
X119478557Y-89480528D01*
X119484411Y-89486793D01*
X119522439Y-89530385D01*
X119574729Y-89567136D01*
X119579971Y-89571028D01*
X119630282Y-89610476D01*
X119637201Y-89613600D01*
X119639493Y-89614988D01*
X119654165Y-89623357D01*
X119656525Y-89624622D01*
X119662739Y-89628990D01*
X119669818Y-89631750D01*
X119669820Y-89631751D01*
X119722275Y-89652202D01*
X119728344Y-89654753D01*
X119786573Y-89681045D01*
X119794046Y-89682430D01*
X119796612Y-89683234D01*
X119812835Y-89687855D01*
X119815427Y-89688520D01*
X119822509Y-89691282D01*
X119830044Y-89692274D01*
X119885861Y-89699622D01*
X119892377Y-89700654D01*
X119909546Y-89703836D01*
X119955186Y-89712295D01*
X119962766Y-89711858D01*
X119962767Y-89711858D01*
X120017380Y-89708709D01*
X120024633Y-89708500D01*
X120904340Y-89708500D01*
X120972461Y-89728502D01*
X120993435Y-89745405D01*
X122941546Y-91693516D01*
X122950462Y-91704351D01*
X122950529Y-91704294D01*
X122955496Y-91710048D01*
X122959730Y-91716349D01*
X122978127Y-91733089D01*
X123009159Y-91761326D01*
X123013454Y-91765424D01*
X123029423Y-91781393D01*
X123038740Y-91788699D01*
X123045773Y-91794642D01*
X123086565Y-91831760D01*
X123093242Y-91835385D01*
X123100331Y-91839234D01*
X123117953Y-91850809D01*
X123130282Y-91860477D01*
X123180543Y-91883171D01*
X123188791Y-91887264D01*
X123237268Y-91913585D01*
X123244616Y-91915513D01*
X123244617Y-91915513D01*
X123252420Y-91917560D01*
X123272299Y-91924600D01*
X123279646Y-91927917D01*
X123286574Y-91931045D01*
X123294045Y-91932430D01*
X123294046Y-91932430D01*
X123340781Y-91941092D01*
X123349792Y-91943106D01*
X123395788Y-91955173D01*
X123395792Y-91955174D01*
X123403139Y-91957101D01*
X123416376Y-91957309D01*
X123418799Y-91957347D01*
X123439781Y-91959441D01*
X123447718Y-91960912D01*
X123447721Y-91960912D01*
X123455187Y-91962296D01*
X123462768Y-91961859D01*
X123462769Y-91961859D01*
X123510250Y-91959122D01*
X123519478Y-91958929D01*
X123567003Y-91959675D01*
X123567006Y-91959675D01*
X123574602Y-91959794D01*
X123582004Y-91958099D01*
X123582011Y-91958098D01*
X123589869Y-91956298D01*
X123610743Y-91953327D01*
X123611881Y-91953261D01*
X123626386Y-91952425D01*
X123679099Y-91936209D01*
X123688016Y-91933819D01*
X123734356Y-91923206D01*
X123734359Y-91923205D01*
X123741759Y-91921510D01*
X123755751Y-91914473D01*
X123775311Y-91906610D01*
X123790290Y-91902002D01*
X123837611Y-91873681D01*
X123845695Y-91869236D01*
X123894958Y-91844459D01*
X123900733Y-91839526D01*
X123900737Y-91839524D01*
X123906874Y-91834283D01*
X123923987Y-91821985D01*
X123937434Y-91813937D01*
X123957489Y-91794091D01*
X123976624Y-91775155D01*
X123983422Y-91768904D01*
X124019574Y-91738027D01*
X124019577Y-91738024D01*
X124025355Y-91733089D01*
X124034495Y-91720369D01*
X124048187Y-91704338D01*
X124048232Y-91704294D01*
X124059325Y-91693316D01*
X124088139Y-91646296D01*
X124093250Y-91638604D01*
X124100870Y-91628000D01*
X124125424Y-91593830D01*
X124130294Y-91581715D01*
X124131266Y-91579298D01*
X124140741Y-91560459D01*
X124144956Y-91553581D01*
X124144958Y-91553577D01*
X124148926Y-91547102D01*
X124165703Y-91494533D01*
X124168817Y-91485884D01*
X124189385Y-91434720D01*
X124191591Y-91419220D01*
X124196300Y-91398658D01*
X124198754Y-91390969D01*
X124201063Y-91383735D01*
X124204814Y-91328708D01*
X124205776Y-91319545D01*
X124213547Y-91264947D01*
X124213704Y-91250000D01*
X124213210Y-91245914D01*
X124213209Y-91245903D01*
X124212880Y-91243187D01*
X124212347Y-91222846D01*
X124212210Y-91220224D01*
X124212726Y-91212648D01*
X124210042Y-91197266D01*
X124201738Y-91149690D01*
X124200775Y-91143164D01*
X124195993Y-91103649D01*
X124193102Y-91079758D01*
X124190419Y-91072657D01*
X124189778Y-91070048D01*
X124185313Y-91053728D01*
X124184548Y-91051195D01*
X124183243Y-91043717D01*
X124157552Y-90985190D01*
X124155067Y-90979102D01*
X124150723Y-90967604D01*
X124140101Y-90939494D01*
X124135172Y-90926449D01*
X124135171Y-90926447D01*
X124132487Y-90919344D01*
X124128186Y-90913085D01*
X124126949Y-90910720D01*
X124118727Y-90895948D01*
X124117372Y-90893656D01*
X124114316Y-90886695D01*
X124109691Y-90880668D01*
X124109689Y-90880664D01*
X124075407Y-90835987D01*
X124071529Y-90830650D01*
X124039659Y-90784278D01*
X124039658Y-90784277D01*
X124035357Y-90778019D01*
X123988838Y-90736572D01*
X123983563Y-90731592D01*
X121771442Y-88519472D01*
X121765588Y-88513206D01*
X121732556Y-88475340D01*
X121732553Y-88475337D01*
X121727561Y-88469615D01*
X121675280Y-88432871D01*
X121669986Y-88428939D01*
X121625693Y-88394209D01*
X121619718Y-88389524D01*
X121612802Y-88386401D01*
X121610516Y-88385017D01*
X121595835Y-88376643D01*
X121593475Y-88375378D01*
X121587261Y-88371010D01*
X121580182Y-88368250D01*
X121580180Y-88368249D01*
X121527725Y-88347798D01*
X121521656Y-88345247D01*
X121463427Y-88318955D01*
X121455960Y-88317571D01*
X121453405Y-88316770D01*
X121437152Y-88312141D01*
X121434572Y-88311478D01*
X121427491Y-88308718D01*
X121419960Y-88307727D01*
X121419958Y-88307726D01*
X121390339Y-88303827D01*
X121364139Y-88300378D01*
X121357641Y-88299348D01*
X121294814Y-88287704D01*
X121287234Y-88288141D01*
X121287233Y-88288141D01*
X121232608Y-88291291D01*
X121225354Y-88291500D01*
X120345660Y-88291500D01*
X120277539Y-88271498D01*
X120256565Y-88254595D01*
X120225439Y-88223469D01*
X120191413Y-88161157D01*
X120196478Y-88090342D01*
X120239025Y-88033506D01*
X120305545Y-88008695D01*
X120316866Y-88008597D01*
X120316866Y-88008500D01*
X121313134Y-88008500D01*
X121375316Y-88001745D01*
X121405771Y-87990328D01*
X121476577Y-87985145D01*
X121494224Y-87990326D01*
X121524684Y-88001745D01*
X121586866Y-88008500D01*
X122583134Y-88008500D01*
X122645316Y-88001745D01*
X122675771Y-87990328D01*
X122746577Y-87985145D01*
X122764224Y-87990326D01*
X122794684Y-88001745D01*
X122856866Y-88008500D01*
X123853134Y-88008500D01*
X123915316Y-88001745D01*
X123945771Y-87990328D01*
X124016577Y-87985145D01*
X124034224Y-87990326D01*
X124064684Y-88001745D01*
X124126866Y-88008500D01*
X125123134Y-88008500D01*
X125185316Y-88001745D01*
X125215771Y-87990328D01*
X125286577Y-87985145D01*
X125304224Y-87990326D01*
X125334684Y-88001745D01*
X125396866Y-88008500D01*
X126393134Y-88008500D01*
X126455316Y-88001745D01*
X126485771Y-87990328D01*
X126556577Y-87985145D01*
X126574224Y-87990326D01*
X126604684Y-88001745D01*
X126666866Y-88008500D01*
X127663134Y-88008500D01*
X127725316Y-88001745D01*
X127755771Y-87990328D01*
X127826577Y-87985145D01*
X127844224Y-87990326D01*
X127874684Y-88001745D01*
X127936866Y-88008500D01*
X128933134Y-88008500D01*
X128995316Y-88001745D01*
X129025771Y-87990328D01*
X129096577Y-87985145D01*
X129114224Y-87990326D01*
X129144684Y-88001745D01*
X129206866Y-88008500D01*
X129870500Y-88008500D01*
X129938621Y-88028502D01*
X129985114Y-88082158D01*
X129996500Y-88134500D01*
X129996500Y-88200500D01*
X129976498Y-88268621D01*
X129922842Y-88315114D01*
X129870500Y-88326500D01*
X129656866Y-88326500D01*
X129594684Y-88333255D01*
X129458295Y-88384385D01*
X129341739Y-88471739D01*
X129254385Y-88588295D01*
X129203255Y-88724684D01*
X129196500Y-88786866D01*
X129196500Y-89783134D01*
X129203255Y-89845316D01*
X129214672Y-89875771D01*
X129219855Y-89946577D01*
X129214674Y-89964224D01*
X129203255Y-89994684D01*
X129196500Y-90056866D01*
X129196500Y-91053134D01*
X129203255Y-91115316D01*
X129214672Y-91145771D01*
X129219855Y-91216577D01*
X129214674Y-91234224D01*
X129203255Y-91264684D01*
X129196500Y-91326866D01*
X129196500Y-92323134D01*
X129203255Y-92385316D01*
X129214672Y-92415771D01*
X129219855Y-92486577D01*
X129214674Y-92504224D01*
X129203255Y-92534684D01*
X129196500Y-92596866D01*
X129196500Y-93593134D01*
X129203255Y-93655316D01*
X129214672Y-93685771D01*
X129219855Y-93756577D01*
X129214674Y-93774224D01*
X129203255Y-93804684D01*
X129196500Y-93866866D01*
X129196500Y-94863134D01*
X129203255Y-94925316D01*
X129214672Y-94955771D01*
X129219855Y-95026577D01*
X129214674Y-95044224D01*
X129203255Y-95074684D01*
X129196500Y-95136866D01*
X129196500Y-96133134D01*
X129203255Y-96195316D01*
X129214672Y-96225771D01*
X129219855Y-96296577D01*
X129214674Y-96314224D01*
X129203255Y-96344684D01*
X129196500Y-96406866D01*
X129196500Y-96640066D01*
X129176498Y-96708187D01*
X129122842Y-96754680D01*
X129052568Y-96764784D01*
X128987988Y-96735290D01*
X128980939Y-96728694D01*
X128971250Y-96718903D01*
X128943316Y-96690675D01*
X128936840Y-96686707D01*
X128936838Y-96686705D01*
X128933714Y-96684791D01*
X128915732Y-96671436D01*
X128912994Y-96668996D01*
X128912986Y-96668991D01*
X128907321Y-96663943D01*
X128854712Y-96636088D01*
X128847871Y-96632185D01*
X128797102Y-96601075D01*
X128786368Y-96597649D01*
X128765729Y-96588973D01*
X128755769Y-96583700D01*
X128698047Y-96569201D01*
X128690460Y-96567040D01*
X128633735Y-96548937D01*
X128626160Y-96548421D01*
X128626157Y-96548420D01*
X128622498Y-96548171D01*
X128600374Y-96544668D01*
X128589451Y-96541924D01*
X128581853Y-96541884D01*
X128581851Y-96541884D01*
X128557675Y-96541758D01*
X128529936Y-96541613D01*
X128522045Y-96541323D01*
X128462648Y-96537274D01*
X128455172Y-96538579D01*
X128455170Y-96538579D01*
X128451550Y-96539211D01*
X128429226Y-96541085D01*
X128428842Y-96541083D01*
X128417969Y-96541026D01*
X128410584Y-96542799D01*
X128360098Y-96554919D01*
X128352349Y-96556524D01*
X128301193Y-96565452D01*
X128301191Y-96565453D01*
X128293717Y-96566757D01*
X128286771Y-96569806D01*
X128286768Y-96569807D01*
X128283402Y-96571285D01*
X128262175Y-96578428D01*
X128251223Y-96581058D01*
X128244480Y-96584539D01*
X128244473Y-96584541D01*
X128198338Y-96608354D01*
X128191200Y-96611759D01*
X128136695Y-96635685D01*
X128130674Y-96640305D01*
X128130666Y-96640310D01*
X128127758Y-96642542D01*
X128108848Y-96654543D01*
X128098839Y-96659709D01*
X128093118Y-96664699D01*
X128093116Y-96664701D01*
X128089793Y-96667600D01*
X128053980Y-96698842D01*
X128047876Y-96703838D01*
X128032041Y-96715989D01*
X128019480Y-96728550D01*
X128013215Y-96734404D01*
X127969615Y-96772439D01*
X127961752Y-96783627D01*
X127947765Y-96800265D01*
X124933435Y-99814595D01*
X124871123Y-99848621D01*
X124844340Y-99851500D01*
X116080660Y-99851500D01*
X116012539Y-99831498D01*
X115991565Y-99814595D01*
X114721639Y-98544669D01*
X117687001Y-98544669D01*
X117687371Y-98551490D01*
X117692895Y-98602352D01*
X117696521Y-98617604D01*
X117741676Y-98738054D01*
X117750214Y-98753649D01*
X117826715Y-98855724D01*
X117839276Y-98868285D01*
X117941351Y-98944786D01*
X117956946Y-98953324D01*
X118077394Y-98998478D01*
X118092649Y-99002105D01*
X118143514Y-99007631D01*
X118150328Y-99008000D01*
X118587885Y-99008000D01*
X118603124Y-99003525D01*
X118604329Y-99002135D01*
X118606000Y-98994452D01*
X118606000Y-98989884D01*
X119114000Y-98989884D01*
X119118475Y-99005123D01*
X119119865Y-99006328D01*
X119127548Y-99007999D01*
X119569669Y-99007999D01*
X119576490Y-99007629D01*
X119627352Y-99002105D01*
X119642606Y-98998478D01*
X119733271Y-98964490D01*
X119804078Y-98959307D01*
X119821729Y-98964490D01*
X119912391Y-98998478D01*
X119927649Y-99002105D01*
X119978514Y-99007631D01*
X119985328Y-99008000D01*
X120422885Y-99008000D01*
X120438124Y-99003525D01*
X120439329Y-99002135D01*
X120441000Y-98994452D01*
X120441000Y-98989884D01*
X120949000Y-98989884D01*
X120953475Y-99005123D01*
X120954865Y-99006328D01*
X120962548Y-99007999D01*
X121404669Y-99007999D01*
X121411490Y-99007629D01*
X121462352Y-99002105D01*
X121477606Y-98998478D01*
X121568271Y-98964490D01*
X121639078Y-98959307D01*
X121656729Y-98964490D01*
X121747391Y-98998478D01*
X121762649Y-99002105D01*
X121813514Y-99007631D01*
X121820328Y-99008000D01*
X122257885Y-99008000D01*
X122273124Y-99003525D01*
X122274329Y-99002135D01*
X122276000Y-98994452D01*
X122276000Y-98989884D01*
X122784000Y-98989884D01*
X122788475Y-99005123D01*
X122789865Y-99006328D01*
X122797548Y-99007999D01*
X123239669Y-99007999D01*
X123246490Y-99007629D01*
X123297352Y-99002105D01*
X123312604Y-98998479D01*
X123433054Y-98953324D01*
X123448649Y-98944786D01*
X123550724Y-98868285D01*
X123563285Y-98855724D01*
X123639786Y-98753649D01*
X123648324Y-98738054D01*
X123693478Y-98617606D01*
X123697105Y-98602351D01*
X123702631Y-98551486D01*
X123703000Y-98544672D01*
X123703000Y-98107115D01*
X123698525Y-98091876D01*
X123697135Y-98090671D01*
X123689452Y-98089000D01*
X122802115Y-98089000D01*
X122786876Y-98093475D01*
X122785671Y-98094865D01*
X122784000Y-98102548D01*
X122784000Y-98989884D01*
X122276000Y-98989884D01*
X122276000Y-98107115D01*
X122271525Y-98091876D01*
X122270135Y-98090671D01*
X122262452Y-98089000D01*
X120967115Y-98089000D01*
X120951876Y-98093475D01*
X120950671Y-98094865D01*
X120949000Y-98102548D01*
X120949000Y-98989884D01*
X120441000Y-98989884D01*
X120441000Y-98107115D01*
X120436525Y-98091876D01*
X120435135Y-98090671D01*
X120427452Y-98089000D01*
X119132115Y-98089000D01*
X119116876Y-98093475D01*
X119115671Y-98094865D01*
X119114000Y-98102548D01*
X119114000Y-98989884D01*
X118606000Y-98989884D01*
X118606000Y-98107115D01*
X118601525Y-98091876D01*
X118600135Y-98090671D01*
X118592452Y-98089000D01*
X117705116Y-98089000D01*
X117689877Y-98093475D01*
X117688672Y-98094865D01*
X117687001Y-98102548D01*
X117687001Y-98544669D01*
X114721639Y-98544669D01*
X114312973Y-98136003D01*
X114278947Y-98073691D01*
X114284012Y-98002876D01*
X114326559Y-97946040D01*
X114337362Y-97938792D01*
X114362609Y-97923682D01*
X114370693Y-97919237D01*
X114419958Y-97894459D01*
X114422818Y-97892017D01*
X114426161Y-97890291D01*
X114434652Y-97882884D01*
X114452768Y-97869722D01*
X114452831Y-97869684D01*
X114462434Y-97863937D01*
X114501634Y-97825146D01*
X114508409Y-97818915D01*
X114550355Y-97783089D01*
X114552550Y-97780034D01*
X114555385Y-97777561D01*
X114559751Y-97771349D01*
X114559757Y-97771342D01*
X114561864Y-97768344D01*
X114576319Y-97751238D01*
X114578923Y-97748661D01*
X114578924Y-97748659D01*
X114584325Y-97743315D01*
X114613145Y-97696286D01*
X114618227Y-97688637D01*
X114650424Y-97643830D01*
X114651828Y-97640337D01*
X114653990Y-97637261D01*
X114658082Y-97626766D01*
X114668041Y-97606704D01*
X114669957Y-97603577D01*
X114669958Y-97603575D01*
X114673925Y-97597101D01*
X114678310Y-97583361D01*
X114684845Y-97562885D01*
X117687000Y-97562885D01*
X117691475Y-97578124D01*
X117692865Y-97579329D01*
X117700548Y-97581000D01*
X118587885Y-97581000D01*
X118603124Y-97576525D01*
X118604329Y-97575135D01*
X118606000Y-97567452D01*
X118606000Y-97562885D01*
X119114000Y-97562885D01*
X119118475Y-97578124D01*
X119119865Y-97579329D01*
X119127548Y-97581000D01*
X120422885Y-97581000D01*
X120438124Y-97576525D01*
X120439329Y-97575135D01*
X120441000Y-97567452D01*
X120441000Y-97562885D01*
X120949000Y-97562885D01*
X120953475Y-97578124D01*
X120954865Y-97579329D01*
X120962548Y-97581000D01*
X122257885Y-97581000D01*
X122273124Y-97576525D01*
X122274329Y-97575135D01*
X122276000Y-97567452D01*
X122276000Y-97562885D01*
X122784000Y-97562885D01*
X122788475Y-97578124D01*
X122789865Y-97579329D01*
X122797548Y-97581000D01*
X123684884Y-97581000D01*
X123700123Y-97576525D01*
X123701328Y-97575135D01*
X123702999Y-97567452D01*
X123702999Y-97125331D01*
X123702629Y-97118510D01*
X123697105Y-97067648D01*
X123693478Y-97052394D01*
X123659490Y-96961729D01*
X123654307Y-96890922D01*
X123659490Y-96873271D01*
X123693478Y-96782609D01*
X123697105Y-96767351D01*
X123702631Y-96716486D01*
X123703000Y-96709672D01*
X123703000Y-96272115D01*
X123698525Y-96256876D01*
X123697135Y-96255671D01*
X123689452Y-96254000D01*
X122802115Y-96254000D01*
X122786876Y-96258475D01*
X122785671Y-96259865D01*
X122784000Y-96267548D01*
X122784000Y-97562885D01*
X122276000Y-97562885D01*
X122276000Y-96272115D01*
X122271525Y-96256876D01*
X122270135Y-96255671D01*
X122262452Y-96254000D01*
X120967115Y-96254000D01*
X120951876Y-96258475D01*
X120950671Y-96259865D01*
X120949000Y-96267548D01*
X120949000Y-97562885D01*
X120441000Y-97562885D01*
X120441000Y-96272115D01*
X120436525Y-96256876D01*
X120435135Y-96255671D01*
X120427452Y-96254000D01*
X119132115Y-96254000D01*
X119116876Y-96258475D01*
X119115671Y-96259865D01*
X119114000Y-96267548D01*
X119114000Y-97562885D01*
X118606000Y-97562885D01*
X118606000Y-96272115D01*
X118601525Y-96256876D01*
X118600135Y-96255671D01*
X118592452Y-96254000D01*
X117705116Y-96254000D01*
X117689877Y-96258475D01*
X117688672Y-96259865D01*
X117687001Y-96267548D01*
X117687001Y-96709669D01*
X117687371Y-96716490D01*
X117692895Y-96767352D01*
X117696522Y-96782606D01*
X117730510Y-96873271D01*
X117735693Y-96944078D01*
X117730510Y-96961729D01*
X117696522Y-97052391D01*
X117692895Y-97067649D01*
X117687369Y-97118514D01*
X117687000Y-97125328D01*
X117687000Y-97562885D01*
X114684845Y-97562885D01*
X114690690Y-97544571D01*
X114693818Y-97535883D01*
X114711551Y-97491772D01*
X114711553Y-97491765D01*
X114714385Y-97484720D01*
X114714915Y-97480998D01*
X114716282Y-97477491D01*
X114717752Y-97466323D01*
X114722639Y-97444459D01*
X114723754Y-97440967D01*
X114723754Y-97440966D01*
X114726062Y-97433735D01*
X114729812Y-97378720D01*
X114730774Y-97369558D01*
X114738547Y-97314947D01*
X114738704Y-97300000D01*
X114737880Y-97293191D01*
X114737348Y-97272888D01*
X114737209Y-97270225D01*
X114737725Y-97262648D01*
X114736168Y-97253723D01*
X114735376Y-97249189D01*
X114733500Y-97227526D01*
X114733500Y-95727885D01*
X117687000Y-95727885D01*
X117691475Y-95743124D01*
X117692865Y-95744329D01*
X117700548Y-95746000D01*
X118587885Y-95746000D01*
X118603124Y-95741525D01*
X118604329Y-95740135D01*
X118606000Y-95732452D01*
X118606000Y-95727885D01*
X119114000Y-95727885D01*
X119118475Y-95743124D01*
X119119865Y-95744329D01*
X119127548Y-95746000D01*
X120422885Y-95746000D01*
X120438124Y-95741525D01*
X120439329Y-95740135D01*
X120441000Y-95732452D01*
X120441000Y-95727885D01*
X120949000Y-95727885D01*
X120953475Y-95743124D01*
X120954865Y-95744329D01*
X120962548Y-95746000D01*
X122257885Y-95746000D01*
X122273124Y-95741525D01*
X122274329Y-95740135D01*
X122276000Y-95732452D01*
X122276000Y-95727885D01*
X122784000Y-95727885D01*
X122788475Y-95743124D01*
X122789865Y-95744329D01*
X122797548Y-95746000D01*
X123684884Y-95746000D01*
X123700123Y-95741525D01*
X123701328Y-95740135D01*
X123702999Y-95732452D01*
X123702999Y-95290331D01*
X123702629Y-95283510D01*
X123697105Y-95232648D01*
X123693478Y-95217394D01*
X123659490Y-95126729D01*
X123654307Y-95055922D01*
X123659490Y-95038271D01*
X123693478Y-94947609D01*
X123697105Y-94932351D01*
X123702631Y-94881486D01*
X123703000Y-94874672D01*
X123703000Y-94437115D01*
X123698525Y-94421876D01*
X123697135Y-94420671D01*
X123689452Y-94419000D01*
X122802115Y-94419000D01*
X122786876Y-94423475D01*
X122785671Y-94424865D01*
X122784000Y-94432548D01*
X122784000Y-95727885D01*
X122276000Y-95727885D01*
X122276000Y-94437115D01*
X122271525Y-94421876D01*
X122270135Y-94420671D01*
X122262452Y-94419000D01*
X120967115Y-94419000D01*
X120951876Y-94423475D01*
X120950671Y-94424865D01*
X120949000Y-94432548D01*
X120949000Y-95727885D01*
X120441000Y-95727885D01*
X120441000Y-94437115D01*
X120436525Y-94421876D01*
X120435135Y-94420671D01*
X120427452Y-94419000D01*
X119132115Y-94419000D01*
X119116876Y-94423475D01*
X119115671Y-94424865D01*
X119114000Y-94432548D01*
X119114000Y-95727885D01*
X118606000Y-95727885D01*
X118606000Y-94437115D01*
X118601525Y-94421876D01*
X118600135Y-94420671D01*
X118592452Y-94419000D01*
X117705116Y-94419000D01*
X117689877Y-94423475D01*
X117688672Y-94424865D01*
X117687001Y-94432548D01*
X117687001Y-94874669D01*
X117687371Y-94881490D01*
X117692895Y-94932352D01*
X117696522Y-94947606D01*
X117730510Y-95038271D01*
X117735693Y-95109078D01*
X117730510Y-95126729D01*
X117696522Y-95217391D01*
X117692895Y-95232649D01*
X117687369Y-95283514D01*
X117687000Y-95290328D01*
X117687000Y-95727885D01*
X114733500Y-95727885D01*
X114733500Y-90540486D01*
X114744663Y-90488636D01*
X114752919Y-90470351D01*
X114752920Y-90470349D01*
X114756045Y-90463427D01*
X114757429Y-90455960D01*
X114759640Y-90448906D01*
X114761553Y-90441766D01*
X114764385Y-90434720D01*
X114774004Y-90367136D01*
X114774856Y-90361932D01*
X114782440Y-90321016D01*
X114787296Y-90294813D01*
X114786859Y-90287232D01*
X114787336Y-90279647D01*
X114787688Y-90279669D01*
X114787961Y-90273166D01*
X114787653Y-90273143D01*
X114787966Y-90269031D01*
X114788547Y-90264947D01*
X114788704Y-90250000D01*
X114781555Y-90190927D01*
X114780851Y-90183043D01*
X114780463Y-90176318D01*
X114777425Y-90123614D01*
X114774113Y-90112848D01*
X114769454Y-90090932D01*
X114769015Y-90087300D01*
X114769014Y-90087297D01*
X114768102Y-90079758D01*
X114765415Y-90072646D01*
X114747071Y-90024098D01*
X114744508Y-90016613D01*
X114729237Y-89966977D01*
X114729235Y-89966973D01*
X114727001Y-89959711D01*
X114721219Y-89950050D01*
X114711469Y-89929882D01*
X114710171Y-89926447D01*
X114707487Y-89919344D01*
X114691444Y-89896000D01*
X114673775Y-89870292D01*
X114669500Y-89863633D01*
X114662964Y-89852712D01*
X114638937Y-89812566D01*
X114631009Y-89804554D01*
X114616735Y-89787299D01*
X114616207Y-89786531D01*
X114610357Y-89778019D01*
X114598491Y-89767447D01*
X114565930Y-89738435D01*
X114560190Y-89732989D01*
X114535955Y-89708500D01*
X114518316Y-89690675D01*
X114508711Y-89684789D01*
X114490731Y-89671436D01*
X114487994Y-89668997D01*
X114487992Y-89668995D01*
X114482321Y-89663943D01*
X114475611Y-89660390D01*
X114475605Y-89660386D01*
X114429738Y-89636101D01*
X114422862Y-89632179D01*
X114378580Y-89605043D01*
X114378575Y-89605041D01*
X114372102Y-89601074D01*
X114361371Y-89597649D01*
X114340712Y-89588965D01*
X114337480Y-89587253D01*
X114337477Y-89587252D01*
X114330769Y-89583700D01*
X114323403Y-89581850D01*
X114323401Y-89581849D01*
X114273063Y-89569205D01*
X114265450Y-89567036D01*
X114215977Y-89551247D01*
X114215968Y-89551245D01*
X114208735Y-89548937D01*
X114201157Y-89548420D01*
X114201155Y-89548420D01*
X114197498Y-89548171D01*
X114175374Y-89544668D01*
X114164451Y-89541924D01*
X114156853Y-89541884D01*
X114156851Y-89541884D01*
X114132675Y-89541758D01*
X114104936Y-89541613D01*
X114097045Y-89541323D01*
X114037648Y-89537274D01*
X114030172Y-89538579D01*
X114030170Y-89538579D01*
X114026550Y-89539211D01*
X114004226Y-89541085D01*
X114003842Y-89541083D01*
X113992969Y-89541026D01*
X113985584Y-89542799D01*
X113935098Y-89554919D01*
X113927349Y-89556524D01*
X113876193Y-89565452D01*
X113876191Y-89565453D01*
X113868717Y-89566757D01*
X113861771Y-89569806D01*
X113861768Y-89569807D01*
X113858402Y-89571285D01*
X113837175Y-89578428D01*
X113826223Y-89581058D01*
X113773330Y-89608359D01*
X113766206Y-89611756D01*
X113719680Y-89632179D01*
X113711695Y-89635684D01*
X113705673Y-89640305D01*
X113705666Y-89640309D01*
X113702754Y-89642544D01*
X113683842Y-89654546D01*
X113680591Y-89656224D01*
X113673839Y-89659709D01*
X113668116Y-89664702D01*
X113668111Y-89664705D01*
X113628998Y-89698825D01*
X113622876Y-89703836D01*
X113610327Y-89713466D01*
X113610322Y-89713471D01*
X113607041Y-89715988D01*
X113594473Y-89728556D01*
X113588208Y-89734410D01*
X113544615Y-89772439D01*
X113540247Y-89778654D01*
X113535165Y-89784298D01*
X113534926Y-89784083D01*
X113521534Y-89798956D01*
X113494615Y-89822439D01*
X113465663Y-89863633D01*
X113457872Y-89874719D01*
X113453939Y-89880014D01*
X113414524Y-89930282D01*
X113411401Y-89937198D01*
X113410017Y-89939484D01*
X113401643Y-89954165D01*
X113400378Y-89956525D01*
X113396010Y-89962739D01*
X113393250Y-89969818D01*
X113393249Y-89969820D01*
X113372798Y-90022275D01*
X113370247Y-90028344D01*
X113343955Y-90086573D01*
X113342571Y-90094040D01*
X113341770Y-90096595D01*
X113337141Y-90112848D01*
X113336478Y-90115428D01*
X113333718Y-90122509D01*
X113332727Y-90130040D01*
X113332726Y-90130042D01*
X113325379Y-90185852D01*
X113324348Y-90192359D01*
X113312704Y-90255186D01*
X113313141Y-90262766D01*
X113313141Y-90262767D01*
X113316291Y-90317392D01*
X113316500Y-90324646D01*
X113316500Y-95285340D01*
X113296498Y-95353461D01*
X113242842Y-95399954D01*
X113172568Y-95410058D01*
X113107988Y-95380564D01*
X113101405Y-95374435D01*
X113046450Y-95319480D01*
X113040596Y-95313215D01*
X113020630Y-95290328D01*
X113002561Y-95269615D01*
X112950280Y-95232871D01*
X112944986Y-95228939D01*
X112900693Y-95194209D01*
X112894718Y-95189524D01*
X112887802Y-95186401D01*
X112885516Y-95185017D01*
X112870835Y-95176643D01*
X112868475Y-95175378D01*
X112862261Y-95171010D01*
X112855182Y-95168250D01*
X112855180Y-95168249D01*
X112802725Y-95147798D01*
X112796656Y-95145247D01*
X112738427Y-95118955D01*
X112730960Y-95117571D01*
X112728405Y-95116770D01*
X112712152Y-95112141D01*
X112709572Y-95111478D01*
X112702491Y-95108718D01*
X112694960Y-95107727D01*
X112694958Y-95107726D01*
X112665339Y-95103827D01*
X112639139Y-95100378D01*
X112632641Y-95099348D01*
X112569814Y-95087704D01*
X112562234Y-95088141D01*
X112562233Y-95088141D01*
X112507608Y-95091291D01*
X112500354Y-95091500D01*
X106228912Y-95091500D01*
X106220342Y-95091208D01*
X106170224Y-95087791D01*
X106170220Y-95087791D01*
X106162648Y-95087275D01*
X106155171Y-95088580D01*
X106155170Y-95088580D01*
X106128692Y-95093201D01*
X106099697Y-95098262D01*
X106093179Y-95099223D01*
X106029758Y-95106898D01*
X106022657Y-95109581D01*
X106020048Y-95110222D01*
X106003738Y-95114685D01*
X106001202Y-95115450D01*
X105993716Y-95116757D01*
X105955646Y-95133469D01*
X105935205Y-95142442D01*
X105929101Y-95144933D01*
X105869344Y-95167513D01*
X105863081Y-95171817D01*
X105860715Y-95173054D01*
X105845903Y-95181299D01*
X105843649Y-95182632D01*
X105836695Y-95185685D01*
X105785998Y-95224587D01*
X105780668Y-95228459D01*
X105734280Y-95260339D01*
X105734275Y-95260344D01*
X105728019Y-95264643D01*
X105722968Y-95270313D01*
X105722966Y-95270314D01*
X105686565Y-95311170D01*
X105681584Y-95316446D01*
X102518434Y-98479596D01*
X102456122Y-98513622D01*
X102429339Y-98516501D01*
X102243366Y-98516501D01*
X102240508Y-98516764D01*
X102240499Y-98516764D01*
X102204996Y-98520026D01*
X102169938Y-98523247D01*
X102163560Y-98525246D01*
X102163559Y-98525246D01*
X102013550Y-98572256D01*
X102013548Y-98572257D01*
X102006301Y-98574528D01*
X101859619Y-98663361D01*
X101773595Y-98749385D01*
X101711283Y-98783411D01*
X101640468Y-98778346D01*
X101583632Y-98735799D01*
X101558821Y-98669279D01*
X101558500Y-98660290D01*
X101558500Y-97468387D01*
X101578502Y-97400266D01*
X101611331Y-97365809D01*
X101662243Y-97329494D01*
X101826303Y-97166005D01*
X101961458Y-96977917D01*
X101965675Y-96969386D01*
X102061784Y-96774922D01*
X102061785Y-96774920D01*
X102064078Y-96770280D01*
X102131408Y-96548671D01*
X102161640Y-96319041D01*
X102162787Y-96272115D01*
X102163245Y-96253365D01*
X102163245Y-96253361D01*
X102163327Y-96250000D01*
X102151164Y-96102054D01*
X102144773Y-96024318D01*
X102144772Y-96024312D01*
X102144349Y-96019167D01*
X102100330Y-95843919D01*
X102089184Y-95799544D01*
X102089183Y-95799540D01*
X102087925Y-95794533D01*
X102085866Y-95789797D01*
X101997630Y-95586868D01*
X101997628Y-95586865D01*
X101995570Y-95582131D01*
X101869764Y-95387665D01*
X101779486Y-95288450D01*
X101748434Y-95224605D01*
X101756829Y-95154106D01*
X101802005Y-95099338D01*
X101828449Y-95085669D01*
X101888054Y-95063324D01*
X101903649Y-95054786D01*
X102005724Y-94978285D01*
X102018285Y-94965724D01*
X102094786Y-94863649D01*
X102103324Y-94848054D01*
X102148478Y-94727606D01*
X102152105Y-94712351D01*
X102157631Y-94661486D01*
X102158000Y-94654672D01*
X102158000Y-93982115D01*
X102153525Y-93966876D01*
X102152135Y-93965671D01*
X102144452Y-93964000D01*
X99360116Y-93964000D01*
X99344877Y-93968475D01*
X99343672Y-93969865D01*
X99342001Y-93977548D01*
X99342001Y-94654669D01*
X99342371Y-94661490D01*
X99347895Y-94712352D01*
X99351521Y-94727604D01*
X99396676Y-94848054D01*
X99405214Y-94863649D01*
X99481715Y-94965724D01*
X99494276Y-94978285D01*
X99596351Y-95054786D01*
X99611946Y-95063324D01*
X99671540Y-95085665D01*
X99728304Y-95128307D01*
X99753004Y-95194868D01*
X99737796Y-95264217D01*
X99718404Y-95290698D01*
X99651639Y-95360564D01*
X99648725Y-95364836D01*
X99648724Y-95364837D01*
X99633152Y-95387665D01*
X99521119Y-95551899D01*
X99423602Y-95761981D01*
X99361707Y-95985169D01*
X99337095Y-96215469D01*
X99337392Y-96220622D01*
X99337392Y-96220625D01*
X99343067Y-96319041D01*
X99350427Y-96446697D01*
X99351564Y-96451743D01*
X99351565Y-96451749D01*
X99381302Y-96583700D01*
X99401346Y-96672642D01*
X99403288Y-96677424D01*
X99403289Y-96677428D01*
X99479068Y-96864049D01*
X99488484Y-96887237D01*
X99524752Y-96946421D01*
X99599041Y-97067649D01*
X99609501Y-97084719D01*
X99761147Y-97259784D01*
X99898858Y-97374114D01*
X99934246Y-97403493D01*
X99939349Y-97407730D01*
X100009388Y-97448657D01*
X100079070Y-97489376D01*
X100127794Y-97541014D01*
X100141500Y-97598164D01*
X100141500Y-98679290D01*
X100121498Y-98747411D01*
X100104595Y-98768385D01*
X100088361Y-98784619D01*
X99999528Y-98931301D01*
X99997257Y-98938548D01*
X99997256Y-98938550D01*
X99995302Y-98944786D01*
X99948247Y-99094938D01*
X99941500Y-99168365D01*
X99941501Y-99831634D01*
X99941764Y-99834492D01*
X99941764Y-99834501D01*
X99943326Y-99851500D01*
X99948247Y-99905062D01*
X99950246Y-99911440D01*
X99950246Y-99911441D01*
X99991699Y-100043716D01*
X99999528Y-100068699D01*
X100088361Y-100215381D01*
X100209619Y-100336639D01*
X100356301Y-100425472D01*
X100363548Y-100427743D01*
X100363550Y-100427744D01*
X100429836Y-100448517D01*
X100519938Y-100476753D01*
X100593365Y-100483500D01*
X100779340Y-100483500D01*
X100847461Y-100503502D01*
X100868435Y-100520405D01*
X102078550Y-101730520D01*
X102084404Y-101736785D01*
X102122439Y-101780385D01*
X102128657Y-101784755D01*
X102174697Y-101817112D01*
X102179993Y-101821045D01*
X102230282Y-101860477D01*
X102237204Y-101863602D01*
X102239452Y-101864964D01*
X102254185Y-101873368D01*
X102256524Y-101874622D01*
X102262739Y-101878990D01*
X102269815Y-101881749D01*
X102269819Y-101881751D01*
X102322269Y-101902200D01*
X102328334Y-101904749D01*
X102386573Y-101931045D01*
X102394038Y-101932429D01*
X102396582Y-101933226D01*
X102412848Y-101937859D01*
X102415428Y-101938521D01*
X102422509Y-101941282D01*
X102430042Y-101942274D01*
X102430043Y-101942274D01*
X102462699Y-101946573D01*
X102485857Y-101949622D01*
X102492355Y-101950650D01*
X102555187Y-101962296D01*
X102562767Y-101961859D01*
X102562768Y-101961859D01*
X102617398Y-101958709D01*
X102624651Y-101958500D01*
X112264056Y-101958500D01*
X112332177Y-101978502D01*
X112378670Y-102032158D01*
X112388774Y-102102432D01*
X112364882Y-102160065D01*
X112300214Y-102246351D01*
X112291676Y-102261946D01*
X112246522Y-102382394D01*
X112242895Y-102397649D01*
X112237369Y-102448514D01*
X112237000Y-102455328D01*
X112237000Y-103227885D01*
X112241475Y-103243124D01*
X112242865Y-103244329D01*
X112250548Y-103246000D01*
X113323000Y-103246000D01*
X113391121Y-103266002D01*
X113437614Y-103319658D01*
X113449000Y-103372000D01*
X113449000Y-104989884D01*
X113453475Y-105005123D01*
X113454865Y-105006328D01*
X113462548Y-105007999D01*
X113630500Y-105007999D01*
X113698621Y-105028001D01*
X113745114Y-105081657D01*
X113756500Y-105133999D01*
X113756500Y-106044339D01*
X113736498Y-106112460D01*
X113719595Y-106133434D01*
X110222316Y-109630714D01*
X110160004Y-109664740D01*
X110111125Y-109665666D01*
X109988373Y-109643800D01*
X109988367Y-109643799D01*
X109983284Y-109642894D01*
X109909045Y-109641987D01*
X109765081Y-109640228D01*
X109765079Y-109640228D01*
X109759911Y-109640165D01*
X109539091Y-109673955D01*
X109326756Y-109743357D01*
X109296443Y-109759137D01*
X109152197Y-109834227D01*
X109128607Y-109846507D01*
X109124474Y-109849610D01*
X109124471Y-109849612D01*
X108954100Y-109977530D01*
X108949965Y-109980635D01*
X108946393Y-109984373D01*
X108868898Y-110065466D01*
X108807374Y-110100895D01*
X108736462Y-110097438D01*
X108678676Y-110056192D01*
X108659823Y-110022644D01*
X108618324Y-109911946D01*
X108609786Y-109896351D01*
X108533285Y-109794276D01*
X108520724Y-109781715D01*
X108418649Y-109705214D01*
X108403054Y-109696676D01*
X108282606Y-109651522D01*
X108267351Y-109647895D01*
X108216486Y-109642369D01*
X108209672Y-109642000D01*
X107587115Y-109642000D01*
X107571876Y-109646475D01*
X107570671Y-109647865D01*
X107569000Y-109655548D01*
X107569000Y-111128000D01*
X107548998Y-111196121D01*
X107495342Y-111242614D01*
X107443000Y-111254000D01*
X105975116Y-111254000D01*
X105959877Y-111258475D01*
X105958672Y-111259865D01*
X105957001Y-111267548D01*
X105957001Y-111894669D01*
X105957371Y-111901490D01*
X105962895Y-111952352D01*
X105966521Y-111967604D01*
X106011676Y-112088054D01*
X106020214Y-112103649D01*
X106096715Y-112205724D01*
X106109276Y-112218285D01*
X106171840Y-112265174D01*
X106214355Y-112322033D01*
X106219381Y-112392851D01*
X106185321Y-112455145D01*
X106122990Y-112489135D01*
X106096275Y-112492000D01*
X97634000Y-112492000D01*
X97565879Y-112471998D01*
X97519386Y-112418342D01*
X97508000Y-112366000D01*
X97508000Y-109382703D01*
X98640743Y-109382703D01*
X98641302Y-109386947D01*
X98641302Y-109386951D01*
X98649393Y-109448405D01*
X98678268Y-109667734D01*
X98679401Y-109671874D01*
X98679401Y-109671876D01*
X98682661Y-109683793D01*
X98754129Y-109945036D01*
X98755813Y-109948984D01*
X98847721Y-110164457D01*
X98866923Y-110209476D01*
X99014561Y-110456161D01*
X99194313Y-110680528D01*
X99402851Y-110878423D01*
X99636317Y-111046186D01*
X99640112Y-111048195D01*
X99640113Y-111048196D01*
X99661869Y-111059715D01*
X99890392Y-111180712D01*
X99914699Y-111189607D01*
X100127683Y-111267548D01*
X100160373Y-111279511D01*
X100441264Y-111340755D01*
X100469841Y-111343004D01*
X100664282Y-111358307D01*
X100664291Y-111358307D01*
X100666739Y-111358500D01*
X100822271Y-111358500D01*
X100824407Y-111358354D01*
X100824418Y-111358354D01*
X101032548Y-111344165D01*
X101032554Y-111344164D01*
X101036825Y-111343873D01*
X101041020Y-111343004D01*
X101041022Y-111343004D01*
X101177583Y-111314724D01*
X101318342Y-111285574D01*
X101589343Y-111189607D01*
X101844812Y-111057750D01*
X101848313Y-111055289D01*
X101848317Y-111055287D01*
X102028968Y-110928323D01*
X102080023Y-110892441D01*
X102165367Y-110813134D01*
X102257106Y-110727885D01*
X105957000Y-110727885D01*
X105961475Y-110743124D01*
X105962865Y-110744329D01*
X105970548Y-110746000D01*
X107042885Y-110746000D01*
X107058124Y-110741525D01*
X107059329Y-110740135D01*
X107061000Y-110732452D01*
X107061000Y-109660116D01*
X107056525Y-109644877D01*
X107055135Y-109643672D01*
X107047452Y-109642001D01*
X106420331Y-109642001D01*
X106413510Y-109642371D01*
X106362648Y-109647895D01*
X106347396Y-109651521D01*
X106226946Y-109696676D01*
X106211351Y-109705214D01*
X106109276Y-109781715D01*
X106096715Y-109794276D01*
X106020214Y-109896351D01*
X106011676Y-109911946D01*
X105966522Y-110032394D01*
X105962895Y-110047649D01*
X105957369Y-110098514D01*
X105957000Y-110105328D01*
X105957000Y-110727885D01*
X102257106Y-110727885D01*
X102287479Y-110699661D01*
X102287481Y-110699658D01*
X102290622Y-110696740D01*
X102472713Y-110474268D01*
X102622927Y-110229142D01*
X102635720Y-110200000D01*
X102736757Y-109969830D01*
X102738483Y-109965898D01*
X102772493Y-109846507D01*
X102816068Y-109693534D01*
X102817244Y-109689406D01*
X102857751Y-109404784D01*
X102857845Y-109386951D01*
X102859235Y-109121583D01*
X102859235Y-109121576D01*
X102859257Y-109117297D01*
X102858344Y-109110357D01*
X102830562Y-108899340D01*
X102821732Y-108832266D01*
X102745871Y-108554964D01*
X102729006Y-108515424D01*
X102634763Y-108294476D01*
X102634761Y-108294472D01*
X102633077Y-108290524D01*
X102544302Y-108142192D01*
X102487643Y-108047521D01*
X102487640Y-108047517D01*
X102485439Y-108043839D01*
X102305687Y-107819472D01*
X102131412Y-107654091D01*
X102100258Y-107624527D01*
X102100255Y-107624525D01*
X102097149Y-107621577D01*
X101863683Y-107453814D01*
X101841843Y-107442250D01*
X101768534Y-107403435D01*
X101609608Y-107319288D01*
X101405825Y-107244714D01*
X101343658Y-107221964D01*
X101343656Y-107221963D01*
X101339627Y-107220489D01*
X101058736Y-107159245D01*
X101027685Y-107156801D01*
X100835718Y-107141693D01*
X100835709Y-107141693D01*
X100833261Y-107141500D01*
X100677729Y-107141500D01*
X100675593Y-107141646D01*
X100675582Y-107141646D01*
X100467452Y-107155835D01*
X100467446Y-107155836D01*
X100463175Y-107156127D01*
X100458980Y-107156996D01*
X100458978Y-107156996D01*
X100340237Y-107181586D01*
X100181658Y-107214426D01*
X99910657Y-107310393D01*
X99830240Y-107351899D01*
X99670880Y-107434151D01*
X99655188Y-107442250D01*
X99651687Y-107444711D01*
X99651683Y-107444713D01*
X99586148Y-107490772D01*
X99419977Y-107607559D01*
X99384762Y-107640283D01*
X99281382Y-107736350D01*
X99209378Y-107803260D01*
X99027287Y-108025732D01*
X98877073Y-108270858D01*
X98875347Y-108274791D01*
X98875346Y-108274792D01*
X98818338Y-108404661D01*
X98761517Y-108534102D01*
X98682756Y-108810594D01*
X98642249Y-109095216D01*
X98642227Y-109099505D01*
X98642226Y-109099512D01*
X98640765Y-109378417D01*
X98640743Y-109382703D01*
X97508000Y-109382703D01*
X97508000Y-104544669D01*
X112237001Y-104544669D01*
X112237371Y-104551490D01*
X112242895Y-104602352D01*
X112246521Y-104617604D01*
X112291676Y-104738054D01*
X112300214Y-104753649D01*
X112376715Y-104855724D01*
X112389276Y-104868285D01*
X112491351Y-104944786D01*
X112506946Y-104953324D01*
X112627394Y-104998478D01*
X112642649Y-105002105D01*
X112693514Y-105007631D01*
X112700328Y-105008000D01*
X112922885Y-105008000D01*
X112938124Y-105003525D01*
X112939329Y-105002135D01*
X112941000Y-104994452D01*
X112941000Y-103772115D01*
X112936525Y-103756876D01*
X112935135Y-103755671D01*
X112927452Y-103754000D01*
X112255116Y-103754000D01*
X112239877Y-103758475D01*
X112238672Y-103759865D01*
X112237001Y-103767548D01*
X112237001Y-104544669D01*
X97508000Y-104544669D01*
X97508000Y-93437885D01*
X99342000Y-93437885D01*
X99346475Y-93453124D01*
X99347865Y-93454329D01*
X99355548Y-93456000D01*
X100477885Y-93456000D01*
X100493124Y-93451525D01*
X100494329Y-93450135D01*
X100496000Y-93442452D01*
X100496000Y-93437885D01*
X101004000Y-93437885D01*
X101008475Y-93453124D01*
X101009865Y-93454329D01*
X101017548Y-93456000D01*
X102139884Y-93456000D01*
X102155123Y-93451525D01*
X102156328Y-93450135D01*
X102157999Y-93442452D01*
X102157999Y-92765331D01*
X102157629Y-92758510D01*
X102152105Y-92707648D01*
X102148479Y-92692396D01*
X102103324Y-92571946D01*
X102094786Y-92556351D01*
X102018285Y-92454276D01*
X102005724Y-92441715D01*
X101903649Y-92365214D01*
X101888054Y-92356676D01*
X101767606Y-92311522D01*
X101752351Y-92307895D01*
X101701486Y-92302369D01*
X101694672Y-92302000D01*
X101022115Y-92302000D01*
X101006876Y-92306475D01*
X101005671Y-92307865D01*
X101004000Y-92315548D01*
X101004000Y-93437885D01*
X100496000Y-93437885D01*
X100496000Y-92320116D01*
X100491525Y-92304877D01*
X100490135Y-92303672D01*
X100482452Y-92302001D01*
X99805331Y-92302001D01*
X99798510Y-92302371D01*
X99747648Y-92307895D01*
X99732396Y-92311521D01*
X99611946Y-92356676D01*
X99596351Y-92365214D01*
X99494276Y-92441715D01*
X99481715Y-92454276D01*
X99405214Y-92556351D01*
X99396676Y-92571946D01*
X99351522Y-92692394D01*
X99347895Y-92707649D01*
X99342369Y-92758514D01*
X99342000Y-92765328D01*
X99342000Y-93437885D01*
X97508000Y-93437885D01*
X97508000Y-87544669D01*
X112237001Y-87544669D01*
X112237371Y-87551490D01*
X112242895Y-87602352D01*
X112246521Y-87617604D01*
X112291676Y-87738054D01*
X112300214Y-87753649D01*
X112376715Y-87855724D01*
X112389276Y-87868285D01*
X112491351Y-87944786D01*
X112506946Y-87953324D01*
X112627394Y-87998478D01*
X112642649Y-88002105D01*
X112693514Y-88007631D01*
X112700328Y-88008000D01*
X112922885Y-88008000D01*
X112938124Y-88003525D01*
X112939329Y-88002135D01*
X112941000Y-87994452D01*
X112941000Y-86772115D01*
X112936525Y-86756876D01*
X112935135Y-86755671D01*
X112927452Y-86754000D01*
X112255116Y-86754000D01*
X112239877Y-86758475D01*
X112238672Y-86759865D01*
X112237001Y-86767548D01*
X112237001Y-87544669D01*
X97508000Y-87544669D01*
X97508000Y-86227885D01*
X112237000Y-86227885D01*
X112241475Y-86243124D01*
X112242865Y-86244329D01*
X112250548Y-86246000D01*
X112922885Y-86246000D01*
X112938124Y-86241525D01*
X112939329Y-86240135D01*
X112941000Y-86232452D01*
X112941000Y-85010116D01*
X112936525Y-84994877D01*
X112935135Y-84993672D01*
X112927452Y-84992001D01*
X112700331Y-84992001D01*
X112693510Y-84992371D01*
X112642648Y-84997895D01*
X112627396Y-85001521D01*
X112506946Y-85046676D01*
X112491351Y-85055214D01*
X112389276Y-85131715D01*
X112376715Y-85144276D01*
X112300214Y-85246351D01*
X112291676Y-85261946D01*
X112246522Y-85382394D01*
X112242895Y-85397649D01*
X112237369Y-85448514D01*
X112237000Y-85455328D01*
X112237000Y-86227885D01*
X97508000Y-86227885D01*
X97508000Y-80882703D01*
X98640743Y-80882703D01*
X98641302Y-80886947D01*
X98641302Y-80886951D01*
X98652277Y-80970312D01*
X98678268Y-81167734D01*
X98754129Y-81445036D01*
X98755813Y-81448984D01*
X98862159Y-81698306D01*
X98866923Y-81709476D01*
X98934018Y-81821584D01*
X99004147Y-81938760D01*
X99014561Y-81956161D01*
X99194313Y-82180528D01*
X99225028Y-82209675D01*
X99383798Y-82360342D01*
X99402851Y-82378423D01*
X99521931Y-82463991D01*
X99627635Y-82539947D01*
X99636317Y-82546186D01*
X99640112Y-82548195D01*
X99640113Y-82548196D01*
X99661621Y-82559584D01*
X99890392Y-82680712D01*
X99914699Y-82689607D01*
X100127396Y-82767443D01*
X100160373Y-82779511D01*
X100441264Y-82840755D01*
X100465711Y-82842679D01*
X100664282Y-82858307D01*
X100664291Y-82858307D01*
X100666739Y-82858500D01*
X100822271Y-82858500D01*
X100824407Y-82858354D01*
X100824418Y-82858354D01*
X101032548Y-82844165D01*
X101032554Y-82844164D01*
X101036825Y-82843873D01*
X101041020Y-82843004D01*
X101041022Y-82843004D01*
X101233122Y-82803222D01*
X101318342Y-82785574D01*
X101589343Y-82689607D01*
X101759763Y-82601647D01*
X101841005Y-82559715D01*
X101841006Y-82559715D01*
X101844812Y-82557750D01*
X101848313Y-82555289D01*
X101848317Y-82555287D01*
X101978218Y-82463991D01*
X102080023Y-82392441D01*
X102194782Y-82285800D01*
X102287479Y-82199661D01*
X102287481Y-82199658D01*
X102290622Y-82196740D01*
X102472713Y-81974268D01*
X102622927Y-81729142D01*
X102648843Y-81670105D01*
X102736757Y-81469830D01*
X102738483Y-81465898D01*
X102747037Y-81435871D01*
X102789290Y-81287539D01*
X102817244Y-81189406D01*
X102849232Y-80964643D01*
X102857146Y-80909036D01*
X102857146Y-80909034D01*
X102857751Y-80904784D01*
X102857806Y-80894465D01*
X102859235Y-80621583D01*
X102859235Y-80621576D01*
X102859257Y-80617297D01*
X102858573Y-80612096D01*
X102842190Y-80487660D01*
X102821732Y-80332266D01*
X102745871Y-80054964D01*
X102721905Y-79998777D01*
X102677499Y-79894669D01*
X105957001Y-79894669D01*
X105957371Y-79901490D01*
X105962895Y-79952352D01*
X105966521Y-79967604D01*
X106011676Y-80088054D01*
X106020214Y-80103649D01*
X106096715Y-80205724D01*
X106109276Y-80218285D01*
X106211351Y-80294786D01*
X106226946Y-80303324D01*
X106347394Y-80348478D01*
X106362649Y-80352105D01*
X106413514Y-80357631D01*
X106420328Y-80358000D01*
X107042885Y-80358000D01*
X107058124Y-80353525D01*
X107059329Y-80352135D01*
X107061000Y-80344452D01*
X107061000Y-79272115D01*
X107056525Y-79256876D01*
X107055135Y-79255671D01*
X107047452Y-79254000D01*
X105975116Y-79254000D01*
X105959877Y-79258475D01*
X105958672Y-79259865D01*
X105957001Y-79267548D01*
X105957001Y-79894669D01*
X102677499Y-79894669D01*
X102634763Y-79794476D01*
X102634761Y-79794472D01*
X102633077Y-79790524D01*
X102524926Y-79609817D01*
X102487643Y-79547521D01*
X102487640Y-79547517D01*
X102485439Y-79543839D01*
X102305687Y-79319472D01*
X102163395Y-79184442D01*
X102100258Y-79124527D01*
X102100255Y-79124525D01*
X102097149Y-79121577D01*
X101877846Y-78963991D01*
X101867172Y-78956321D01*
X101867171Y-78956320D01*
X101863683Y-78953814D01*
X101841843Y-78942250D01*
X101797746Y-78918902D01*
X101609608Y-78819288D01*
X101407500Y-78745327D01*
X101343658Y-78721964D01*
X101343656Y-78721963D01*
X101339627Y-78720489D01*
X101058736Y-78659245D01*
X101027685Y-78656801D01*
X100835718Y-78641693D01*
X100835709Y-78641693D01*
X100833261Y-78641500D01*
X100677729Y-78641500D01*
X100675593Y-78641646D01*
X100675582Y-78641646D01*
X100467452Y-78655835D01*
X100467446Y-78655836D01*
X100463175Y-78656127D01*
X100458980Y-78656996D01*
X100458978Y-78656996D01*
X100322416Y-78685277D01*
X100181658Y-78714426D01*
X99910657Y-78810393D01*
X99655188Y-78942250D01*
X99651687Y-78944711D01*
X99651683Y-78944713D01*
X99623956Y-78964200D01*
X99419977Y-79107559D01*
X99367603Y-79156228D01*
X99247809Y-79267548D01*
X99209378Y-79303260D01*
X99027287Y-79525732D01*
X98877073Y-79770858D01*
X98875347Y-79774791D01*
X98875346Y-79774792D01*
X98763243Y-80030170D01*
X98761517Y-80034102D01*
X98682756Y-80310594D01*
X98664255Y-80440590D01*
X98644292Y-80580864D01*
X98642249Y-80595216D01*
X98642227Y-80599505D01*
X98642226Y-80599512D01*
X98640800Y-80871815D01*
X98640743Y-80882703D01*
X97508000Y-80882703D01*
X97508000Y-77634000D01*
X97528002Y-77565879D01*
X97581658Y-77519386D01*
X97634000Y-77508000D01*
X106096275Y-77508000D01*
X106164396Y-77528002D01*
G37*
%TD.AperFunction*%
%TA.AperFunction,Conductor*%
G36*
X129123661Y-97745997D02*
G01*
X129176983Y-97792873D01*
X129196500Y-97860233D01*
X129196500Y-98673134D01*
X129203255Y-98735316D01*
X129214672Y-98765771D01*
X129219855Y-98836577D01*
X129214674Y-98854224D01*
X129203255Y-98884684D01*
X129196500Y-98946866D01*
X129196500Y-99943134D01*
X129203255Y-100005316D01*
X129214939Y-100036483D01*
X129220122Y-100107288D01*
X129214939Y-100124943D01*
X129206521Y-100147398D01*
X129202895Y-100162649D01*
X129197369Y-100213514D01*
X129197000Y-100220328D01*
X129197000Y-100442885D01*
X129201475Y-100458124D01*
X129202865Y-100459329D01*
X129210548Y-100461000D01*
X130833000Y-100461000D01*
X130901121Y-100481002D01*
X130947614Y-100534658D01*
X130959000Y-100587000D01*
X130959000Y-101654884D01*
X130963475Y-101670123D01*
X130964865Y-101671328D01*
X130972548Y-101672999D01*
X131749669Y-101672999D01*
X131756490Y-101672629D01*
X131807352Y-101667105D01*
X131822607Y-101663478D01*
X131836271Y-101658356D01*
X131907079Y-101653173D01*
X131969447Y-101687095D01*
X132003576Y-101749350D01*
X132006500Y-101776338D01*
X132006500Y-109770114D01*
X131986498Y-109838235D01*
X131956153Y-109870874D01*
X131824356Y-109969830D01*
X131809965Y-109980635D01*
X131655629Y-110142138D01*
X131548201Y-110299621D01*
X131493293Y-110344621D01*
X131422768Y-110352792D01*
X131359021Y-110321538D01*
X131338324Y-110297054D01*
X131257822Y-110172617D01*
X131257820Y-110172614D01*
X131255014Y-110168277D01*
X131104670Y-110003051D01*
X131100619Y-109999852D01*
X131100615Y-109999848D01*
X130933414Y-109867800D01*
X130933410Y-109867798D01*
X130929359Y-109864598D01*
X130733789Y-109756638D01*
X130728920Y-109754914D01*
X130728916Y-109754912D01*
X130528081Y-109683793D01*
X130528079Y-109683792D01*
X130523212Y-109682069D01*
X130518050Y-109681149D01*
X130517398Y-109681033D01*
X130517132Y-109680901D01*
X130513125Y-109679842D01*
X130513344Y-109679015D01*
X130453842Y-109649392D01*
X130417482Y-109588413D01*
X130413500Y-109556987D01*
X130413500Y-105004802D01*
X130433502Y-104936681D01*
X130463935Y-104903976D01*
X130511081Y-104868642D01*
X130518261Y-104863261D01*
X130605615Y-104746705D01*
X130656745Y-104610316D01*
X130663500Y-104548134D01*
X130663500Y-102451866D01*
X130656745Y-102389684D01*
X130605615Y-102253295D01*
X130518261Y-102136739D01*
X130401705Y-102049385D01*
X130265316Y-101998255D01*
X130203134Y-101991500D01*
X129206866Y-101991500D01*
X129144684Y-101998255D01*
X129114229Y-102009672D01*
X129043423Y-102014855D01*
X129025776Y-102009674D01*
X128995316Y-101998255D01*
X128933134Y-101991500D01*
X128813683Y-101991500D01*
X128745562Y-101971498D01*
X128724588Y-101954595D01*
X127979661Y-101209669D01*
X129197001Y-101209669D01*
X129197371Y-101216490D01*
X129202895Y-101267352D01*
X129206521Y-101282604D01*
X129251676Y-101403054D01*
X129260214Y-101418649D01*
X129336715Y-101520724D01*
X129349276Y-101533285D01*
X129451351Y-101609786D01*
X129466946Y-101618324D01*
X129587394Y-101663478D01*
X129602649Y-101667105D01*
X129653514Y-101672631D01*
X129660328Y-101673000D01*
X130432885Y-101673000D01*
X130448124Y-101668525D01*
X130449329Y-101667135D01*
X130451000Y-101659452D01*
X130451000Y-100987115D01*
X130446525Y-100971876D01*
X130445135Y-100970671D01*
X130437452Y-100969000D01*
X129215116Y-100969000D01*
X129199877Y-100973475D01*
X129198672Y-100974865D01*
X129197001Y-100982548D01*
X129197001Y-101209669D01*
X127979661Y-101209669D01*
X127539464Y-100769472D01*
X127533610Y-100763206D01*
X127500578Y-100725340D01*
X127500575Y-100725337D01*
X127495583Y-100719615D01*
X127443302Y-100682871D01*
X127438008Y-100678939D01*
X127393715Y-100644209D01*
X127387740Y-100639524D01*
X127380824Y-100636401D01*
X127378538Y-100635017D01*
X127363857Y-100626643D01*
X127361497Y-100625378D01*
X127355283Y-100621010D01*
X127348204Y-100618250D01*
X127348202Y-100618249D01*
X127295747Y-100597798D01*
X127289678Y-100595247D01*
X127231449Y-100568955D01*
X127223982Y-100567571D01*
X127221427Y-100566770D01*
X127205174Y-100562141D01*
X127202594Y-100561478D01*
X127195513Y-100558718D01*
X127187982Y-100557727D01*
X127187980Y-100557726D01*
X127158361Y-100553827D01*
X127132161Y-100550378D01*
X127125663Y-100549348D01*
X127062836Y-100537704D01*
X127055256Y-100538141D01*
X127055255Y-100538141D01*
X127000630Y-100541291D01*
X126993376Y-100541500D01*
X126514660Y-100541500D01*
X126446539Y-100521498D01*
X126400046Y-100467842D01*
X126389942Y-100397568D01*
X126419436Y-100332988D01*
X126425565Y-100326405D01*
X128977479Y-97774491D01*
X128984745Y-97767773D01*
X128987496Y-97765424D01*
X128988672Y-97764420D01*
X129053461Y-97735390D01*
X129123661Y-97745997D01*
G37*
%TD.AperFunction*%
%TA.AperFunction,Conductor*%
G36*
X142221121Y-102766002D02*
G01*
X142267614Y-102819658D01*
X142279000Y-102872000D01*
X142279000Y-103964885D01*
X142283475Y-103980124D01*
X142284865Y-103981329D01*
X142292548Y-103983000D01*
X142295438Y-103983000D01*
X142301953Y-103982663D01*
X142394057Y-103973106D01*
X142407456Y-103970212D01*
X142556107Y-103920619D01*
X142569286Y-103914445D01*
X142702173Y-103832212D01*
X142719311Y-103818629D01*
X142720841Y-103820559D01*
X142772880Y-103792097D01*
X142843699Y-103797113D01*
X142880617Y-103820799D01*
X142881372Y-103819843D01*
X142887118Y-103824381D01*
X142892298Y-103829552D01*
X142898528Y-103833392D01*
X142898529Y-103833393D01*
X143030020Y-103914445D01*
X143037899Y-103919302D01*
X143200243Y-103973149D01*
X143207080Y-103973849D01*
X143207082Y-103973850D01*
X143248401Y-103978083D01*
X143301268Y-103983500D01*
X143360340Y-103983500D01*
X143428461Y-104003502D01*
X143474954Y-104057158D01*
X143485058Y-104127432D01*
X143455564Y-104192012D01*
X143449435Y-104198595D01*
X141523595Y-106124435D01*
X141461283Y-106158461D01*
X141390468Y-106153396D01*
X141333632Y-106110849D01*
X141308821Y-106044329D01*
X141308500Y-106035340D01*
X141308500Y-104031937D01*
X141328502Y-103963816D01*
X141382158Y-103917323D01*
X141452432Y-103907219D01*
X141487749Y-103917742D01*
X141495056Y-103921149D01*
X141643814Y-103970491D01*
X141657190Y-103973358D01*
X141748097Y-103982672D01*
X141753126Y-103982929D01*
X141768124Y-103978525D01*
X141769329Y-103977135D01*
X141771000Y-103969452D01*
X141771000Y-102872000D01*
X141791002Y-102803879D01*
X141844658Y-102757386D01*
X141897000Y-102746000D01*
X142153000Y-102746000D01*
X142221121Y-102766002D01*
G37*
%TD.AperFunction*%
%TA.AperFunction,Conductor*%
G36*
X146233621Y-100866002D02*
G01*
X146280114Y-100919658D01*
X146291500Y-100972000D01*
X146291500Y-104123134D01*
X146298255Y-104185316D01*
X146349385Y-104321705D01*
X146436739Y-104438261D01*
X146450561Y-104448620D01*
X146493075Y-104505481D01*
X146498115Y-104576227D01*
X146495000Y-104590547D01*
X146495000Y-105100500D01*
X146474998Y-105168621D01*
X146421342Y-105215114D01*
X146369000Y-105226500D01*
X146137628Y-105226500D01*
X146069507Y-105206498D01*
X146023014Y-105152842D01*
X146012910Y-105082568D01*
X146014508Y-105073715D01*
X146015000Y-105071453D01*
X146015000Y-104595116D01*
X146010525Y-104579877D01*
X146009135Y-104578672D01*
X146001452Y-104577001D01*
X145260331Y-104577001D01*
X145253510Y-104577371D01*
X145202648Y-104582895D01*
X145187396Y-104586521D01*
X145081003Y-104626406D01*
X145010195Y-104631589D01*
X144947826Y-104597668D01*
X144913697Y-104535413D01*
X144911086Y-104501339D01*
X144912295Y-104494814D01*
X144910103Y-104456788D01*
X144911151Y-104431786D01*
X144912965Y-104419037D01*
X144912965Y-104419036D01*
X144913547Y-104414947D01*
X144913704Y-104400000D01*
X144893102Y-104229758D01*
X144873341Y-104177460D01*
X144835171Y-104076447D01*
X144832487Y-104069344D01*
X144773263Y-103983172D01*
X144739659Y-103934278D01*
X144739658Y-103934276D01*
X144735357Y-103928019D01*
X144729686Y-103922966D01*
X144612993Y-103818996D01*
X144612990Y-103818994D01*
X144607321Y-103813943D01*
X144519697Y-103767548D01*
X144505116Y-103759828D01*
X144454273Y-103710275D01*
X144438291Y-103641101D01*
X144456816Y-103582357D01*
X144465461Y-103568333D01*
X144465462Y-103568330D01*
X144469302Y-103562101D01*
X144523149Y-103399757D01*
X144533500Y-103298732D01*
X144533500Y-102701268D01*
X144522887Y-102598981D01*
X144468756Y-102436732D01*
X144435815Y-102383500D01*
X144382608Y-102297518D01*
X144382607Y-102297517D01*
X144378752Y-102291287D01*
X144373586Y-102286130D01*
X144346952Y-102220332D01*
X144360122Y-102150568D01*
X144377141Y-102127167D01*
X144376581Y-102126728D01*
X144381263Y-102120757D01*
X144386639Y-102115381D01*
X144475472Y-101968699D01*
X144477913Y-101960912D01*
X144510855Y-101855791D01*
X144526753Y-101805062D01*
X144533500Y-101731635D01*
X144533499Y-101068366D01*
X144532195Y-101054165D01*
X144527364Y-101001589D01*
X144526753Y-100994938D01*
X144526596Y-100994437D01*
X144532630Y-100926018D01*
X144576112Y-100869895D01*
X144649940Y-100846000D01*
X146165500Y-100846000D01*
X146233621Y-100866002D01*
G37*
%TD.AperFunction*%
%TA.AperFunction,Conductor*%
G36*
X146209532Y-92046604D02*
G01*
X146266368Y-92089151D01*
X146291179Y-92155671D01*
X146291500Y-92164660D01*
X146291500Y-92248134D01*
X146298255Y-92310316D01*
X146320467Y-92369567D01*
X146325650Y-92440372D01*
X146291730Y-92502741D01*
X146285319Y-92508739D01*
X146269615Y-92522439D01*
X146265247Y-92528653D01*
X146265245Y-92528656D01*
X146247979Y-92553222D01*
X146238972Y-92564586D01*
X146213943Y-92592679D01*
X146210391Y-92599388D01*
X146210388Y-92599392D01*
X146198389Y-92622054D01*
X146190124Y-92635541D01*
X146175381Y-92656519D01*
X146171010Y-92662739D01*
X146168249Y-92669820D01*
X146168247Y-92669824D01*
X146157343Y-92697790D01*
X146151306Y-92710977D01*
X146137254Y-92737518D01*
X146133700Y-92744231D01*
X146131851Y-92751591D01*
X146131849Y-92751597D01*
X146125603Y-92776466D01*
X146120791Y-92791543D01*
X146108718Y-92822509D01*
X146107727Y-92830036D01*
X146103806Y-92859817D01*
X146101088Y-92874064D01*
X146091924Y-92910549D01*
X146091884Y-92918141D01*
X146091884Y-92918142D01*
X146091750Y-92943783D01*
X146090675Y-92959560D01*
X146086335Y-92992526D01*
X146087773Y-93005548D01*
X146090464Y-93029925D01*
X146091223Y-93044411D01*
X146091026Y-93082031D01*
X146092799Y-93089415D01*
X146098786Y-93114356D01*
X146101506Y-93129942D01*
X146101702Y-93131715D01*
X146105153Y-93162975D01*
X146112011Y-93181715D01*
X146118082Y-93198306D01*
X146122273Y-93212189D01*
X146129283Y-93241386D01*
X146129285Y-93241390D01*
X146131058Y-93248777D01*
X146137855Y-93261946D01*
X146146301Y-93278310D01*
X146152659Y-93292795D01*
X146161472Y-93316877D01*
X146161475Y-93316883D01*
X146164085Y-93324015D01*
X146168322Y-93330320D01*
X146185070Y-93355243D01*
X146192455Y-93367732D01*
X146209709Y-93401161D01*
X146214705Y-93406887D01*
X146214705Y-93406888D01*
X146231559Y-93426208D01*
X146241191Y-93438760D01*
X146259730Y-93466349D01*
X146287566Y-93491678D01*
X146297701Y-93502028D01*
X146322439Y-93530385D01*
X146328657Y-93534755D01*
X146349630Y-93549495D01*
X146361980Y-93559389D01*
X146386565Y-93581760D01*
X146393243Y-93585386D01*
X146393246Y-93585388D01*
X146419626Y-93599711D01*
X146431956Y-93607356D01*
X146456517Y-93624618D01*
X146456523Y-93624621D01*
X146462739Y-93628990D01*
X146469815Y-93631749D01*
X146469821Y-93631752D01*
X146493707Y-93641064D01*
X146508061Y-93647727D01*
X146530588Y-93659959D01*
X146530595Y-93659962D01*
X146537268Y-93663585D01*
X146573656Y-93673131D01*
X146587452Y-93677614D01*
X146608369Y-93685769D01*
X146622509Y-93691282D01*
X146648861Y-93694751D01*
X146655459Y-93695620D01*
X146670985Y-93698666D01*
X146695787Y-93705173D01*
X146695793Y-93705174D01*
X146703139Y-93707101D01*
X146743316Y-93707732D01*
X146749305Y-93707975D01*
X146753294Y-93708500D01*
X146791253Y-93708500D01*
X146793232Y-93708516D01*
X146867003Y-93709675D01*
X146867006Y-93709675D01*
X146874602Y-93709794D01*
X146878908Y-93708808D01*
X146884784Y-93708500D01*
X149654339Y-93708500D01*
X149722460Y-93728502D01*
X149743435Y-93745405D01*
X149962029Y-93964000D01*
X150178565Y-94180536D01*
X150184418Y-94186801D01*
X150222439Y-94230385D01*
X150274729Y-94267136D01*
X150279971Y-94271028D01*
X150330282Y-94310476D01*
X150337201Y-94313600D01*
X150339493Y-94314988D01*
X150354165Y-94323357D01*
X150356525Y-94324622D01*
X150362739Y-94328990D01*
X150369818Y-94331750D01*
X150369820Y-94331751D01*
X150422275Y-94352202D01*
X150428344Y-94354753D01*
X150486573Y-94381045D01*
X150494046Y-94382430D01*
X150496612Y-94383234D01*
X150512835Y-94387855D01*
X150515427Y-94388520D01*
X150522509Y-94391282D01*
X150530044Y-94392274D01*
X150585861Y-94399622D01*
X150592377Y-94400654D01*
X150630770Y-94407770D01*
X150655186Y-94412295D01*
X150662766Y-94411858D01*
X150662767Y-94411858D01*
X150717380Y-94408709D01*
X150724633Y-94408500D01*
X150815500Y-94408500D01*
X150883621Y-94428502D01*
X150930114Y-94482158D01*
X150941500Y-94534500D01*
X150941500Y-94598134D01*
X150941869Y-94601531D01*
X150948255Y-94660316D01*
X150945826Y-94660580D01*
X150945826Y-94689420D01*
X150948255Y-94689684D01*
X150941500Y-94751866D01*
X150941500Y-95248134D01*
X150941869Y-95251531D01*
X150948255Y-95310316D01*
X150945826Y-95310580D01*
X150945826Y-95339420D01*
X150948255Y-95339684D01*
X150941500Y-95401866D01*
X150941500Y-95898134D01*
X150941869Y-95901531D01*
X150948255Y-95960316D01*
X150946116Y-95960548D01*
X150946166Y-95989512D01*
X150948748Y-95989793D01*
X150942369Y-96048514D01*
X150942000Y-96055328D01*
X150942000Y-96081885D01*
X150946475Y-96097124D01*
X150947865Y-96098329D01*
X150964991Y-96102054D01*
X151027303Y-96136078D01*
X151039035Y-96149610D01*
X151086739Y-96213261D01*
X151148923Y-96259865D01*
X151166681Y-96273174D01*
X151209196Y-96330033D01*
X151214222Y-96400851D01*
X151180162Y-96463145D01*
X151117831Y-96497135D01*
X151091116Y-96500000D01*
X150960116Y-96500000D01*
X150944877Y-96504475D01*
X150935909Y-96514824D01*
X150920392Y-96546730D01*
X150843390Y-96639809D01*
X150836530Y-96649980D01*
X150746038Y-96817342D01*
X150741286Y-96828647D01*
X150702578Y-96953692D01*
X150702372Y-96967795D01*
X150709127Y-96971000D01*
X151527885Y-96971000D01*
X151543124Y-96966525D01*
X151544329Y-96965135D01*
X151546000Y-96957452D01*
X151546000Y-96500000D01*
X151546552Y-96500000D01*
X151546553Y-96449000D01*
X151584938Y-96389275D01*
X151649519Y-96359782D01*
X151667449Y-96358500D01*
X152199000Y-96358500D01*
X152267121Y-96378502D01*
X152313614Y-96432158D01*
X152325000Y-96484500D01*
X152325000Y-96922000D01*
X152304998Y-96990121D01*
X152251342Y-97036614D01*
X152199000Y-97048000D01*
X152072115Y-97048000D01*
X152056876Y-97052475D01*
X152055671Y-97053865D01*
X152054000Y-97061548D01*
X152054000Y-97221070D01*
X152033998Y-97289191D01*
X152017095Y-97310165D01*
X151885165Y-97442095D01*
X151822853Y-97476121D01*
X151796070Y-97479000D01*
X150716014Y-97479000D01*
X150702483Y-97482973D01*
X150701363Y-97490768D01*
X150735846Y-97607932D01*
X150740439Y-97619300D01*
X150828586Y-97787911D01*
X150835302Y-97798173D01*
X150954515Y-97946443D01*
X150963103Y-97955213D01*
X151108838Y-98077499D01*
X151118969Y-98084437D01*
X151285692Y-98176094D01*
X151296962Y-98180924D01*
X151478315Y-98238452D01*
X151490308Y-98241001D01*
X151506057Y-98242768D01*
X151571523Y-98270239D01*
X151611745Y-98328743D01*
X151618011Y-98367983D01*
X151618011Y-100692272D01*
X151598009Y-100760393D01*
X151581106Y-100781367D01*
X149523595Y-102838878D01*
X149461283Y-102872904D01*
X149390468Y-102867839D01*
X149333632Y-102825292D01*
X149308821Y-102758772D01*
X149308500Y-102749783D01*
X149308500Y-96151866D01*
X149301745Y-96089684D01*
X149250615Y-95953295D01*
X149163261Y-95836739D01*
X149046705Y-95749385D01*
X148910316Y-95698255D01*
X148848134Y-95691500D01*
X146751866Y-95691500D01*
X146689684Y-95698255D01*
X146553295Y-95749385D01*
X146436739Y-95836739D01*
X146349385Y-95953295D01*
X146298255Y-96089684D01*
X146291500Y-96151866D01*
X146291500Y-99303000D01*
X146271498Y-99371121D01*
X146217842Y-99417614D01*
X146165500Y-99429000D01*
X144629983Y-99429000D01*
X144561862Y-99408998D01*
X144515369Y-99355342D01*
X144509749Y-99340679D01*
X144477744Y-99238550D01*
X144477743Y-99238548D01*
X144475472Y-99231301D01*
X144386639Y-99084619D01*
X144265381Y-98963361D01*
X144118699Y-98874528D01*
X144019328Y-98843387D01*
X143960306Y-98803929D01*
X143931987Y-98738826D01*
X143943360Y-98668746D01*
X143967913Y-98634057D01*
X144185592Y-98416379D01*
X144580535Y-98021436D01*
X144586800Y-98015583D01*
X144624662Y-97982554D01*
X144624664Y-97982552D01*
X144630385Y-97977561D01*
X144638244Y-97966379D01*
X144652235Y-97949736D01*
X144731393Y-97870578D01*
X144791694Y-97793672D01*
X144805788Y-97775697D01*
X144810476Y-97769718D01*
X144881045Y-97613427D01*
X144882980Y-97602991D01*
X144910911Y-97452281D01*
X144912295Y-97444814D01*
X144902424Y-97273615D01*
X144896305Y-97253723D01*
X144868028Y-97161808D01*
X144852001Y-97109711D01*
X144826384Y-97066908D01*
X144808500Y-97002202D01*
X144808500Y-93906092D01*
X144828502Y-93837971D01*
X144845327Y-93817074D01*
X144924381Y-93737882D01*
X144929552Y-93732702D01*
X144944461Y-93708516D01*
X145015462Y-93593331D01*
X145015463Y-93593329D01*
X145019302Y-93587101D01*
X145073149Y-93424757D01*
X145075534Y-93401486D01*
X145083172Y-93326930D01*
X145083500Y-93323732D01*
X145083500Y-93120660D01*
X145103502Y-93052539D01*
X145120405Y-93031565D01*
X146076405Y-92075565D01*
X146138717Y-92041539D01*
X146209532Y-92046604D01*
G37*
%TD.AperFunction*%
%TD*%
M02*
