%TF.GenerationSoftware,KiCad,Pcbnew,6.0.0*%
%TF.CreationDate,2022-01-15T13:45:40+01:00*%
%TF.ProjectId,ir_daughter_board,69725f64-6175-4676-9874-65725f626f61,rev?*%
%TF.SameCoordinates,Original*%
%TF.FileFunction,Copper,L1,Top*%
%TF.FilePolarity,Positive*%
%FSLAX46Y46*%
G04 Gerber Fmt 4.6, Leading zero omitted, Abs format (unit mm)*
G04 Created by KiCad (PCBNEW 6.0.0) date 2022-01-15 13:45:40*
%MOMM*%
%LPD*%
G01*
G04 APERTURE LIST*
G04 Aperture macros list*
%AMRoundRect*
0 Rectangle with rounded corners*
0 $1 Rounding radius*
0 $2 $3 $4 $5 $6 $7 $8 $9 X,Y pos of 4 corners*
0 Add a 4 corners polygon primitive as box body*
4,1,4,$2,$3,$4,$5,$6,$7,$8,$9,$2,$3,0*
0 Add four circle primitives for the rounded corners*
1,1,$1+$1,$2,$3*
1,1,$1+$1,$4,$5*
1,1,$1+$1,$6,$7*
1,1,$1+$1,$8,$9*
0 Add four rect primitives between the rounded corners*
20,1,$1+$1,$2,$3,$4,$5,0*
20,1,$1+$1,$4,$5,$6,$7,0*
20,1,$1+$1,$6,$7,$8,$9,0*
20,1,$1+$1,$8,$9,$2,$3,0*%
G04 Aperture macros list end*
%TA.AperFunction,SMDPad,CuDef*%
%ADD10R,1.500000X0.900000*%
%TD*%
%TA.AperFunction,SMDPad,CuDef*%
%ADD11R,4.000000X4.000000*%
%TD*%
%TA.AperFunction,SMDPad,CuDef*%
%ADD12R,1.600000X1.400000*%
%TD*%
%TA.AperFunction,SMDPad,CuDef*%
%ADD13RoundRect,0.218750X-0.218750X-0.256250X0.218750X-0.256250X0.218750X0.256250X-0.218750X0.256250X0*%
%TD*%
%TA.AperFunction,ComponentPad*%
%ADD14R,1.700000X1.700000*%
%TD*%
%TA.AperFunction,ComponentPad*%
%ADD15O,1.700000X1.700000*%
%TD*%
%TA.AperFunction,ComponentPad*%
%ADD16R,1.800000X1.800000*%
%TD*%
%TA.AperFunction,ComponentPad*%
%ADD17C,1.800000*%
%TD*%
%TA.AperFunction,ComponentPad*%
%ADD18O,1.900000X1.000000*%
%TD*%
%TA.AperFunction,ComponentPad*%
%ADD19O,1.250000X1.050000*%
%TD*%
%TA.AperFunction,ViaPad*%
%ADD20C,0.400000*%
%TD*%
%TA.AperFunction,Conductor*%
%ADD21C,0.500000*%
%TD*%
%TA.AperFunction,Conductor*%
%ADD22C,0.200000*%
%TD*%
G04 APERTURE END LIST*
D10*
%TO.P,U3,1,VDD*%
%TO.N,+3V3*%
X110250000Y-89600000D03*
%TO.P,U3,2,EN*%
%TO.N,Net-(C10-Pad1)*%
X110250000Y-91100000D03*
%TO.P,U3,3,IO14*%
%TO.N,IR*%
X110250000Y-92600000D03*
%TO.P,U3,4,IO12*%
%TO.N,GPIO 12*%
X110250000Y-94100000D03*
%TO.P,U3,5,IO13*%
%TO.N,GPIO 13*%
X110250000Y-95600000D03*
%TO.P,U3,6,IO15*%
%TO.N,Net-(R14-Pad2)*%
X110250000Y-97100000D03*
%TO.P,U3,7,IO2*%
%TO.N,GPIO 02*%
X110250000Y-98600000D03*
%TO.P,U3,8,IO0*%
%TO.N,Net-(SW1-Pad1)*%
X110250000Y-100100000D03*
%TO.P,U3,9,GND*%
%TO.N,GND*%
X110250000Y-101600000D03*
%TO.P,U3,10,IO4*%
%TO.N,GPIO 04*%
X127750000Y-101600000D03*
%TO.P,U3,11,RXD*%
%TO.N,/IR_Remote_Circuit/TXD*%
X127750000Y-100100000D03*
%TO.P,U3,12,TXD*%
%TO.N,/IR_Remote_Circuit/RXD*%
X127750000Y-98600000D03*
%TO.P,U3,13,GND*%
%TO.N,GND*%
X127750000Y-97100000D03*
%TO.P,U3,14,IO5*%
%TO.N,GPIO 05*%
X127750000Y-95600000D03*
%TO.P,U3,15,RST*%
%TO.N,Net-(SW2-Pad1)*%
X127750000Y-94100000D03*
%TO.P,U3,16,TOUT*%
%TO.N,ADC*%
X127750000Y-92600000D03*
%TO.P,U3,17,IO16*%
%TO.N,GPIO 16*%
X127750000Y-91100000D03*
%TO.P,U3,18,GND*%
%TO.N,GND*%
X127750000Y-89600000D03*
D11*
%TO.P,U3,19,GND*%
X120100000Y-96210000D03*
%TD*%
D12*
%TO.P,SW1,1,1*%
%TO.N,Net-(SW1-Pad1)*%
X105500000Y-106850000D03*
%TO.P,SW1,2,2*%
X113500000Y-106850000D03*
%TO.P,SW1,3,K*%
%TO.N,GND*%
X105500000Y-111350000D03*
%TO.P,SW1,4,A*%
X113500000Y-111350000D03*
%TD*%
D13*
%TO.P,D4,1,K*%
%TO.N,GND*%
X126312500Y-111750000D03*
%TO.P,D4,2,A*%
%TO.N,Net-(D4-Pad2)*%
X127887500Y-111750000D03*
%TD*%
D14*
%TO.P,J3,1,Pin_1*%
%TO.N,GND*%
X132080000Y-91000000D03*
D15*
%TO.P,J3,2,Pin_2*%
%TO.N,GPIO 16*%
X132080000Y-93540000D03*
%TO.P,J3,3,Pin_3*%
%TO.N,ADC*%
X132080000Y-96080000D03*
%TO.P,J3,4,Pin_4*%
%TO.N,GPIO 05*%
X132080000Y-98620000D03*
%TO.P,J3,5,Pin_5*%
%TO.N,GPIO 04*%
X132080000Y-101160000D03*
%TO.P,J3,6,Pin_6*%
%TO.N,+3V3*%
X132080000Y-103700000D03*
%TD*%
D12*
%TO.P,SW2,1,1*%
%TO.N,Net-(SW2-Pad1)*%
X115800000Y-106850000D03*
%TO.P,SW2,2,2*%
X123800000Y-106850000D03*
%TO.P,SW2,3,K*%
%TO.N,GND*%
X115800000Y-111350000D03*
%TO.P,SW2,4,A*%
X123800000Y-111350000D03*
%TD*%
D13*
%TO.P,D2,1,K*%
%TO.N,TXLED*%
X126312500Y-106500000D03*
%TO.P,D2,2,A*%
%TO.N,Net-(D2-Pad2)*%
X127887500Y-106500000D03*
%TD*%
D14*
%TO.P,J2,1,Pin_1*%
%TO.N,GND*%
X106680000Y-91000000D03*
D15*
%TO.P,J2,2,Pin_2*%
%TO.N,IR*%
X106680000Y-93540000D03*
%TO.P,J2,3,Pin_3*%
%TO.N,GPIO 12*%
X106680000Y-96080000D03*
%TO.P,J2,4,Pin_4*%
%TO.N,GPIO 13*%
X106680000Y-98620000D03*
%TO.P,J2,5,Pin_5*%
%TO.N,GPIO 02*%
X106680000Y-101160000D03*
%TO.P,J2,6,Pin_6*%
%TO.N,+3V3*%
X106680000Y-103700000D03*
%TD*%
D13*
%TO.P,D5,1,K*%
%TO.N,GND*%
X126312500Y-110000000D03*
%TO.P,D5,2,A*%
%TO.N,Net-(D5-Pad2)*%
X127887500Y-110000000D03*
%TD*%
%TO.P,D3,1,K*%
%TO.N,RXLED*%
X126312500Y-108250000D03*
%TO.P,D3,2,A*%
%TO.N,Net-(D3-Pad2)*%
X127887500Y-108250000D03*
%TD*%
D16*
%TO.P,D6,1,K*%
%TO.N,IR*%
X100400000Y-95700000D03*
D17*
%TO.P,D6,2,A*%
%TO.N,Net-(D6-Pad2)*%
X100400000Y-98240000D03*
%TD*%
D18*
%TO.P,J1,6,Shield*%
%TO.N,unconnected-(J1-Pad6)*%
X140250000Y-92825000D03*
D19*
X137250000Y-99225000D03*
X137250000Y-94775000D03*
D18*
X140250000Y-101175000D03*
%TD*%
D20*
%TO.N,GND*%
X116700000Y-89700000D03*
X111500000Y-93600000D03*
X117400000Y-94200000D03*
X109574000Y-111350000D03*
X125194000Y-109444000D03*
%TO.N,TXLED*%
X114900000Y-99600000D03*
%TO.N,RXLED*%
X114200000Y-99900000D03*
%TO.N,Net-(C10-Pad1)*%
X108750000Y-91000000D03*
%TO.N,USBCFG*%
X113853690Y-92300000D03*
X118700000Y-90100000D03*
%TO.N,SSPND*%
X114700000Y-91800000D03*
X117197092Y-90766019D03*
%TO.N,Net-(D2-Pad2)*%
X133300000Y-106000000D03*
%TO.N,Net-(D3-Pad2)*%
X133400000Y-107000000D03*
%TO.N,Net-(D4-Pad2)*%
X133500000Y-89000000D03*
%TO.N,Net-(D5-Pad2)*%
X133423489Y-89923489D03*
%TO.N,+5V*%
X108300000Y-106200000D03*
X108400000Y-102900000D03*
X118500000Y-103900000D03*
%TO.N,+3V3*%
X100250000Y-102250000D03*
X114300000Y-91100000D03*
X104000000Y-92000000D03*
%TO.N,/IR_Remote_Circuit/RXD*%
X113500000Y-99900000D03*
%TO.N,/IR_Remote_Circuit/TXD*%
X126100000Y-99900000D03*
%TO.N,Net-(R14-Pad2)*%
X99500000Y-100500000D03*
%TD*%
D21*
%TO.N,GND*%
X120100000Y-90400000D02*
X120100000Y-96210000D01*
X126200000Y-89600000D02*
X127750000Y-89600000D01*
X115800000Y-111350000D02*
X123800000Y-111350000D01*
X124962500Y-111350000D02*
X126312500Y-110000000D01*
X131300000Y-91000000D02*
X129900000Y-89600000D01*
X126312500Y-110000000D02*
X126312500Y-111750000D01*
X117200000Y-89200000D02*
X118900000Y-89200000D01*
X126800000Y-97100000D02*
X124800000Y-95100000D01*
X111500000Y-93600000D02*
X112100000Y-94200000D01*
X123800000Y-111350000D02*
X124962500Y-111350000D01*
X132000000Y-91000000D02*
X131300000Y-91000000D01*
X112100000Y-94200000D02*
X117400000Y-94200000D01*
X123690000Y-96210000D02*
X124800000Y-95100000D01*
X116700000Y-89700000D02*
X117200000Y-89200000D01*
X110600000Y-101600000D02*
X115990000Y-96210000D01*
X113500000Y-111350000D02*
X115800000Y-111350000D01*
X127750000Y-97100000D02*
X126800000Y-97100000D01*
X118090000Y-94200000D02*
X120100000Y-96210000D01*
X117400000Y-94200000D02*
X118090000Y-94200000D01*
X118900000Y-89200000D02*
X120100000Y-90400000D01*
X124800000Y-95100000D02*
X124800000Y-91000000D01*
X124800000Y-91000000D02*
X126200000Y-89600000D01*
X109574000Y-111350000D02*
X113500000Y-111350000D01*
X120100000Y-96210000D02*
X123690000Y-96210000D01*
X129900000Y-89600000D02*
X127750000Y-89600000D01*
X125756500Y-109444000D02*
X126312500Y-110000000D01*
X125194000Y-109444000D02*
X125756500Y-109444000D01*
X115990000Y-96210000D02*
X120100000Y-96210000D01*
X105500000Y-111350000D02*
X109574000Y-111350000D01*
D22*
%TO.N,TXLED*%
X126312500Y-106500000D02*
X119412500Y-99600000D01*
X119412500Y-99600000D02*
X114900000Y-99600000D01*
%TO.N,RXLED*%
X114400000Y-100100000D02*
X119300000Y-100100000D01*
X119300000Y-100100000D02*
X125300000Y-106100000D01*
X114200000Y-99900000D02*
X114400000Y-100100000D01*
X125300000Y-107800000D02*
X125750000Y-108250000D01*
X125300000Y-106100000D02*
X125300000Y-107800000D01*
X125750000Y-108250000D02*
X126312500Y-108250000D01*
D21*
%TO.N,Net-(C10-Pad1)*%
X108750000Y-91000000D02*
X110150000Y-91000000D01*
D22*
%TO.N,USBCFG*%
X113853690Y-92300000D02*
X116500000Y-92300000D01*
X116500000Y-92300000D02*
X118700000Y-90100000D01*
%TO.N,SSPND*%
X116163111Y-91800000D02*
X117197092Y-90766019D01*
X114700000Y-91800000D02*
X116163111Y-91800000D01*
D21*
%TO.N,GPIO 02*%
X109950000Y-98600000D02*
X107390000Y-101160000D01*
X107390000Y-101160000D02*
X106680000Y-101160000D01*
%TO.N,GPIO 04*%
X131560000Y-101600000D02*
X132000000Y-101160000D01*
X127750000Y-101600000D02*
X131560000Y-101600000D01*
%TO.N,GPIO 05*%
X127750000Y-95600000D02*
X128980000Y-95600000D01*
X128980000Y-95600000D02*
X132000000Y-98620000D01*
%TO.N,GPIO 12*%
X110250000Y-94100000D02*
X108660000Y-94100000D01*
X108660000Y-94100000D02*
X106680000Y-96080000D01*
%TO.N,GPIO 13*%
X109020000Y-95600000D02*
X110250000Y-95600000D01*
X106680000Y-98620000D02*
X108400000Y-96900000D01*
X108400000Y-96900000D02*
X108400000Y-96220000D01*
X108400000Y-96220000D02*
X109020000Y-95600000D01*
%TO.N,GPIO 16*%
X127750000Y-91100000D02*
X129560000Y-91100000D01*
X129560000Y-91100000D02*
X132000000Y-93540000D01*
D22*
%TO.N,Net-(D2-Pad2)*%
X132800000Y-106500000D02*
X127887500Y-106500000D01*
X133300000Y-106000000D02*
X132800000Y-106500000D01*
%TO.N,Net-(D3-Pad2)*%
X133400000Y-107000000D02*
X132150000Y-108250000D01*
X132150000Y-108250000D02*
X127887500Y-108250000D01*
%TO.N,Net-(D4-Pad2)*%
X133500000Y-89000000D02*
X135426520Y-90926520D01*
X129911769Y-111750000D02*
X135426520Y-106235249D01*
X135426520Y-106235249D02*
X135426520Y-90926520D01*
X127887500Y-111750000D02*
X129911769Y-111750000D01*
%TO.N,Net-(D5-Pad2)*%
X135100000Y-106100000D02*
X135100000Y-100462191D01*
X127887500Y-110000000D02*
X131200000Y-110000000D01*
X135100000Y-100462191D02*
X135000000Y-100362191D01*
X135000000Y-91500000D02*
X133423489Y-89923489D01*
X135000000Y-100362191D02*
X135000000Y-91500000D01*
X131200000Y-110000000D02*
X135100000Y-106100000D01*
D21*
%TO.N,+5V*%
X109400000Y-103900000D02*
X118500000Y-103900000D01*
X108300000Y-106200000D02*
X108400000Y-106100000D01*
X108400000Y-106100000D02*
X108400000Y-102900000D01*
X108400000Y-102900000D02*
X109400000Y-103900000D01*
%TO.N,+3V3*%
X104000000Y-91250000D02*
X103250000Y-92000000D01*
X112800000Y-89600000D02*
X114300000Y-91100000D01*
X103250000Y-92000000D02*
X104000000Y-92000000D01*
X104000000Y-91226978D02*
X105626978Y-89600000D01*
X101000000Y-92000000D02*
X103250000Y-92000000D01*
X110250000Y-89600000D02*
X112800000Y-89600000D01*
X98250000Y-100250000D02*
X98250000Y-94750000D01*
X105626978Y-89600000D02*
X110250000Y-89600000D01*
X104000000Y-92000000D02*
X104000000Y-91226978D01*
X100250000Y-102250000D02*
X98250000Y-100250000D01*
X98250000Y-94750000D02*
X101000000Y-92000000D01*
D22*
%TO.N,/IR_Remote_Circuit/RXD*%
X114800000Y-98600000D02*
X113500000Y-99900000D01*
X127750000Y-98600000D02*
X114800000Y-98600000D01*
%TO.N,/IR_Remote_Circuit/TXD*%
X126100000Y-99900000D02*
X127550000Y-99900000D01*
D21*
%TO.N,ADC*%
X128520000Y-92600000D02*
X132000000Y-96080000D01*
X127750000Y-92600000D02*
X128520000Y-92600000D01*
D22*
%TO.N,Net-(R14-Pad2)*%
X107996708Y-99103292D02*
X107200000Y-99900000D01*
X107200000Y-99900000D02*
X100100000Y-99900000D01*
X107996708Y-98174058D02*
X107996708Y-99103292D01*
X107996708Y-98174058D02*
X109070766Y-97100000D01*
X99500000Y-100500000D02*
X100100000Y-99900000D01*
X109070766Y-97100000D02*
X110250000Y-97100000D01*
D21*
%TO.N,IR*%
X110250000Y-92600000D02*
X107620000Y-92600000D01*
X107620000Y-92600000D02*
X106680000Y-93540000D01*
X100400000Y-95270000D02*
X101960000Y-93710000D01*
X101960000Y-93710000D02*
X106510000Y-93710000D01*
D22*
%TO.N,Net-(SW1-Pad1)*%
X105500000Y-106850000D02*
X107900000Y-104450000D01*
X107900000Y-101900000D02*
X109700000Y-100100000D01*
X107900000Y-104450000D02*
X107900000Y-101900000D01*
X105500000Y-106850000D02*
X113500000Y-106850000D01*
%TO.N,Net-(SW2-Pad1)*%
X129250000Y-102400000D02*
X132500000Y-102400000D01*
X133300000Y-98317582D02*
X132525907Y-97543489D01*
X127000000Y-104650000D02*
X129250000Y-102400000D01*
X123800000Y-106850000D02*
X125901520Y-108951520D01*
X131700000Y-97543489D02*
X131700000Y-97400000D01*
X127000000Y-108667206D02*
X127000000Y-104650000D01*
X126715686Y-108951520D02*
X127000000Y-108667206D01*
X132500000Y-102400000D02*
X133300000Y-101600000D01*
X131700000Y-97400000D02*
X128400000Y-94100000D01*
X132525907Y-97543489D02*
X131700000Y-97543489D01*
X123800000Y-106850000D02*
X115800000Y-106850000D01*
X125901520Y-108951520D02*
X126715686Y-108951520D01*
X133300000Y-101600000D02*
X133300000Y-98317582D01*
%TD*%
%TA.AperFunction,Conductor*%
%TO.N,GND*%
G36*
X105355335Y-100528502D02*
G01*
X105401828Y-100582158D01*
X105411932Y-100652432D01*
X105403900Y-100679479D01*
X105404652Y-100679756D01*
X105402862Y-100684621D01*
X105400688Y-100689305D01*
X105340989Y-100904570D01*
X105317251Y-101126695D01*
X105330110Y-101349715D01*
X105331247Y-101354761D01*
X105331248Y-101354767D01*
X105333529Y-101364888D01*
X105379222Y-101567639D01*
X105395688Y-101608189D01*
X105456865Y-101758851D01*
X105463266Y-101774616D01*
X105465965Y-101779020D01*
X105559773Y-101932101D01*
X105579987Y-101965088D01*
X105726250Y-102133938D01*
X105841355Y-102229500D01*
X105885072Y-102265794D01*
X105898126Y-102276632D01*
X105968595Y-102317811D01*
X105971445Y-102319476D01*
X106020169Y-102371114D01*
X106033240Y-102440897D01*
X106006509Y-102506669D01*
X105966055Y-102540027D01*
X105953607Y-102546507D01*
X105949474Y-102549610D01*
X105949471Y-102549612D01*
X105839530Y-102632158D01*
X105774965Y-102680635D01*
X105620629Y-102842138D01*
X105617715Y-102846410D01*
X105617714Y-102846411D01*
X105596792Y-102877082D01*
X105494743Y-103026680D01*
X105479003Y-103060590D01*
X105421611Y-103184231D01*
X105400688Y-103229305D01*
X105340989Y-103444570D01*
X105317251Y-103666695D01*
X105317548Y-103671848D01*
X105317548Y-103671851D01*
X105323011Y-103766590D01*
X105330110Y-103889715D01*
X105331247Y-103894761D01*
X105331248Y-103894767D01*
X105351119Y-103982939D01*
X105379222Y-104107639D01*
X105463266Y-104314616D01*
X105492773Y-104362767D01*
X105568202Y-104485856D01*
X105579987Y-104505088D01*
X105726250Y-104673938D01*
X105898126Y-104816632D01*
X106091000Y-104929338D01*
X106095825Y-104931180D01*
X106095826Y-104931181D01*
X106248875Y-104989625D01*
X106305378Y-105032613D01*
X106329671Y-105099324D01*
X106314041Y-105168579D01*
X106293021Y-105196430D01*
X105884856Y-105604595D01*
X105822544Y-105638621D01*
X105795761Y-105641500D01*
X104651866Y-105641500D01*
X104589684Y-105648255D01*
X104453295Y-105699385D01*
X104336739Y-105786739D01*
X104249385Y-105903295D01*
X104198255Y-106039684D01*
X104191500Y-106101866D01*
X104191500Y-107598134D01*
X104198255Y-107660316D01*
X104249385Y-107796705D01*
X104336739Y-107913261D01*
X104453295Y-108000615D01*
X104589684Y-108051745D01*
X104651866Y-108058500D01*
X106348134Y-108058500D01*
X106410316Y-108051745D01*
X106546705Y-108000615D01*
X106663261Y-107913261D01*
X106750615Y-107796705D01*
X106801745Y-107660316D01*
X106808500Y-107598134D01*
X106808500Y-107584500D01*
X106828502Y-107516379D01*
X106882158Y-107469886D01*
X106934500Y-107458500D01*
X112065500Y-107458500D01*
X112133621Y-107478502D01*
X112180114Y-107532158D01*
X112191500Y-107584500D01*
X112191500Y-107598134D01*
X112198255Y-107660316D01*
X112249385Y-107796705D01*
X112336739Y-107913261D01*
X112453295Y-108000615D01*
X112589684Y-108051745D01*
X112651866Y-108058500D01*
X114348134Y-108058500D01*
X114410316Y-108051745D01*
X114546705Y-108000615D01*
X114574436Y-107979832D01*
X114640943Y-107954985D01*
X114710325Y-107970039D01*
X114725564Y-107979832D01*
X114753295Y-108000615D01*
X114889684Y-108051745D01*
X114951866Y-108058500D01*
X116648134Y-108058500D01*
X116710316Y-108051745D01*
X116846705Y-108000615D01*
X116963261Y-107913261D01*
X117050615Y-107796705D01*
X117101745Y-107660316D01*
X117108500Y-107598134D01*
X117108500Y-107584500D01*
X117128502Y-107516379D01*
X117182158Y-107469886D01*
X117234500Y-107458500D01*
X122365500Y-107458500D01*
X122433621Y-107478502D01*
X122480114Y-107532158D01*
X122491500Y-107584500D01*
X122491500Y-107598134D01*
X122498255Y-107660316D01*
X122549385Y-107796705D01*
X122636739Y-107913261D01*
X122753295Y-108000615D01*
X122889684Y-108051745D01*
X122951866Y-108058500D01*
X124095761Y-108058500D01*
X124163882Y-108078502D01*
X124184856Y-108095405D01*
X125437205Y-109347754D01*
X125448072Y-109360145D01*
X125467533Y-109385507D01*
X125474083Y-109390533D01*
X125499445Y-109409994D01*
X125499448Y-109409997D01*
X125532240Y-109435159D01*
X125594644Y-109483044D01*
X125742669Y-109544358D01*
X125750856Y-109545436D01*
X125750857Y-109545436D01*
X125762062Y-109546911D01*
X125793258Y-109551018D01*
X125861635Y-109560020D01*
X125861638Y-109560020D01*
X125861646Y-109560021D01*
X125893331Y-109564192D01*
X125901520Y-109565270D01*
X125933213Y-109561098D01*
X125949656Y-109560020D01*
X126667550Y-109560020D01*
X126683993Y-109561098D01*
X126715686Y-109565270D01*
X126723875Y-109564192D01*
X126755560Y-109560021D01*
X126755570Y-109560020D01*
X126755571Y-109560020D01*
X126755579Y-109560019D01*
X126800069Y-109554162D01*
X126870218Y-109565102D01*
X126923316Y-109612230D01*
X126942506Y-109680584D01*
X126941858Y-109691933D01*
X126941500Y-109695428D01*
X126941500Y-110304572D01*
X126952022Y-110405982D01*
X127005692Y-110566849D01*
X127094929Y-110711055D01*
X127100107Y-110716224D01*
X127100111Y-110716229D01*
X127169804Y-110785800D01*
X127203884Y-110848082D01*
X127198881Y-110918902D01*
X127169960Y-110963990D01*
X127094136Y-111039947D01*
X127005151Y-111184308D01*
X126951762Y-111345269D01*
X126941500Y-111445428D01*
X126941500Y-112054572D01*
X126952022Y-112155982D01*
X126954204Y-112162522D01*
X126993907Y-112281524D01*
X127004921Y-112314538D01*
X127005692Y-112316849D01*
X127005296Y-112316981D01*
X127015398Y-112382727D01*
X126986530Y-112447589D01*
X126927177Y-112486548D01*
X126890513Y-112492000D01*
X97634000Y-112492000D01*
X97565879Y-112471998D01*
X97519386Y-112418342D01*
X97508000Y-112366000D01*
X97508000Y-109132703D01*
X98890743Y-109132703D01*
X98891302Y-109136947D01*
X98891302Y-109136951D01*
X98893650Y-109154784D01*
X98928268Y-109417734D01*
X99004129Y-109695036D01*
X99116923Y-109959476D01*
X99264561Y-110206161D01*
X99444313Y-110430528D01*
X99461397Y-110446740D01*
X99631857Y-110608500D01*
X99652851Y-110628423D01*
X99886317Y-110796186D01*
X99890112Y-110798195D01*
X99890113Y-110798196D01*
X99911869Y-110809715D01*
X100140392Y-110930712D01*
X100410373Y-111029511D01*
X100691264Y-111090755D01*
X100719841Y-111093004D01*
X100914282Y-111108307D01*
X100914291Y-111108307D01*
X100916739Y-111108500D01*
X101072271Y-111108500D01*
X101074407Y-111108354D01*
X101074418Y-111108354D01*
X101282548Y-111094165D01*
X101282554Y-111094164D01*
X101286825Y-111093873D01*
X101291020Y-111093004D01*
X101291022Y-111093004D01*
X101427584Y-111064723D01*
X101568342Y-111035574D01*
X101839343Y-110939607D01*
X102094812Y-110807750D01*
X102098313Y-110805289D01*
X102098317Y-110805287D01*
X102273511Y-110682158D01*
X102330023Y-110642441D01*
X102540622Y-110446740D01*
X102722713Y-110224268D01*
X102872927Y-109979142D01*
X102988483Y-109715898D01*
X102998543Y-109680584D01*
X103066068Y-109443534D01*
X103067244Y-109439406D01*
X103099295Y-109214200D01*
X103107146Y-109159036D01*
X103107146Y-109159034D01*
X103107751Y-109154784D01*
X103107845Y-109136951D01*
X103109235Y-108871583D01*
X103109235Y-108871576D01*
X103109257Y-108867297D01*
X103071732Y-108582266D01*
X102995871Y-108304964D01*
X102899276Y-108078502D01*
X102884763Y-108044476D01*
X102884761Y-108044472D01*
X102883077Y-108040524D01*
X102806912Y-107913261D01*
X102737643Y-107797521D01*
X102737640Y-107797517D01*
X102735439Y-107793839D01*
X102555687Y-107569472D01*
X102347149Y-107371577D01*
X102129574Y-107215233D01*
X102117172Y-107206321D01*
X102117171Y-107206320D01*
X102113683Y-107203814D01*
X102091843Y-107192250D01*
X102046767Y-107168384D01*
X101859608Y-107069288D01*
X101589627Y-106970489D01*
X101308736Y-106909245D01*
X101277685Y-106906801D01*
X101085718Y-106891693D01*
X101085709Y-106891693D01*
X101083261Y-106891500D01*
X100927729Y-106891500D01*
X100925593Y-106891646D01*
X100925582Y-106891646D01*
X100717452Y-106905835D01*
X100717446Y-106905836D01*
X100713175Y-106906127D01*
X100708980Y-106906996D01*
X100708978Y-106906996D01*
X100572417Y-106935276D01*
X100431658Y-106964426D01*
X100160657Y-107060393D01*
X99905188Y-107192250D01*
X99901687Y-107194711D01*
X99901683Y-107194713D01*
X99872486Y-107215233D01*
X99669977Y-107357559D01*
X99654892Y-107371577D01*
X99468083Y-107545171D01*
X99459378Y-107553260D01*
X99277287Y-107775732D01*
X99127073Y-108020858D01*
X99125347Y-108024791D01*
X99125346Y-108024792D01*
X99113140Y-108052598D01*
X99011517Y-108284102D01*
X98932756Y-108560594D01*
X98892249Y-108845216D01*
X98892227Y-108849505D01*
X98892226Y-108849512D01*
X98891013Y-109081098D01*
X98890743Y-109132703D01*
X97508000Y-109132703D01*
X97508000Y-100884871D01*
X97528002Y-100816750D01*
X97581658Y-100770257D01*
X97651932Y-100760153D01*
X97716512Y-100789647D01*
X97723095Y-100795776D01*
X99744979Y-102817660D01*
X99848716Y-102899734D01*
X99855347Y-102902833D01*
X99855350Y-102902835D01*
X100002318Y-102971523D01*
X100002322Y-102971524D01*
X100008950Y-102974622D01*
X100016112Y-102976112D01*
X100016113Y-102976112D01*
X100095533Y-102992631D01*
X100182115Y-103010640D01*
X100358921Y-103005857D01*
X100366004Y-103003979D01*
X100522802Y-102962404D01*
X100522804Y-102962403D01*
X100529884Y-102960526D01*
X100637704Y-102902835D01*
X100679374Y-102880539D01*
X100679377Y-102880537D01*
X100685834Y-102877082D01*
X100691322Y-102872235D01*
X100691325Y-102872233D01*
X100753117Y-102817660D01*
X100818404Y-102760000D01*
X100908754Y-102632158D01*
X100916259Y-102621539D01*
X100916261Y-102621536D01*
X100920484Y-102615560D01*
X100986598Y-102451510D01*
X101005073Y-102330067D01*
X101012099Y-102283885D01*
X101012099Y-102283881D01*
X101013199Y-102276651D01*
X101011423Y-102254807D01*
X101002658Y-102147056D01*
X100998860Y-102100363D01*
X100994540Y-102087026D01*
X100946608Y-101939067D01*
X100946607Y-101939064D01*
X100944351Y-101932101D01*
X100940554Y-101925843D01*
X100855504Y-101785686D01*
X100855501Y-101785682D01*
X100852595Y-101780893D01*
X100848886Y-101776694D01*
X100848883Y-101776689D01*
X100846491Y-101773981D01*
X100846488Y-101773977D01*
X100845197Y-101772516D01*
X100113765Y-101041084D01*
X100079739Y-100978772D01*
X100084804Y-100907957D01*
X100100538Y-100878462D01*
X100120992Y-100849998D01*
X100120993Y-100849997D01*
X100125424Y-100843830D01*
X100188894Y-100685940D01*
X100216707Y-100643842D01*
X100315144Y-100545405D01*
X100377456Y-100511379D01*
X100404239Y-100508500D01*
X105287214Y-100508500D01*
X105355335Y-100528502D01*
G37*
%TD.AperFunction*%
%TA.AperFunction,Conductor*%
G36*
X132743309Y-89028002D02*
G01*
X132789802Y-89081658D01*
X132800427Y-89120172D01*
X132803051Y-89143932D01*
X132805153Y-89162975D01*
X132807762Y-89170106D01*
X132807763Y-89170108D01*
X132827154Y-89223095D01*
X132864085Y-89324015D01*
X132868323Y-89330321D01*
X132868323Y-89330322D01*
X132871848Y-89335568D01*
X132893242Y-89403264D01*
X132874639Y-89471781D01*
X132870354Y-89478297D01*
X132798871Y-89580006D01*
X132798868Y-89580012D01*
X132794499Y-89586228D01*
X132732207Y-89745998D01*
X132709824Y-89916015D01*
X132711587Y-89931980D01*
X132725698Y-90059794D01*
X132728642Y-90086464D01*
X132731251Y-90093595D01*
X132731252Y-90093597D01*
X132734793Y-90103273D01*
X132787574Y-90247504D01*
X132791811Y-90253810D01*
X132791813Y-90253813D01*
X132823031Y-90300269D01*
X132883219Y-90389838D01*
X132890111Y-90396109D01*
X132974688Y-90473068D01*
X133010054Y-90505249D01*
X133160757Y-90587074D01*
X133216920Y-90601808D01*
X133274040Y-90634589D01*
X134354595Y-91715144D01*
X134388621Y-91777456D01*
X134391500Y-91804239D01*
X134391500Y-100314055D01*
X134390422Y-100330498D01*
X134386250Y-100362191D01*
X134391500Y-100402071D01*
X134391500Y-100402076D01*
X134403012Y-100489516D01*
X134407162Y-100521042D01*
X134410321Y-100528668D01*
X134410321Y-100528669D01*
X134418363Y-100548084D01*
X134468476Y-100669067D01*
X134473503Y-100675618D01*
X134474620Y-100677553D01*
X134491500Y-100740552D01*
X134491500Y-105795761D01*
X134471498Y-105863882D01*
X134454595Y-105884856D01*
X134228186Y-106111265D01*
X134165874Y-106145291D01*
X134095059Y-106140226D01*
X134038223Y-106097679D01*
X134013412Y-106031159D01*
X134013447Y-106015649D01*
X134013547Y-106014947D01*
X134013704Y-106000000D01*
X134008736Y-105958950D01*
X133994015Y-105837299D01*
X133994014Y-105837296D01*
X133993102Y-105829758D01*
X133975726Y-105783772D01*
X133935171Y-105676447D01*
X133932487Y-105669344D01*
X133873827Y-105583993D01*
X133839659Y-105534278D01*
X133839658Y-105534276D01*
X133835357Y-105528019D01*
X133829686Y-105522966D01*
X133712993Y-105418996D01*
X133712990Y-105418994D01*
X133707321Y-105413943D01*
X133699325Y-105409709D01*
X133562481Y-105337254D01*
X133562482Y-105337254D01*
X133555769Y-105333700D01*
X133538196Y-105329286D01*
X133396822Y-105293775D01*
X133396818Y-105293775D01*
X133389451Y-105291924D01*
X133381852Y-105291884D01*
X133381850Y-105291884D01*
X133310394Y-105291510D01*
X133217969Y-105291026D01*
X133210589Y-105292798D01*
X133210587Y-105292798D01*
X133058602Y-105329286D01*
X133058598Y-105329287D01*
X133051223Y-105331058D01*
X132898839Y-105409709D01*
X132769615Y-105522439D01*
X132671010Y-105662739D01*
X132644801Y-105729961D01*
X132613100Y-105811270D01*
X132569719Y-105867471D01*
X132495707Y-105891500D01*
X128813736Y-105891500D01*
X128745615Y-105871498D01*
X128706593Y-105831804D01*
X128680071Y-105788945D01*
X128560053Y-105669136D01*
X128415692Y-105580151D01*
X128382221Y-105569049D01*
X128261262Y-105528928D01*
X128261260Y-105528928D01*
X128254731Y-105526762D01*
X128154572Y-105516500D01*
X127734500Y-105516500D01*
X127666379Y-105496498D01*
X127619886Y-105442842D01*
X127608500Y-105390500D01*
X127608500Y-104954239D01*
X127628502Y-104886118D01*
X127645405Y-104865144D01*
X129465144Y-103045405D01*
X129527456Y-103011379D01*
X129554239Y-103008500D01*
X130705782Y-103008500D01*
X130773903Y-103028502D01*
X130820396Y-103082158D01*
X130830500Y-103152432D01*
X130820070Y-103187550D01*
X130800688Y-103229305D01*
X130740989Y-103444570D01*
X130717251Y-103666695D01*
X130717548Y-103671848D01*
X130717548Y-103671851D01*
X130723011Y-103766590D01*
X130730110Y-103889715D01*
X130731247Y-103894761D01*
X130731248Y-103894767D01*
X130751119Y-103982939D01*
X130779222Y-104107639D01*
X130863266Y-104314616D01*
X130892773Y-104362767D01*
X130968202Y-104485856D01*
X130979987Y-104505088D01*
X131126250Y-104673938D01*
X131298126Y-104816632D01*
X131491000Y-104929338D01*
X131699692Y-105009030D01*
X131704760Y-105010061D01*
X131704763Y-105010062D01*
X131812017Y-105031883D01*
X131918597Y-105053567D01*
X131923772Y-105053757D01*
X131923774Y-105053757D01*
X132136673Y-105061564D01*
X132136677Y-105061564D01*
X132141837Y-105061753D01*
X132146957Y-105061097D01*
X132146959Y-105061097D01*
X132358288Y-105034025D01*
X132358289Y-105034025D01*
X132363416Y-105033368D01*
X132368366Y-105031883D01*
X132572429Y-104970661D01*
X132572434Y-104970659D01*
X132577384Y-104969174D01*
X132777994Y-104870896D01*
X132959860Y-104741173D01*
X133118096Y-104583489D01*
X133177594Y-104500689D01*
X133245435Y-104406277D01*
X133248453Y-104402077D01*
X133270508Y-104357453D01*
X133345136Y-104206453D01*
X133345137Y-104206451D01*
X133347430Y-104201811D01*
X133395912Y-104042239D01*
X133410865Y-103993023D01*
X133410865Y-103993021D01*
X133412370Y-103988069D01*
X133441529Y-103766590D01*
X133443156Y-103700000D01*
X133424852Y-103477361D01*
X133370431Y-103260702D01*
X133281354Y-103055840D01*
X133182371Y-102902835D01*
X133162824Y-102872620D01*
X133162822Y-102872617D01*
X133160014Y-102868277D01*
X133113349Y-102816993D01*
X133082299Y-102753149D01*
X133090694Y-102682650D01*
X133117449Y-102643100D01*
X133696234Y-102064315D01*
X133708625Y-102053448D01*
X133727437Y-102039013D01*
X133733987Y-102033987D01*
X133758474Y-102002075D01*
X133758478Y-102002071D01*
X133831524Y-101906876D01*
X133892838Y-101758851D01*
X133903111Y-101680818D01*
X133908500Y-101639885D01*
X133908500Y-101639880D01*
X133913750Y-101600000D01*
X133909578Y-101568307D01*
X133908500Y-101551864D01*
X133908500Y-98365718D01*
X133909578Y-98349272D01*
X133910272Y-98344005D01*
X133913750Y-98317582D01*
X133908500Y-98277702D01*
X133908500Y-98277697D01*
X133907940Y-98273444D01*
X133893917Y-98166922D01*
X133893916Y-98166920D01*
X133893797Y-98166013D01*
X133892838Y-98158731D01*
X133831524Y-98010706D01*
X133758478Y-97915511D01*
X133758474Y-97915507D01*
X133753630Y-97909194D01*
X133739016Y-97890148D01*
X133739013Y-97890145D01*
X133733987Y-97883595D01*
X133727432Y-97878565D01*
X133708621Y-97864130D01*
X133696230Y-97853263D01*
X133051255Y-97208288D01*
X133017229Y-97145976D01*
X133022294Y-97075161D01*
X133051411Y-97029942D01*
X133114430Y-96967144D01*
X133114440Y-96967132D01*
X133118096Y-96963489D01*
X133177594Y-96880689D01*
X133245435Y-96786277D01*
X133248453Y-96782077D01*
X133280263Y-96717715D01*
X133345136Y-96586453D01*
X133345137Y-96586451D01*
X133347430Y-96581811D01*
X133400821Y-96406081D01*
X133410865Y-96373023D01*
X133410865Y-96373021D01*
X133412370Y-96368069D01*
X133441529Y-96146590D01*
X133442713Y-96098134D01*
X133443074Y-96083365D01*
X133443074Y-96083361D01*
X133443156Y-96080000D01*
X133424852Y-95857361D01*
X133370431Y-95640702D01*
X133281354Y-95435840D01*
X133160014Y-95248277D01*
X133009670Y-95083051D01*
X133005619Y-95079852D01*
X133005615Y-95079848D01*
X132838414Y-94947800D01*
X132838410Y-94947798D01*
X132834359Y-94944598D01*
X132793053Y-94921796D01*
X132743084Y-94871364D01*
X132728312Y-94801921D01*
X132753428Y-94735516D01*
X132780780Y-94708909D01*
X132848905Y-94660316D01*
X132959860Y-94581173D01*
X132966563Y-94574494D01*
X133114435Y-94427137D01*
X133118096Y-94423489D01*
X133154689Y-94372565D01*
X133245435Y-94246277D01*
X133248453Y-94242077D01*
X133256609Y-94225576D01*
X133345136Y-94046453D01*
X133345137Y-94046451D01*
X133347430Y-94041811D01*
X133412370Y-93828069D01*
X133441529Y-93606590D01*
X133441611Y-93603240D01*
X133443074Y-93543365D01*
X133443074Y-93543361D01*
X133443156Y-93540000D01*
X133424852Y-93317361D01*
X133370431Y-93100702D01*
X133281354Y-92895840D01*
X133230949Y-92817925D01*
X133162822Y-92712617D01*
X133162820Y-92712614D01*
X133160014Y-92708277D01*
X133009670Y-92543051D01*
X133005619Y-92539852D01*
X133005615Y-92539848D01*
X132838414Y-92407800D01*
X132838410Y-92407798D01*
X132834359Y-92404598D01*
X132638789Y-92296638D01*
X132633920Y-92294914D01*
X132633916Y-92294912D01*
X132433087Y-92223795D01*
X132433083Y-92223794D01*
X132428212Y-92222069D01*
X132423119Y-92221162D01*
X132423116Y-92221161D01*
X132213373Y-92183800D01*
X132213367Y-92183799D01*
X132208284Y-92182894D01*
X132134452Y-92181992D01*
X131990081Y-92180228D01*
X131990079Y-92180228D01*
X131984911Y-92180165D01*
X131967489Y-92182831D01*
X131812002Y-92206623D01*
X131741640Y-92197155D01*
X131703849Y-92171168D01*
X130143770Y-90611089D01*
X130131384Y-90596677D01*
X130122851Y-90585082D01*
X130122846Y-90585077D01*
X130118508Y-90579182D01*
X130112930Y-90574443D01*
X130112927Y-90574440D01*
X130078232Y-90544965D01*
X130070716Y-90538035D01*
X130065021Y-90532340D01*
X130055037Y-90524441D01*
X130042749Y-90514719D01*
X130039345Y-90511928D01*
X129989297Y-90469409D01*
X129989295Y-90469408D01*
X129983715Y-90464667D01*
X129977199Y-90461339D01*
X129972150Y-90457972D01*
X129967021Y-90454805D01*
X129961284Y-90450266D01*
X129895125Y-90419345D01*
X129891225Y-90417439D01*
X129879992Y-90411703D01*
X129826192Y-90384231D01*
X129819084Y-90382492D01*
X129813441Y-90380393D01*
X129807678Y-90378476D01*
X129801050Y-90375378D01*
X129729583Y-90360513D01*
X129725299Y-90359543D01*
X129654390Y-90342192D01*
X129648788Y-90341844D01*
X129648785Y-90341844D01*
X129643236Y-90341500D01*
X129643238Y-90341464D01*
X129639245Y-90341225D01*
X129635053Y-90340851D01*
X129627885Y-90339360D01*
X129561675Y-90341151D01*
X129550479Y-90341454D01*
X129547072Y-90341500D01*
X128967329Y-90341500D01*
X128899208Y-90321498D01*
X128875668Y-90299593D01*
X128874992Y-90300269D01*
X128868642Y-90293919D01*
X128863261Y-90286739D01*
X128746705Y-90199385D01*
X128610316Y-90148255D01*
X128548134Y-90141500D01*
X126951866Y-90141500D01*
X126889684Y-90148255D01*
X126753295Y-90199385D01*
X126636739Y-90286739D01*
X126549385Y-90403295D01*
X126498255Y-90539684D01*
X126491500Y-90601866D01*
X126491500Y-91598134D01*
X126498255Y-91660316D01*
X126515466Y-91706226D01*
X126542169Y-91777456D01*
X126549385Y-91796705D01*
X126548534Y-91797024D01*
X126562055Y-91858849D01*
X126549042Y-91903166D01*
X126549385Y-91903295D01*
X126548503Y-91905649D01*
X126546236Y-91911696D01*
X126546234Y-91911699D01*
X126529182Y-91957186D01*
X126498255Y-92039684D01*
X126491500Y-92101866D01*
X126491500Y-93098134D01*
X126498255Y-93160316D01*
X126549385Y-93296705D01*
X126548534Y-93297024D01*
X126562055Y-93358849D01*
X126549042Y-93403166D01*
X126549385Y-93403295D01*
X126548503Y-93405649D01*
X126546236Y-93411696D01*
X126546234Y-93411699D01*
X126535079Y-93441455D01*
X126498255Y-93539684D01*
X126491500Y-93601866D01*
X126491500Y-94598134D01*
X126498255Y-94660316D01*
X126501029Y-94667715D01*
X126539126Y-94769338D01*
X126549385Y-94796705D01*
X126548534Y-94797024D01*
X126562055Y-94858849D01*
X126549042Y-94903166D01*
X126549385Y-94903295D01*
X126546236Y-94911696D01*
X126546234Y-94911699D01*
X126540683Y-94926507D01*
X126498255Y-95039684D01*
X126491500Y-95101866D01*
X126491500Y-96098134D01*
X126498255Y-96160316D01*
X126549385Y-96296705D01*
X126636739Y-96413261D01*
X126753295Y-96500615D01*
X126889684Y-96551745D01*
X126951866Y-96558500D01*
X128548134Y-96558500D01*
X128610316Y-96551745D01*
X128617712Y-96548973D01*
X128617718Y-96548971D01*
X128715279Y-96512397D01*
X128786086Y-96507214D01*
X128848603Y-96541284D01*
X130691725Y-98384406D01*
X130725751Y-98446718D01*
X130727917Y-98486888D01*
X130717251Y-98586695D01*
X130717548Y-98591848D01*
X130717548Y-98591851D01*
X130726197Y-98741852D01*
X130730110Y-98809715D01*
X130731247Y-98814761D01*
X130731248Y-98814767D01*
X130744172Y-98872111D01*
X130779222Y-99027639D01*
X130813431Y-99111886D01*
X130854488Y-99212997D01*
X130863266Y-99234616D01*
X130901314Y-99296705D01*
X130976622Y-99419596D01*
X130979987Y-99425088D01*
X131126250Y-99593938D01*
X131298126Y-99736632D01*
X131351724Y-99767952D01*
X131371445Y-99779476D01*
X131420169Y-99831114D01*
X131433240Y-99900897D01*
X131406509Y-99966669D01*
X131366055Y-100000027D01*
X131353607Y-100006507D01*
X131349474Y-100009610D01*
X131349471Y-100009612D01*
X131179100Y-100137530D01*
X131174965Y-100140635D01*
X131171393Y-100144373D01*
X131067778Y-100252800D01*
X131020629Y-100302138D01*
X131017715Y-100306410D01*
X131017714Y-100306411D01*
X130992888Y-100342805D01*
X130894743Y-100486680D01*
X130855366Y-100571510D01*
X130810153Y-100668915D01*
X130800688Y-100689305D01*
X130792423Y-100719107D01*
X130784085Y-100749173D01*
X130746606Y-100809470D01*
X130682477Y-100839933D01*
X130662668Y-100841500D01*
X129115621Y-100841500D01*
X129047500Y-100821498D01*
X129001007Y-100767842D01*
X128990903Y-100697568D01*
X128997637Y-100671275D01*
X128998971Y-100667716D01*
X128998972Y-100667713D01*
X129001745Y-100660316D01*
X129008500Y-100598134D01*
X129008500Y-99601866D01*
X129001745Y-99539684D01*
X128969129Y-99452681D01*
X128953766Y-99411699D01*
X128953764Y-99411696D01*
X128950615Y-99403295D01*
X128951466Y-99402976D01*
X128937945Y-99341151D01*
X128950958Y-99296834D01*
X128950615Y-99296705D01*
X128952372Y-99292019D01*
X128952373Y-99292015D01*
X128956069Y-99282158D01*
X128998971Y-99167715D01*
X129001745Y-99160316D01*
X129008500Y-99098134D01*
X129008500Y-98101866D01*
X129001745Y-98039684D01*
X128950615Y-97903295D01*
X128863261Y-97786739D01*
X128746705Y-97699385D01*
X128610316Y-97648255D01*
X128548134Y-97641500D01*
X126951866Y-97641500D01*
X126889684Y-97648255D01*
X126753295Y-97699385D01*
X126636739Y-97786739D01*
X126549385Y-97903295D01*
X126546233Y-97911703D01*
X126541923Y-97919575D01*
X126540259Y-97918664D01*
X126504337Y-97966490D01*
X126437776Y-97991193D01*
X126428991Y-97991500D01*
X114848144Y-97991500D01*
X114831698Y-97990422D01*
X114808188Y-97987327D01*
X114800000Y-97986249D01*
X114641149Y-98007162D01*
X114493124Y-98068476D01*
X114447305Y-98103634D01*
X114397937Y-98141515D01*
X114397921Y-98141529D01*
X114372566Y-98160984D01*
X114372563Y-98160987D01*
X114366013Y-98166013D01*
X114360983Y-98172568D01*
X114346548Y-98191379D01*
X114335681Y-98203770D01*
X113351583Y-99187868D01*
X113291902Y-99221292D01*
X113258602Y-99229286D01*
X113258598Y-99229287D01*
X113251223Y-99231058D01*
X113098839Y-99309709D01*
X112969615Y-99422439D01*
X112871010Y-99562739D01*
X112855755Y-99601866D01*
X112813067Y-99711355D01*
X112808718Y-99722509D01*
X112807726Y-99730042D01*
X112807726Y-99730043D01*
X112788650Y-99874944D01*
X112786335Y-99892526D01*
X112787531Y-99903357D01*
X112799262Y-100009612D01*
X112805153Y-100062975D01*
X112807762Y-100070106D01*
X112807763Y-100070108D01*
X112815039Y-100089990D01*
X112864085Y-100224015D01*
X112868322Y-100230321D01*
X112868324Y-100230324D01*
X112886994Y-100258107D01*
X112959730Y-100366349D01*
X113023148Y-100424055D01*
X113069218Y-100465975D01*
X113086565Y-100481760D01*
X113237268Y-100563585D01*
X113403139Y-100607101D01*
X113490586Y-100608474D01*
X113567003Y-100609675D01*
X113567006Y-100609675D01*
X113574602Y-100609794D01*
X113582006Y-100608098D01*
X113582008Y-100608098D01*
X113659193Y-100590420D01*
X113741759Y-100571510D01*
X113791983Y-100546250D01*
X113861827Y-100533512D01*
X113908719Y-100548084D01*
X113930591Y-100559960D01*
X113930593Y-100559961D01*
X113937268Y-100563585D01*
X113997368Y-100579352D01*
X114014982Y-100583973D01*
X114059712Y-100605886D01*
X114061451Y-100607220D01*
X114093124Y-100631524D01*
X114100750Y-100634683D01*
X114100752Y-100634684D01*
X114233520Y-100689678D01*
X114241149Y-100692838D01*
X114400000Y-100713751D01*
X114431699Y-100709578D01*
X114448144Y-100708500D01*
X118995761Y-100708500D01*
X119063882Y-100728502D01*
X119084856Y-100745405D01*
X123765856Y-105426405D01*
X123799882Y-105488717D01*
X123794817Y-105559532D01*
X123752270Y-105616368D01*
X123685750Y-105641179D01*
X123676761Y-105641500D01*
X122951866Y-105641500D01*
X122889684Y-105648255D01*
X122753295Y-105699385D01*
X122636739Y-105786739D01*
X122549385Y-105903295D01*
X122498255Y-106039684D01*
X122491500Y-106101866D01*
X122491500Y-106115500D01*
X122471498Y-106183621D01*
X122417842Y-106230114D01*
X122365500Y-106241500D01*
X117234500Y-106241500D01*
X117166379Y-106221498D01*
X117119886Y-106167842D01*
X117108500Y-106115500D01*
X117108500Y-106101866D01*
X117101745Y-106039684D01*
X117050615Y-105903295D01*
X116963261Y-105786739D01*
X116846705Y-105699385D01*
X116710316Y-105648255D01*
X116648134Y-105641500D01*
X114951866Y-105641500D01*
X114889684Y-105648255D01*
X114753295Y-105699385D01*
X114731006Y-105716089D01*
X114725564Y-105720168D01*
X114659057Y-105745015D01*
X114589675Y-105729961D01*
X114574436Y-105720168D01*
X114568994Y-105716089D01*
X114546705Y-105699385D01*
X114410316Y-105648255D01*
X114348134Y-105641500D01*
X112651866Y-105641500D01*
X112589684Y-105648255D01*
X112453295Y-105699385D01*
X112336739Y-105786739D01*
X112249385Y-105903295D01*
X112198255Y-106039684D01*
X112191500Y-106101866D01*
X112191500Y-106115500D01*
X112171498Y-106183621D01*
X112117842Y-106230114D01*
X112065500Y-106241500D01*
X109285269Y-106241500D01*
X109217148Y-106221498D01*
X109170655Y-106167842D01*
X109159315Y-106118907D01*
X109158546Y-106090479D01*
X109158500Y-106087072D01*
X109158500Y-104781541D01*
X109178502Y-104713420D01*
X109232158Y-104666927D01*
X109302659Y-104657086D01*
X109305610Y-104657808D01*
X109311209Y-104658155D01*
X109311213Y-104658156D01*
X109316764Y-104658500D01*
X109316762Y-104658535D01*
X109320734Y-104658775D01*
X109324955Y-104659152D01*
X109332115Y-104660641D01*
X109409542Y-104658546D01*
X109412950Y-104658500D01*
X118544293Y-104658500D01*
X118617201Y-104650000D01*
X118668411Y-104644030D01*
X118668415Y-104644029D01*
X118675681Y-104643182D01*
X118682556Y-104640687D01*
X118682558Y-104640686D01*
X118835061Y-104585329D01*
X118835062Y-104585329D01*
X118841937Y-104582833D01*
X118848054Y-104578822D01*
X118848057Y-104578821D01*
X118983733Y-104489868D01*
X118983734Y-104489867D01*
X118989852Y-104485856D01*
X119111490Y-104357453D01*
X119200326Y-104204510D01*
X119202737Y-104196552D01*
X119249473Y-104042239D01*
X119251595Y-104035233D01*
X119262547Y-103858702D01*
X119247290Y-103769908D01*
X119233834Y-103691602D01*
X119233834Y-103691601D01*
X119232594Y-103684386D01*
X119163343Y-103521636D01*
X119159010Y-103515748D01*
X119159007Y-103515743D01*
X119062846Y-103385077D01*
X119058508Y-103379182D01*
X119052930Y-103374443D01*
X119052927Y-103374440D01*
X118929294Y-103269406D01*
X118929290Y-103269403D01*
X118923715Y-103264667D01*
X118842180Y-103223033D01*
X118772708Y-103187558D01*
X118772706Y-103187557D01*
X118766192Y-103184231D01*
X118759087Y-103182492D01*
X118759083Y-103182491D01*
X118676762Y-103162348D01*
X118594390Y-103142192D01*
X118588788Y-103141844D01*
X118588785Y-103141844D01*
X118585175Y-103141620D01*
X118585165Y-103141620D01*
X118583236Y-103141500D01*
X109766371Y-103141500D01*
X109698250Y-103121498D01*
X109677276Y-103104595D01*
X108998531Y-102425850D01*
X108990963Y-102417577D01*
X108989868Y-102416268D01*
X108985856Y-102410148D01*
X108929617Y-102356872D01*
X108927175Y-102354494D01*
X108905021Y-102332340D01*
X108901538Y-102329584D01*
X108893060Y-102322241D01*
X108890142Y-102319476D01*
X108857453Y-102288510D01*
X108851124Y-102284834D01*
X108851120Y-102284831D01*
X108835807Y-102275937D01*
X108820918Y-102265800D01*
X108801284Y-102250266D01*
X108756853Y-102229500D01*
X108746919Y-102224306D01*
X108710847Y-102203354D01*
X108710842Y-102203352D01*
X108704510Y-102199674D01*
X108702216Y-102198979D01*
X108649275Y-102154771D01*
X108628033Y-102087026D01*
X108646789Y-102018552D01*
X108664917Y-101995632D01*
X109565144Y-101095405D01*
X109627456Y-101061379D01*
X109654239Y-101058500D01*
X111048134Y-101058500D01*
X111110316Y-101051745D01*
X111246705Y-101000615D01*
X111363261Y-100913261D01*
X111450615Y-100796705D01*
X111501745Y-100660316D01*
X111508500Y-100598134D01*
X111508500Y-99601866D01*
X111501745Y-99539684D01*
X111469129Y-99452681D01*
X111453766Y-99411699D01*
X111453764Y-99411696D01*
X111450615Y-99403295D01*
X111451466Y-99402976D01*
X111437945Y-99341151D01*
X111450958Y-99296834D01*
X111450615Y-99296705D01*
X111452372Y-99292019D01*
X111452373Y-99292015D01*
X111456069Y-99282158D01*
X111498971Y-99167715D01*
X111501745Y-99160316D01*
X111508500Y-99098134D01*
X111508500Y-98101866D01*
X111501745Y-98039684D01*
X111474306Y-97966490D01*
X111453766Y-97911699D01*
X111453764Y-97911696D01*
X111450615Y-97903295D01*
X111451466Y-97902976D01*
X111437945Y-97841151D01*
X111450958Y-97796834D01*
X111450615Y-97796705D01*
X111452372Y-97792019D01*
X111452373Y-97792015D01*
X111454352Y-97786739D01*
X111498971Y-97667715D01*
X111501745Y-97660316D01*
X111508500Y-97598134D01*
X111508500Y-96601866D01*
X111501745Y-96539684D01*
X111480344Y-96482596D01*
X111453766Y-96411699D01*
X111453764Y-96411696D01*
X111450615Y-96403295D01*
X111451466Y-96402976D01*
X111437945Y-96341151D01*
X111450958Y-96296834D01*
X111450615Y-96296705D01*
X111452372Y-96292019D01*
X111452373Y-96292015D01*
X111458840Y-96274767D01*
X111498971Y-96167715D01*
X111501745Y-96160316D01*
X111508500Y-96098134D01*
X111508500Y-95101866D01*
X111501745Y-95039684D01*
X111459317Y-94926507D01*
X111453766Y-94911699D01*
X111453764Y-94911696D01*
X111450615Y-94903295D01*
X111451466Y-94902976D01*
X111437945Y-94841151D01*
X111450958Y-94796834D01*
X111450615Y-94796705D01*
X111452372Y-94792019D01*
X111452373Y-94792015D01*
X111460875Y-94769338D01*
X111498971Y-94667715D01*
X111501745Y-94660316D01*
X111508500Y-94598134D01*
X111508500Y-93601866D01*
X111501745Y-93539684D01*
X111464921Y-93441455D01*
X111453766Y-93411699D01*
X111453764Y-93411696D01*
X111450615Y-93403295D01*
X111451466Y-93402976D01*
X111437945Y-93341151D01*
X111450958Y-93296834D01*
X111450615Y-93296705D01*
X111452372Y-93292019D01*
X111452373Y-93292015D01*
X111501745Y-93160316D01*
X111508500Y-93098134D01*
X111508500Y-92101866D01*
X111501745Y-92039684D01*
X111470818Y-91957186D01*
X111453766Y-91911699D01*
X111453764Y-91911696D01*
X111450615Y-91903295D01*
X111451466Y-91902976D01*
X111437945Y-91841151D01*
X111450958Y-91796834D01*
X111450615Y-91796705D01*
X111452372Y-91792019D01*
X111452373Y-91792015D01*
X111457832Y-91777456D01*
X111484534Y-91706226D01*
X111501745Y-91660316D01*
X111508500Y-91598134D01*
X111508500Y-90601866D01*
X111501745Y-90539684D01*
X111497637Y-90528725D01*
X111497420Y-90525762D01*
X111497144Y-90524600D01*
X111497332Y-90524555D01*
X111492457Y-90457918D01*
X111526380Y-90395550D01*
X111588637Y-90361423D01*
X111615621Y-90358500D01*
X112433629Y-90358500D01*
X112501750Y-90378502D01*
X112522724Y-90395405D01*
X113584177Y-91456858D01*
X113618203Y-91519170D01*
X113613138Y-91589985D01*
X113570591Y-91646821D01*
X113552873Y-91657918D01*
X113452529Y-91709709D01*
X113323305Y-91822439D01*
X113224700Y-91962739D01*
X113208300Y-92004803D01*
X113169774Y-92103617D01*
X113162408Y-92122509D01*
X113161416Y-92130042D01*
X113161416Y-92130043D01*
X113141444Y-92281750D01*
X113140025Y-92292526D01*
X113148166Y-92366264D01*
X113157534Y-92451117D01*
X113158843Y-92462975D01*
X113217775Y-92624015D01*
X113222012Y-92630321D01*
X113222014Y-92630324D01*
X113244202Y-92663343D01*
X113313420Y-92766349D01*
X113440255Y-92881760D01*
X113590958Y-92963585D01*
X113756829Y-93007101D01*
X113844276Y-93008474D01*
X113920693Y-93009675D01*
X113920696Y-93009675D01*
X113928292Y-93009794D01*
X113935696Y-93008098D01*
X113935698Y-93008098D01*
X114003915Y-92992474D01*
X114095449Y-92971510D01*
X114194019Y-92921935D01*
X114250632Y-92908500D01*
X116451864Y-92908500D01*
X116468307Y-92909578D01*
X116500000Y-92913750D01*
X116508189Y-92912672D01*
X116539874Y-92908501D01*
X116539884Y-92908500D01*
X116539885Y-92908500D01*
X116639457Y-92895391D01*
X116650664Y-92893916D01*
X116650666Y-92893915D01*
X116658851Y-92892838D01*
X116806876Y-92831524D01*
X116824599Y-92817925D01*
X116902072Y-92758477D01*
X116902075Y-92758474D01*
X116922004Y-92743182D01*
X116933987Y-92733987D01*
X116939017Y-92727432D01*
X116953452Y-92708621D01*
X116964319Y-92696230D01*
X118847745Y-90812804D01*
X118908710Y-90779079D01*
X118934359Y-90773205D01*
X118934361Y-90773204D01*
X118941759Y-90771510D01*
X119094958Y-90694459D01*
X119100729Y-90689530D01*
X119100732Y-90689528D01*
X119219578Y-90588023D01*
X119225355Y-90583089D01*
X119325424Y-90443830D01*
X119389385Y-90284720D01*
X119401632Y-90198670D01*
X119412966Y-90119031D01*
X119412966Y-90119027D01*
X119413547Y-90114947D01*
X119413704Y-90100000D01*
X119408506Y-90057045D01*
X119394015Y-89937299D01*
X119394014Y-89937296D01*
X119393102Y-89929758D01*
X119385064Y-89908484D01*
X119335171Y-89776447D01*
X119332487Y-89769344D01*
X119235357Y-89628019D01*
X119229686Y-89622966D01*
X119112993Y-89518996D01*
X119112990Y-89518994D01*
X119107321Y-89513943D01*
X119099325Y-89509709D01*
X119027691Y-89471781D01*
X118955769Y-89433700D01*
X118938196Y-89429286D01*
X118796822Y-89393775D01*
X118796818Y-89393775D01*
X118789451Y-89391924D01*
X118781852Y-89391884D01*
X118781850Y-89391884D01*
X118710394Y-89391510D01*
X118617969Y-89391026D01*
X118610589Y-89392798D01*
X118610587Y-89392798D01*
X118458602Y-89429286D01*
X118458598Y-89429287D01*
X118451223Y-89431058D01*
X118298839Y-89509709D01*
X118169615Y-89622439D01*
X118071010Y-89762739D01*
X118033165Y-89859807D01*
X118013065Y-89911359D01*
X117984767Y-89954684D01*
X117769742Y-90169709D01*
X117707430Y-90203735D01*
X117636615Y-90198670D01*
X117609456Y-90184455D01*
X117604413Y-90179962D01*
X117452861Y-90099719D01*
X117435288Y-90095305D01*
X117293914Y-90059794D01*
X117293910Y-90059794D01*
X117286543Y-90057943D01*
X117278944Y-90057903D01*
X117278942Y-90057903D01*
X117207486Y-90057529D01*
X117115061Y-90057045D01*
X117107681Y-90058817D01*
X117107679Y-90058817D01*
X116955694Y-90095305D01*
X116955690Y-90095306D01*
X116948315Y-90097077D01*
X116795931Y-90175728D01*
X116666707Y-90288458D01*
X116568102Y-90428758D01*
X116556733Y-90457918D01*
X116510157Y-90577378D01*
X116481859Y-90620704D01*
X115947966Y-91154596D01*
X115885654Y-91188621D01*
X115858871Y-91191500D01*
X115184640Y-91191500D01*
X115116519Y-91171498D01*
X115070026Y-91117842D01*
X115059055Y-91075714D01*
X115049454Y-90957664D01*
X115049454Y-90957662D01*
X115048860Y-90950363D01*
X115041136Y-90926520D01*
X114996608Y-90789067D01*
X114996607Y-90789064D01*
X114994351Y-90782101D01*
X114990555Y-90775845D01*
X114990553Y-90775841D01*
X114905509Y-90635694D01*
X114905509Y-90635693D01*
X114902595Y-90630892D01*
X114895197Y-90622516D01*
X113495776Y-89223095D01*
X113461750Y-89160783D01*
X113466815Y-89089968D01*
X113509362Y-89033132D01*
X113575882Y-89008321D01*
X113584871Y-89008000D01*
X132675188Y-89008000D01*
X132743309Y-89028002D01*
G37*
%TD.AperFunction*%
%TA.AperFunction,Conductor*%
G36*
X108094635Y-90378502D02*
G01*
X108141128Y-90432158D01*
X108151232Y-90502432D01*
X108135470Y-90547782D01*
X108049674Y-90695490D01*
X108047553Y-90702494D01*
X108047551Y-90702498D01*
X108021332Y-90789067D01*
X107998405Y-90864767D01*
X107987453Y-91041298D01*
X107988693Y-91048514D01*
X107988693Y-91048516D01*
X108002119Y-91126651D01*
X108017406Y-91215614D01*
X108086657Y-91378364D01*
X108090990Y-91384252D01*
X108090993Y-91384257D01*
X108108044Y-91407426D01*
X108191492Y-91520818D01*
X108197070Y-91525557D01*
X108197073Y-91525560D01*
X108307619Y-91619475D01*
X108346584Y-91678824D01*
X108347277Y-91749817D01*
X108309478Y-91809915D01*
X108245188Y-91840037D01*
X108226040Y-91841500D01*
X107687070Y-91841500D01*
X107668120Y-91840067D01*
X107653885Y-91837901D01*
X107653881Y-91837901D01*
X107646651Y-91836801D01*
X107639359Y-91837394D01*
X107639356Y-91837394D01*
X107593982Y-91841085D01*
X107583767Y-91841500D01*
X107575707Y-91841500D01*
X107572073Y-91841924D01*
X107572067Y-91841924D01*
X107559042Y-91843443D01*
X107547480Y-91844791D01*
X107543132Y-91845221D01*
X107470364Y-91851140D01*
X107463403Y-91853395D01*
X107457463Y-91854582D01*
X107451588Y-91855971D01*
X107444319Y-91856818D01*
X107375670Y-91881736D01*
X107371542Y-91883153D01*
X107309064Y-91903393D01*
X107309062Y-91903394D01*
X107302101Y-91905649D01*
X107295846Y-91909445D01*
X107290372Y-91911951D01*
X107284942Y-91914670D01*
X107278063Y-91917167D01*
X107271943Y-91921180D01*
X107271942Y-91921180D01*
X107217024Y-91957186D01*
X107213320Y-91959523D01*
X107150893Y-91997405D01*
X107142516Y-92004803D01*
X107142492Y-92004776D01*
X107139500Y-92007429D01*
X107136267Y-92010132D01*
X107130148Y-92014144D01*
X107076872Y-92070383D01*
X107074494Y-92072825D01*
X106987296Y-92160023D01*
X106924984Y-92194049D01*
X106876105Y-92194975D01*
X106808284Y-92182894D01*
X106734452Y-92181992D01*
X106590081Y-92180228D01*
X106590079Y-92180228D01*
X106584911Y-92180165D01*
X106364091Y-92213955D01*
X106151756Y-92283357D01*
X106124584Y-92297502D01*
X106003987Y-92360281D01*
X105953607Y-92386507D01*
X105949474Y-92389610D01*
X105949471Y-92389612D01*
X105779100Y-92517530D01*
X105774965Y-92520635D01*
X105620629Y-92682138D01*
X105617715Y-92686410D01*
X105617714Y-92686411D01*
X105535066Y-92807568D01*
X105494743Y-92866680D01*
X105492563Y-92871377D01*
X105489232Y-92878552D01*
X105442408Y-92931918D01*
X105374945Y-92951500D01*
X104319083Y-92951500D01*
X104250962Y-92931498D01*
X104204469Y-92877842D01*
X104194365Y-92807568D01*
X104223859Y-92742988D01*
X104269746Y-92709561D01*
X104274984Y-92707332D01*
X104281289Y-92704848D01*
X104341937Y-92682833D01*
X104348739Y-92678374D01*
X104349878Y-92677627D01*
X104369615Y-92667067D01*
X104371623Y-92666213D01*
X104371635Y-92666206D01*
X104378364Y-92663343D01*
X104384256Y-92659007D01*
X104384261Y-92659004D01*
X104430332Y-92625100D01*
X104435928Y-92621210D01*
X104444870Y-92615347D01*
X104489852Y-92585856D01*
X104496384Y-92578961D01*
X104513166Y-92564139D01*
X104520818Y-92558508D01*
X104525553Y-92552935D01*
X104525560Y-92552928D01*
X104562581Y-92509351D01*
X104567133Y-92504277D01*
X104606457Y-92462766D01*
X104606458Y-92462765D01*
X104611490Y-92457453D01*
X104615165Y-92451126D01*
X104615172Y-92451117D01*
X104616267Y-92449232D01*
X104629185Y-92430953D01*
X104630594Y-92429294D01*
X104630596Y-92429291D01*
X104635333Y-92423715D01*
X104638659Y-92417201D01*
X104638662Y-92417197D01*
X104664670Y-92366264D01*
X104667932Y-92360281D01*
X104696649Y-92310841D01*
X104696650Y-92310839D01*
X104700326Y-92304510D01*
X104702447Y-92297506D01*
X104702449Y-92297502D01*
X104703078Y-92295425D01*
X104711451Y-92274649D01*
X104715769Y-92266192D01*
X104731108Y-92203505D01*
X104732891Y-92196988D01*
X104751595Y-92135233D01*
X104752183Y-92125754D01*
X104755551Y-92103617D01*
X104756474Y-92099846D01*
X104756476Y-92099834D01*
X104757808Y-92094390D01*
X104758500Y-92083236D01*
X104758500Y-92027835D01*
X104758742Y-92020033D01*
X104758778Y-92019456D01*
X104762547Y-91958702D01*
X104760320Y-91945740D01*
X104758500Y-91924404D01*
X104758500Y-91593349D01*
X104778502Y-91525228D01*
X104795405Y-91504254D01*
X105904254Y-90395405D01*
X105966566Y-90361379D01*
X105993349Y-90358500D01*
X108026514Y-90358500D01*
X108094635Y-90378502D01*
G37*
%TD.AperFunction*%
%TD*%
%TA.AperFunction,NonConductor*%
G36*
X129261750Y-91878502D02*
G01*
X129282724Y-91895405D01*
X130691725Y-93304406D01*
X130725751Y-93366718D01*
X130727917Y-93406888D01*
X130724223Y-93441455D01*
X130697095Y-93507064D01*
X130638802Y-93547592D01*
X130567852Y-93550171D01*
X130509841Y-93517160D01*
X129103770Y-92111089D01*
X129091384Y-92096677D01*
X129082851Y-92085083D01*
X129082849Y-92085081D01*
X129078508Y-92079182D01*
X129072924Y-92074438D01*
X129069192Y-92070436D01*
X129037360Y-92006975D01*
X129044890Y-91936379D01*
X129089392Y-91881061D01*
X129161339Y-91858500D01*
X129193629Y-91858500D01*
X129261750Y-91878502D01*
G37*
%TD.AperFunction*%
%TA.AperFunction,NonConductor*%
G36*
X104434121Y-81528002D02*
G01*
X104480614Y-81581658D01*
X104492000Y-81634000D01*
X104492000Y-88491298D01*
X104491998Y-88492068D01*
X104491524Y-88569652D01*
X104493990Y-88578279D01*
X104493990Y-88578281D01*
X104495149Y-88582335D01*
X104500000Y-88616961D01*
X104500000Y-89000000D01*
X104850107Y-89000000D01*
X104918228Y-89020002D01*
X104964721Y-89073658D01*
X104974825Y-89143932D01*
X104945331Y-89208512D01*
X104939202Y-89215095D01*
X103511089Y-90643208D01*
X103496677Y-90655594D01*
X103485082Y-90664127D01*
X103485077Y-90664132D01*
X103479182Y-90668470D01*
X103474443Y-90674048D01*
X103474440Y-90674051D01*
X103444965Y-90708746D01*
X103438035Y-90716262D01*
X103432340Y-90721957D01*
X103430060Y-90724839D01*
X103414719Y-90744229D01*
X103411928Y-90747633D01*
X103369409Y-90797681D01*
X103364667Y-90803263D01*
X103361338Y-90809782D01*
X103357277Y-90815871D01*
X103357115Y-90815763D01*
X103355201Y-90818182D01*
X103350865Y-90824936D01*
X103350287Y-90825667D01*
X103349667Y-90825177D01*
X103340286Y-90837033D01*
X102972724Y-91204595D01*
X102910412Y-91238621D01*
X102883629Y-91241500D01*
X101067069Y-91241500D01*
X101048121Y-91240067D01*
X101040780Y-91238950D01*
X101033883Y-91237901D01*
X101033881Y-91237901D01*
X101026651Y-91236801D01*
X101019359Y-91237394D01*
X101019356Y-91237394D01*
X100973982Y-91241085D01*
X100963767Y-91241500D01*
X100955707Y-91241500D01*
X100942417Y-91243049D01*
X100927493Y-91244789D01*
X100923118Y-91245222D01*
X100857661Y-91250546D01*
X100857658Y-91250547D01*
X100850363Y-91251140D01*
X100843399Y-91253396D01*
X100837440Y-91254587D01*
X100831585Y-91255971D01*
X100824319Y-91256818D01*
X100755673Y-91281735D01*
X100751545Y-91283152D01*
X100689064Y-91303393D01*
X100689062Y-91303394D01*
X100682101Y-91305649D01*
X100675846Y-91309445D01*
X100670372Y-91311951D01*
X100664942Y-91314670D01*
X100658063Y-91317167D01*
X100597016Y-91357191D01*
X100593327Y-91359518D01*
X100573368Y-91371630D01*
X100535693Y-91394491D01*
X100535688Y-91394495D01*
X100530892Y-91397405D01*
X100522516Y-91404803D01*
X100522493Y-91404777D01*
X100519503Y-91407426D01*
X100516264Y-91410134D01*
X100510148Y-91414144D01*
X100505121Y-91419451D01*
X100505117Y-91419454D01*
X100456872Y-91470383D01*
X100454494Y-91472825D01*
X97761089Y-94166230D01*
X97746677Y-94178616D01*
X97735078Y-94187152D01*
X97735073Y-94187157D01*
X97729182Y-94191492D01*
X97724444Y-94197069D01*
X97719935Y-94201274D01*
X97656475Y-94233106D01*
X97585878Y-94225576D01*
X97530561Y-94181073D01*
X97508000Y-94109127D01*
X97508000Y-85132703D01*
X98890743Y-85132703D01*
X98928268Y-85417734D01*
X99004129Y-85695036D01*
X99116923Y-85959476D01*
X99264561Y-86206161D01*
X99444313Y-86430528D01*
X99652851Y-86628423D01*
X99886317Y-86796186D01*
X99890112Y-86798195D01*
X99890113Y-86798196D01*
X99911869Y-86809715D01*
X100140392Y-86930712D01*
X100410373Y-87029511D01*
X100691264Y-87090755D01*
X100719841Y-87093004D01*
X100914282Y-87108307D01*
X100914291Y-87108307D01*
X100916739Y-87108500D01*
X101072271Y-87108500D01*
X101074407Y-87108354D01*
X101074418Y-87108354D01*
X101282548Y-87094165D01*
X101282554Y-87094164D01*
X101286825Y-87093873D01*
X101291020Y-87093004D01*
X101291022Y-87093004D01*
X101427583Y-87064724D01*
X101568342Y-87035574D01*
X101839343Y-86939607D01*
X102094812Y-86807750D01*
X102098313Y-86805289D01*
X102098317Y-86805287D01*
X102212418Y-86725095D01*
X102330023Y-86642441D01*
X102540622Y-86446740D01*
X102722713Y-86224268D01*
X102872927Y-85979142D01*
X102988483Y-85715898D01*
X103067244Y-85439406D01*
X103107751Y-85154784D01*
X103107845Y-85136951D01*
X103109235Y-84871583D01*
X103109235Y-84871576D01*
X103109257Y-84867297D01*
X103071732Y-84582266D01*
X102995871Y-84304964D01*
X102883077Y-84040524D01*
X102735439Y-83793839D01*
X102555687Y-83569472D01*
X102347149Y-83371577D01*
X102113683Y-83203814D01*
X102091843Y-83192250D01*
X102068654Y-83179972D01*
X101859608Y-83069288D01*
X101589627Y-82970489D01*
X101308736Y-82909245D01*
X101277685Y-82906801D01*
X101085718Y-82891693D01*
X101085709Y-82891693D01*
X101083261Y-82891500D01*
X100927729Y-82891500D01*
X100925593Y-82891646D01*
X100925582Y-82891646D01*
X100717452Y-82905835D01*
X100717446Y-82905836D01*
X100713175Y-82906127D01*
X100708980Y-82906996D01*
X100708978Y-82906996D01*
X100572416Y-82935277D01*
X100431658Y-82964426D01*
X100160657Y-83060393D01*
X99905188Y-83192250D01*
X99901687Y-83194711D01*
X99901683Y-83194713D01*
X99891594Y-83201804D01*
X99669977Y-83357559D01*
X99459378Y-83553260D01*
X99277287Y-83775732D01*
X99127073Y-84020858D01*
X99011517Y-84284102D01*
X98932756Y-84560594D01*
X98892249Y-84845216D01*
X98892227Y-84849505D01*
X98892226Y-84849512D01*
X98890765Y-85128417D01*
X98890743Y-85132703D01*
X97508000Y-85132703D01*
X97508000Y-81634000D01*
X97528002Y-81565879D01*
X97581658Y-81519386D01*
X97634000Y-81508000D01*
X104366000Y-81508000D01*
X104434121Y-81528002D01*
G37*
%TD.AperFunction*%
%TA.AperFunction,NonConductor*%
G36*
X101706215Y-92778502D02*
G01*
X101752708Y-92832158D01*
X101762812Y-92902432D01*
X101733318Y-92967012D01*
X101676926Y-93004367D01*
X101663400Y-93008749D01*
X101642101Y-93015649D01*
X101635845Y-93019445D01*
X101630372Y-93021951D01*
X101624942Y-93024670D01*
X101618063Y-93027167D01*
X101611943Y-93031180D01*
X101611942Y-93031180D01*
X101557024Y-93067186D01*
X101553320Y-93069523D01*
X101490893Y-93107405D01*
X101482516Y-93114803D01*
X101482492Y-93114776D01*
X101479500Y-93117429D01*
X101476267Y-93120132D01*
X101470148Y-93124144D01*
X101465116Y-93129456D01*
X101416872Y-93180383D01*
X101414494Y-93182825D01*
X100342724Y-94254595D01*
X100280412Y-94288621D01*
X100253629Y-94291500D01*
X100085371Y-94291500D01*
X100017250Y-94271498D01*
X99970757Y-94217842D01*
X99960653Y-94147568D01*
X99990147Y-94082988D01*
X99996276Y-94076405D01*
X101277276Y-92795405D01*
X101339588Y-92761379D01*
X101366371Y-92758500D01*
X101638094Y-92758500D01*
X101706215Y-92778502D01*
G37*
%TD.AperFunction*%
%TA.AperFunction,NonConductor*%
G36*
X99210065Y-97018216D02*
G01*
X99253295Y-97050615D01*
X99261704Y-97053767D01*
X99261705Y-97053768D01*
X99321164Y-97076058D01*
X99377929Y-97118699D01*
X99402629Y-97185261D01*
X99387422Y-97254609D01*
X99368029Y-97281091D01*
X99301639Y-97350564D01*
X99298725Y-97354836D01*
X99298724Y-97354837D01*
X99238588Y-97442993D01*
X99183677Y-97487996D01*
X99113152Y-97496167D01*
X99049405Y-97464913D01*
X99012675Y-97404156D01*
X99008500Y-97371989D01*
X99008500Y-97119042D01*
X99028502Y-97050921D01*
X99082158Y-97004428D01*
X99152432Y-96994324D01*
X99210065Y-97018216D01*
G37*
%TD.AperFunction*%
%TA.AperFunction,NonConductor*%
G36*
X108909532Y-98225949D02*
G01*
X108966368Y-98268496D01*
X108991179Y-98335016D01*
X108991500Y-98344005D01*
X108991500Y-98433629D01*
X108971498Y-98501750D01*
X108954595Y-98522724D01*
X108820303Y-98657016D01*
X108757991Y-98691042D01*
X108687176Y-98685977D01*
X108630340Y-98643430D01*
X108605529Y-98576910D01*
X108605208Y-98567921D01*
X108605208Y-98478297D01*
X108625210Y-98410176D01*
X108642113Y-98389202D01*
X108776405Y-98254910D01*
X108838717Y-98220884D01*
X108909532Y-98225949D01*
G37*
%TD.AperFunction*%
%TA.AperFunction,NonConductor*%
G36*
X105697457Y-94488502D02*
G01*
X105718689Y-94506903D01*
X105719170Y-94506412D01*
X105722864Y-94510029D01*
X105726250Y-94513938D01*
X105898126Y-94656632D01*
X105968595Y-94697811D01*
X105971445Y-94699476D01*
X106020169Y-94751114D01*
X106033240Y-94820897D01*
X106006509Y-94886669D01*
X105966055Y-94920027D01*
X105953607Y-94926507D01*
X105949474Y-94929610D01*
X105949471Y-94929612D01*
X105779100Y-95057530D01*
X105774965Y-95060635D01*
X105620629Y-95222138D01*
X105617715Y-95226410D01*
X105617714Y-95226411D01*
X105555269Y-95317952D01*
X105494743Y-95406680D01*
X105400688Y-95609305D01*
X105340989Y-95824570D01*
X105317251Y-96046695D01*
X105317548Y-96051848D01*
X105317548Y-96051851D01*
X105323011Y-96146590D01*
X105330110Y-96269715D01*
X105331247Y-96274761D01*
X105331248Y-96274767D01*
X105337812Y-96303891D01*
X105379222Y-96487639D01*
X105463266Y-96694616D01*
X105465965Y-96699020D01*
X105560870Y-96853891D01*
X105579987Y-96885088D01*
X105726250Y-97053938D01*
X105873610Y-97176279D01*
X105884430Y-97185261D01*
X105898126Y-97196632D01*
X105918073Y-97208288D01*
X105971445Y-97239476D01*
X106020169Y-97291114D01*
X106033240Y-97360897D01*
X106006509Y-97426669D01*
X105966055Y-97460027D01*
X105953607Y-97466507D01*
X105949474Y-97469610D01*
X105949471Y-97469612D01*
X105782847Y-97594717D01*
X105774965Y-97600635D01*
X105620629Y-97762138D01*
X105617715Y-97766410D01*
X105617714Y-97766411D01*
X105598949Y-97793919D01*
X105494743Y-97946680D01*
X105465023Y-98010706D01*
X105404301Y-98141522D01*
X105400688Y-98149305D01*
X105340989Y-98364570D01*
X105317251Y-98586695D01*
X105317548Y-98591848D01*
X105317548Y-98591851D01*
X105326197Y-98741852D01*
X105330110Y-98809715D01*
X105331247Y-98814761D01*
X105331248Y-98814767D01*
X105344172Y-98872111D01*
X105379222Y-99027639D01*
X105381165Y-99032425D01*
X105381167Y-99032430D01*
X105415952Y-99118097D01*
X105423048Y-99188738D01*
X105390825Y-99252001D01*
X105329516Y-99287801D01*
X105299209Y-99291500D01*
X101624637Y-99291500D01*
X101556516Y-99271498D01*
X101510023Y-99217842D01*
X101499919Y-99147568D01*
X101522314Y-99091974D01*
X101555313Y-99046051D01*
X101611458Y-98967917D01*
X101676670Y-98835971D01*
X101711784Y-98764922D01*
X101711785Y-98764920D01*
X101714078Y-98760280D01*
X101781408Y-98538671D01*
X101811640Y-98309041D01*
X101813327Y-98240000D01*
X101806018Y-98151100D01*
X101794773Y-98014318D01*
X101794772Y-98014312D01*
X101794349Y-98009167D01*
X101754369Y-97850000D01*
X101739184Y-97789544D01*
X101739183Y-97789540D01*
X101737925Y-97784533D01*
X101735866Y-97779797D01*
X101647630Y-97576868D01*
X101647628Y-97576865D01*
X101645570Y-97572131D01*
X101519764Y-97377665D01*
X101516282Y-97373838D01*
X101429848Y-97278848D01*
X101398796Y-97215002D01*
X101407192Y-97144504D01*
X101452369Y-97089736D01*
X101478812Y-97076067D01*
X101538297Y-97053767D01*
X101546705Y-97050615D01*
X101663261Y-96963261D01*
X101750615Y-96846705D01*
X101801745Y-96710316D01*
X101808500Y-96648134D01*
X101808500Y-94986371D01*
X101828502Y-94918250D01*
X101845405Y-94897276D01*
X102237276Y-94505405D01*
X102299588Y-94471379D01*
X102326371Y-94468500D01*
X105629336Y-94468500D01*
X105697457Y-94488502D01*
G37*
%TD.AperFunction*%
%TA.AperFunction,NonConductor*%
G36*
X99217012Y-99016662D02*
G01*
X99241932Y-99046051D01*
X99256798Y-99070309D01*
X99256801Y-99070314D01*
X99259501Y-99074719D01*
X99411147Y-99249784D01*
X99566251Y-99378553D01*
X99605885Y-99437454D01*
X99607383Y-99508435D01*
X99574860Y-99564591D01*
X99351583Y-99787868D01*
X99291902Y-99821292D01*
X99258602Y-99829286D01*
X99258598Y-99829287D01*
X99251223Y-99831058D01*
X99244481Y-99834538D01*
X99244475Y-99834540D01*
X99192289Y-99861475D01*
X99122582Y-99874944D01*
X99056658Y-99848588D01*
X99015449Y-99790775D01*
X99008500Y-99749509D01*
X99008500Y-99111886D01*
X99028502Y-99043765D01*
X99082158Y-98997272D01*
X99152432Y-98987168D01*
X99217012Y-99016662D01*
G37*
%TD.AperFunction*%
%TA.AperFunction,NonConductor*%
G36*
X125548594Y-99228502D02*
G01*
X125595087Y-99282158D01*
X125605191Y-99352432D01*
X125574342Y-99418315D01*
X125569615Y-99422439D01*
X125471010Y-99562739D01*
X125455755Y-99601866D01*
X125413067Y-99711355D01*
X125408718Y-99722509D01*
X125407726Y-99730042D01*
X125407726Y-99730043D01*
X125388650Y-99874944D01*
X125386335Y-99892526D01*
X125387531Y-99903357D01*
X125399262Y-100009612D01*
X125405153Y-100062975D01*
X125407762Y-100070106D01*
X125407763Y-100070108D01*
X125415039Y-100089990D01*
X125464085Y-100224015D01*
X125468322Y-100230321D01*
X125468324Y-100230324D01*
X125486994Y-100258107D01*
X125559730Y-100366349D01*
X125623148Y-100424055D01*
X125669218Y-100465975D01*
X125686565Y-100481760D01*
X125837268Y-100563585D01*
X126003139Y-100607101D01*
X126090586Y-100608474D01*
X126167003Y-100609675D01*
X126167006Y-100609675D01*
X126174602Y-100609794D01*
X126182006Y-100608098D01*
X126182008Y-100608098D01*
X126334360Y-100573205D01*
X126334363Y-100573204D01*
X126341759Y-100571510D01*
X126342029Y-100572689D01*
X126405414Y-100568888D01*
X126467331Y-100603627D01*
X126498178Y-100659604D01*
X126498255Y-100660316D01*
X126501028Y-100667713D01*
X126538565Y-100767842D01*
X126547174Y-100790806D01*
X126549385Y-100796705D01*
X126548534Y-100797024D01*
X126562055Y-100858849D01*
X126549042Y-100903166D01*
X126549385Y-100903295D01*
X126548341Y-100906081D01*
X126546236Y-100911696D01*
X126546234Y-100911699D01*
X126521620Y-100977358D01*
X126498255Y-101039684D01*
X126491500Y-101101866D01*
X126491500Y-102098134D01*
X126498255Y-102160316D01*
X126549385Y-102296705D01*
X126636739Y-102413261D01*
X126753295Y-102500615D01*
X126889684Y-102551745D01*
X126951866Y-102558500D01*
X127926761Y-102558500D01*
X127994882Y-102578502D01*
X128041375Y-102632158D01*
X128051479Y-102702432D01*
X128021985Y-102767012D01*
X128015856Y-102773595D01*
X126603766Y-104185685D01*
X126591375Y-104196552D01*
X126566013Y-104216013D01*
X126541526Y-104247925D01*
X126541523Y-104247928D01*
X126468476Y-104343124D01*
X126408195Y-104488656D01*
X126407162Y-104491150D01*
X126391500Y-104610115D01*
X126391500Y-104610120D01*
X126386250Y-104650000D01*
X126387328Y-104658188D01*
X126390422Y-104681690D01*
X126391500Y-104698136D01*
X126391500Y-105390500D01*
X126371498Y-105458621D01*
X126317842Y-105505114D01*
X126265500Y-105516500D01*
X126241739Y-105516500D01*
X126173618Y-105496498D01*
X126152644Y-105479595D01*
X120096644Y-99423595D01*
X120062618Y-99361283D01*
X120067683Y-99290468D01*
X120110230Y-99233632D01*
X120176750Y-99208821D01*
X120185739Y-99208500D01*
X125480473Y-99208500D01*
X125548594Y-99228502D01*
G37*
%TD.AperFunction*%
%TA.AperFunction,NonConductor*%
G36*
X107495149Y-105819566D02*
G01*
X107551985Y-105862113D01*
X107576796Y-105928633D01*
X107574477Y-105963280D01*
X107542816Y-106115500D01*
X107539360Y-106132114D01*
X107538625Y-106131961D01*
X107514717Y-106192772D01*
X107457142Y-106234312D01*
X107415193Y-106241500D01*
X107273239Y-106241500D01*
X107205118Y-106221498D01*
X107158625Y-106167842D01*
X107148521Y-106097568D01*
X107178015Y-106032988D01*
X107184144Y-106026405D01*
X107362022Y-105848527D01*
X107424334Y-105814501D01*
X107495149Y-105819566D01*
G37*
%TD.AperFunction*%
%TA.AperFunction,NonConductor*%
G36*
X132194882Y-107128502D02*
G01*
X132241375Y-107182158D01*
X132251479Y-107252432D01*
X132221985Y-107317012D01*
X132215861Y-107323590D01*
X131934855Y-107604596D01*
X131872543Y-107638621D01*
X131845760Y-107641500D01*
X128813736Y-107641500D01*
X128745615Y-107621498D01*
X128706593Y-107581804D01*
X128680071Y-107538945D01*
X128674889Y-107533772D01*
X128674885Y-107533767D01*
X128605196Y-107464200D01*
X128571116Y-107401918D01*
X128576119Y-107331098D01*
X128605040Y-107286009D01*
X128675693Y-107215233D01*
X128680864Y-107210053D01*
X128706549Y-107168384D01*
X128759321Y-107120891D01*
X128813809Y-107108500D01*
X132126761Y-107108500D01*
X132194882Y-107128502D01*
G37*
%TD.AperFunction*%
%TA.AperFunction,NonConductor*%
G36*
X131244882Y-108878502D02*
G01*
X131291375Y-108932158D01*
X131301479Y-109002432D01*
X131271985Y-109067012D01*
X131265856Y-109073595D01*
X130984856Y-109354595D01*
X130922544Y-109388621D01*
X130895761Y-109391500D01*
X128813736Y-109391500D01*
X128745615Y-109371498D01*
X128706593Y-109331804D01*
X128680071Y-109288945D01*
X128674889Y-109283772D01*
X128674885Y-109283767D01*
X128605196Y-109214200D01*
X128571116Y-109151918D01*
X128576119Y-109081098D01*
X128605040Y-109036009D01*
X128675693Y-108965233D01*
X128680864Y-108960053D01*
X128706549Y-108918384D01*
X128759321Y-108870891D01*
X128813809Y-108858500D01*
X131176761Y-108858500D01*
X131244882Y-108878502D01*
G37*
%TD.AperFunction*%
%TA.AperFunction,NonConductor*%
G36*
X129956651Y-110628502D02*
G01*
X130003144Y-110682158D01*
X130013248Y-110752432D01*
X129983754Y-110817012D01*
X129977625Y-110823595D01*
X129696625Y-111104595D01*
X129634313Y-111138621D01*
X129607530Y-111141500D01*
X128813736Y-111141500D01*
X128745615Y-111121498D01*
X128706593Y-111081804D01*
X128680071Y-111038945D01*
X128674889Y-111033772D01*
X128674885Y-111033767D01*
X128605196Y-110964200D01*
X128571116Y-110901918D01*
X128576119Y-110831098D01*
X128605040Y-110786009D01*
X128675693Y-110715233D01*
X128680864Y-110710053D01*
X128706549Y-110668384D01*
X128759321Y-110620891D01*
X128813809Y-110608500D01*
X129888530Y-110608500D01*
X129956651Y-110628502D01*
G37*
%TD.AperFunction*%
%TA.AperFunction,NonConductor*%
G36*
X141434121Y-81528002D02*
G01*
X141480614Y-81581658D01*
X141492000Y-81634000D01*
X141492000Y-91902800D01*
X141471998Y-91970921D01*
X141418342Y-92017414D01*
X141348068Y-92027518D01*
X141285011Y-91999322D01*
X141272526Y-91988846D01*
X141267128Y-91985879D01*
X141267123Y-91985875D01*
X141121190Y-91905649D01*
X141099213Y-91893567D01*
X141093346Y-91891706D01*
X141093344Y-91891705D01*
X140916564Y-91835627D01*
X140916563Y-91835627D01*
X140910694Y-91833765D01*
X140756773Y-91816500D01*
X139750231Y-91816500D01*
X139747175Y-91816800D01*
X139747168Y-91816800D01*
X139689661Y-91822439D01*
X139603167Y-91830920D01*
X139597266Y-91832702D01*
X139597264Y-91832702D01*
X139539971Y-91850000D01*
X139413831Y-91888084D01*
X139239204Y-91980934D01*
X139191264Y-92020033D01*
X139090713Y-92102040D01*
X139090710Y-92102043D01*
X139085938Y-92105935D01*
X139082011Y-92110682D01*
X139082009Y-92110684D01*
X138963799Y-92253575D01*
X138963797Y-92253579D01*
X138959870Y-92258325D01*
X138865802Y-92432299D01*
X138807318Y-92621232D01*
X138806674Y-92627357D01*
X138806674Y-92627358D01*
X138787734Y-92807568D01*
X138786645Y-92817925D01*
X138792454Y-92881760D01*
X138803613Y-93004367D01*
X138804570Y-93014888D01*
X138806308Y-93020794D01*
X138806309Y-93020798D01*
X138828429Y-93095954D01*
X138860410Y-93204619D01*
X138952040Y-93379890D01*
X139075968Y-93534025D01*
X139080692Y-93537989D01*
X139092136Y-93547592D01*
X139227474Y-93661154D01*
X139232872Y-93664121D01*
X139232877Y-93664125D01*
X139352187Y-93729715D01*
X139400787Y-93756433D01*
X139406654Y-93758294D01*
X139406656Y-93758295D01*
X139583436Y-93814373D01*
X139589306Y-93816235D01*
X139743227Y-93833500D01*
X140749769Y-93833500D01*
X140752825Y-93833200D01*
X140752832Y-93833200D01*
X140811340Y-93827463D01*
X140896833Y-93819080D01*
X140902734Y-93817298D01*
X140902736Y-93817298D01*
X140976053Y-93795162D01*
X141086169Y-93761916D01*
X141260796Y-93669066D01*
X141286365Y-93648213D01*
X141351795Y-93620659D01*
X141421737Y-93632854D01*
X141473982Y-93680926D01*
X141492000Y-93745856D01*
X141492000Y-100252800D01*
X141471998Y-100320921D01*
X141418342Y-100367414D01*
X141348068Y-100377518D01*
X141285011Y-100349322D01*
X141272526Y-100338846D01*
X141267128Y-100335879D01*
X141267123Y-100335875D01*
X141104608Y-100246533D01*
X141104609Y-100246533D01*
X141099213Y-100243567D01*
X141093346Y-100241706D01*
X141093344Y-100241705D01*
X140916564Y-100185627D01*
X140916563Y-100185627D01*
X140910694Y-100183765D01*
X140756773Y-100166500D01*
X139750231Y-100166500D01*
X139747175Y-100166800D01*
X139747168Y-100166800D01*
X139688660Y-100172537D01*
X139603167Y-100180920D01*
X139597266Y-100182702D01*
X139597264Y-100182702D01*
X139583284Y-100186923D01*
X139413831Y-100238084D01*
X139239204Y-100330934D01*
X139190839Y-100370380D01*
X139090713Y-100452040D01*
X139090710Y-100452043D01*
X139085938Y-100455935D01*
X139082011Y-100460682D01*
X139082009Y-100460684D01*
X138963799Y-100603575D01*
X138963797Y-100603579D01*
X138959870Y-100608325D01*
X138865802Y-100782299D01*
X138807318Y-100971232D01*
X138806674Y-100977357D01*
X138806674Y-100977358D01*
X138806526Y-100978772D01*
X138786645Y-101167925D01*
X138804570Y-101364888D01*
X138860410Y-101554619D01*
X138863263Y-101560077D01*
X138863265Y-101560081D01*
X138888416Y-101608189D01*
X138952040Y-101729890D01*
X139075968Y-101884025D01*
X139227474Y-102011154D01*
X139232872Y-102014121D01*
X139232877Y-102014125D01*
X139376180Y-102092905D01*
X139400787Y-102106433D01*
X139406654Y-102108294D01*
X139406656Y-102108295D01*
X139583436Y-102164373D01*
X139589306Y-102166235D01*
X139743227Y-102183500D01*
X140749769Y-102183500D01*
X140752825Y-102183200D01*
X140752832Y-102183200D01*
X140811340Y-102177463D01*
X140896833Y-102169080D01*
X140902734Y-102167298D01*
X140902736Y-102167298D01*
X141002292Y-102137240D01*
X141086169Y-102111916D01*
X141260796Y-102019066D01*
X141286365Y-101998213D01*
X141351795Y-101970659D01*
X141421737Y-101982854D01*
X141473982Y-102030926D01*
X141492000Y-102095856D01*
X141492000Y-112366000D01*
X141471998Y-112434121D01*
X141418342Y-112480614D01*
X141366000Y-112492000D01*
X130315531Y-112492000D01*
X130247410Y-112471998D01*
X130200917Y-112418342D01*
X130190813Y-112348068D01*
X130220307Y-112283488D01*
X130238823Y-112266040D01*
X130313841Y-112208477D01*
X130313844Y-112208474D01*
X130345756Y-112183987D01*
X130362227Y-112162522D01*
X130365221Y-112158621D01*
X130376088Y-112146230D01*
X133389615Y-109132703D01*
X135890743Y-109132703D01*
X135891302Y-109136947D01*
X135891302Y-109136951D01*
X135893650Y-109154784D01*
X135928268Y-109417734D01*
X136004129Y-109695036D01*
X136116923Y-109959476D01*
X136264561Y-110206161D01*
X136444313Y-110430528D01*
X136461397Y-110446740D01*
X136631857Y-110608500D01*
X136652851Y-110628423D01*
X136886317Y-110796186D01*
X136890112Y-110798195D01*
X136890113Y-110798196D01*
X136911869Y-110809715D01*
X137140392Y-110930712D01*
X137410373Y-111029511D01*
X137691264Y-111090755D01*
X137719841Y-111093004D01*
X137914282Y-111108307D01*
X137914291Y-111108307D01*
X137916739Y-111108500D01*
X138072271Y-111108500D01*
X138074407Y-111108354D01*
X138074418Y-111108354D01*
X138282548Y-111094165D01*
X138282554Y-111094164D01*
X138286825Y-111093873D01*
X138291020Y-111093004D01*
X138291022Y-111093004D01*
X138427584Y-111064723D01*
X138568342Y-111035574D01*
X138839343Y-110939607D01*
X139094812Y-110807750D01*
X139098313Y-110805289D01*
X139098317Y-110805287D01*
X139273511Y-110682158D01*
X139330023Y-110642441D01*
X139540622Y-110446740D01*
X139722713Y-110224268D01*
X139872927Y-109979142D01*
X139988483Y-109715898D01*
X139998543Y-109680584D01*
X140066068Y-109443534D01*
X140067244Y-109439406D01*
X140099295Y-109214200D01*
X140107146Y-109159036D01*
X140107146Y-109159034D01*
X140107751Y-109154784D01*
X140107845Y-109136951D01*
X140109235Y-108871583D01*
X140109235Y-108871576D01*
X140109257Y-108867297D01*
X140071732Y-108582266D01*
X139995871Y-108304964D01*
X139899276Y-108078502D01*
X139884763Y-108044476D01*
X139884761Y-108044472D01*
X139883077Y-108040524D01*
X139806912Y-107913261D01*
X139737643Y-107797521D01*
X139737640Y-107797517D01*
X139735439Y-107793839D01*
X139555687Y-107569472D01*
X139347149Y-107371577D01*
X139129574Y-107215233D01*
X139117172Y-107206321D01*
X139117171Y-107206320D01*
X139113683Y-107203814D01*
X139091843Y-107192250D01*
X139046767Y-107168384D01*
X138859608Y-107069288D01*
X138589627Y-106970489D01*
X138308736Y-106909245D01*
X138277685Y-106906801D01*
X138085718Y-106891693D01*
X138085709Y-106891693D01*
X138083261Y-106891500D01*
X137927729Y-106891500D01*
X137925593Y-106891646D01*
X137925582Y-106891646D01*
X137717452Y-106905835D01*
X137717446Y-106905836D01*
X137713175Y-106906127D01*
X137708980Y-106906996D01*
X137708978Y-106906996D01*
X137572417Y-106935276D01*
X137431658Y-106964426D01*
X137160657Y-107060393D01*
X136905188Y-107192250D01*
X136901687Y-107194711D01*
X136901683Y-107194713D01*
X136872486Y-107215233D01*
X136669977Y-107357559D01*
X136654892Y-107371577D01*
X136468083Y-107545171D01*
X136459378Y-107553260D01*
X136277287Y-107775732D01*
X136127073Y-108020858D01*
X136125347Y-108024791D01*
X136125346Y-108024792D01*
X136113140Y-108052598D01*
X136011517Y-108284102D01*
X135932756Y-108560594D01*
X135892249Y-108845216D01*
X135892227Y-108849505D01*
X135892226Y-108849512D01*
X135891013Y-109081098D01*
X135890743Y-109132703D01*
X133389615Y-109132703D01*
X135822754Y-106699564D01*
X135835145Y-106688697D01*
X135853957Y-106674262D01*
X135860507Y-106669236D01*
X135884994Y-106637324D01*
X135884998Y-106637320D01*
X135958044Y-106542125D01*
X136019358Y-106394100D01*
X136040271Y-106235249D01*
X136036098Y-106203550D01*
X136035020Y-106187105D01*
X136035020Y-99836073D01*
X136055022Y-99767952D01*
X136108678Y-99721459D01*
X136178952Y-99711355D01*
X136243532Y-99740849D01*
X136272681Y-99777697D01*
X136278162Y-99788181D01*
X136278165Y-99788185D01*
X136281019Y-99793645D01*
X136284879Y-99798445D01*
X136284879Y-99798446D01*
X136290729Y-99805722D01*
X136408019Y-99951601D01*
X136563281Y-100081881D01*
X136568673Y-100084845D01*
X136568677Y-100084848D01*
X136664506Y-100137530D01*
X136740891Y-100179523D01*
X136934084Y-100240807D01*
X136940201Y-100241493D01*
X136940205Y-100241494D01*
X137014348Y-100249810D01*
X137091817Y-100258500D01*
X137401004Y-100258500D01*
X137551713Y-100243723D01*
X137745742Y-100185142D01*
X137924698Y-100089990D01*
X137957822Y-100062975D01*
X138023250Y-100009612D01*
X138081763Y-99961890D01*
X138153691Y-99874944D01*
X138207027Y-99810472D01*
X138207029Y-99810469D01*
X138210956Y-99805722D01*
X138307356Y-99627435D01*
X138367290Y-99433820D01*
X138381702Y-99296705D01*
X138387832Y-99238378D01*
X138387832Y-99238377D01*
X138388476Y-99232250D01*
X138375959Y-99094717D01*
X138370665Y-99036543D01*
X138370664Y-99036540D01*
X138370106Y-99030404D01*
X138366062Y-99016662D01*
X138314620Y-98841880D01*
X138312881Y-98835971D01*
X138218981Y-98656355D01*
X138091981Y-98498399D01*
X137936719Y-98368119D01*
X137931327Y-98365155D01*
X137931323Y-98365152D01*
X137764506Y-98273444D01*
X137759109Y-98270477D01*
X137565916Y-98209193D01*
X137559799Y-98208507D01*
X137559795Y-98208506D01*
X137485652Y-98200190D01*
X137408183Y-98191500D01*
X137098996Y-98191500D01*
X136948287Y-98206277D01*
X136754258Y-98264858D01*
X136575302Y-98360010D01*
X136418237Y-98488110D01*
X136414310Y-98492857D01*
X136414308Y-98492859D01*
X136292973Y-98639528D01*
X136292971Y-98639531D01*
X136289044Y-98644278D01*
X136286111Y-98649703D01*
X136286108Y-98649707D01*
X136271855Y-98676066D01*
X136221860Y-98726475D01*
X136152549Y-98741852D01*
X136085927Y-98717315D01*
X136043147Y-98660655D01*
X136035020Y-98616137D01*
X136035020Y-95386073D01*
X136055022Y-95317952D01*
X136108678Y-95271459D01*
X136178952Y-95261355D01*
X136243532Y-95290849D01*
X136272681Y-95327697D01*
X136278162Y-95338181D01*
X136278165Y-95338185D01*
X136281019Y-95343645D01*
X136284879Y-95348445D01*
X136284879Y-95348446D01*
X136290729Y-95355722D01*
X136408019Y-95501601D01*
X136563281Y-95631881D01*
X136568673Y-95634845D01*
X136568677Y-95634848D01*
X136735494Y-95726556D01*
X136740891Y-95729523D01*
X136934084Y-95790807D01*
X136940201Y-95791493D01*
X136940205Y-95791494D01*
X137014348Y-95799810D01*
X137091817Y-95808500D01*
X137401004Y-95808500D01*
X137551713Y-95793723D01*
X137745742Y-95735142D01*
X137924698Y-95639990D01*
X138081763Y-95511890D01*
X138094246Y-95496801D01*
X138207027Y-95360472D01*
X138207029Y-95360469D01*
X138210956Y-95355722D01*
X138307356Y-95177435D01*
X138367290Y-94983820D01*
X138371413Y-94944598D01*
X138387832Y-94788378D01*
X138387832Y-94788377D01*
X138388476Y-94782250D01*
X138370106Y-94580404D01*
X138348474Y-94506903D01*
X138322688Y-94419292D01*
X138312881Y-94385971D01*
X138218981Y-94206355D01*
X138091981Y-94048399D01*
X137936719Y-93918119D01*
X137931327Y-93915155D01*
X137931323Y-93915152D01*
X137764506Y-93823444D01*
X137759109Y-93820477D01*
X137565916Y-93759193D01*
X137559799Y-93758507D01*
X137559795Y-93758506D01*
X137485652Y-93750190D01*
X137408183Y-93741500D01*
X137098996Y-93741500D01*
X136948287Y-93756277D01*
X136754258Y-93814858D01*
X136575302Y-93910010D01*
X136418237Y-94038110D01*
X136414310Y-94042857D01*
X136414308Y-94042859D01*
X136292973Y-94189528D01*
X136292971Y-94189531D01*
X136289044Y-94194278D01*
X136286111Y-94199703D01*
X136286108Y-94199707D01*
X136271855Y-94226066D01*
X136221860Y-94276475D01*
X136152549Y-94291852D01*
X136085927Y-94267315D01*
X136043147Y-94210655D01*
X136035020Y-94166137D01*
X136035020Y-90974664D01*
X136036098Y-90958218D01*
X136039193Y-90934708D01*
X136040271Y-90926520D01*
X136022175Y-90789067D01*
X136020436Y-90775857D01*
X136019358Y-90767669D01*
X135958044Y-90619644D01*
X135884998Y-90524449D01*
X135884994Y-90524445D01*
X135877531Y-90514719D01*
X135865536Y-90499086D01*
X135865533Y-90499083D01*
X135860507Y-90492533D01*
X135853952Y-90487503D01*
X135835141Y-90473068D01*
X135822750Y-90462201D01*
X134213983Y-88853434D01*
X134185212Y-88808877D01*
X134135171Y-88676447D01*
X134132487Y-88669344D01*
X134128186Y-88663086D01*
X134039659Y-88534278D01*
X134039658Y-88534276D01*
X134035357Y-88528019D01*
X133995007Y-88492068D01*
X133912993Y-88418996D01*
X133912990Y-88418994D01*
X133907321Y-88413943D01*
X133755769Y-88333700D01*
X133603305Y-88295404D01*
X133542109Y-88259409D01*
X133510088Y-88196044D01*
X133508000Y-88173200D01*
X133508000Y-85132703D01*
X135890743Y-85132703D01*
X135928268Y-85417734D01*
X136004129Y-85695036D01*
X136116923Y-85959476D01*
X136264561Y-86206161D01*
X136444313Y-86430528D01*
X136652851Y-86628423D01*
X136886317Y-86796186D01*
X136890112Y-86798195D01*
X136890113Y-86798196D01*
X136911869Y-86809715D01*
X137140392Y-86930712D01*
X137410373Y-87029511D01*
X137691264Y-87090755D01*
X137719841Y-87093004D01*
X137914282Y-87108307D01*
X137914291Y-87108307D01*
X137916739Y-87108500D01*
X138072271Y-87108500D01*
X138074407Y-87108354D01*
X138074418Y-87108354D01*
X138282548Y-87094165D01*
X138282554Y-87094164D01*
X138286825Y-87093873D01*
X138291020Y-87093004D01*
X138291022Y-87093004D01*
X138427583Y-87064724D01*
X138568342Y-87035574D01*
X138839343Y-86939607D01*
X139094812Y-86807750D01*
X139098313Y-86805289D01*
X139098317Y-86805287D01*
X139212418Y-86725095D01*
X139330023Y-86642441D01*
X139540622Y-86446740D01*
X139722713Y-86224268D01*
X139872927Y-85979142D01*
X139988483Y-85715898D01*
X140067244Y-85439406D01*
X140107751Y-85154784D01*
X140107845Y-85136951D01*
X140109235Y-84871583D01*
X140109235Y-84871576D01*
X140109257Y-84867297D01*
X140071732Y-84582266D01*
X139995871Y-84304964D01*
X139883077Y-84040524D01*
X139735439Y-83793839D01*
X139555687Y-83569472D01*
X139347149Y-83371577D01*
X139113683Y-83203814D01*
X139091843Y-83192250D01*
X139068654Y-83179972D01*
X138859608Y-83069288D01*
X138589627Y-82970489D01*
X138308736Y-82909245D01*
X138277685Y-82906801D01*
X138085718Y-82891693D01*
X138085709Y-82891693D01*
X138083261Y-82891500D01*
X137927729Y-82891500D01*
X137925593Y-82891646D01*
X137925582Y-82891646D01*
X137717452Y-82905835D01*
X137717446Y-82905836D01*
X137713175Y-82906127D01*
X137708980Y-82906996D01*
X137708978Y-82906996D01*
X137572416Y-82935277D01*
X137431658Y-82964426D01*
X137160657Y-83060393D01*
X136905188Y-83192250D01*
X136901687Y-83194711D01*
X136901683Y-83194713D01*
X136891594Y-83201804D01*
X136669977Y-83357559D01*
X136459378Y-83553260D01*
X136277287Y-83775732D01*
X136127073Y-84020858D01*
X136011517Y-84284102D01*
X135932756Y-84560594D01*
X135892249Y-84845216D01*
X135892227Y-84849505D01*
X135892226Y-84849512D01*
X135890765Y-85128417D01*
X135890743Y-85132703D01*
X133508000Y-85132703D01*
X133508000Y-81634000D01*
X133528002Y-81565879D01*
X133581658Y-81519386D01*
X133634000Y-81508000D01*
X141366000Y-81508000D01*
X141434121Y-81528002D01*
G37*
%TD.AperFunction*%
M02*
